<svg xmlns="http://www.w3.org/2000/svg" viewBox="0 0 512 512"><path d="M436.565 198.761l12.952-28.063s9.174-5.397 10.793-4.317c1.619 1.079 4.317 5.397 8.635 12.952 4.317 7.555 7.555 37.777 9.714 59.364 2.159 21.587-1.079 43.713-8.635 47.491-7.555 3.778-15.111-20.508-15.111-20.508l-18.348-66.919z" fill="#3e3a39"/><path d="M75.525 61.145c1.619-10.793-1.079-18.888-4.317-23.206s-4.317-13.492 6.476-18.349c10.794-4.857 9.174-9.174 15.65-13.492 6.476-4.317 15.111-5.936 23.206 0 8.095 5.936 9.714 18.349 4.857 26.984-4.857 8.635 4.317 9.174 7.016 12.952 2.698 3.778 3.778 11.873-3.778 15.65-7.555 3.778-12.952 7.555-14.571 12.412-1.619 4.857-.952 14.844-7.555 17.809-6.604 2.965-15.721 5.64-16.73 9.714-1.009 4.074-1.079 19.968-4.317 25.365-3.238 5.397-8.095 12.412-8.095 12.412l-9.714 35.079s-7.555 25.365-9.174 33.46c-1.619 8.095-11.873 35.618-16.73 42.634-4.857 7.016-12.952 34.539-15.111 38.317-2.159 3.778-5.936 10.254-11.333 9.714-5.397-.54 3.238-18.349 2.698-23.206-.54-4.857 22.666-56.665 24.285-60.443 1.619-3.778 8.163-30.946 8.163-30.946s11.805-44.069 12.344-45.688c.54-1.619 3.778-26.983 4.317-31.301.54-4.317 9.174-18.349 9.714-24.285.541-5.935 2.699-21.586 2.699-21.586z" fill="#ceaa82"/><path d="M492.691 135.08c4.317-9.714 5.397-26.984-2.698-13.492 4.317-16.73 2.698-22.127-2.159-10.794-3.778 14.032-14.632 18.429-23.746 16.19-9.114-2.238-5.397-20.508-10.794-16.19-5.397 4.317-5.397 14.571-3.238 23.746 2.159 9.174-5.396 15.65-7.016 20.507-1.619 4.857-16.19 18.349-31.301 31.301-19.269 16.517-54.244 32.727-53.427 30.221 0 0-3.778-12.412-11.333-25.904-7.556-13.492-27.523-31.301-37.237-35.078-9.714-3.778-12.413-6.476-15.65-12.952-3.238-6.476-11.7-12.949-17.809-11.873-6.11 1.076-9.714 4.857-11.873 11.333-2.159 6.476-22.666 11.333-26.444 8.095-5.936-8.635-9.714-14.571-12.952-15.65-3.238-1.079-10.528 9.401-10.254 15.65.275 6.25-.539 6.476-9.174 9.714-8.635 3.238-19.968 6.476-19.428 10.254.54 3.778 7.016 4.857 12.952 4.857l10.524 1.619 19.698 18.888s5.397 23.746 4.857 25.365c-.539 1.619-2.698 2.159-6.476 2.699s-23.206 7.286-41.555 4.048c-18.349-3.238-31.301-14.301-33.459-15.381-2.159-1.079-12.412-4.857-18.889-6.476-6.476-1.619-34.539-18.349-45.937-29.97-5.263-5.366-8.03-.791-12.347-7.267-2.588-3.882-3.237-8.155-3.923-12.929-.395-.197-.798-.376-1.198-.563.102-2.536.264-4.318.264-4.318s-4.831 6.897-5.845 9.478c-2.121-.916-.033-7.44-2.216-7.958.024.306.041.594.055.876-3.536-5.432-8.253-7.794-10.882-7.794-2.686 0-3.187 5.172-3.254 8.168-3.975 2.448-4.57 7.073-5.381 12.34.687.772-.528 1.741.087 2.38-2.487 1.188-2.922 2.714-2.115 4.293.438 4.215 1.979 8.119 4.724 10.598.308.279.499.583.61.893 8.945-7.463 12.884 2.343 13.369 6.079 9.446 2.856 73.99 42.675 78.847 45.374 4.857 2.699 1.079 3.238 1.079 3.238s28.602 15.651 37.777 18.889c9.175 3.238 37.777 14.031 37.777 14.031l-6.476 135.458s-8.095 32.38-5.936 44.792c1.332 7.659 4.719 22.713 8.005 34.896 19.396 6.27 39.769 10.792 60.374 13.092.26-4.663.506-8.737.699-11.83 1.079-17.27 13.492-34.539 16.73-32.38 3.238 2.158 7.016 35.078 8.095 41.554.155.929.276 2.439.378 4.335 17.918.311 35.756-1.207 53.034-4.853 6.237-29.417 18.1-61.418 18.903-62.623 1.079-1.619 2.159-5.936 6.476-11.873 4.318-5.936 19.968-50.729 18.889-90.665-1.079-39.935-16.73-69.078-21.047-75.554 19.968-7.016 58.019-50.304 63.142-57.205 5.122-6.901 11.903-18.427 24.855-28.681 12.952-10.254 26.413-15.572 33.969-27.984 7.553-12.411 4.315-19.966-2.7-7.014z" fill="#94c85c"/><path d="M320.536 292.664c-15.111-18.888-11.333-46.411-3.778-55.046 7.556-8.635 6.476-22.936-17.27-35.888-23.745-12.952-53.234-17.618-60.25-19.776L208.2 176.74s14.697 13.908 18.432 20.134c7.286 12.143.54 21.857-2.159 33.729-2.395 10.538-2.158 28.602-3.238 31.841-1.045 3.135-7.651 14.362-13.458 25.358 5.827 12.399 12.935 24.201 18.429 36.769 6.202 14.185 9.933 29.517 9.964 45.051.037 18.841-5.239 36.704-13.534 53.23 11.022 6.182 26.174 10.932 42.852 16.064 28.063 8.635 59.364-17.809 67.999-52.888 8.636-35.08 2.16-74.476-12.951-93.364z" fill="#fff"/><path d="M85.239 205.237s13.492 55.046 24.825 75.014c11.333 19.968 22.126 29.142 28.603 29.682 6.476.54 12.952-21.047 2.698-49.11s-14.571-33.46-14.571-33.46-19.428-12.412-23.745-14.571c-4.318-2.158-17.81-11.872-17.81-7.555z" fill="#3e3a39"/><path d="M226.078 222.922c.54 2.159 7.946 22.844 38.332 27.647 24.769 3.916 37.237.54 46.951-2.698 9.714-3.238 25.904-12.952 28.603-16.19 2.698-3.238 17.269-18.888 17.269-18.888l1.08 3.777s26.444-11.873 32.92-16.73c6.476-4.857 48.031-39.936 48.031-39.936s-6.476 43.713 8.635 90.665c9.714 28.063 15.111 36.158 22.126 35.618 3.238 3.778-6.476 8.095-14.571 9.714-8.095 1.619-41.637 4.339-52.348 3.778-10.711-.561-4.317 3.238 1.619 9.174s12.412 43.713 11.333 61.522c-1.079 17.809-5.397 46.951-7.016 56.126s-3.238 15.65 5.397 18.888c8.635 3.238 17.039 3.969 25.904 7.555 8.866 3.587 14.571 12.412 2.159 17.809-12.412 5.397-87.966 31.301-103.077 34.539-15.111 3.238-52.348 5.936-66.919 3.778-14.571-2.159-79.744-18.413-89.585-23.206s-16.085-10.934-7.555-17.27c8.53-6.335 18.349-11.333 18.349-11.333s-7.016-4.317-8.635-10.793c-1.619-6.476 2.159-11.873 6.476-18.349 4.317-6.476 15.111-25.904 17.27-37.237 2.159-11.333-1.079-56.665-3.238-67.459-2.159-10.793-3.778-19.968-8.635-20.507-4.857-.54-28.101 9.586-36.698 12.412-8.596 2.826-18.349-2.159-21.587-5.397 4.317.54 9.174-10.254 8.095-23.745-1.079-13.492-17.809-56.126-23.206-63.681-5.397-7.555-23.745-34.539-27.523-38.317-3.778-3.778-8.16-8.383-8.16-8.383s9.24-1.331 14.636.828c5.397 2.159 40.476 28.603 50.19 35.618 9.714 7.016 35.078 15.111 42.094 16.19 7.016 1.079 22.666-2.698 24.825-3.238s6.459-2.281 6.459-2.281z" fill="#717071"/><g fill="#231815"><path d="M243.004 89.92c-2.658-.037-10.807 3.226-13.991 5.28-6.767 4.364-2.625 9.407 3.302 12.112 11.847 5.407 26.606 3.805 39.154 2.797 4.956-.398 11.897.103 16.246-2.748 5.619-3.682-1.019-9.074-4.933-10.877-5.424-2.5-11.556-3.521-17.46-4.023-1.255-.107-14.839.465-15.185-.358-.352-.837 15.965-1.9 16.956-1.869 5.981.189 13.295.703 18.722 3.55 5.35 2.807 10.993 9.604 6.249 15.326-4.445 5.361-13.869 6.614-20.304 7.148-11.834.982-26.162.031-37.425-3.964-5.379-1.908-14.822-7.507-11.662-14.548 2.87-6.394 14.256-7.82 20.331-7.826zm-27.296 54.066c2.589-5.738 6.621-13.591 14.395-9.843 2.801 1.35 4.516 4.209 5.777 6.932.849 1.835 3.728 7.858 3.059 9.82-.182.533-6.893-9.674-6.952-9.762-2.393-3.581-5.898-5.17-9.402-1.944-3.014 2.774-2.858 7.622-5.775 10.448-4.676 4.53-1.274-3.166-1.102-5.651zm43.328 2.57c4.392-2.889 5.732-9.86 9.446-13.646 4.15-4.232 9.634-5.66 15.133-3.178 4.996 2.255 8.887 6.84 11.564 11.5.3.522 4.639 13.015 3.54 12.674-.469-.145-2.544-5.424-2.914-6.03-1.704-2.785-3.545-5.535-5.617-8.061-4.376-5.335-10.961-10.292-17.327-5.208-4.534 3.621-6.004 9.123-9.732 13.294-2.715 3.038-11.988 6.33-14.897 1.504-.155-.257 5.697-.41 5.941-.452 1.856-.318 3.631-.901 4.863-2.397zm-58.879 17.846c1.889-.647 11.802-2.927 10.535-5.407-1.468-2.871-11.986.593-13.615 1.175-3.338 1.192-17.928 8.245-14.657 13.188.792 1.197 3.759 1.919 5.078 2.355 5.276 1.744 11.041 1.788 16.529 2.094 12.134.676 24.177 3.022 35.978 5.863 12.011 2.891 24.264 5.316 36.023 9.136 4.699 1.527 9.338 3.299 13.71 5.615 1.324.701 10.034 6.876 11.305 5.8 4.518-3.823-17.309-13.308-19.623-14.011-10.008-3.044-20.558-4.279-30.755-6.587-11.989-2.714-23.891-5.304-36.024-7.34-8.209-1.377-19.403-.641-26.717-5.083 2.556-3.481 8.386-5.483 12.233-6.798z"/><path d="M291.564 208.603c5.508 4.45 15.285 4.935 15.521-4.094.094-3.6-1.556-7.383-2.954-10.614-.678-1.568-3.516-5.679-3.322-7.432-.083.743 2.979 3.379 3.399 3.935a27.936 27.936 0 013.693 6.543c1.947 4.91 3.185 11.683-1.304 15.632-3.204 2.819-7.567 2.393-11.322 1.028-2.936-1.067-11.964-6.426-10.54-11.012-.318 1.023 5.512 5.324 6.829 6.014zm-77.614-28.604c7.314 5.366 13.935 12.395 16.67 21.238 1.267 4.096 1.644 8.605.578 12.793-.115.453-3.75 8.534-4.433 7.643-.237-.31 1.266-5.034 1.363-5.857.294-2.475.407-5.046.214-7.532-.348-4.478-1.967-8.846-4.551-12.524-2.04-2.903-4.457-6.038-7-8.546-2.224-2.193-4.821-3.941-7.37-5.724-1.352-.946-4.953-2.607-5.345-4.373-.092-.415 8.642 2.328 9.874 2.882zm103.873-22.293c19.353 13.861 41.289 35.474 41.165 61.054l-.817-.731c.188.062 1.646-.555 1.827-.742-.524.54-.996 1.326-1.804 1.478-3.142-14.665-11.629-29.289-22.424-39.944-4.367-4.311-8.478-8.896-13.237-12.793-3.592-2.941-7.41-5.618-11.28-8.181-.678-.449-9.328-6.215-8.898-6.542 1.918-1.46 13.37 5.371 15.468 6.401zm-117.937 72.46c-11.115-.836-22.501-3.57-32.567-8.387-10.423-4.988-19.655-12.731-29.198-19.196-9.266-6.278-18.254-12.9-27.418-19.313-3.885-2.719-8.029-5.41-12.61-6.781-1.547-.463-11.285-2.065-11.951.432.456-1.71 6.296-2.578 7.744-2.682 3.209-.23 6.329.528 9.316 1.628 6.785 2.497 12.525 6.998 18.377 11.116 12.293 8.651 24.984 16.768 37.48 25.124 9.477 6.336 19.725 10.835 30.956 12.921 6.661 1.237 13.403 1.981 20.115.716 3.469-.654 6.81-1.791 10.178-2.823.588-.18 6.282-1.461 6.23-1.322-.947 2.54-11.503 5.581-13.968 6.402-4.107 1.368-8.361 2.069-12.684 2.165z"/><path d="M109.169 196.774c-2.758-3.668-5.694-7.24-8.931-10.498-.885-.891-4.303-5.035-5.896-4.835-2.417.303 6.43 12.275 7.548 13.824 12.132 16.811 24.459 33.615 32.969 52.635 4.095 9.153 7.089 18.694 8.841 28.567 1.364 7.685 5.045 24.293-1.122 30.646-6.58 6.779-19.292-9.456-22.803-14.056-6.38-8.359-11.34-17.844-15.256-27.578-4.453-11.069-6.871-22.655-10.142-34.086-1.638-5.725-3.858-11.231-5.727-16.878-.464-1.401-2.302-12.02-3.617-12.196-3.79-.51 1.062 18.225 1.526 19.628 2.697 8.151 5.049 16.369 7.53 24.587 4.812 15.944 11.797 31.666 21.532 45.246 6.254 8.724 28.225 32.264 31.748 9.092 2.561-16.842-2.606-36.349-8.48-52.025-7.04-18.793-17.706-36.08-29.72-52.073z"/><path d="M147.994 313.836c9.295 2.439 18.325-3.197 26.638-6.555 4.253-1.718 8.644-3.193 13.262-3.445.694-.038 7.926.419 7.636 1.038-.432.921-11.976 2.904-13.56 3.437-6.018 2.022-11.47 5.203-17.298 7.659-4.047 1.706-8.617 2.402-13.014 2.187-2.951-.144-12.806-1.391-14.41-4.657-.043-.087 9.426.324 10.746.336z"/><path d="M197.936 307.978c4.824 12.01 5.852 25.099 7.243 37.846 1.232 11.299 3.155 22.658 2.637 34.06-.452 9.942-2.284 20.29-6.363 29.409-2.074 4.636-4.785 9.062-7.878 13.086-2.497 3.249-6.62 6.688-8.236 10.531.202-.203.401-.408.596-.618-3.384 2.889-4.869 11.283-3.481 15.276 1.639 4.714 6.512 7.418 11.198 8.172-7.822-6.014-7.579-12.87-2.737-20.85 4.308-7.1 9.218-13.65 12.98-21.099 7.849-15.539 8.697-32.188 8.194-49.24-.486-16.458-1.573-32.372-6.761-48.104-1.355-4.109-2.912-8.161-4.805-12.055-1.307-2.689-3.432-8.269-6.475-9.449-2.375-.922-1.883-.187-1.192 2.016 1.183 3.767 3.541 7.375 5.08 11.019zm243.861-147.089c-.102 10.309-1.718 20.527-1.7 30.852.022 12.281 1.87 24.291 4.058 36.343 1.884 10.381 5.743 19.758 9.667 29.47 2.19 5.421 3.845 11 5.803 16.501.219.616 6.319 13.311 7.879 9.348.506.223-1.902 1.168-1.464 1.123-1.599.162-2.27-.044-3.645-.873-2.572-1.552-4.273-5.098-5.588-7.674-3.087-6.046-5.008-12.536-7.495-18.825-4.979-12.592-7.367-24.731-9.941-37.967-2.366-12.17-4.087-24.766-4.087-37.192 0-6.379-.083-13.491 2.518-19.464.877-2.014 4.653-6.991 3.995-1.642zm7.367 138.22c-12.928 1.705-25.933 3.344-39.002 2.7-6.01-.296-11.959-1.103-17.767-2.691-2.747-.751-5.499-1.675-8.08-2.89-.937-.441-3.632-2.657-4.335-2.626 2.916-.129 6.766 1.527 9.747 2.045 4.616.802 9.259 1.607 13.925 2.064 7.587.744 15.098.481 22.662-.299 5.911-.61 11.81-.617 17.722-1.418 1.09-.148 19.63-2.264 19.466-1.616-.461 1.808-12.358 4.12-14.338 4.731z"/><path d="M396.642 306.934c8.205 8.718 12.683 21.525 14.586 33.215 2.283 14.024 5.565 27.564 3.08 41.81-2.431 13.936-6.187 27.68-7.693 41.767-1.249 11.678-1.419 23.542 7.707 32.251 4.144 3.954 9.277 8.445 14.034 11.649 1.894 1.276 3.414 2.826 3.668-.303.274-3.377-4.657-7.04-6.837-8.734-4.072-3.164-8.753-5.549-11.801-9.863-4.06-5.747-3.843-12.972-3.467-19.691 1.39-24.809 9.51-48.506 6.436-73.586-1.771-14.453-3.835-29.286-7.208-43.453-1.263-5.306-4.462-12.755-10.536-13.955-8.548-1.692-2.947 4.851-1.969 8.893z"/><path d="M194.986 455.501c.358-.132.697-.129 1.017.009-3.895 2.409-8.278 3.906-12.109 6.751-3.587 2.663-13.781 9.572-11.067 14.703 2.173 4.109 10.937 6.005 14.889 7.232 4.702 1.46 9.492 2.616 14.199 4.056 22.539 6.895 45.642 12.572 69.027 15.764 24.614 3.36 48.548-.272 72.786-4.43 24.873-4.267 47.895-13.749 71.915-20.98 6.523-1.964 13.264-3.244 19.574-5.879 4.45-1.858 13.616-6.36 12.711-12.509-.859-5.838-11.406-8.626-15.884-10.241-4.311-1.554-12.896-2.875-15.891-6.688 1.852 2.358 11.786 3.533 14.581 4.331 5.982 1.707 14.578 3.574 18.474 8.911 8.727 11.952-14.948 20.744-22.501 23.201-22.013 7.161-43.671 15.421-65.802 22.239-25.014 7.707-49.926 11.523-76.077 9.483-24.537-1.914-50.209-8.199-73.576-15.712-6.829-2.195-13.6-4.573-20.418-6.805-5.933-1.942-12.841-3.88-17.757-7.867-11.812-9.578 13.671-24.241 21.909-25.569zm183.329-249.373c7.042-3.244 12.672-8.889 19.127-13.089 6.364-4.14 12.785-7.89 18.532-12.911 5.58-4.875 10.321-10.566 15.606-15.738 3.182-3.114 9.705-10.337 14.515-10.587-1.733.09-5.943 5.714-7.07 6.921-3.071 3.284-5.988 6.713-8.967 10.079-7.489 8.465-15.432 15.857-24.791 22.21a4150.292 4150.292 0 01-19.297 13.026c-3.918 2.628-8.128 4.695-12.577 6.26-1.673.589-9.54 3.928-11.326 2.431-.108-.091 7.722-3.847 8.38-4.169 2.709-1.325 5.345-2.778 7.868-4.433zm66.893-61.112c3.921-6.425 3.367-12.387 2.579-19.549-.486-4.421-.951-13.755 5.481-14.438-2.577.263-2.907 7.54-2.893 9.098.042 4.476 1.408 8.786 1.67 13.234.182 3.095-6.44 21.218-8.662 19.611-.903-.653 1.577-7.09 1.825-7.956zm17.946-21.957c4.089 7.512 13.888 2.069 17.496-2.763 2.418-3.238 3.971-7.008 5.785-10.59.855-1.69 3.209-7.554 5.317-8.05-1.177.277-4.563 12.821-5.24 14.238-2.507 5.247-6.222 11.388-12.087 13.374-4.274 1.447-9.784.298-12.79-3.163-1.879-2.163-3.685-11.386 1.724-11.118-1.425-.071-2.206 8.618-.205 8.072zm19.341 7.807c4.222-3.301 6.034-9.195 8.054-13.933.224-.525 4.788-9 5.033-8.596.51.843-.776 4.88-1.038 5.823-.994 3.577-2.458 7.407-3.947 10.822-1.029 2.36-2.357 4.145-4.093 6.074-.641.712-7.66 6.281-7.826 3.875-.043-.598 3.247-3.128 3.817-4.065zm2.107 9.681c4.135-1.866 6.571-6.633 8.708-10.37.593-1.038 3.743-7.911 5.08-7.617 1.703.374-5.045 14.108-5.965 15.348-1.135 1.531-2.642 2.742-4.197 3.855-.234.167-7.992 4.406-7.646 1.706.074-.58 3.349-2.162 4.02-2.922zm-27.607 30.817c9.077-7.542 19.776-12.801 29.28-19.748 4.395-3.213 8.569-6.775 11.876-11.131.828-1.091 6.894-10.31 5.936-11.234.928.896-1.395 7.44-1.748 8.347-1.264 3.246-3.243 6.098-5.577 8.668-5.622 6.19-12.93 10.884-19.823 15.517-5.112 3.436-10.625 6.128-15.518 9.916-.717.555-12.637 10.883-12.17 11.616-1.352-2.122 6.394-10.455 7.744-11.951zm-376.692 3.758c-6.448-3.61-9.107-7.944-8.926-15.353.077-3.132.318-6.204-.026-9.333-.119-1.085-1.509-5.436-.957-6.476.274-.517 4.037 5.922 4.28 6.917 1.055 4.314-.275 8.9.852 13.184.674 2.559 1.934 4.67 4.038 6.262.779.589 9.088 4.132 8.308 5.482-.539.936-6.742-.526-7.569-.683zm-40.818-12.985c-1.311-5.464 6.441-10.991 11.183-9.411 2.001.667 8.93 9.754 10.095 9.385-6.09 2.222-8.145-8.43-14.222-5.233-1.193.628-3.085 2.058-3.403 3.39-.243 1.016 2.491 5.045 2.036 5.498-1.172 1.162-5.157-2.685-5.689-3.629z"/><path d="M37.937 171.26c-1.317-10.722 20.498-3.649 23.955 1.161-.21-.292-4.573-.947-5.196-1.143-3.254-1.023-6.231-2.433-9.695-2.675-1.403-.098-4.892-.551-5.96.592-1.665 1.782 2.22 5.565 1.506 6.213-1.142 1.036-4.254-3.264-4.61-4.148zm34.098 22.264a1794.122 1794.122 0 0129.213 16.417c4.372 2.514 8.582 5.321 12.312 8.734.521.477 7.16 8.039 6.75 8.151-.637.174-5.257-3.979-5.84-4.387-2.784-1.952-5.548-3.947-8.379-5.829-6.125-4.071-12.849-7.084-19.321-10.541-3.848-2.055-7.392-4.632-11.194-6.783-3.164-1.79-6.411-3.425-9.591-5.186-1.423-.788-5.395-2.343-6.165-4.015.218.474 10.525 2.866 12.215 3.439z"/><path d="M42.012 175.677c-1.05 3.826 6.326 7.124 5.45 9.348-.897 2.275-6.5-2.456-7.125-3.214-1.541-1.869-2.571-4.169-1.584-6.744 1.396-3.645 2.111-1.966 3.259.61zm228.845 203.87c9.813 7.377 20.372 7.463 28.782-1.87 3.892-4.319 6.596-9.512 9.925-14.243 3.252-4.622 6.844-9.079 8.462-14.585 1.559-5.305 2.217-10.659 4.294-15.838 2.188-5.458 4.697-10.797 7.448-15.994a151.433 151.433 0 016.509-11.149c.813-1.263 6.289-7.419 6.086-8.271.18.757-2.483 4.552-2.803 5.193-1.434 2.875-2.771 5.8-4.126 8.713-2.896 6.227-5.752 12.482-8.382 18.826-3.166 7.638-3.725 16.042-7.014 23.509-2.797 6.35-7.513 11.797-11.072 17.731-6.562 10.939-16.701 20.7-30.512 16.225-6.85-2.22-13.125-7.09-17.533-12.73-1.966-2.516-3.663-5.294-4.683-8.333-.211-.627-.85-8.279-.404-7.876.856.783.934 4.07 1.318 5.168.924 2.644 2.403 5.039 4.159 7.206 2.678 3.305 5.948 6.062 9.546 8.318zm-8.793-60.797c9.93 3.939 21.128 2.264 30.821-1.466 6.01-2.313 11.597-5.543 17.006-9.007 1.648-1.056 9.513-4.853 10.211-6.508-2.316 5.491-10.841 10.901-15.622 13.731-6.47 3.829-13.575 7.02-20.931 8.703-6.206 1.42-12.907.676-19.027-.851-3.265-.815-6.371-1.989-9.279-3.692-.695-.407-6.934-4.96-6.058-5.45 1.019-.569 6.754 2.892 7.925 3.27 1.646.531 3.252.928 4.954 1.27zm-33.956-94.516c3.451 10.221 14.745 16.853 24.093 20.902 12.539 5.432 27.986 9.463 41.597 6.389 23.376-5.279 46.509-18.689 61.343-37.6.79.12-9.076 13.624-9.911 14.486-4.705 4.855-10.122 9.11-15.985 12.482-11.945 6.872-26.347 12.633-40.159 14.14-12.974 1.415-27.449-2.044-39.543-6.747-6.481-2.521-13.185-5.97-18.124-10.961-2.184-2.207-4.141-4.85-5.106-7.833-.357-1.105-1.716-7.15.249-7.938.665-.267 1.473 2.289 1.546 2.68zm43.799-65.548c-.574-5.584 1.605-20.343 6.648-10.906 2.565 4.802-3.161 19.653-6.648 10.906zm-50.271 0c-1.237-3.495-1.697-7.732-.383-11.287 1.488-4.028 3.761-2.281 4.943 1.127.878 2.532.454 5.569-.638 7.978-.307.679-3.604 5.256-3.922 2.182zm15.176 16.125c-8.616-.636-2.823-8.393 3.691-4.811.344 3.173-1.382 3.033-3.691 4.811zm237.52 13.371c3.319 18.757 5.432 37.736 6.533 56.752.537 9.279.708 18.862-1.497 27.955-.844 3.481-2.038 6.997-4.042 9.999-1.211 1.814-2.746 3.538-4.638 4.666-.048.028-3.783 1.577-3.725 1.314.121-.548 3.283-2.315 3.874-3.012 1.674-1.972 2.665-4.472 3.417-6.915 1.805-5.868 2.255-12.245 2.465-18.344.452-13.103-1.358-26.265-3.022-39.232-1.054-8.217-1.313-16.447-2.647-24.652a290.449 290.449 0 00-3.567-18.142c-.402-1.756-3.413-9.327-2.436-10.996.352-.602 5.024 8.844 5.369 9.704 1.436 3.589 2.674 7.244 3.916 10.903zM76.059 41.384c-1.433-.452-4.143-1.481-5.718-4.197-2.038-3.517-2.394-8.059-1.183-11.918 1.562-4.978 5.237-6.827 9.569-9.109 3.818-2.011 6.21-4.358 8.883-7.715C99.524-6.517 123.66-.626 127.1 18.459c2.857 15.848-11.16 34.96-28.464 29.013-7.399-2.543-10.06-10.543-6.677-17.418 1.694-3.442 4.959-6.748 8.965-7.128 3.048-.289 8.743 2.223 8.955 5.935-.08-1.408-5.364-4.054-6.316-4.225-3.579-.642-6.751 1.857-8.517 4.749-3.355 5.496-2.069 12.304 4.297 14.406 17.199 5.679 24.878-13.743 20.924-27.432-3.782-13.093-20.145-16.136-28.958-6.212-2.736 3.08-4.961 5.848-8.677 7.837-2.872 1.537-6.438 2.201-8.862 4.496-4.418 4.184-5.014 16.937 2.289 18.904z"/><path d="M124.186 41.777c.791 1.133 4.457 2.904 5.812 4.746 2.69 3.659 3.095 7.858.935 11.898-3.783 7.079-12.45 9.883-17.827 15.454-4.587 4.752-3.439 11.558-7.297 16.871-2.502 3.447-6 5.38-9.842 7.034-1.869.804-9.751 2.511-10.299 3.603 1.597-3.024 7.376-4.751 10.236-6.511 2.642-1.626 4.919-3.596 6.728-6.145 4.315-6.081-.218-13.608 5.825-18.857 4.852-4.215 11.557-5.908 16.432-10.195 6.963-6.123 3.933-11.349-.703-17.898zM76.677 53.138c-.358.998.049 6.626-.062 8.552-.285 4.927-.633 9.857-1.261 14.754-1.169 9.124-3.58 18.379-7.058 26.887-1.489 3.644-3.464 7.084-4.422 10.922-1.076 4.31-1.111 8.699-1.505 13.092a43.2 43.2 0 01-2.706 11.583c-.72 1.872-3.2 8.803-5.682 9.232 1.019-.176 3.483-9.899 3.758-11.078.92-3.935.937-7.575.989-11.557.108-8.251.634-18.021 4.328-25.517 3.634-7.375 6.479-14.413 8.227-22.471 1.736-8.002 2.58-16.677 5.394-24.399zM58.792 188.367c-.694 2.32-.341 9.007-.941 12.412-.498 2.821-.964 5.749-1.762 8.513-2.248 7.787-6.187 15.327-8.93 22.982-3.025 8.441-8.155 15.745-11.205 24.175-1.528 4.222-2.848 8.433-4.588 12.582-.97 2.313-5.348 12.025-3.716 14.106-3.086-4.105.383-12.43 1.628-16.594 1.208-4.04 2.007-8.107 3.381-12.116 2.561-7.469 4.424-15.181 8.433-22.026 8.185-13.969 12.891-28.742 17.7-44.034zm25.978-82.673c-.078.372 1.078 4.38 1.112 5.324.118 3.331-.341 6.767-1.174 9.992-1.485 5.744-3.748 11.691-6.866 16.716-2.461 3.965-3.492 8.09-5.421 12.26-.815 1.763-3.671 8.375-5.828 8.799.1-.02 2.944-9.806 3.196-10.842 1.045-4.278 1.8-8.78 3.229-12.986 1.393-4.103 4.483-7.285 6.342-11.225 2.736-5.795 3.861-11.889 5.41-18.038z"/><path d="M22.81 284.72c-.745 2.514-1.125 8.702-3.935 12.145-2.05 2.512-4.775 3.654-7.969 3.036-3.663-.708-3.322-2.495-3.062-5.758.824-10.329 4.521-20.148 8.641-29.563 5.746-13.131 9.777-27.029 15.943-39.931 6.141-12.851 8.903-26.425 12.573-40.071l-.052.453c.329-6.77 9.947-6.061 13.294-2.145 2.64 3.09 2.34 13.642-1.615 16.15.958-.608 1.624-7.905 1.628-9.119.012-3.424-.957-6.032-4.524-7.067-7.528-2.185-6.728 7.114-7.591 12.085-2.587 14.91-7.608 30.938-13.347 44.937-5.062 12.347-11.852 23.914-16.734 36.343-1.641 4.178-3.144 8.428-4.191 12.798-.345 1.438-2.22 6.821-1.291 7.974 1.975 2.453 6.029-.436 7.344-1.922 2.504-2.828 3.773-6.826 4.888-10.345zm24.903-138.204c7.532-9.913 19.348 5.686 17.11 13.693-.023.081-2.528-3.295-2.647-3.506-1.523-2.699-2.137-6.64-5.031-8.362-.834-.497-3.182-1.109-4.098-1.005-3.942.445-1.712 4.617-3.499 5.249-1.9.673-2.282-4.898-1.835-6.069zm1.594 27.274c2.97.179 8.604-.979 10.003 2.898 1.451 4.025-2.23.182-3.914-.146-2.271-.443-12.27.616-6.089-2.752z"/><path d="M65.39 162.626c.031-1.978-.762-4.874.861-6.473 2.245-2.214 1.675.064 1.719 2.043.033 1.565.179 8.581-2.58 4.43z"/></g></svg>