<svg id="内側黒" xmlns="http://www.w3.org/2000/svg" width="500" height="500" viewBox="0 0 500 500">
  <defs>
    <style>
      .cls-1, .cls-3 {
        fill: #fff;
      }

      .cls-2, .cls-3 {
        fill-rule: evenodd;
      }
    </style>
  </defs>
  <rect id="長方形_1" data-name="長方形 1" class="cls-1" width="500" height="500"/>
  <path id="シェイプ_1" data-name="シェイプ 1" class="cls-2" d="M190.784,237.034a230.055,230.055,0,0,1-43.2-36.722c-21.806-23.582-34.5-34.768-32.4-58.323s14-29.85,15.121-49.682-14.65-51.892-19.441-62.643-15.121-21.6-15.121-21.6-5.725-5.456-6.48,2.16,12.718,30.817,12.96,41.042,5.993,21.492,2.161,28.082-21.435,33.647-19.441,56.163c0.894,10.1,2.572,28.19,8.64,36.722s26.385,24.956,30.242,28.081c6.99,5.665,35.3,27.379,47.522,38.882s15.121,15.121,15.121,15.121-9.255,18.983-17.281,21.6-14.906-13.678-30.242-21.6-33.038-6.36-47.522-19.441-16.81-23.833-19.441-41.042S51.625,136.31,43.9,126.869s-15.271-10.707-17.281-6.481,7.513,31.847,10.8,41.042,5.75,11.915,6.48,19.441,9.673,43.8,19.441,54,34.509,26.144,47.523,30.242,21.559,0.861,32.4,6.48,12.96,12.961,12.96,12.961-12.073,11.43-28.081,12.96-26.782-3.556-32.4,0-5.946,9.162-2.16,12.961,22.633,9.839,34.562,4.32,31.255-19.041,36.722-19.441,13.015,21.256,12.96,25.922-37.061,70.079-45.362,88.564-8.776,25.393,6.48,17.281,43.586-39.886,49.683-54,7.277-45.568,8.64-51.842,17.187-19.4,21.6-25.922c4.863,6.309,14.384,25.106,19.441,32.4,3.726,9.256,2.161,15.121,2.161,15.121s-14.211,27.922-15.121,51.842,8.779,58.065,17.281,71.284c2.406,15.067,1.647,28.652,6.48,28.082s1.2-21.191,4.32-28.082,20.027-41.382,19.441-66.963S258.8,348.368,255.587,340.72c0.377-5.915,2.16-6.481,2.16-6.481s18.045-32.423,21.6-38.882c4.349,3.509,17.931,20.109,21.6,23.762,1.3,10.166,2.837,37.893,8.64,54s32.139,45.172,51.843,56.163C377,440.03,374.8,425.919,367.913,412s-36.722-64.8-36.722-64.8-9.177-12.909-10.8-19.441c-3.08-6.551,8.119-26.705,12.96-30.242s35.707,18.27,45.363,19.441,27.4-7.374,28.081-12.96-11.318-7.628-21.6-6.481-38.219-4.8-43.2-10.8c2.115-6.759,11.8-17.259,51.842-25.921,11.023-3,30.082-18.856,41.043-30.242s17.406-30.538,19.441-41.042c4.417-22.805,5.235-43.935,17.281-60.483,4.442-9.026,0-10.8,0-10.8s-12.444,1.447-23.762,19.441-23.494,38.031-23.761,66.964c-8.958,28.5-18.638,32.466-41.042,41.042s-42.027,21.053-54,32.4c-7.132-4.738-18.983-13.727-17.281-19.441s14.14-26.559,54-51.842c37.339-32.228,45.19-47.855,47.522-64.8S399.232,92.249,396,81.506s6.475-54.872,10.8-62.643-2.133-12-8.64-6.48-33.661,61.156-30.242,79.924,18.373,38.557,15.121,56.163-24.583,48.322-38.882,56.163c-12.47,11.376-31.688,31.966-36.722,32.4s-8.457-22.22,4.32-32.4S334.663,193.616,339,192c5.08-6.132,13.315-26.6,13.792-41.37s-3.4-20.963-6.48-25.921-6.35-10.143-8.64,0-2.946,33.439-12.961,41.042-28.722,18.223-32.4,41.042-0.19,34.172,2.16,43.2c-4.508,9.608-17.281,21.6-17.281,21.6s-17.885-12.615-17.28-17.281,15.672-37.294,19.441-51.842-4.267-47.238-10.8-62.644-19.441-32.4-19.441-32.4-12.688,12.127-15.121,19.441-17.057,37.536-17.281,58.323,9.285,46.178,15.121,54,6.48,12.961,6.48,12.961-12.774,19.132-17.28,19.441-12.281-12.96-17.281-19.441c0.847-8.5,5.484-22.277,4.32-36.722s-11.614-34.07-19.441-38.882-21.282-12.586-23.761-23.761-0.853-22.116-2.16-28.081-6.935-6.967-10.8-2.161-8.4,20.259-6.48,32.4,6.305,31.357,12.96,36.722,26.3,5.379,32.4,19.441A32.2,32.2,0,0,1,190.784,237.034Z"/>
  <path id="シェイプ_2" data-name="シェイプ 2" class="cls-3" d="M249.107,144.15s-20.767,27.518-19.441,49.682,12.487,44.941,17.281,45.362,18.815-22.069,21.6-41.042S249.107,144.15,249.107,144.15Z"/>
  <path id="シェイプ_3" data-name="シェイプ 3" class="cls-3" d="M249.107,267.276l17.281,17.281s-12.713,19.8-15.121,23.761-2.284,3.755-4.32,0-17.281-21.6-17.281-21.6Z"/>
  <path id="シェイプ_4" data-name="シェイプ 4" class="cls-3" d="M313.91,340.72s24.963,44.3,28.082,49.682C332.942,385.2,317.83,377.7,313.91,340.72Z"/>
  <path id="シェイプ_5" data-name="シェイプ 5" class="cls-3" d="M184.3,342.88S156.31,388.1,154.062,390.4s2.275,1.1,6.48-2.16S179.985,381.254,184.3,342.88Z"/>
  <path id="シェイプ_6" data-name="シェイプ 6" class="cls-3" d="M249.107,375.281c3.963,0.812,11.932,17.133,10.8,30.242s-10.8,32.4-10.8,32.4-11.16-17.233-10.8-30.242S244.932,374.427,249.107,375.281Z"/>
  <path id="シェイプ_7" data-name="シェイプ 7" class="cls-3" d="M300.95,265.116l-12.961,15.121,19.441,25.921,10.8-15.121Z"/>
  <path id="シェイプ_8" data-name="シェイプ 8" class="cls-3" d="M197.264,265.116L210.225,282.4l-19.441,23.761-12.961-15.121Z"/>
</svg>
