<svg id="枠" xmlns="http://www.w3.org/2000/svg" width="500" height="500" viewBox="0 0 500 500">
  <defs>
    <style>
      .cls-1 {
        fill: none;
        stroke: #fff;
        stroke-width: 3px;
        fill-rule: evenodd;
      }
    </style>
  </defs>
  <rect id="長方形_2" data-name="長方形 2" width="500" height="500"/>
  <path id="シェイプ_1" data-name="シェイプ 1" class="cls-1" d="M191.452,237.017a229.2,229.2,0,0,1-43.036-36.58c-21.722-23.492-34.365-34.635-32.277-58.1S130.089,112.6,131.2,92.847s-14.593-51.692-19.366-62.4S96.773,8.927,96.773,8.927s-5.7-5.435-6.455,2.152,12.669,30.7,12.911,40.884,5.969,21.409,2.152,27.973-21.353,33.518-19.366,55.947c0.891,10.056,2.562,28.082,8.607,36.58s26.283,24.861,30.125,27.974c6.964,5.643,35.165,27.273,47.34,38.732s15.062,15.063,15.062,15.063-9.219,18.909-17.214,21.518-14.849-13.626-30.125-21.518S106.9,247.9,92.469,234.865,75.724,211.124,73.1,193.981s-20.275-57.3-27.973-66.7S29.918,116.61,27.915,120.82,35.4,152.545,38.674,161.7s5.728,11.869,6.455,19.367S54.765,224.7,64.5,234.865s34.376,26.043,47.339,30.126,21.476,0.858,32.277,6.455,12.911,12.911,12.911,12.911S145,295.743,129.05,297.267s-26.679-3.542-32.277,0-5.923,9.127-2.152,12.911,22.546,9.8,34.429,4.3,31.135-18.968,36.58-19.366,12.965,21.174,12.911,25.821-36.919,69.81-45.188,88.224-8.742,25.294,6.456,17.214,43.417-39.733,49.491-53.8,7.249-45.392,8.607-51.643,17.12-19.325,21.518-25.821c4.843,6.284,14.329,25.008,19.366,32.277,3.711,9.22,2.152,15.062,2.152,15.062S226.787,370.27,225.88,394.1s8.746,57.841,17.215,71.009c2.4,15.009,1.64,28.542,6.455,27.974s1.2-21.109,4.3-27.974S273.8,423.884,273.22,398.4s-14.014-50.48-17.215-58.1c0.376-5.892,2.152-6.455,2.152-6.455s17.976-32.3,21.518-38.732c4.333,3.5,17.862,20.031,21.518,23.669,1.293,10.128,2.826,37.747,8.607,53.795s32.015,45,51.643,55.947c15.507,10.705,13.318-3.353,6.456-17.214s-36.581-64.554-36.581-64.554-9.142-12.86-10.759-19.366c-3.068-6.526,8.088-26.6,12.911-30.126s35.569,18.2,45.188,19.367,27.295-7.347,27.973-12.911-11.275-7.6-21.518-6.456-38.071-4.776-43.036-10.759c2.108-6.732,11.755-17.192,51.643-25.821C404.7,257.7,423.686,241.9,434.6,230.562s17.34-30.421,19.366-40.884c4.4-22.718,5.216-43.766,17.215-60.25,4.425-8.992,0-10.759,0-10.759s-12.395,1.44-23.67,19.366-23.4,37.884-23.67,66.705c-8.924,28.387-18.566,32.341-40.884,40.884S341.1,266.6,329.166,277.9c-7.1-4.72-18.909-13.674-17.214-19.366s14.085-26.457,53.8-51.643c37.195-32.1,45.016-47.67,47.339-64.554S399.1,92.789,395.872,82.088s6.45-54.661,10.759-62.4-2.125-11.957-8.607-6.455S364.493,74.151,367.9,92.847s18.3,38.409,15.062,55.947-24.488,48.136-38.732,55.946c-12.422,11.333-31.566,31.844-36.581,32.277s-8.424-22.134,4.3-32.277,20.514-9.484,25.822-10.759c5.761-5.452,14.586-28.32,15.062-43.035s-3.389-20.882-6.455-25.822-6.326-10.1-8.607,0-2.935,33.311-12.911,40.884-28.611,18.153-32.277,40.884-0.19,34.04,2.152,43.036c-4.492,9.571-17.215,21.518-17.215,21.518s-17.816-12.567-17.214-17.214,15.612-37.151,19.366-51.643-4.25-47.056-10.759-62.4S249.55,107.91,249.55,107.91s-12.639,12.08-15.062,19.366-16.992,37.391-17.215,58.1,9.249,46,15.063,53.8,6.455,12.911,6.455,12.911-12.725,19.058-17.214,19.366-12.234-12.91-17.215-19.366c0.844-8.473,5.464-22.191,4.3-36.581S197.1,181.56,189.3,176.767s-21.2-12.537-23.67-23.67-0.849-22.031-2.152-27.973-6.907-6.94-10.759-2.152-8.366,20.181-6.455,32.277,6.281,31.237,12.911,36.581,26.2,5.358,32.277,19.366A32.075,32.075,0,0,1,191.452,237.017Z"/>
  <path id="シェイプ_2" data-name="シェイプ 2" class="cls-1" d="M249.55,144.49s-20.687,27.413-19.366,49.491,12.439,44.768,17.214,45.188,18.743-21.984,21.518-40.884S249.55,144.49,249.55,144.49Z"/>
  <path id="シェイプ_3" data-name="シェイプ 3" class="cls-1" d="M249.55,267.142l17.214,17.215S254.1,304.085,251.7,308.026s-2.275,3.741-4.3,0-17.214-21.518-17.214-21.518Z"/>
  <path id="シェイプ_4" data-name="シェイプ 4" class="cls-1" d="M314.1,340.3s24.866,44.13,27.973,49.492C333.062,384.609,318.009,377.143,314.1,340.3Z"/>
  <path id="シェイプ_5" data-name="シェイプ 5" class="cls-1" d="M185,342.455s-27.885,45.05-30.125,47.34,2.267,1.1,6.456-2.152S180.694,380.682,185,342.455Z"/>
  <path id="シェイプ_6" data-name="シェイプ 6" class="cls-1" d="M249.55,374.732c3.948,0.808,11.886,17.067,10.759,30.125s-10.759,32.277-10.759,32.277-11.117-17.166-10.759-30.125S245.391,373.881,249.55,374.732Z"/>
  <path id="シェイプ_7" data-name="シェイプ 7" class="cls-1" d="M301.193,264.991l-12.911,15.062,19.366,25.822,10.759-15.063Z"/>
  <path id="シェイプ_8" data-name="シェイプ 8" class="cls-1" d="M197.907,264.991l12.911,17.214-19.366,23.67-12.911-15.063Z"/>
</svg>
