<?xml version="1.0" encoding="iso-8859-1"?>
<!-- Generator: Adobe Illustrator 22.1.0, SVG Export Plug-In . SVG Version: 6.00 Build 0)  -->
<svg version="1.1" id="_x33_" xmlns="http://www.w3.org/2000/svg" xmlns:xlink="http://www.w3.org/1999/xlink" x="0px" y="0px"
	 viewBox="0 0 512 512" style="enable-background:new 0 0 512 512;" xml:space="preserve">
<g>
	<path style="fill:#94C85C;" d="M189.207,272.392c0-5.068-10.597-27.643-12.44-31.79c-1.843-4.146-33.172-40.544-38.701-46.072
		c-5.529-5.529-9.675-16.586-12.439-21.193c-2.764-4.607-16.586-36.397-19.811-46.994c-3.225-10.597-11.057-17.047-12.44-29.025
		C91.995,85.339,92.455,73.82,95.68,73.82c3.225,0,6.911,8.754,6.911,8.754s-1.843-21.193,3.686-25.34s3.686,14.743,6.911,17.968
		c0.921-17.047,4.607-20.272,7.832-19.35c3.225,0.921-0.461,11.979,1.382,22.115s6.45,14.743,13.361,5.068
		c6.911-9.675,10.597-5.068,9.214-1.382c-1.382,3.686-9.675,21.193-11.518,29.486c-1.843,8.293,0.461,10.597,1.843,18.429
		c1.382,7.832,18.429,39.161,28.104,41.465c12.9-1.382,36.397-6.911,36.397-6.911s0-14.282,8.754-17.047
		c8.754-2.764,11.979,2.764,11.979,8.293c0,5.529,0.461,8.293,5.529,9.215c5.068,0.921,34.094,6.45,34.094,6.45
		s1.843-14.282,14.282-15.665c12.44-1.382,16.586,12.9,17.047,16.586c0.461,3.686,16.586,8.754,16.586,8.754
		s28.565,28.565,33.172,31.79c0,0,1.034,2.319,9.726,1.699s36.63-6.208,44.701-8.692c8.071-2.483,36.63-18.004,40.355-19.867
		c3.725-1.863,3.725,1.862,8.071-6.208c4.346-8.071,3.104-20.488,14.9-24.834c4.967-1.862,1.242-0.621,1.242,6.829
		c0,7.45,2.483,7.45,6.829,4.967c4.346-2.483,17.384-14.279,24.834-18.004c7.45-3.725,10.554,0,5.587,5.588
		s-12.417,13.038-12.417,13.038s11.175-9.933,18.004-11.796c6.829-1.863,1.863,4.967,1.863,4.967l-13.038,13.038
		c0,0,16.345-4.225,11.796,0c0,0-11.175,10.554-16.763,16.763c-5.588,6.208-16.581,13.663-19.867,14.279
		c0,0-24.213,8.692-33.525,14.9c-9.313,6.208-23.592,11.796-23.592,11.796l-14.279,7.45l-32.904,14.279
		c0,0,11.175,34.767,11.175,59.601c0,24.834-8.692,32.284-11.796,37.871c-3.104,5.588-8.692,13.038-12.417,19.246
		c-3.725,6.208-2.483,11.796-2.483,11.796s8.692,21.729,16.142,27.938s11.796,4.346,18.004-1.242
		c6.208-5.588,27.938-30.421,35.388-34.767c7.45-4.346,23.592-6.829,29.8-7.45c6.208-0.621,10.554,0.621,10.554,0.621
		s4.967,1.862,12.417-3.104s-3.104,10.554-7.45,12.417c14.9-6.208,19.246-9.934,18.004-7.45s-5.588,9.313-18.004,13.038
		c-12.417,3.725-23.592,4.346-29.8,12.417c-6.208,8.071-20.488,34.146-24.213,39.734c-3.725,5.588-11.175,11.796-20.488,16.763
		c-9.313,4.967-39.734,8.692-67.051-4.967c-27.317-13.658-42.217-37.871-46.563-42.838s-6.208-8.071-6.208-8.071
		s-4.346,6.208-19.867,8.071c-15.521,1.862-36.63,2.483-42.217,1.242c-5.588-1.242-29.179-6.208-34.767-7.45
		c-5.588-1.242-32.904-4.967-36.009-5.587c-3.104-0.621-45.942-7.45-54.013-7.45c-8.071,0-16.763,1.862-26.696-4.967
		c-9.933-6.829-24.834-23.592-36.009-32.905C7.026,335.881-2.286,327.81,2.681,329.052c4.967,1.242,21.109,7.45,19.246,6.208
		c-1.862-1.242-16.142-15.521-19.867-22.971s8.692-1.242,11.175,1.863c2.483,3.104,19.867,14.9,17.383,12.417
		s-16.142-22.35-12.417-21.109c3.725,1.242,17.383,16.142,17.383,16.142s-3.725-17.384,0.621-12.417s31.663,40.975,38.492,44.08
		c6.829,3.104,7.45,0.621,14.9,0.621c7.45,0,26.696,0,34.146-1.242c7.45-1.242,28.559-4.967,34.146-6.829
		c5.587-1.863,24.213-4.967,24.213-4.967s-4.967-19.867-1.863-36.63C183.345,287.456,189.207,272.392,189.207,272.392z"/>
	<path style="fill:#FFFFFF;" d="M276.376,223.732c7.322,6.508,4.068,19.525,1.627,27.66c-2.441,8.135,18.711,26.033,17.084,56.134
		c-1.627,30.101-28.474,83.794-72.405,67.524c-43.931-16.271-50.439-54.507-37.423-91.93c8.135-25.22,9.762-28.474,13.017-35.796
		c3.254-7.322,8.135-24.406,8.135-24.406l2.441-10.576L276.376,223.732z"/>
	<path style="fill:#FF9069;" d="M192.729,197.857c3.487,2.713,6.2,24.025,5.425,32.162c-0.775,8.137-5.037,18.212,1.938,21.312
		c6.975,3.1,13.562,0.388,20.925-3.487c7.362-3.875,23.637-15.887,27.512-17.05c3.875-1.162,23.637-5.813,23.637-5.813
		s-44.562-18.6-50.762-21.312C215.204,200.957,191.954,195.144,192.729,197.857z"/>
	<g>
		<path style="fill:#231815;" d="M261.016,162.255c1.502-2.312,3.389-4.72,5.967-6.809c1.316-1.008,2.775-1.987,4.529-2.6
			c1.698-0.698,3.733-0.917,5.7-0.658l1.472,0.3c0.469,0.123,0.867,0.309,1.304,0.464c0.426,0.166,0.86,0.318,1.281,0.506
			l1.217,0.67c1.638,0.89,3.03,2.16,4.279,3.487c2.383,2.774,3.789,5.984,4.704,8.988c1.719,6.069,1.735,10.278,1.865,12.76
			c0.067,2.482-0.142,3.306-0.349,2.436c-0.205-0.867-0.9-2.091-1.746-4.21c-0.876-2.105-1.797-5.121-3.076-9.261
			c-1.29-4.138-3.35-7.437-5.742-9.342c-2.379-1.829-5.082-2.556-6.512-2.416c-0.391,0.058-0.702,0.058-0.978,0.09
			c-0.278,0.073-0.515,0.115-0.747,0.143c-0.465,0.011-0.892,0.164-1.546,0.287c-0.64,0.191-1.511,0.49-2.74,1.293
			c-1.199,0.833-2.797,2.163-4.461,4.56c-3.193,4.741-4.095,8.109-4.716,9.685l-0.292,0.739l-0.274,0.009
			c-1.235,0.044-1.581-0.511-1.505-0.706c0.073-0.249,0.527-0.32,1.086-0.617l-0.403,0.536l-0.011-0.244
			c-0.156-1.896,0.117-4.456,0.621-6.494c0.218-1.035,0.527-1.912,0.704-2.574C260.876,162.641,261.016,162.255,261.016,162.255z"/>
		<path style="fill:#231815;" d="M199.433,154.882c0.858-1.946,1.778-4.184,3.517-6.352c0.479-0.517,0.884-1.088,1.488-1.55
			l0.862-0.723l0.998-0.601c0.651-0.444,1.438-0.634,2.183-0.918c0.761-0.189,1.557-0.306,2.333-0.377
			c0.759,0.027,1.548-0.019,2.296,0.105c0.746,0.143,1.495,0.264,2.245,0.46c0.759,0.327,1.541,0.578,2.259,1.034
			c0.685,0.532,1.459,0.983,1.955,1.709c0.271,0.338,0.545,0.68,0.791,1.029l0.547,1.098c0.405,0.744,0.508,1.453,0.74,2.177
			c0.31,1.41,0.428,2.728,0.485,3.947c0.097,2.427,0.048,4.29,0.237,5.7c0.136,0.658,0.195,1.318,0.41,1.772
			c0.133,0.536,0.379,0.911,0.593,1.267c0.175,0.398,0.441,0.633,0.633,0.86c0.193,0.226,0.338,0.419,0.426,0.561
			c0.18,0.288,0.126,0.372-0.177,0.2c-0.294-0.175-0.725-0.274-1.307-0.464c-0.478-0.306-1.281-0.584-1.904-1.353
			c-1.431-1.415-2.346-4.276-2.545-7.752c-0.161-1.734-0.327-3.354-0.83-4.598c-0.517-1.224-1.132-2.186-2.064-2.618
			c-0.863-0.513-1.861-0.712-2.804-0.768c-0.458-0.085-0.883-0.031-1.27,0.009c-0.389,0.028-0.747,0.051-1.031,0.18
			c-0.295,0.096-0.532,0.158-0.743,0.196c-0.191,0.087-0.354,0.153-0.518,0.197c-0.161,0.048-0.327,0.069-0.504,0.106
			c-0.17,0.065-0.354,0.136-0.571,0.22c-0.232,0.066-0.488,0.18-0.775,0.397c-0.304,0.179-0.653,0.426-1.024,0.831
			c-0.766,0.757-1.707,2.026-2.593,4.188c-1.698,4.354-2.841,7.246-3.885,8.35c-0.991,1.13-1.472,0.649-1.212-0.72
			c0.241-1.394,0.366-3.315,0.494-4.918C199.282,156.166,199.433,154.882,199.433,154.882z"/>
		<path style="fill:#231815;" d="M231.548,162.993c2.797,0.695,6.009,1.587,9.208,2.296c3.181,0.678,6.574,1.141,9.637,1.741
			c6.14,1.166,8.595,2.866,7.637,2.825c-0.945-0.085-2.988,1.454-7.79,0.872c-4.787-0.6-8.659-0.994-11.008-1.182
			c-1.161-0.087-1.444-0.274-2.252-0.653c-0.801-0.355-2.135-1.012-5.264-1.696c-3.11-0.647-4.854-1.092-5.776-1.599
			c-0.909-0.499-0.874-1.116,0.117-1.392c0.975-0.26,2.33-0.616,3.467-0.842C230.664,163.154,231.548,162.993,231.548,162.993z"/>
		<path style="fill:#231815;" d="M172.259,173.881c4.15-0.918,6.996-2.091,9.123-2.699c2.105-0.665,3.572-1.042,3.957-1.707
			c0.373-0.596-0.419-1.635-3.195-2.188c-1.371-0.251-3.225-0.279-5.371,0.014c-2.156,0.272-4.562,0.86-7.208,1.261
			c-5.946,0.872-11.854,2.181-17.531,4.555c-1.376,0.589-2.926,1.254-4.5,2.395c-0.692,0.483-1.944,1.631-2.439,2.873
			c-0.563,1.253-0.543,2.707,0.011,3.957c0.271,0.633,0.653,1.21,1.116,1.737c0.444,0.509,0.773,0.755,1.169,1.102
			c0.75,0.575,1.5,1.058,2.25,1.465c1.502,0.824,3.013,1.461,4.548,2.043c6.13,2.282,12.71,3.674,19.811,5.372
			c7.157,1.677,14.98,3.209,23.648,5.153c8.68,1.921,17.274,4.136,25.531,6.837c8.265,2.659,16.207,5.638,23.69,8.576
			c7.469,2.965,14.553,5.783,20.846,8.51c6.299,2.74,11.834,5.449,16.389,7.982c4.451,2.462,7.789,4.108,9.899,4.737
			c2.093,0.647,2.982,0.233,2.174-1.235c-0.8-1.466-3.324-4.03-8.224-7.118c-4.886-3.094-12.174-6.618-22.148-9.91
			c-10.67-3.451-18.358-6.418-27.943-9.961c-9.552-3.465-21.091-7.709-39.515-11.525c-7.327-1.571-14.689-3.131-21.827-5.005
			c-7.129-1.964-14.247-3.787-20.464-6.487c-1.539-0.676-3.03-1.408-4.297-2.234c-0.594-0.412-1.229-0.86-1.576-1.261
			c-0.283-0.288-0.285-0.37-0.315-0.594c0.005-0.193,0.126-0.363,0.269-0.469l0.579-0.409l0.856-0.474
			c1.219-0.58,2.735-1.141,4.143-1.613c2.857-0.955,5.7-1.658,8.454-2.224c1.376-0.283,2.733-0.531,4.06-0.757
			c0.667-0.11,1.323-0.218,1.971-0.324C170.871,174.146,171.6,174.021,172.259,173.881z"/>
		<path style="fill:#231815;" d="M280.984,224.038c-2.883,0.929-4.421,2.059-5.726,2.822c-1.258,0.754-2.204,1.169-3.041,1.332
			c-0.812,0.143-1.516,0.11-2.001-0.039c-0.499-0.106-0.794-0.276-0.794-0.276s-1.208-0.025-3.175,0.147
			c-1.962,0.161-4.684,0.552-7.553,1.233c-1.436,0.359-2.86,0.762-4.262,1.29c-1.45,0.547-2.88,1.132-4.23,1.712
			c-2.703,1.157-5.086,2.319-6.736,3.03c-1.707,0.674-7.079,4.198-14.477,8.976c-3.748,2.331-8.113,4.79-13.03,6.812
			c-2.462,0.996-5.072,1.873-7.842,2.404c-1.38,0.281-2.811,0.421-4.27,0.43c-0.74-0.055-1.479-0.074-2.224-0.172
			c-0.745-0.223-1.518-0.288-2.236-0.669c-1.514-0.58-2.74-1.887-3.501-3.299c-0.681-1.459-0.952-2.981-1.023-4.426
			c-0.149-2.91,0.333-5.602,0.741-8.167c0.435-2.581,0.888-4.948,1.005-7.242c0.147-2.314,0.124-4.525,0.007-6.586
			c-0.543-8.254-2.291-14.012-2.519-15.217c-1.198-4.764,1.221-9.029,3.126-1.916c0.377,1.783,2.194,8.238,2.523,17.329
			c0.06,2.268,0.004,4.693-0.246,7.214c-0.237,2.585-0.837,5.132-1.304,7.686c-0.464,2.549-0.877,5.18-0.672,7.651
			c0.209,2.473,1.353,4.474,3.69,5.031c2.271,0.63,4.981,0.428,7.502-0.122c2.546-0.557,5.015-1.415,7.354-2.386
			c4.679-1.96,8.859-4.346,12.355-6.593c6.984-4.617,11.866-8.07,12.581-8.799c1.375-1.532,6.579-4.946,12.461-7.467
			c6.094-2.51,12.404-3.211,14.509-3.641c2.071-0.439,5.165-0.642,7.937-0.111c1.385,0.271,2.669,0.722,3.591,1.164
			C280.436,223.686,280.984,224.038,280.984,224.038z"/>
		<path style="fill:#231815;" d="M307.863,178.694c4.339,2.745,8.91,6.653,13.446,10.559c4.628,3.904,9.413,8.061,13.287,12.383
			c4.946,5.489,7.033,9.88,7.511,11.611l0.023,0.067l0.034,0.062l0.087,0.152l0.009,0.019c-0.012,0.002,0.025-0.027,0.055,0.26
			c0.019,0.122-0.085,0.467-0.359,0.596c-0.255,0.117-0.395,0.065-0.467,0.055c-0.168-0.053-0.081-0.03-0.112-0.039l-0.064-0.037
			c-0.175-0.138-0.129-0.138-0.182-0.196l-0.14-0.225l-0.071-0.145l0.041-0.205l0.002-0.007l0.191,0.099l0.219,0.147l0.149,0.097
			l0.049,0.027c0.037-0.005-0.08,0.014,0.136,0.007c0.175-0.092,0.108-0.232,0.108-0.232l-0.005-0.011l-0.018-0.027l-0.049-0.058
			l-0.074-0.067c-1.214-1.343-4.138-3.519-9.338-8.986c-5.857-6.071-11.332-10.14-14.574-12.477
			c-1.643-1.178-1.987-1.626-3.051-2.76c-1.084-1.076-2.768-3.074-7.523-6.285c-4.792-3.152-7.789-4.024-9.307-4.514
			c-1.53-0.46-1.518-1.076,0.334-1.405c1.813-0.214,4.302,0.042,6.246,0.534C306.415,178.155,307.863,178.694,307.863,178.694z"/>
		<path style="fill:#231815;" d="M343.554,212.487c4.555,0.302,10.062,0.188,15.703-0.345c5.647-0.524,11.419-1.41,16.63-2.392
			c5.215-0.966,8.909-1.651,11.15-1.948c2.238-0.302,3.029-0.149,2.263,0.122c-1.528,0.483-4.007,3.388-12.075,5.296
			c-8.038,1.822-14.573,2.799-18.392,3.471c-1.914,0.318-2.473,0.242-3.991,0.165c-1.516-0.117-3.993-0.172-9.736-0.248
			c-5.747-0.092-9.123-0.831-10.649-1.468c-1.528-0.647-1.215-1.245,0.418-1.36C338.146,213.582,343.554,212.487,343.554,212.487z"
			/>
		<path style="fill:#231815;" d="M402.436,200.55c3.207-0.433,6.926-1.925,10.536-3.964c3.816-2.24,8.012-4.026,11.532-5.659
			c3.57-1.613,5.921-2.795,7.361-3.579c1.419-0.785,2.056-0.98,1.666-0.511c-0.391,0.449-0.663,1.42-1.617,2.737
			c-0.934,1.313-2.57,2.963-5.333,4.426c-2.758,1.456-5.238,2.659-7.265,3.789c-2.063,1.12-3.485,2.148-4.753,3.046
			c-1.224,0.853-1.661,0.948-2.786,1.286c-1.146,0.292-2.912,1.022-7.253,2.151c-4.398,1.051-7.171,0.469-8.335-0.078
			c-1.187-0.575-0.927-1.187,0.258-1.378c1.198-0.205,2.747-0.709,3.938-1.236C401.578,201.049,402.436,200.55,402.436,200.55z"/>
		<path style="fill:#231815;" d="M440.982,179.11c1.265-3.053,2.549-6.851,4.281-10.701c1.688-3.855,3.982-7.721,6.708-10.725
			c2.74-3.004,5.279-4.43,6.814-5.089c1.564-0.646,2.172-0.605,1.721-0.249c-0.89,0.775-1.849,3.253-5.457,7.401
			c-3.57,4.293-5.206,8.569-5.944,11.068c-0.38,1.252-0.589,1.569-1.15,2.443c-0.534,0.888-1.396,2.356-2.728,6.108
			c-0.75,2.137-1.451,3.754-2.084,4.89l-0.455,0.817l-0.453,0.097c-1.116,0.242-2.211-0.111-2.659-0.538
			c-0.476-0.412-0.589-0.755-0.623-0.994c-0.058-0.51,0.463-0.568,1.148-0.414c0.601,0.126,1.148-0.239,1.304-0.536l-0.752,0.757
			C440.932,181.005,440.982,179.11,440.982,179.11z"/>
		<path style="fill:#231815;" d="M461.971,162.584c-0.292,1.467-0.127,3.273,0.212,5.256c0.193,1.021,0.389,2.07,0.591,3.136
			c0.097,0.578,0.205,1.046,0.288,1.741c0.089,0.679,0.094,1.313,0.09,1.949c-0.073,2.507-0.556,4.868-1.233,7.143
			c-0.685,2.27-1.59,4.435-2.754,6.379c-1.159,1.941-2.487,3.46-3.876,4.484c-1.376,1.033-2.878,1.481-3.968,1.424
			c-1.111-0.058-1.7-0.485-1.939-0.685c-0.242-0.214-0.175-0.288,0.14-0.205c0.625,0.188,1.766-0.044,2.848-1.028
			c1.098-0.973,2.241-2.623,3.724-5.213c2.897-5.284,3.421-10.479,3.06-12.951c-0.101-0.644-0.152-0.909-0.2-1.327
			c-0.05-0.417-0.044-0.792-0.078-1.367c-0.027-0.57-0.087-1.32-0.228-2.505c-0.115-1.191-0.417-2.798-0.398-5.249
			c0.037-2.477,0.847-4.468,1.719-5.707c0.883-1.254,1.727-1.905,2.33-2.213c1.201-0.621,1.417-0.035,0.77,0.989
			c-0.646,1.053-1.159,2.602-1.221,3.824C461.75,161.682,461.971,162.584,461.971,162.584z"/>
		<path style="fill:#231815;" d="M359.654,250.707c4.684-1.028,10.209-2.615,15.578-4.9c1.376-0.607,2.765-1.217,4.155-1.829
			c1.436-0.607,2.864-1.159,4.276-1.7c2.783-1.058,5.525-2.098,8.137-3.09c5.146-1.978,8.468-3.644,10.354-4.842
			c1.857-1.206,2.574-1.64,2.061-0.96c-0.529,0.632-1.003,1.912-2.507,3.557c-1.47,1.649-3.947,3.653-7.913,5.39
			c-3.954,1.746-7.545,3.113-10.504,4.424c-1.482,0.646-2.806,1.27-3.939,1.868c-1.206,0.628-2.27,1.18-3.172,1.65
			c-1.827,0.93-2.418,1.024-3.971,1.399c-1.557,0.354-4.086,1.008-9.86,2.553c-11.502,2.991-14.161,1.757-11.033,0.405
			C354.483,253.308,359.654,250.707,359.654,250.707z"/>
		<path style="fill:#231815;" d="M419.981,223.398c3.876-1.658,8.065-4.568,12.967-7.393c2.57-1.408,5.19-2.413,7.715-3.418
			c2.53-0.991,4.985-1.921,7.258-2.857c2.277-0.931,4.136-1.776,5.639-2.537c1.449-0.801,2.625-1.454,3.397-2.056
			c1.573-1.176,2.222-1.626,1.822-0.969c-0.414,0.612-0.683,1.827-1.918,3.442c-1.201,1.613-3.366,3.591-6.926,5.249
			c-3.55,1.654-6.777,2.929-9.43,4.138c-2.673,1.203-4.704,2.301-6.043,3.303c-1.397,1.019-1.88,1.196-3.156,1.776
			c-1.297,0.559-3.288,1.654-8.1,4.267c-4.831,2.606-8.537,3.051-10.181,2.484c-1.626-0.577-1.111-1.164,0.232-1.392
			c1.415-0.306,3.147-1.314,4.456-2.263C419.031,224.235,419.981,223.398,419.981,223.398z"/>
		<path style="fill:#231815;" d="M470.389,163.702c2.372-1.037,4.663-3.95,7.564-6.811c2.852-2.722,5.949-5.405,9.124-7.417
			c3.129-1.988,5.654-2.87,7.196-3.219l0.658-0.149l0.124,0.099c0.225,0.179,0.377,0.168,0.794,0.694
			c0.12,0.181,0.202,0.502,0.118,0.755c-0.062,0.208-0.173,0.333-0.223,0.377l-0.26,0.174c-0.225,0.09-0.306,0.075-0.396,0.106
			c-0.159,0.066-0.274,0.104-0.212-0.111c0.042-0.12,0.129-0.266,0.267-0.483c0.073-0.083,0.154-0.322-0.018-0.373
			c-0.129-0.055-0.29-0.064-0.46-0.08l0.127-0.008c-0.955,0.995-2.517,2.595-5.533,4.691c-4.378,3.082-7.392,6.302-8.944,8.219
			c-0.748,0.966-1.058,1.164-1.85,1.773c-0.4,0.31-0.914,0.727-1.696,1.419c-0.805,0.678-1.817,1.675-3.575,2.894
			c-1.764,1.238-3.694,1.665-5.072,1.59c-0.702-0.039-1.275-0.157-1.73-0.341c-0.464-0.142-0.798-0.352-1.04-0.543
			c-0.969-0.746-0.54-1.205,0.481-1.148c1.054,0.041,2.376-0.336,3.211-0.92c0.428-0.288,0.762-0.573,0.989-0.816
			C470.264,163.865,470.389,163.702,470.389,163.702z"/>
		<path style="fill:#231815;" d="M481.513,166.603c4.162-3.145,9.574-8.41,15.36-11.157c2.864-1.38,5.15-1.76,6.492-1.815
			c1.362-0.037,1.817,0.193,1.385,0.341c-0.886,0.333-2.142,2.146-6.037,4.207c-3.918,2.155-6.616,4.612-8.063,6.149
			c-1.419,1.596-1.215,0.359-6.066,4.442c-4.787,4.154-6.887,3.688-5.777,2.174C479.91,169.446,481.513,166.603,481.513,166.603z"/>
		<path style="fill:#231815;" d="M487.72,173.424c4.502-2.186,9.935-7.132,15.953-9.452c2.991-1.162,5.701-1.102,7.102-0.38
			c0.704,0.352,1.04,0.747,1.164,0.969c0.124,0.216,0.053,0.281-0.157,0.182c-0.425-0.23-1.245-0.117-2.257,0.26
			c-1.028,0.371-2.303,1.024-4.272,1.859c-3.952,1.758-6.756,4.111-8.325,5.496c-1.585,1.424-1.155,0.348-6.563,3.727
			c-2.737,1.681-4.801,2.126-5.827,1.964c-1.028-0.164-0.992-0.755-0.264-1.212C485.778,175.873,487.72,173.424,487.72,173.424z"/>
		<path style="fill:#231815;" d="M473.16,199.664c0.819-0.281,1.582-0.847,2.424-1.302c0.821-0.515,1.601-1.198,2.438-1.824
			c1.589-1.424,3.182-3.039,4.755-4.82c3.166-3.503,6.405-7.511,10.432-10.251c4.016-2.765,7.628-3.386,9.588-3.294
			c2.003,0.057,2.56,0.329,1.895,0.448c-1.341,0.382-3.968,1.553-9.17,5.234c-2.613,1.921-4.665,4.101-6.312,6.073
			c-1.652,1.965-2.965,3.69-3.931,4.987c-0.977,1.293-1.392,1.562-2.374,2.376c-1.093,0.725-2.512,2.294-6.851,4.951
			c-1.052,0.709-2.211,1.021-3.145,1.424c-0.964,0.356-1.902,0.423-2.669,0.564c-0.773,0.152-1.451,0.108-2.015,0.034
			c-0.563-0.062-1.01-0.145-1.352-0.241c-1.36-0.382-1.079-0.952,0.207-1.252c0.646-0.172,1.403-0.306,2.117-0.617
			c0.685-0.35,1.382-0.708,2.01-1.028c0.598-0.342,1.063-0.784,1.412-1.031C472.954,199.826,473.16,199.664,473.16,199.664z"/>
		<path style="fill:#231815;" d="M187.547,282.023c-2.054,4.376-3.476,9.869-4.536,15.647c-1.014,5.811-1.649,12.045-1.691,18.344
			c-0.034,12.482,3.071,25.576,8.995,35.528c2.981,4.965,6.358,8.576,9.506,11.129c0.812,0.614,1.58,1.196,2.307,1.746
			c0.782,0.474,1.518,0.922,2.209,1.343c1.353,0.923,2.705,1.382,3.787,1.955c1.083,0.587,2.063,0.844,2.809,1.153
			c0.755,0.288,1.313,0.522,1.67,0.692c0.716,0.338,0.63,0.421-0.251,0.209c-0.881-0.214-2.002-0.38-3.488-0.582
			c-0.723-0.186-1.53-0.391-2.432-0.621c-0.918-0.219-1.928-0.492-2.986-0.973c-1.06-0.465-2.312-0.855-3.504-1.622
			c-1.229-0.708-2.606-1.461-3.913-2.558c-2.756-2.015-5.569-4.965-8.155-8.879c-5.167-7.877-7.619-16.052-9.124-22.991
			c-1.511-6.963-1.836-12.956-1.891-17.292c-0.034-4.353,0.184-5.59,0.678-8.956c0.271-1.681,0.607-3.893,1.256-7.267
			c0.678-3.37,1.518-7.923,3.626-14.15c1.056-3.145,2.5-5.838,3.807-8.056c1.32-2.243,2.549-4.125,3.588-5.767
			c2.098-3.269,3.414-5.595,4.212-7.115c0.803-1.511,1.196-2.171,1.42-1.944c0.186,0.212,0.179,1.334-0.371,3.122
			c-1.081,3.579-3.299,8.031-4.948,11.597C188.438,279.287,187.547,282.023,187.547,282.023z"/>
		<path style="fill:#231815;" d="M358.327,260.122c1.765,0.311,3.329,0.57,4.516,0.877c1.16,0.327,2.082,0.623,2.86,1.005
			c0.807,0.378,1.376,0.872,1.903,1.608c0.499,0.739,1.102,1.705,1.498,3.108c0.985,2.777,2.756,7.587,3.961,12.363
			c1.242,4.769,1.967,9.473,1.905,11.817c-0.002,2.347,0.492,10,0.31,17.568c-0.094,3.801-0.211,7.504-0.646,10.745
			c-0.124,1.599-0.423,2.991-0.647,4.129c-0.226,1.134-0.368,2.017-0.495,2.542c-0.548,2.077-0.207,4.73-0.458,7.207
			c-0.111,2.522-0.812,4.78-2.508,5.97c-1.787,1.136-3.71,4.139-5.402,7.196c-1.707,3.041-3.101,6.198-3.324,7.877
			c-0.446,3.37-5.077,6.108-5.914,8.652c-0.861,2.556-1.636,5.086-2.432,6.289c-0.777,1.183-4.822,3.375-3.733,6.053
			c0.518,1.318-0.366,2.491-1.332,3.384c-0.991,0.886-2.149,1.488-2.149,1.488s-2.876-2.577-2.501-4.914
			c0.159-1.173,0.853-2.28,1.435-3.12c0.593-0.833,1.123-1.376,1.123-1.376s2.777-3.051,2.77-4.38
			c-0.016-1.33,0.393-4.666,2.694-5.351c2.278-0.688,3.824-6.86,4.85-8.397c0.534-0.761,1.739-2.293,2.921-3.743
			c1.153-1.463,2.225-2.882,2.522-3.354c0.297-0.471,1.083-2.938,1.843-5.59c0.778-2.659,1.378-5.531,1.932-6.853
			c0.501-1.343,1.267-4.414,1.548-7.322c0.248-1.435,0.191-2.862,0.274-3.977c0.081-1.118,0.085-1.96,0.088-2.307
			c0.026-0.345,0.251-1.38,0.584-2.813c0.31-1.445,0.621-3.393,0.897-5.369c0.57-3.971,0.918-8.24,0.789-9.892
			c-0.118-1.654-0.761-5.397-1.659-9.008c-0.839-3.626-1.939-7.09-2.245-8.495c-0.308-1.41-1.267-2.841-2.194-4.182
			c-1.012-1.302-1.905-2.57-2.346-3.66c-0.425-1.106-1.33-1.502-2.158-2.252c-0.883-0.72-1.475-1.905-1.758-4.575
			c-0.29-2.678-0.11-4.847,0.078-6.395C357.945,261.093,358.327,260.122,358.327,260.122z"/>
		<path style="fill:#231815;" d="M143.951,91.424c-3.635,4.942-6.968,12.967-8.748,19.593c-0.936,3.318-1.452,5.688-1.833,7.156
			c-0.364,1.465-0.74,1.996-0.775,1.446c-0.011-0.544-0.557-1.315-0.943-2.725c-0.377-1.395-0.731-3.483-0.124-6.283
			c1.189-5.578,2.749-9.831,3.495-12.405c0.375-1.292,0.663-1.572,1.27-2.424c0.61-0.849,1.569-2.251,3.605-5.596
			c2.071-3.328,3.848-4.928,4.914-5.467c1.07-0.54,1.458-0.026,0.996,0.985c-0.467,1.01-0.948,2.444-1.293,3.621
			C144.168,90.502,143.951,91.424,143.951,91.424z"/>
		<path style="fill:#231815;" d="M138.828,131.732c2.714,8.97,9.897,20.446,16.607,29.045c3.34,4.345,5.91,7.134,7.432,8.866
			c1.58,1.636,1.978,2.406,1.279,1.926c-0.662-0.513-2.033-0.743-3.906-1.857c-0.476-0.265-1.003-0.564-1.567-0.918
			c-0.532-0.384-1.107-0.816-1.725-1.307c-1.267-0.957-2.535-2.287-3.973-3.899c-5.521-6.621-9.358-12.33-11.658-15.663
			c-1.159-1.665-1.307-2.246-1.912-3.712c-0.55-1.497-1.613-3.851-3.825-9.483c-2.139-5.684-2.386-9.442-2.064-11.16
			c0.269-1.716,0.934-1.474,1.422,0.122c0.444,1.611,1.419,3.657,2.273,5.257c0.446,0.792,0.842,1.493,1.125,1.995
			C138.621,131.441,138.828,131.732,138.828,131.732z"/>
		<path style="fill:#231815;" d="M112.52,136.259c1.909,4.842,4.408,10.509,6.678,16.668c2.114,6.085,4.431,12.19,6.616,17.745
			c2.172,5.546,3.687,9.446,4.493,11.827c0.821,2.369,0.872,3.232,0.41,2.452c-0.876-1.553-4.307-3.851-8.047-12.259
			c-3.639-8.372-6.262-15.275-7.997-19.073c-0.89-1.885-1.014-2.477-1.458-4.068c-0.46-1.582-1.214-4.193-3.711-9.983
			c-2.514-5.78-3.743-9.307-4.076-11.076c-0.347-1.764,0.317-1.846,1.394-0.329C108.95,131.187,112.52,136.259,112.52,136.259z"/>
		<path style="fill:#231815;" d="M149.91,203.15c4.348,5.56,9.471,12.28,14.736,19.218c1.318,1.721,2.648,3.471,3.989,5.132
			c1.385,1.707,2.784,3.421,4.141,5.167c2.724,3.478,5.273,7.083,7.377,10.752c4.268,7.339,5.422,13.575,5.263,17.111
			c0.012,1.778-0.35,2.921-0.471,3.448c-0.161,0.529-0.264,0.467-0.262-0.152c-0.004-1.242-0.338-3.133-1.415-5.981
			c-1.037-2.86-2.809-6.641-5.852-11.834c-3.09-5.187-6.544-9.471-9.568-13.057c-3.075-3.614-5.615-6.602-7.488-8.804
			c-1.88-2.188-2.284-2.906-3.506-4.803c-1.242-1.877-3.214-5.017-8.553-11.696c-5.342-6.566-8.523-10.472-10.003-12.293
			c-1.495-1.774-0.931-2.149,1.263-0.771C143.733,197.451,149.91,203.15,149.91,203.15z"/>
		<path style="fill:#231815;" d="M96.174,110.635c-0.738-1.421-1.672-2.997-2.57-4.795c-0.44-0.907-0.867-1.868-1.24-2.89
			c-0.338-0.985-0.669-1.993-0.939-3.03c-1.127-4.154-1.341-8.633-1.01-12.447c0.738-7.572,2.314-10.452,2.316-9.369
			c0.014,1.105,1.606,3.464,1.378,9.099c-0.242,5.617,0.741,9.886,1.815,12.139c0.494,1.136,0.538,1.499,0.679,2.448
			c0.177,0.923,0.483,2.428,2.498,5.765c2.072,3.342,2.806,5.904,2.675,7.146c-0.103,1.253-0.766,1.248-1.362,0.318
			c-0.619-0.938-1.663-2.039-2.574-2.889C96.931,111.28,96.174,110.635,96.174,110.635z"/>
		<path style="fill:#231815;" d="M101.391,85.458c-0.382-2.536-1.295-5.548-1.994-8.84c-0.686-3.273-1.162-6.93-0.464-10.285
			c0.69-3.357,2.241-5.371,3.296-6.275c1.07-0.929,1.589-1.004,1.36-0.611c-0.412,0.872-0.274,3.052-0.955,7.119
			c-0.596,4.233,0.513,7.733,1.263,9.649c0.828,1.956-0.244,1.19,1.263,7.409c0.761,3.13,0.617,5.192,0.195,6.153
			c-0.407,0.964-1.044,0.883-1.394,0.031C103.289,88.088,101.391,85.458,101.391,85.458z"/>
		<path style="fill:#231815;" d="M111.416,79.331c0.039-2.497-0.276-5.517-0.387-8.726c-0.096-3.199-0.027-6.65,1.116-9.814
			c0.568-1.57,1.426-2.88,2.385-3.764c0.948-0.902,1.981-1.316,2.717-1.448c1.511-0.211,1.921,0.221,1.498,0.32
			c-0.428,0.14-0.985,0.748-1.479,1.684c-0.49,0.963-0.908,2.148-1.516,4.023c-0.598,1.901-0.708,3.816-0.669,5.424
			c0.041,1.619,0.244,2.967,0.453,3.955c0.464,1.989-0.463,1.113-0.092,7.197c0.212,3.049-0.195,4.965-0.748,5.836
			c-0.552,0.869-1.167,0.695-1.383-0.153C112.856,82.153,111.416,79.331,111.416,79.331z"/>
		<path style="fill:#231815;" d="M125.709,71.203c-0.25,1.67-0.426,3.507-0.448,5.399c-0.009,1.856,0.108,3.904,0.655,5.394
			c0.104,0.333,0.327,0.74,0.555,1.15c0.223,0.392,0.41,0.856,0.678,1.142c0.251,0.291,0.467,0.74,0.727,0.886l0.352,0.332
			l0.317,0.167c0.195,0.182,0.37,0.078,0.54,0.184c0.219-0.075,0.41,0.011,0.72-0.142c0.563-0.128,1.281-0.606,1.964-1.059
			c1.387-1.006,2.593-2.156,3.633-3.05c1.038-0.907,1.909-1.643,2.604-2.147c1.392-1.019,2.027-1.153,1.65-0.681
			c-0.38,0.472-0.61,1.433-1.228,2.869c-0.644,1.418-1.576,3.408-4.005,5.585c-1.251,1.038-2.62,2.032-4.399,2.4
			c-0.458,0.041-0.902,0.165-1.362,0.096c-0.455-0.067-0.923-0.123-1.346-0.249c-0.8-0.343-1.569-0.731-2.077-1.243
			c-0.619-0.468-1.008-0.978-1.397-1.464c-0.426-0.483-0.736-0.956-0.998-1.404c-0.283-0.455-0.548-0.882-0.796-1.281
			c-0.216-0.466-0.467-0.93-0.602-1.322c-0.603-1.611-0.493-2.076-0.455-3.3c0.083-1.208,0.186-3.151,0.536-7.41
			c0.379-4.254,1.121-6.611,1.696-7.717c0.587-1.106,1.198-0.951,1.374,0.299c0.154,1.23,0.419,2.882,0.656,4.216
			C125.511,70.179,125.709,71.203,125.709,71.203z"/>
		<path style="fill:#231815;" d="M274.104,406.187c-1.458-2.553-3.168-4.958-4.927-7.403c-1.73-2.408-3.487-4.677-5.298-6.719
			c-3.616-4.127-7.382-7.094-10.679-8.778c-0.419-0.202-0.778-0.4-1.083-0.594c-0.313-0.149-0.571-0.296-0.777-0.446
			c-0.414-0.299-0.623-0.598-0.644-0.879c-0.044-0.563,0.685-1.067,2.024-1.419c0.651-0.12,1.449-0.179,2.323-0.152
			c0.831,0.101,1.81,0.189,2.689,0.497c1.847,0.504,3.511,1.497,4.674,2.448c2.319,1.923,5.043,4.967,7.607,8.309
			c2.477,3.292,5.116,6.803,7.426,9.876c1.152,1.532,3.986,5.307,7.654,10.191c3.68,4.81,8.288,10.571,13.536,15.526
			c5.203,4.893,11.258,9.215,16.128,12.3c4.919,3.105,8.884,4.976,10.327,5.634c1.451,0.639,5.33,2.537,10.823,4.237
			c5.482,1.705,12.588,3.149,20.009,3.561c1.856,0.076,3.72,0.202,5.585,0.172c1.879,0.018,3.702,0.012,5.478-0.129
			c3.582-0.253,7.048-0.798,10.166-1.509c6.278-1.374,11.042-3.655,13.301-5.238c4.555-3.138,7.09-5.202,8.942-6.232
			c1.84-1.008,3.051-0.462,1.794,2.362c-0.393,0.621-0.936,1.505-1.705,2.455c-0.814,0.907-1.787,1.958-3.002,2.892
			c-2.386,1.93-5.491,3.658-8.643,4.958c-6.321,2.63-12.744,3.623-14.398,3.895c-0.833,0.119-3.697,0.469-7.676,0.476
			c-3.962-0.055-8.93-0.288-14.014-1.019c-5.079-0.688-10.207-1.838-14.461-3.094c-4.27-1.215-7.644-2.593-9.485-3.165
			c-3.679-1.157-10.485-4.325-16.734-8.611c-6.268-4.246-12.201-9.181-15.311-12.303c-3.191-3.013-8.155-7.453-12.464-11.817
			C278.976,412.119,275.206,408.078,274.104,406.187z"/>
		<path style="fill:#231815;" d="M351.41,385.62c2.687,7.49,9.823,17.109,16.572,23.205c1.693,1.509,3.216,2.567,4.475,3.156
			c1.263,0.598,2.22,0.683,3.025,0.578c0.778-0.172,1.343-0.476,1.661-0.578c0.326-0.101,0.391-0.025,0.14,0.23
			c-0.258,0.242-0.444,0.679-0.899,1.099c-0.203,0.248-0.462,0.492-0.821,0.69c-0.34,0.257-0.762,0.43-1.272,0.568
			c-2.059,0.624-5.19-0.182-8.212-2.554c-3.027-2.395-5.369-4.854-7.334-6.977c-1.956-2.13-3.497-3.959-4.659-5.303
			c-1.166-1.343-1.336-1.841-1.946-3.09c-0.557-1.286-1.675-3.239-3.909-8.059c-2.206-4.851-2.282-8.426-1.659-9.961
			c0.688-1.53,1.222-0.992,1.389,0.304c0.228,1.375,1.07,3.106,1.886,4.423C350.671,384.67,351.41,385.62,351.41,385.62z"/>
		<path style="fill:#231815;" d="M180.524,349.004c-0.267-1.511-1.703-2.312-3.4-2.438c-1.695-0.152-3.545,0.223-4.812,0.212
			c-2.54,0.002-5.986,1.168-7.992,0.923c-0.982-0.087-4.086,0.391-7.29,0.433c-2.99,0.034-5.96,0.387-6.98,0.439
			c-2.043,0.064-7.187,1.141-8.24,1.808c-1.053,0.625-0.37,0.531-2.65,0.869c-2.294,0.348-2.85-0.049-3.542,0.057
			c-0.688,0.11-2.943,0.895-2.943,0.895s-1.088,0.525-2.301,0.987c-1.221,0.44-2.567,0.821-3.009,0.545
			c-2.064-1.263-1.619,0.605-2.836,0.663c-1.208,0.073-2.24-0.844-4.592-0.343c-2.301,0.481-5.317,0.492-7.4,0.969
			c-2.086,0.476-3.276,0.005-4.927-0.018c-1.134-0.019,0.61,0.011-1.656-0.028c-3.322-0.088-3.053-2.471-2.126-2.906
			c0.925-0.433,3.021,0.083,4.173-0.379c1.152-0.458,3.45-0.925,5.325-0.462c1.877,0.471,2.806,0.467,3.718-0.011
			c0.908-0.478,3.213-1.422,4.338-1.452c1.141-0.007,2.011-0.164,2.742-0.092c3.241,0.299,4.474,0.605,5.325,0.048
			c0.849-0.563,0.462-0.049,2.45-0.766c1.981-0.743,2.806-1.348,4.176-1.553c1.38-0.207,1.976-0.782,2.903-0.918
			c0.922-0.14,1.764-0.743,2.701-0.87c0.929-0.134,2.968-0.872,4.106-1.451c1.116-0.64,5.024-0.862,6.013-0.403
			c1.001,0.476,1.475,0.899,3.384-0.004c0.959-0.449,1.39-0.794,1.757-1.021c0.315-0.232,0.57-0.345,1.191-0.331
			c1.231,0.032,1.73,0.913,2.595,0.899c0.849-0.053,2.684,0.232,3.393-0.828c0.706-1.072,1.451-1.656,2.774-1.903
			c1.334-0.248,2.119,0.078,2.82-0.055c0.681-0.133,1.569-1.746,2.581-1.916c0.994-0.152,2.629-1.865,4.557-1.442
			c1.852,0.375,4.458,2.105,5.082,4.813c0.364,1.337,0.205,3.736-0.281,5.379C181.157,349,180.66,350.1,180.524,349.004z"/>
		<path style="fill:#231815;" d="M99.659,351.397c-1.406-0.078-2.109,0.821-3.748,1.189c-1.642,0.363-2.27-1.578-4.354-1.732
			c-2.082-0.152-3.297,1.18-3.297,1.18l2.245,2.07c0,0,1.375,0.575,2.553,0.186c1.18-0.393,2.045,1.569,3.943,0.745
			c1.898-0.83,3.083-1.711,4.244-1.178C102.413,354.379,102.431,351.553,99.659,351.397z"/>
		<path style="fill:#231815;" d="M87.683,354.843c-1.123-1.033-0.794-3.386-2.185-3.494c-1.39-0.106-3.242-0.246-4.189,0.156
			c-0.946,0.403-3.745,0.665-3.745,0.665s-0.331,2.349,1.774,2.034c2.105-0.311,1.642-0.347,3.05-0.713
			c1.412-0.371,2.995,0.701,2.995,0.701L87.683,354.843z"/>
		<path style="fill:#231815;" d="M88.06,381.418c5.905,0.55,13,1.352,20.258,2.563c7.263,1.182,14.661,2.726,21.304,3.962
			c6.643,1.275,11.284,1.918,14.081,2.358c2.79,0.377,3.694,0.759,2.662,0.791c-1.026-0.016-2.546,0.589-5.155,0.87
			c-2.606,0.396-6.315,0.478-11.472-0.271c-5.107-0.835-9.705-1.585-13.621-2.225c-3.902-0.614-7.127-1.008-9.512-1.221
			c-2.386-0.211-3.037-0.395-4.859-0.851c-1.826-0.402-4.817-1.148-11.918-1.748c-7.094-0.563-11.332-0.927-13.308-1.482
			c-1.976-0.55-1.663-1.166,0.407-1.383c2.073-0.262,4.847-0.61,7.102-0.895C86.3,381.579,88.06,381.418,88.06,381.418z"/>
		<path style="fill:#231815;" d="M176.53,394.703c9.156,2.018,20.226,4.376,31.702,5.371c2.866,0.253,5.744,0.338,8.601,0.317
			c1.445-0.058,2.779-0.133,4.299-0.234c1.543-0.111,3.041-0.163,4.527-0.203c5.926-0.131,11.661-0.131,17.093-0.379
			c10.847-0.416,18.242-1.932,21.895-4.118c1.815-1.068,2.799-2.096,3.239-2.613c0.486-0.497,0.55-0.409,0.133,0.29
			c-0.803,1.339-2.209,3.616-5.992,5.691c-3.732,2.075-9.59,3.763-17.93,4.35c-8.33,0.596-15.854,0.502-22.059,0.971
			c-6.372,0.709-11.861,0.472-15.746,0.263c-3.931-0.226-5.033-0.485-8.04-1.1c-2.99-0.61-7.877-1.608-19.285-3.938
			c-11.348-2.349-17.975-3.986-21.033-4.939c-3.051-0.971-2.461-1.512,0.872-1.277C165.451,393.642,176.53,394.703,176.53,394.703z"
			/>
		<path style="fill:#231815;" d="M57.237,381.947c-6.584-3.473-13.235-9.029-19.604-15.165c-3.202-3.071-6.243-6.317-9.358-9.246
			c-3.128-2.974-6.338-5.816-9.365-8.576c-6.08-5.494-10.168-9.639-12.377-12.284c-2.215-2.643-2.652-3.667-1.76-2.813
			c1.801,1.735,6.529,3.763,15.926,11.771c4.681,4.039,8.916,7.676,12.416,10.953c3.49,3.296,6.28,5.944,8.479,7.771
			c2.183,1.831,2.705,2.445,4.251,4.047c0.775,0.798,1.813,1.831,3.501,3.297c1.702,1.436,4.037,3.384,7.619,5.468
			c3.591,2.056,6.611,3.195,8.986,3.68c2.381,0.525,4.111,0.412,5.252,0.377c1.129-0.083,1.709-0.02,1.704,0.258
			c-0.016,0.234-0.593,0.8-1.833,1.199c-2.441,0.941-6.089,1.044-8.912,0.511c-1.426-0.228-2.652-0.564-3.529-0.814
			C57.752,382.135,57.237,381.947,57.237,381.947z"/>
		<path style="fill:#231815;" d="M30.758,345.839c-5.91-6.276-15.093-14.237-22.195-21.336c-7.044-7.118-9.476-10.41-8.265-9.614
			c1.214,0.819,4.732,1.394,10.382,6.559c5.608,5.158,10.225,9.116,13.06,11.284c2.832,2.176,1.169,1.711,8.776,9.11
			c7.608,7.366,7.723,10.195,5.225,8.422C35.247,348.485,30.758,345.839,30.758,345.839z"/>
		<path style="fill:#231815;" d="M39.893,336.976c-4.861-6.588-13.202-14.714-19.243-22.339c-6.099-7.622-6.975-11.964-6.107-10.731
			c0.865,1.215,3.869,2.486,8.585,7.96c4.732,5.487,8.891,9.574,11.42,11.875c2.521,2.319,1.003,1.688,7.575,9.512
			c3.266,3.94,4.723,6.706,5.093,8.173c0.382,1.458-0.269,1.612-1.293,0.577C43.892,339.909,39.893,336.976,39.893,336.976z"/>
		<path style="fill:#231815;" d="M43.625,313.555c3.495,4.194,7.893,9.119,12.002,14.668c4.01,5.514,8.047,11.074,12.071,15.788
			c4.005,4.718,7.083,7.844,8.827,9.832c1.767,1.955,2.176,2.761,1.412,2.185c-0.761-0.577-2.151-1.104-4.265-2.324
			c-2.105-1.219-4.96-3.165-8.273-6.738c-6.511-7.21-10.989-13.542-13.932-16.814c-1.459-1.645-1.765-2.194-2.699-3.651
			c-0.953-1.442-2.519-3.814-6.917-8.788c-4.422-4.951-6.816-8.153-7.663-9.871c-0.854-1.712-0.195-1.909,1.274-0.665
			C38.407,309.639,43.625,313.555,43.625,313.555z"/>
		<path style="fill:#231815;" d="M387.435,398.507c5.609-4.844,10.989-12.323,17.571-19.542c1.654-1.808,3.476-3.554,5.443-5.211
			c2.103-1.613,4.313-2.974,6.566-4.053c4.509-2.167,9.108-3.733,13.572-4.872c8.94-2.241,15.521-2.303,19.326-1.841
			c1.911,0.235,3.126,0.6,3.688,0.819c0.564,0.214,0.49,0.31-0.186,0.244c-1.359-0.158-3.427,0.122-6.72,0.748
			c-3.294,0.672-7.847,1.636-14.269,3.356c-6.411,1.719-12.031,3.989-16.25,6.582c-4.122,2.554-6.766,5.836-8.726,8.21
			c-1.93,2.416-2.577,3.027-4.295,4.798c-0.854,0.883-1.978,2.068-3.653,3.936c-1.711,1.852-3.892,4.445-7.283,7.893
			c-3.384,3.449-6.632,5.799-9.404,7.159c-0.709,0.308-1.367,0.594-1.976,0.858c-0.616,0.241-1.242,0.338-1.776,0.476
			c-0.541,0.111-1.031,0.212-1.468,0.302c-0.456,0.014-0.861,0.004-1.21-0.011c-2.768-0.133-2.185-0.842,0.292-1.444
			c2.5-0.768,5.402-2.71,7.401-4.697c1.01-0.984,1.834-1.939,2.443-2.577C387.09,398.935,387.435,398.507,387.435,398.507z"/>
		<path style="fill:#231815;" d="M412.609,420.297c0.824-1.896,2.073-3.908,3.19-5.636c1.16-1.815,2.363-3.701,3.6-5.636
			c2.521-3.856,5.25-7.897,8.401-11.804c1.578-1.951,3.258-3.87,5.104-5.684c0.918-0.907,1.965-1.751,2.952-2.618
			c1.084-0.748,2.105-1.601,3.248-2.245c4.479-2.772,9.4-4.376,13.975-5.394c4.592-1.033,8.438-1.58,11.567-2.171
			c3.122-0.594,5.59-1.081,7.387-1.576c3.6-0.966,4.815-1.199,3.573-0.591c-1.245,0.573-2.936,1.856-6.152,3.28
			c-3.184,1.49-7.946,2.883-14.594,4.412c-6.658,1.507-12.202,3.991-16.103,7.175c-3.885,3.135-6.43,6.71-8.258,9.23
			c-1.79,2.599-2.388,3.276-3.969,5.206c-1.523,1.93-4.159,5.226-9.036,13.338c-2.07,3.922-3.12,7.824-4.891,10.536
			c-1.693,2.775-3.784,4.182-5.114,4.659c-1.359,0.492-1.983,0.407-1.96,0.138c-0.011-0.327,0.679-0.745,1.665-1.606
			c1.003-0.84,1.933-2.048,2.593-3.439c0.672-1.383,1.123-2.921,1.493-4.341c0.361-1.463,0.681-2.758,0.909-3.686
			C412.45,420.88,412.609,420.297,412.609,420.297z"/>
		<path style="fill:#231815;" d="M456.621,373.98c5.204-0.32,12.227-2.806,17.807-5.139c2.814-1.148,4.776-1.994,6.013-2.423
			c1.217-0.451,1.72-0.449,1.332-0.182c-0.759,0.493-1.624,2.682-5.963,4.805c-4.332,2.025-7.895,3.419-9.988,4.284
			c-1.047,0.43-1.382,0.43-2.259,0.545c-0.888,0.076-2.307,0.32-5.631,0.817c-3.336,0.471-5.385,0.142-6.294-0.237
			c-0.914-0.375-0.741-0.808,0.182-0.971C453.694,375.2,456.621,373.98,456.621,373.98z"/>
		<path style="fill:#231815;" d="M449.995,368.919c4.534-0.548,10.435-3.439,15.397-5.608c4.983-2.185,7.433-2.386,6.724-1.951
			c-0.725,0.393-1.589,2.252-5.332,4.139c-3.743,1.857-6.745,3.382-8.518,4.318c-0.883,0.472-1.184,0.487-1.951,0.639
			c-0.784,0.12-2.017,0.43-4.928,1.091c-2.931,0.635-4.787,0.382-5.606,0.037c-0.826-0.34-0.685-0.78,0.118-0.977
			c0.807-0.175,1.85-0.603,2.669-0.966C449.372,369.235,449.995,368.919,449.995,368.919z"/>
		<path style="fill:#231815;" d="M295.343,243.407c2.174,1.516,4.785,3.128,7.355,3.649c1.288,0.253,2.324,0.113,3.032-0.485
			c0.773-0.536,1.374-1.815,1.767-3.227c0.731-2.917,0.632-5.831-1.035-8.19c-1.559-2.413-4.102-4.405-6.676-6.174
			c-2.595-1.769-4.967-3.242-6.869-4.592c-1.91-1.352-3.382-2.544-4.373-3.568c-1.974-2.059-2.224-2.96-1.493-2.294
			c0.752,0.658,2.144,1.298,4.419,2.224c2.255,0.977,5.454,2.165,9.743,4.76c2.125,1.344,4.113,2.742,5.852,4.314
			c1.673,1.645,3.154,3.42,3.989,5.443c0.465,0.971,0.656,2.024,0.923,2.977c0.074,0.978,0.207,1.934,0.198,2.813
			c-0.081,0.872-0.159,1.693-0.23,2.457c-0.124,0.762-0.26,1.442-0.453,2.1c-0.193,0.655-0.375,1.192-0.628,1.661
			c-0.21,0.469-0.465,0.861-0.75,1.222c-0.529,0.72-1.214,1.334-2.335,1.986c-1.143,0.628-2.958,1.097-5.169,0.713
			c-2.206-0.364-4.723-1.438-7.773-3.28c-3.05-1.852-5.183-3.6-6.803-4.944c-1.61-1.362-2.675-2.349-3.333-3.013
			c-0.649-0.669-0.911-1.045-0.736-1.259c0.166-0.195,0.821-0.17,1.757,0.244c1.864,0.817,4.238,2.036,6.184,2.944
			C293.848,242.805,295.343,243.407,295.343,243.407z"/>
		<path style="fill:#231815;" d="M273.438,389.051c5.344-4.897,8.015-4.453,14.693-5.342c6.678-0.89,9.795-2.671,15.583-4.453
			c5.786-1.78,11.574,3.117,7.568,8.013c-4.007,4.898-10.685,4.453-13.802,8.905c-3.117,4.453-5.788,5.788-8.903,5.788
			c-3.117,0-6.68,3.117-12.912,0C269.431,398.846,268.541,387.716,273.438,389.051z"/>
		<path style="fill:#231815;" d="M289.912,417.1c6.232-0.446,13.356-4.896,17.362-6.234c4.007-1.336,8.905-3.115,13.802-3.115
			c4.898,0,6.234,3.561,2.671,8.013c-3.561,4.453-5.788,3.117-7.568,6.678c-1.781,3.563-9.795,11.13-12.466,11.576
			C303.714,434.019,290.356,422.442,289.912,417.1z"/>
		<path style="fill:#231815;" d="M163.025,348.537c0,4.007,6.678,10.686,6.678,10.686s4.203,9.538,8.013,8.013
			c0,0,6.234-3.117,4.452-9.349c-1.781-6.234-5.342-12.022-5.342-12.022S167.032,341.859,163.025,348.537z"/>
		<path style="fill:#231815;" d="M153.676,346.757c1.336,3.561,0.444,8.903,1.336,13.802c0.89,4.896,0,8.903-4.452,6.678
			s-2.671-2.225-5.788-7.124c-3.117-4.897-4.896-3.561-5.788-6.678c-0.89-3.117,2.227-5.788,2.227-5.788L153.676,346.757z"/>
		<path style="fill:#231815;" d="M364.593,216.771c0,4.162,3.121,11.969-8.327,15.089c0,0-14.049-8.845-13.009-14.049
			c1.04-5.203,6.244-2.08,6.244-2.08L364.593,216.771z"/>
		<path style="fill:#231815;" d="M383.844,212.089c0,3.642,4.164,6.243-3.642,11.447c0,0-8.454-6.973-7.285-8.847L383.844,212.089z"
			/>
		<path style="fill:#231815;" d="M176.744,194.396c0,7.285-1.04,10.407,4.684,9.887c5.723-0.52,7.285-5.203,7.285-6.765
			C188.713,195.958,176.224,192.315,176.744,194.396z"/>
		<path style="fill:#231815;" d="M352.183,275.97c-3.752,5.003-2.501,8.128,2.501,8.128s-1.251,10.63,5.627,8.753
			c6.878-1.875,7.504,0.626,6.253-10.004C365.314,272.218,355.935,269.092,352.183,275.97z"/>
		<path style="fill:#231815;" d="M347.181,302.23c4.07,1.017,3.128,5.629,2.501,10.005c-0.625,4.376-4.187,11.997-5.001,8.128
			C342.18,308.484,340.929,299.731,347.181,302.23z"/>
		<path style="fill:#231815;" d="M364.69,313.486c-1.877,4.376-15.632,9.379-9.379,12.505c6.252,3.126-1.877,12.505,4.376,11.88
			C365.939,337.245,373.443,314.737,364.69,313.486z"/>
		<path style="fill:#231815;" d="M343.43,354.754c-4.378-6.253,5.302-14.707,9.379-10.63l-4.378,10.63H343.43z"/>
		<path style="fill:#231815;" d="M197.793,257.067c-0.393-1.21-0.904-2.413-1.771-2.68c-0.409-0.115-0.851,0.046-1.231,0.718
			c-0.177,0.338-0.409,0.785-0.398,1.417c-0.012,0.311-0.009,0.66,0.018,1.044c0.067,0.379,0.21,0.789,0.364,1.23
			c0.736,1.788,2.232,3.023,3.729,3.722c1.52,0.727,3.103,0.96,4.721,1.104c1.624,0.129,3.303,0.06,5.112-0.099
			c1.811-0.182,3.75-0.377,5.926-0.915c4.332-1.118,8.072-3.559,11.507-5.236c3.448-1.714,6.646-2.926,9.023-3.817
			c1.069-0.4,1.788-0.915,2.142-1.412l0.279-0.189c0.046-0.152,0.14-0.092,0.219-0.671c-0.002-0.179-0.06-0.345-0.177-0.488
			l-0.26-0.193l-0.209-0.032l-0.203,0.163c-0.067,0.165-0.166,0.235-0.318,0.322c-0.14,0.066-0.226,0.285-0.067,0.536l0.198,0.31
			l0.17-0.522l0.08-0.124c-0.043,0.025-0.324-0.149-0.625-0.469l0.232-0.311c-1.253-0.265-3.83,0.212-7.543,2.682
			c-2.287,1.541-4.072,2.51-6.244,3.683c-2.183,1.099-4.654,2.659-8.677,3.917c-3.223,0.851-6.98,0.856-10.069,0.226
			C200.588,260.376,198.143,258.776,197.793,257.067z"/>
		<path style="fill:#231815;" d="M211.131,195.351c-0.561-0.35-0.893-0.96-1.028-1.619c-0.357-1.765,0.711-3.883,2.608-2.308
			c0.895,0.743,1.054,1.677,0.856,2.503C213.181,195.531,211.449,196.732,211.131,195.351z"/>
		<path style="fill:#231815;" d="M227.987,200.062c-1.619-0.563,0-2.353,1.412-2.823c1.412-0.472,2.117,0,2.471,0.941
			C232.224,199.12,230.694,201.003,227.987,200.062z"/>
		<g>
			<path style="fill:#231815;" d="M270.097,176.371C270.097,176.371,270.097,176.371,270.097,176.371
				c0.309-1.677,0.981-3.343,2.22-4.515c1.239-1.173,3.116-1.758,4.714-1.163c1.552,0.578,2.569,2.141,2.94,3.755
				c0.371,1.614,0.201,3.298,0.03,4.946C278.718,191.723,268.259,186.343,270.097,176.371z"/>
		</g>
		<g>
			<path style="fill:#231815;" d="M205.109,163.049C205.109,163.049,205.109,163.049,205.109,163.049
				c0.275-1.494,0.874-2.977,1.977-4.021c1.103-1.044,2.774-1.565,4.197-1.035c1.382,0.515,2.287,1.906,2.617,3.344
				c0.33,1.438,0.179,2.936,0.027,4.403C212.785,176.718,203.473,171.927,205.109,163.049z"/>
		</g>
	</g>
</g>
</svg>
