<?xml version="1.0" encoding="iso-8859-1"?>
<!-- Generator: Adobe Illustrator 18.1.1, SVG Export Plug-In . SVG Version: 6.00 Build 0)  -->
<svg version="1.1" id="_x31_" xmlns="http://www.w3.org/2000/svg" xmlns:xlink="http://www.w3.org/1999/xlink" x="0px" y="0px"
	 viewBox="0 0 512 512" style="enable-background:new 0 0 512 512;" xml:space="preserve">
<g>
	<g>
		<path style="fill:#BAD17D;" d="M116.755,212.319c6.488-8.341,25.024-37.996,24.096-50.044c-0.927-12.048-2.78-33.364,5.561-39.851
			s13.901-18.535,16.682-28.729c2.78-10.194,11.121-26.876,11.121-26.876s2.779-17.608,20.388,0
			c17.609,17.608,16.681,7.414,16.681,7.414s61.165-3.707,70.433-3.707c8.341-17.608,18.536-21.315,25.949-12.974
			c7.414,8.341,21.313,30.582,25.948,35.216c4.635,4.634,15.756,19.462,20.389,22.242c4.633,2.78,11.12,22.241,10.194,33.363
			c-0.926,11.122,26.877,58.386,31.51,63.946c4.633,5.56,6.488,10.192,12.048,12.047c5.561,1.854,25.948,8.341,37.069,14.828
			c11.121,6.488,23.169,36.145,17.609,48.191c0.927,12.974,11.121,15.754,16.681,26.875c5.561,11.121,6.486,50.971-3.707,50.971
			c-10.194,0-38.923-14.828-38.923-14.828l-16.681-9.268c0,0,1.853,21.315,2.78,27.802c0.927,6.488-1.853,13.903-1.853,21.316
			c0,7.414-9.268,36.143-16.681,43.557c-7.414,7.414-96.381,23.169-152.913,20.389c-56.532-1.855-63.02,0.926-78.774-0.927
			c-15.754-1.853-26.874-6.486-45.41-15.754c-18.536-9.268-34.291-21.316-32.437-35.217c1.854-13.901,11.121-24.095,11.121-24.095
			l-15.754,2.78l1.853-36.143l-18.535,3.707c0,0-21.315,20.387-35.216,18.534c-13.901-1.853-14.827-43.558-8.341-53.752
			c6.486-10.194,18.536-19.462,19.462-22.242c0.926-2.78-5.562-9.267-1.855-20.388c3.708-11.121,9.267-25.022,19.462-31.51
			c10.195-6.488,35.217-19.462,35.217-19.462L116.755,212.319z"/>
		<path style="fill:#8BBA4D;" d="M165.872,99.255c7.414-11.121,13.901-27.802,25.022-16.681
			c11.121,11.121,29.655,10.194,40.776,7.414c11.121-2.78,44.485-1.854,51.899-1.854s20.388-16.681,26.875-12.047
			c6.487,4.634,7.415,20.388,20.389,30.583c12.974,10.194,25.022,27.803,26.875,40.777c1.853,12.974,17.608,52.824,25.022,61.165
			c7.413,8.341,21.315,20.388,11.121,0.926c-10.194-19.462-25.948-38.923-29.655-50.044c-3.707-11.121,4.632-28.729-4.634-37.07
			c-9.267-8.341-19.462-14.828-24.095-24.096c-4.633-9.267-8.341-13.901-11.121-19.462c-2.78-5.56-17.609-23.168-25.022-23.168
			c-7.414,0-17.607,14.828-17.607,14.828s-51.897,3.707-62.092,3.707c-10.195,0-17.608,0-17.608,0s-12.974-15.754-19.462-14.828
			c-6.488,0.926-12.974,16.682-12.974,21.315c0,4.633-8.341,19.461-14.828,26.875c-6.488,7.414-13.901,23.168-13.901,36.143
			s-5.562,37.07-9.268,44.484c-3.706,7.414-14.827,24.096-14.827,24.096s5.559-0.001,14.827-11.122
			c9.268-11.121,13.901-34.289,14.828-48.191C147.338,139.106,165.872,99.255,165.872,99.255z"/>
		<path style="fill:#CCEF9C;" d="M149.191,388.4c-14.733-19.154-32.436-88.968,14.828-147.353
			c47.264-58.385,72.285-26.877,90.821-30.583c18.536-3.706,66.726-11.121,100.089,23.169
			c33.363,34.29,52.826,115.843,21.316,155.693C344.735,429.178,176.993,424.543,149.191,388.4z"/>
		<path style="fill:#FFFFFF;" d="M172.36,161.348c11.121-2.78,32.437-1.855,52.825,4.633c20.388,6.488,36.142,5.561,45.41,0
			c9.268-5.561,33.364-9.267,49.118-9.267s15.754,2.781,15.754,5.561c0,2.78-16.68,43.557-4.633,65.798
			c12.047,22.242,61.165,84.334,37.996,141.792c-12.048,0.927-28.73,0.927-28.73,0.927s-152.913,0.926-160.327,0.926
			c-7.414,0-32.437,0.929-37.07,1.854c-4.633,0.926,7.413-47.264,13.901-67.653c6.488-20.389,32.437-67.652,24.096-90.821
			S172.36,161.348,172.36,161.348z"/>
		<path style="fill:#984F9B;" d="M189.969,372.646c-10.195-0.927-54.677,3.707-69.506,6.488
			c-14.828,2.78-29.656,16.681-25.022,27.802c4.633,11.121,31.51,31.51,66.726,41.704c35.216,10.194,49.116,5.561,59.311,5.561
			c10.195,0,70.433,0,101.016-0.927c30.583-0.927,74.141-10.194,81.554-19.462c7.414-9.268,12.048-34.289,16.681-43.557
			c4.633-9.268,7.414-21.316,1.853-21.316c-5.561,0-58.385,1.854-69.506,1.854c-11.121,0-72.285,2.78-82.48,1.853
			C260.401,371.719,189.969,372.646,189.969,372.646z"/>
		<path style="fill:#B86EA2;" d="M183.481,371.719c-23.169,6.488-27.801,12.047-15.754,25.022
			c12.047,12.975,56.532,22.243,102.869,21.316c46.337-0.927,88.039-12.047,95.454-25.022c7.415-12.975,6.486-27.804-44.484-24.096
			C270.596,372.646,183.481,371.719,183.481,371.719z"/>
		<path style="fill:#94D3DE;" d="M196.455,391.18c-17.609-15.754-30.584-42.629-28.73-67.652
			c1.854-25.022,19.463-61.167,37.997-71.36c18.535-10.194,46.338-14.828,69.506-11.121c23.168,3.707,52.823,15.754,64.872,36.143
			c12.048,20.389,13.902,48.191,7.415,70.433c-6.488,22.242-13.901,34.289-27.802,40.776c-13.901,6.488-20.389,5.561-20.389,5.561
			s-55.605-3.707-66.726,5.56C215.917,401.375,196.455,391.18,196.455,391.18z"/>
	</g>
	<g>
		<path style="fill:#595959;" d="M199.144,390.847c-0.297-2.828-1.561-5.563-2.741-7.324c-1.177-1.727-3.749-2.675-4.673-3.793
			c-0.904-1.078-3.019-1.713-3.669-2.613c-0.643-0.889-0.933-2.023-2.119-3.852c-1.182-1.836-2.274-2.868-3.75-3.733
			c-1.485-0.868-2.487-3.734-3.111-5.074c-0.634-1.349-0.171-2.382-1.034-4.413c-0.839-2.048-1.108-1.52-2.946-4.012
			c-1.807-2.525-1.606-3.412-1.629-4.954c-0.007-0.776-0.418-2.585-0.855-4.424c-0.448-1.839-0.919-3.711-1.29-4.58
			c-0.766-1.728-1.607-4.994-1.694-6.473c-0.111-1.468-0.597-2.926-0.589-4.409c0.019-1.469-0.391-2.6-0.152-4.805
			c0.121-1.093,0.181-2.01,0.205-3.124c0.027-1.101,0.038-2.351,0.161-4.071c0.285-3.439,0.558-2.603,0.48-4.18
			c-0.053-1.574,0.752-3.37,2.7-8.324c0.447-1.113,0.798-2.53,1.428-4.313c0.61-1.784,1.188-5.618,1.417-7.192
			c0.099-0.725,0.29-1.424,0.634-2.215c-0.22-0.2-0.455-0.353-0.703-0.424c-0.918-0.261-1.749,0.369-2.433,1.006
			c-0.642,1.703-1.23,3.414-1.625,4.982c-0.965,3.805-2.229,5.027-2.826,6.906c-0.572,1.888,1.18,1.962-0.896,4.631
			c-0.43,0.569-0.805,2.804-0.984,4.894c-0.187,2.091-0.217,4.026-0.217,4.026c-0.01,0.001-0.308,3.891-0.481,5.037
			c-0.095,0.584-0.278,1.074-0.485,1.911c-0.2,0.838-0.441,2.039-0.501,4.049c-0.045,2.009-0.003,2.708,0.06,3.156
			c0.069,0.446,0.179,0.644,0.447,1.622c0.265,0.979,0.683,3.714,1.307,6.586c0.605,2.878,1.406,5.893,1.849,7.59
			c0.415,1.705,2.017,6.627,4.074,11.301c2.008,4.696,4.443,9.13,5.015,10.595c0.558,1.474,1.675,3.435,2.969,5.459
			c1.291,2.031,2.763,4.12,3.927,5.975c1.158,1.862,3.341,4.43,5.681,7.001c2.329,2.592,4.848,5.151,6.394,7.57
			c1.173,1.795,1.945,0.97,2.297-0.631C199.144,394.61,199.268,392.258,199.144,390.847z"/>
		<path style="fill:#595959;" d="M175.601,286.444c0.061,0.682,0.246,1.314,0.688,1.73c0.527,0.494,1.276,0.67,2.061,0.703
			c1.522-2.436,2.813-5.433,3.407-7.101c0.629-1.867,2.924-4.476,3.488-5.949c0.274-0.746,0.057-1.512-0.654-1.555
			c-0.706-0.04-1.917,0.663-3.47,2.95c-0.729,1.117-1.104,1.691-1.279,1.955c-0.06,0.095-0.136,0.212-0.23,0.358
			C178.192,281.802,176.845,283.291,175.601,286.444z"/>
		<path style="fill:#595959;" d="M189.849,270.705c1.512-1.747,1.62-3.141,3.201-5.374c1.622-2.213,3.64-1.78,6.207-3.993
			c2.592-2.19,3.372-4.316,3.371-4.329c-1.367,0.312-2.749,0.651-4.122,1.042c-0.001-0.01-2.105,1.171-3.273,2.816
			c-1.14,1.632-3.513,1.479-5.091,4.379c-1.545,2.893-2.114,4.926-3.676,6.169c-0.782,0.627-0.654,1.344,0.022,1.437
			C187.168,272.949,188.369,272.438,189.849,270.705z"/>
		<path style="fill:#595959;" d="M201.717,254.48c2.111-0.462,3.022,1.514,4.92,0.235c1.901-1.282,4.518-2.832,5.65-3.94
			c0.559-0.566,1.814-1.476,2.943-2.229c1.129-0.749,2.135-1.333,2.133-1.336c0.005,0.013-0.574-2.14-3.558-0.166
			c-2.931,2.024-2.233,1.662-4.058,3.195c-1.796,1.539-4.544,2.326-4.548,2.335C204.025,253.18,202.867,253.818,201.717,254.48z"/>
		<path style="fill:#595959;" d="M306.177,253.323c0.295-0.331,0.596-0.655,0.91-0.969c0.08-0.08,0.138-0.144,0.19-0.2
			c-0.061-0.789-0.147-1.693-0.204-2.583c-0.147-0.069-0.296-0.148-0.443-0.214c-2.108-0.964-4.112-1.643-5.479-2.002
			c-1.367-0.359-3.166-1.1-4.933-1.746c-1.762-0.653-3.486-1.223-4.616-1.349c-1.132-0.129-1.982,0.297-1.63,1.015
			c0.349,0.735,1.89,1.71,5.438,3.012c2.559,0.973,3.249,1.274,3.275,1.291c0.077,0.032,0.155,0.064,0.244,0.101
			C301.567,250.809,303.489,251.951,306.177,253.323z"/>
		<path style="fill:#595959;" d="M353.18,319.375c-0.272-1.418-0.595-3.396-0.92-5.294c-0.32-1.899-0.635-3.72-0.777-4.845
			c-0.282-2.257-1.057-4.438-1.48-6.664c-0.44-2.23-1.192-3.813-2.083-7.098c-0.455-1.642-0.986-2.974-1.681-4.466
			c-0.694-1.493-1.584-3.146-2.843-5.349c-1.268-2.204-1.745-3.061-2.032-3.626c-0.297-0.557-0.425-0.81-1.161-1.687
			c-0.741-0.875-1.363-1.963-2.322-3.677c-0.968-1.706-2.254-4.058-4.561-7.28c-1.045-1.45-2.528-3.059-4.488-5.098
			c-0.978-1.026-2.649-2.368-4.35-3.536c-1.702-1.172-3.429-2.167-4.442-2.688c-1.556-0.787-2.932-1.764-5.073-3.401
			c-0.077-0.018-0.155-0.041-0.233-0.053c-0.84-0.123-1.495,1.356-1.792,1.929c-0.041,0.079-0.084,0.142-0.126,0.214
			c1.142,0.682,2.31,1.431,3.468,2.227c2.501,1.708,4.936,3.618,7.047,5.308c2.115,1.693,3.334,3.156,4.249,4.406
			c0.914,1.256,1.525,2.31,2.365,3.348c0.836,1.04,1.495,1.21,2.16,1.643c0.65,0.435,1.326,1.14,1.992,3.28
			c0.284,0.897,2.137,3.354,3.747,5.749c1.628,2.378,3.035,4.668,3.038,4.667c-0.007-0.005,0.673,1.202,1.349,2.581
			c0.677,1.386,1.347,3.019,1.59,3.794c0.251,0.773,0.341,1.455,0.553,2.588c0.203,1.136,0.521,2.729,1.079,5.383
			c0.547,2.66,0.675,3.605,0.834,4.198c0.151,0.597,0.303,0.847,0.71,2.171c0.409,1.322,1.116,5.107,1.511,9.214
			c0.421,4.103,0.506,8.51,0.409,10.978c-0.076,2.458-0.22,9.78-1.691,16.797c-0.709,3.504-1.751,6.904-2.923,9.54
			c-0.288,0.662-0.586,1.272-0.876,1.833l-0.855,1.601c-0.53,0.965-0.969,1.71-1.277,2.17c-1.239,1.839-2.767,4.611-4.538,7.441
			c-1.762,2.831-3.806,5.705-5.867,7.787c-1.024,1.045-2.292,2.376-3.793,3.728c-0.752,0.673-1.561,1.351-2.421,2.002l-0.653,0.482
			c-0.223,0.155-0.475,0.331-0.574,0.39l-0.557,0.279l-0.74,0.352c-3.991,1.828-8.756,2.743-12.905,3.792
			c-1.531,0.374-2.268,0.97-2.369,1.478c-0.109,0.514,0.39,0.966,1.161,1.374c0.772,0.405,1.811,0.795,2.833,1.163
			c1.027,0.365,2.043,0.707,2.872,0.898c1.662,0.377,3.526,0.54,5.504,0.449c1.967-0.087,4.063-0.472,5.852-1.104
			c0.445-0.155,0.893-0.348,1.333-0.572c0.221-0.111,0.44-0.231,0.657-0.358l0.775-0.472c0.354-0.198,0.673-0.502,0.92-0.711
			c0.186-0.166,0.369-0.331,0.546-0.503c0.35-0.347,0.698-0.69,1.014-1.046c1.292-1.408,2.304-2.813,3.166-3.684
			c0.867-0.87,1.569-2.104,2.158-3.283c0.593-1.18,1.073-2.309,1.614-3.008c1.063-1.4,2.475-2.564,4.362-5.51
			c1.86-2.951,2.615-5.174,2.965-7.58c0.176-1.203,0.884-2.74,1.667-4.23c0.774-1.438,1.7-3.055,2.142-4.136
			c0.892-2.173,2.145-2.987,3.128-6.41c0.466-1.708,0.524-2.452,0.509-3.357c-0.023-0.903-0.102-1.972-0.14-4.312
			c-0.043-2.337,0.016-3.756,0.201-4.882c0.183-1.125,0.475-1.951,0.787-3.069c0.312-1.117,0.622-3.967,0.673-6.897
			C353.645,323.793,353.457,320.792,353.18,319.375z"/>
		<path style="fill:#595959;" d="M281.998,241.312c-3.341-0.675-5.112-0.118-9.01-0.201c-1.949-0.025-3.284-0.479-4.776-0.982
			c-1.489-0.497-3.137-1.045-5.662-1.134c-5.065-0.155-7.838,1.299-7.83,1.283c1.863,0.516,3.699,1.068,5.509,1.669
			c0.005-0.005,3.254,0.479,6.007,0.244c2.783-0.23,4.749,1.648,9.15,1.422c4.423-0.19,7.333-0.415,9.89,0.65
			c1.269,0.54,2.073,0.209,1.768-0.486C286.737,243.09,285.29,242.012,281.998,241.312z"/>
		<path style="fill:#595959;" d="M253.686,242.896c-2.746-0.72-2.319-2.913-5.658-2.647c-3.337,0.269-7.773,0.897-9.898,1.716
			c-1.064,0.4-3.213,1.018-5.074,1.596l-3.446,1.086c0.004,0.022-0.038,2.167,4.647,0.686c2.361-0.713,3.291-0.972,4.013-1.21
			c0.723-0.235,1.245-0.434,2.843-0.893c3.212-0.935,7.123-0.418,7.112-0.411C250.049,242.801,251.871,242.83,253.686,242.896z"/>
		<path style="fill:#595959;" d="M200.264,161.763c-2.695-0.392-5.43-0.447-8.202-0.337c-2.76,0.096-5.493,0.333-8.145,0.591
			c-5.297,0.525-10.332,1.074-14.562,0.755c-2.111-0.154-3.018-0.473-3.114-0.749c-0.098-0.287,0.607-0.557,1.709-0.825
			c2.211-0.514,5.996-1.177,8.558-1.37c5.125-0.307,14.409-1.397,21.858-1.139c1.849,0.062,6.433,0.366,12.173,1.569
			c5.751,1.15,12.584,3.216,19.349,5.043c3.386,0.906,6.769,1.717,10.002,2.296c1.61,0.284,3.213,0.53,4.699,0.682
			c1.496,0.15,2.94,0.2,4.305,0.187c5.47-0.084,9.587-1.063,11.071-1.357c1.489-0.313,5.521-1.238,10.825-2.955
			c5.316-1.675,11.877-4.167,18.798-6.326c0.87-0.26,1.719-0.537,2.67-0.774c0.949-0.206,1.807-0.373,2.718-0.536
			c1.796-0.322,3.593-0.58,5.366-0.782c3.545-0.404,6.99-0.571,10.15-0.616c6.329-0.079,11.526,0.245,14.382,0.285
			c11.405,0.288,15.363,2.926,10.184,2.875c-2.597-0.016-9.059-0.491-15.237-0.784c-3.09-0.142-6.112-0.209-8.55-0.191
			c-2.44,0.013-4.297,0.101-5.065,0.141c-0.767,0.045-3.398,0.092-7.001,0.468c-1.8,0.188-3.843,0.465-6.01,0.863
			c-0.531,0.086-1.055,0.216-1.595,0.37l-1.663,0.465c-1.117,0.32-2.253,0.662-3.395,1.016c-4.563,1.422-9.216,3.029-13.193,4.307
			c-3.973,1.293-7.272,2.239-9.009,2.769c-3.449,1.054-10.366,2.782-17.561,2.448c-1.789-0.071-3.58-0.298-5.304-0.579
			c-1.729-0.278-3.403-0.612-4.978-0.958c-3.149-0.697-5.9-1.447-7.901-1.986c-3.999-1.065-10.078-2.474-15.669-3.397
			c-2.795-0.464-5.464-0.792-7.681-1.003C203.031,162.011,201.266,161.906,200.264,161.763z"/>
		<path style="fill:#595959;" d="M162.098,87.406c-0.817,1.31-1.169,2.321-1.272,3.185c-0.05,0.436-0.061,0.866-0.087,1.321
			c-0.021,0.449-0.026,0.896,0.077,1.322c0.103,0.425,0.318,0.821,0.747,1.114c0.419,0.282,1.067,0.452,1.917,0.287
			c0.847-0.159,1.816-0.624,2.742-1.387c0.926-0.76,1.805-1.8,2.582-3.08c1.563-2.609,2.362-4.969,2.977-7.221
			c0.601-2.252,0.961-4.404,1.356-6.608c0.404-2.192,0.804-4.486,1.673-6.779c0.221-0.567,0.478-1.124,0.783-1.642
			c0.155-0.253,0.319-0.499,0.497-0.719c0.224-0.26,0.459-0.525,0.703-0.785c0.977-1.039,2.12-2.053,3.486-2.888
			c1.362-0.829,2.83-1.413,4.295-1.573c1.465-0.172,2.902,0.1,4.199,0.711c2.61,1.239,4.616,3.584,6.291,5.937
			c1.678,2.386,3.063,4.891,4.401,7.285c1.343,2.399,2.609,4.708,4.111,6.827c0.736,1.036,1.587,1.847,2.471,2.385
			c0.877,0.541,1.784,0.791,2.506,0.757c0.734-0.029,1.233-0.342,1.491-0.757c0.263-0.417,0.308-0.934,0.277-1.481
			c-0.065-1.109-0.301-2.254-1.363-4.246c-1.07-1.966-2.878-4.854-6.169-8.451l-4.431-4.833c-1.276-1.379-2.412-2.627-3.827-3.896
			c-0.71-0.631-1.495-1.269-2.445-1.876c-0.953-0.601-2.08-1.188-3.474-1.576c-1.385-0.389-3.056-0.55-4.821-0.249
			c-1.765,0.292-3.568,1.03-5.277,2.133c-1.364,0.884-2.567,1.861-3.68,2.864l-0.818,0.758l-0.396,0.383
			c-0.139,0.14-0.326,0.326-0.463,0.487c-0.596,0.67-1.045,1.337-1.451,1.992c-1.573,2.619-2.578,5.11-3.625,7.511
			c-1.02,2.397-1.978,4.698-2.955,6.868C164.151,83.646,163.153,85.701,162.098,87.406z"/>
		<path style="fill:#595959;" d="M276.194,76.68c-1.739,3.883-1.203,7.185,0.349,8.023c1.568,0.837,4.022-0.684,6.653-6.079
			c1.351-2.743,2.384-5.21,3.299-7.581c0.92-2.367,1.719-4.649,2.688-6.921c0.487-1.131,1.021-2.262,1.662-3.328
			c0.319-0.529,0.668-1.041,1.047-1.491c0.189-0.224,0.387-0.433,0.582-0.608c0.094-0.086,0.193-0.169,0.299-0.244
			c0.113-0.075,0.263-0.175,0.4-0.252c1.123-0.667,2.482-1.107,4.024-1.167c1.538-0.058,3.238,0.268,4.962,0.977
			c3.459,1.438,6.463,3.848,9.079,6.412c2.62,2.588,4.879,5.401,6.88,8.208c3.993,5.632,6.989,11.243,9.277,16.064
			c1.11,2.357,2.319,3.846,3.443,4.546c1.116,0.692,2.197,0.616,2.828-0.475c0.623-1.085,0.732-3.215-0.276-6.173
			c-1.006-2.947-3.11-6.735-6.913-10.919l-5.042-5.527l-3.977-4.497c-1.362-1.511-2.847-3.144-4.94-5.009
			c-1.049-0.929-2.255-1.915-3.72-2.917c-1.467-0.993-3.191-2.021-5.353-2.858c-1.725-0.66-3.551-1.14-5.446-1.277
			c-1.89-0.144-3.846,0.09-5.632,0.719c-0.448,0.159-0.878,0.33-1.311,0.533c-0.487,0.224-0.983,0.535-1.381,0.827
			c-0.813,0.599-1.461,1.231-2.054,1.866c-1.177,1.272-2.131,2.567-3.026,3.857c-1.773,2.583-3.266,5.159-4.65,7.707
			C278.567,71.642,277.322,74.167,276.194,76.68z"/>
		<path style="fill:#595959;" d="M179.707,100.218c-4.544-2.65-3.889-6.322-1.944-9.239c1.944-2.918,4.861-5.835,8.266-3.404
			c3.403,2.431,1.458,4.376,4.375,7.78C193.322,98.758,185.542,103.621,179.707,100.218z"/>
		<path style="fill:#595959;" d="M300.299,96.814c-2.889-3.251,2.431-7.78,2.431-7.78s-4.863-3.404-0.486-4.863
			c4.375-1.459,7.294,0.486,8.752,0.973c1.458,0.486,0,1.458,1.458,3.403c1.459,1.945,0.486,3.891,0,5.349
			c-0.485,1.459-2.43,3.404-2.43,3.404S304.189,101.19,300.299,96.814z"/>
		<path style="fill:#595959;" d="M217.149,107.025c-5.349-3.403-1.945-8.267,2.431-5.349c4.375,2.917,6.807,6.321,7.294,8.265
			c0.486,1.946-1.461,3.405,2.43,10.212c3.891,6.808,2.919,9.725,0,5.836c-2.917-3.89-7.78-10.698-8.752-13.129
			C219.581,110.428,217.149,107.025,217.149,107.025z"/>
		<path style="fill:#595959;" d="M261.398,124.53c0,0-0.487-6.807,1.458-10.697c1.945-3.891,1.945-5.349,4.377-9.725
			c2.431-4.376,3.405-9.239,5.35-9.725c1.944-0.487,5.349,5.349,2.916,7.294c-2.431,1.945-3.404,2.917-6.321,6.807
			c-2.917,3.89-5.835,7.293-5.835,10.697C263.344,122.585,261.398,124.53,261.398,124.53z"/>
		<path style="fill:#595959;" d="M233.195,153.219c-0.972-1.945-3.403-6.321-7.78-5.349c-4.377,0.973-2.917,4.376,0,4.376
			C228.333,152.247,233.195,153.219,233.195,153.219z"/>
		<path style="fill:#595959;" d="M263.83,151.761c0.486-1.945-0.973-9.24,3.891-9.725c4.863-0.486,3.889,4.863,1.458,5.835
			C266.747,148.843,263.83,151.761,263.83,151.761z"/>
		<path style="fill:#595959;" d="M333.364,162.458c6.523,2.175,8.266-1.945,9.239-5.835c0.972-3.891-7.294-9.239-11.671-7.294
			c-4.377,1.945-17.505,0-25.285,0c-7.78,0-16.532,3.89-18.478,4.376c-1.945,0.486,1.458-1.946,6.321-3.89
			c4.863-1.945,10.211-1.459,16.047-1.459c5.835,0,16.046,1.459,19.449-0.486c3.405-1.945,6.322-0.973,10.699,1.459
			c4.375,2.43,5.349,4.862,5.349,7.78c0,2.917-0.973,7.294-6.322,7.78c-5.349,0.486-8.266,0.486-8.266,0.486
			S330.447,161.485,333.364,162.458z"/>
		<path style="fill:#595959;" d="M210.861,70.304c-1.715-0.206-3.215-0.037-4.341,0.386c-1.124,0.417-1.876,1.113-1.941,1.822
			c-0.046,0.705,0.357,1.379,1.336,2.012c0.991,0.627,2.646,1.216,5.16,1.593c5.125,0.765,9.212,0.542,13.609-0.014
			c2.201-0.286,4.484-0.645,7.035-1.144c0.631-0.124,1.305-0.265,1.956-0.412c0.65-0.145,1.318-0.283,2.013-0.411
			c1.39-0.256,2.883-0.476,4.502-0.648c12.965-1.341,25.171-0.745,34.262-0.563c4.436,0.106,6.52-1.693,5.245-3.246
			c-1.271-1.537-5.997-2.843-15.001-1.249c-4.809,0.864-7.553,1.1-10.833,1.255c-3.274,0.174-7.084,0.219-13.962,1.1l-4.063,0.522
			c-1.317,0.158-2.704,0.369-3.887,0.48c-2.467,0.223-4.924,0.181-7.316,0.041C219.837,71.537,215.3,70.839,210.861,70.304z"/>
		<path style="fill:#595959;" d="M158.115,110.576c1.234-2.515,1.963-4.815,2.198-6.631c0.238-1.796-0.02-3.188-0.708-3.608
			c-0.692-0.332-1.553-0.032-2.833,1.28c-1.265,1.326-2.908,3.656-4.814,7.382c-0.391,0.768-0.762,1.524-1.116,2.294
			c-0.178,0.384-0.35,0.773-0.52,1.181l-0.258,0.649c-0.088,0.242-0.174,0.467-0.285,0.887l0.071-0.244
			c-0.969,2.885-2.316,5.341-3.889,7.976c-0.779,1.315-1.596,2.669-2.374,4.105l-0.574,1.09c-0.198,0.378-0.327,0.679-0.528,1.045
			c-0.415,0.794-0.778,1.615-1.087,2.452c-1.23,3.358-1.709,6.927-1.892,10.807c-0.176,3.886-0.019,8.113,0.217,12.933
			c0.06,1.348,0.155,2.669,0.149,3.946c0.003,1.294-0.057,2.581-0.182,3.851c-0.251,2.54-0.771,5.015-1.522,7.379
			c-1.503,4.739-3.895,9.003-6.404,12.975c-0.63,0.995-1.265,1.973-1.906,2.936c-0.597,0.948-1.273,1.801-1.96,2.775
			c-1.344,1.901-2.564,3.8-3.713,5.644l-3.283,5.316c-1.062,1.715-2.065,3.209-3.155,4.738c-0.927,1.31-1.689,2.589-2.219,3.754
			l0.342-0.437c-0.168,0.18-0.207,0.248-0.265,0.328l-0.121,0.192c-0.066,0.113-0.118,0.21-0.166,0.304
			c-0.094,0.186-0.171,0.356-0.244,0.521c-0.143,0.327-0.258,0.627-0.357,0.907c-0.197,0.557-0.331,1.039-0.387,1.395
			c-0.024,0.175-0.052,0.348-0.086,0.497c-0.028,0.162-0.115,0.234-0.076,0.206c0.067-0.017,0.224,0.008,0.357,0.143
			c0.134,0.124,0.358,0.47,0.513,0.841c0.09,0.172,0.158,0.442,0.414,0.492c0.24,0.039,0.494-0.031,0.762-0.136
			c0.559-0.245,1.091-0.602,1.651-1.051c0.28-0.225,0.562-0.477,0.85-0.743l0.426-0.396c0.068-0.062,0.137-0.123,0.194-0.166
			l0.067-0.037l0.003,0.001l-0.295-0.235c-0.172-0.133-0.342-0.271-0.509-0.412c-0.312-0.259-0.57-0.485-0.768-0.688l1.428,1.465
			l0.443-0.488c0.646-0.717,1.367-1.554,2.187-2.575c0.817-1.022,1.743-2.248,2.679-3.751c1.822-2.905,3.565-6.532,5.566-10.704
			c0.418-0.869,0.833-1.673,1.238-2.434l0.612-1.106c0.217-0.381,0.439-0.726,0.64-1.109l2.154-4.035
			c1.329-2.489,2.53-4.699,3.718-7.189c1.17-2.493,2.371-5.275,3.289-8.977c0.453-1.849,0.817-3.929,0.99-6.283
			c0.09-1.177,0.129-2.421,0.103-3.733c-0.011-0.65-0.033-1.357-0.081-2.032l-0.136-2.032c-0.247-3.838-0.314-7.553-0.004-11.104
			c0.311-3.539,0.998-6.936,2.301-9.839c0.326-0.724,0.69-1.413,1.093-2.058c0.372-0.574,0.949-1.423,1.38-2.057
			c0.936-1.347,1.958-2.661,2.987-4.033c1.029-1.368,2.058-2.805,2.976-4.348c0.916-1.541,1.712-3.184,2.331-4.869l0.077-0.211
			l-0.586-0.147l0.576,0.143l0.011-0.028l0.038-0.095l0.109-0.261l0.27-0.61l0.61-1.299L158.115,110.576z"/>
		<path style="fill:#595959;" d="M342.777,100.9c-1.683-2.629-3.421-4.672-4.918-5.961c-0.369-0.317-0.736-0.604-1.039-0.786
			l-0.1-0.046l-0.02-0.002c-0.022,0.01,0.084-0.045-0.273,0.131c-0.225,0.114-0.459,0.223-0.68,0.323
			c-0.176,0.088-0.391,0.174-0.542,0.238c-0.072,0.03-0.144,0.057-0.218,0.081l-0.16,0.047l-0.069,0.007l-0.053,0.092
			c-0.132,0.16-0.399,0.413-0.728,0.702c-0.178,0.159-0.35,0.305-0.538,0.46c-0.155,0.132-0.103,0.09-0.107,0.094l0.008-0.004
			l0.043-0.001c0.14,0.027,0.308,0.094,0.464,0.141c0.631,0.21,1.186,0.265,1.605,0.103c0.418-0.159,0.707-0.525,0.817-1.115
			c0.053-0.297,0.068-0.643,0.003-1.072c-0.019-0.11-0.038-0.221-0.092-0.367l-0.065-0.134l-0.069-0.103l-0.09-0.098l-0.024-0.025
			l-0.076-0.065l-0.172-0.125c0.042,0.018-0.254-0.153-0.434-0.193c-0.208-0.061-0.432-0.082-0.631-0.066
			c-0.394-0.058-1.368,0.506-1.516,1.125c-0.148,0.461-0.086,0.331-0.119,0.532c-0.01,0.123-0.007,0.249,0.009,0.369l0.023,0.136
			l0.034,0.151l0.065,0.229c0.027,0.092,0.035,0.134,0.047,0.185l0.156,0.859c0.449,2.174,1.681,5.208,4.227,9.287
			c0.654,1.04,1.314,2.035,2.04,3.028c0.394,0.521,0.667,0.92,1.386,1.706c0.322,0.338,0.66,0.66,1.055,0.901
			c0.19,0.129,0.387,0.255,0.58,0.371l0.35,0.215l2.621,1.579c0.804,0.492,1.503,0.95,2.163,1.446
			c0.66,0.495,1.291,1.037,1.925,1.639l2.028,1.97c1.288,1.284,2.516,2.636,3.665,4.109c2.292,2.942,4.337,6.368,5.707,10.625
			c0.341,1.063,0.633,2.177,0.867,3.343c0.115,0.587,0.231,1.167,0.301,1.766c0.076,0.614,0.14,1.244,0.193,1.888
			c0.221,2.575,0.227,5.382,0.409,8.458c0.096,1.548,0.247,3.061,0.513,4.627c0.166,0.835,0.399,1.565,0.637,2.305
			c0.243,0.737,0.514,1.458,0.804,2.165c1.161,2.83,2.596,5.438,3.918,7.989c0.662,1.275,1.301,2.536,1.868,3.796l0.85,1.942
			c0.295,0.655,0.588,1.306,0.895,1.948c1.211,2.577,2.522,5.047,3.862,7.424c1.337,2.369,2.725,4.673,4.054,6.848l0.474,0.781
			l0.382,0.75c0.267,0.534,0.518,1.077,0.759,1.623c0.483,1.093,0.923,2.204,1.344,3.316c1.668,4.458,3.065,8.92,5.056,12.96
			c0.966,1.975,2.118,3.591,3.274,4.769c1.158,1.182,2.305,1.922,3.24,2.275c0.94,0.357,1.662,0.339,2.087,0.069
			c0.432-0.27,0.581-0.796,0.482-1.521c-0.208-1.484-1.307-3.66-2.921-7.43l-2.98-7.091c-1.231-2.855-2.647-6.288-4.971-10.112
			c-0.315-0.509-0.63-1.003-0.95-1.482l-0.518-0.767c-0.176-0.242-0.337-0.434-0.502-0.649l-1.77-2.285
			c-1.093-1.441-2.047-2.774-2.906-4.058c-1.715-2.569-3.069-4.936-4.366-7.582c-0.322-0.663-0.643-1.341-0.957-2.042
			c-0.315-0.699-0.686-1.527-1.073-2.307c-0.776-1.589-1.67-3.229-2.627-5.016c-0.952-1.787-1.99-3.718-2.894-5.901
			c-0.227-0.546-0.441-1.108-0.639-1.686c-0.193-0.581-0.392-1.197-0.497-1.692c-0.228-1.213-0.415-2.672-0.531-4.174
			c-0.194-2.429-0.194-4.918-0.282-7.444c-0.047-1.276-0.099-2.501-0.236-3.836c-0.145-1.305-0.341-2.548-0.592-3.799
			c-1.003-4.979-2.865-9.639-5.331-13.781c-1.233-2.074-2.611-4.024-4.103-5.844l-1.059-1.286c-0.383-0.463-0.783-0.922-1.206-1.372
			c-0.842-0.901-1.788-1.761-2.752-2.511c-0.965-0.753-1.918-1.398-2.818-2.003l-1.329-0.89l-0.163-0.109l-0.064-0.048l-0.121-0.091
			c-0.077-0.065-0.137-0.149-0.197-0.229l-0.706-0.97l-0.838-1.22L342.777,100.9z"/>
		<path style="fill:#595959;" d="M164.634,171.211c-4.863-0.973-8.753-9.725-3.891-15.074c1.944-2.431,3.405-3.403,6.808-2.917
			c3.403,0.486,4.861-2.917-0.487-2.431c-5.349,0.486-9.725,1.945-10.697,8.267c-0.972,6.321,0.486,10.211,4.377,12.642
			C164.634,174.128,164.634,171.211,164.634,171.211z"/>
		<path style="fill:#595959;" d="M217.421,274.042c0.608-0.351,0.745-1.047,0.494-1.576c-0.247-0.521-0.945-0.862-1.986-0.318
			c-1.047,0.563-1.619,1.304-2.179,2.117c-0.557,0.821-1.102,1.719-2.087,2.748c-1.963,2.063-3.944,3.871-5.304,5.328
			c-1.324,1.43,1.235,3.297,2.851-0.373c0.892-1.947,1.379-1.935,3.272-4.173C214.022,276.016,215.837,274.958,217.421,274.042z"/>
		<path style="fill:#595959;" d="M201.35,356.641c1.276,1.216,2.558,2.025,3.564,2.446c1.006,0.43,1.723,0.485,1.959,0.29
			c0.242-0.205,0.014-0.651-0.722-1.403c-0.73-0.762-1.966-1.839-3.641-3.547c-1.697-1.747-3.071-3.422-4.317-5.077
			c-1.244-1.656-2.359-3.299-3.413-5.087c-1.052-1.787-2.04-3.724-2.925-6.002c-0.873-2.279-1.656-4.908-2.042-8.064
			c-0.4-3.155-0.19-6.292,0.191-9.315c0.388-3.024,0.972-5.935,1.659-8.69c1.382-5.507,3.193-10.409,5.229-14.3
			c0.992-1.9,1.708-3.28,2.011-4.153c0.308-0.864,0.175-1.25-0.472-0.939c-0.635,0.314-1.787,1.372-3.078,3.498
			c-1.287,2.121-2.68,5.304-3.739,9.668c-1.098,4.673-1.587,7.346-2.177,10.533c-0.278,1.595-0.559,3.321-0.781,5.513
			c-0.202,2.178-0.418,4.883,0.031,8.32c0.734,5.471,2.414,10.4,4.544,14.814C195.385,349.549,198.049,353.476,201.35,356.641z"/>
		<path style="fill:#595959;" d="M44.762,266.813c-1.155,3.08-1.472,5.99-1.214,8.073c0.251,2.099,0.994,3.297,1.584,3.43
			c0.62,0.14,1.045-0.69,1.583-2.464c0.548-1.781,1.307-4.552,2.991-8.544c1.73-4.057,3.656-7.556,5.535-10.887
			c0.946-1.664,1.898-3.283,2.867-4.897l0.745-1.232l0.707-1.217c0.46-0.766,0.958-1.52,1.499-2.26
			c2.163-2.961,5.008-5.704,8.656-8.27c3.644-2.585,8.09-4.939,13.38-7.54l3.945-1.985c1.287-0.692,2.555-1.267,3.888-1.785
			c2.649-1.026,5.369-1.803,8.081-2.382c2.712-0.574,5.429-0.941,8.084-1.039c2.648-0.088,5.27,0.089,7.604,0.78
			c0.581,0.175,1.139,0.384,1.664,0.63c0.542,0.253,0.968,0.515,1.519,0.879c1.042,0.681,2.04,1.407,3.01,2.157
			c1.936,1.501,3.748,3.095,5.512,4.669c1.762,1.574,3.474,3.135,5.203,4.6l0.65,0.545c0.238,0.191,0.375,0.325,0.74,0.592
			c0.529,0.363,0.985,0.654,1.493,0.958c0.997,0.591,2.023,1.104,3.054,1.527c2.023,0.832,3.83,1.186,5.271,1.4
			c1.449,0.208,2.582,0.274,3.436,0.25c1.691-0.043,2.3-0.557,1.377-1.539c-0.462-0.483-1.331-1.061-2.612-1.655
			c-1.275-0.605-2.961-1.182-4.823-1.955c-0.933-0.39-1.911-0.842-2.938-1.415c-0.513-0.286-1.04-0.603-1.58-0.955
			c-0.322-0.185-0.977-0.747-1.549-1.191c-2.372-1.878-5.107-4.166-8.495-6.568c-1.818-1.28-3.49-2.387-5.083-3.331
			c-0.812-0.473-1.516-0.897-2.414-1.327c-0.861-0.394-1.702-0.675-2.521-0.884c-1.637-0.421-3.174-0.59-4.679-0.677
			c-1.507-0.081-2.984-0.06-4.508,0.035c-3.046,0.202-6.295,0.663-10.264,1.696c-1.981,0.526-4.142,1.195-6.516,2.17
			c-0.595,0.246-1.2,0.512-1.819,0.808c-0.611,0.285-1.282,0.646-1.856,0.953l-3.879,2.008c-4.404,2.243-8.786,4.339-12.879,6.807
			c-4.088,2.456-7.908,5.325-10.977,8.86c-0.766,0.88-1.485,1.797-2.149,2.747c-0.326,0.483-0.593,0.851-0.929,1.31l-0.956,1.335
			c-1.263,1.782-2.477,3.576-3.622,5.397C48.293,259.074,46.252,262.813,44.762,266.813z"/>
		<path style="fill:#595959;" d="M114.939,240.943c-0.815-0.358-1.677-0.607-2.22-0.629c-0.284-0.01-0.501,0.036-0.698,0.161
			c-0.189,0.125-0.349,0.341-0.288,0.76c0.152,0.834,0.451,1.507,0.838,2.053c0.398,0.55,0.935,0.991,1.785,1.345
			c1.697,0.665,1.469-0.13,3.682-0.02c0.277,0.01,0.842,0.089,1.63,0.205l1.341,0.201c0.477,0.058,1.009,0.191,1.591,0.296
			c2.327,0.454,5.304,0.971,8.415,1.233c3.109,0.27,6.352,0.247,9.11-0.132c2.763-0.36,5.016-1.057,6.277-1.608
			c1.265-0.548,1.793-0.871,1.903-0.95c0.106-0.085-0.224,0.036-0.756,0.249c-1.064,0.425-3.021,1.029-3.861,1.112
			c-0.415,0.048-1.554,0.231-3.083,0.333c-1.527,0.113-3.445,0.12-5.389-0.014c-3.895-0.253-7.857-1.142-9.181-1.482
			c-0.663-0.171-1.434-0.338-2.24-0.521c-0.804-0.166-1.643-0.392-2.537-0.543c-1.647-0.291-3.133-0.601-3.919-0.882
			C115.759,241.555,114.936,240.941,114.939,240.943z"/>
		<path style="fill:#595959;" d="M83.226,246.775c-0.755,0.623-1.127,1.48-1.124,2.197c0,0.729,0.353,1.292,0.844,1.594
			c0.498,0.31,1.123,0.391,1.747,0.323c0.633-0.075,1.248-0.282,1.998-0.763c1.557-0.955,2.806-2.006,4.335-3.151
			c1.537-1.116,3.396-2.273,6.284-2.871c5.799-1.169,11.399-0.685,15.484-0.528c1.992,0.088,2.934-1.412,2.354-2.706
			c-0.574-1.281-2.821-2.37-6.94-1.033c-2.191,0.725-3.44,0.927-4.951,1.066c-1.504,0.156-3.274,0.213-6.402,0.982
			c-2.493,0.629-4.863,1.12-7.149,1.783C87.433,244.342,85.186,245.16,83.226,246.775z"/>
		<path style="fill:#595959;" d="M79.83,258.709c-0.813,0.03-1.524,0.072-2.115,0.119c-0.589,0.044-1.094,0.101-1.599,0.173
			c-0.501,0.078-0.999,0.168-1.367,0.449c-0.358,0.278-0.611,0.77-0.381,1.601c0.482,1.655,1.503,2.967,2.833,3.787
			c1.333,0.83,3.05,1.168,5.045,0.948c0.491-0.054,0.881-0.116,1.288-0.222c0.372-0.102,0.688-0.214,0.924-0.332
			c0.492-0.236,0.823-0.514,1.168-0.833c0.684-0.646,1.431-1.448,3.443-2.624c0.501-0.295,1.59-0.807,3.101-1.513
			c1.512-0.701,3.443-1.605,5.691-2.549c1.127-0.471,2.335-0.948,3.619-1.39c1.298-0.438,2.628-0.866,4.059-1.123
			c2.874-0.561,6.025-0.75,9.185-0.287c3.16,0.443,6.288,1.532,9.163,2.948c2.95,1.31,5.358,3.363,7.68,5.13
			c2.306,1.786,4.485,3.37,6.488,4.506c1.994,1.148,3.801,1.825,5.154,2.098c1.359,0.278,2.334,0.271,2.988,0.221
			c0.654-0.053,0.996-0.149,1.116-0.194c0.234-0.111-0.413-0.022-1.486-0.096c-1.074-0.067-2.586-0.4-3.979-0.998
			c-1.394-0.582-2.657-1.36-3.337-1.887c-0.69-0.518-2.573-1.955-4.988-4.136c-1.219-1.081-2.573-2.337-4.12-3.646
			c-0.388-0.327-0.791-0.656-1.212-0.986c-0.445-0.362-0.968-0.684-1.414-0.969c-0.902-0.572-1.84-1.126-2.813-1.647
			c-1.941-1.043-4.024-1.943-6.132-2.583c-2.106-0.648-4.229-1.021-6.175-1.175c-1.947-0.151-3.714-0.103-5.172,0.02
			c-0.732,0.056-1.385,0.137-1.955,0.211c-0.576,0.081-1.097,0.153-1.499,0.24c-3.139,0.586-6.843,2.053-10.104,3.446
			c-3.262,1.401-6.17,2.577-7.84,2.936c-0.829,0.19-1.585,0.311-2.247,0.386c-0.676,0.084-1.119,0.078-1.632,0.079
			C80.273,258.808,79.834,258.708,79.83,258.709z"/>
		<path style="fill:#595959;" d="M72.781,276.378c-0.87,0.755-1.271,1.697-1.295,2.454c-0.043,0.775,0.338,1.33,0.766,1.609
			c0.228,0.107,0.472,0.426,0.801,0.424c0.324,0.026,0.658-0.009,1.002-0.088c0.694-0.163,1.409-0.539,2.248-1.1
			c0.861-0.563,1.602-0.996,2.392-1.415c0.787-0.411,1.629-0.793,2.612-1.08c0.491-0.143,1.017-0.261,1.579-0.338
			c0.141-0.018,0.284-0.039,0.429-0.05c0.141-0.013,0.409-0.008,0.607-0.048l0.975-0.158c1.33-0.193,2.821-0.3,4.565-0.28
			c3.489,0.043,6.904,0.172,10.125-0.173c3.211-0.319,6.212-1.17,8.559-2.404c1.154-0.598,1.728-1.451,1.819-2.173
			c0.094-0.732-0.274-1.336-0.929-1.646c-0.657-0.311-1.584-0.331-2.725,0.027c-1.157,0.355-2.499,1.09-4.418,2.251
			c-2.091,1.223-3.529,1.486-5.176,1.642c-1.671,0.138-3.605,0.111-7.231,0.211c-1.451,0.04-2.868,0.001-4.259-0.061l-1.037-0.05
			l-0.253-0.013l-0.141-0.018l-0.068-0.014l-0.132-0.022l-0.273-0.042c-0.729-0.107-1.462-0.179-2.202-0.199
			c-1.476-0.042-2.983,0.121-4.424,0.578C75.258,274.652,73.903,275.405,72.781,276.378z"/>
		<path style="fill:#595959;" d="M111.161,269.153c-1.367-1.193-2.5-1.862-3.063-1.617c-0.269,0.125-0.369,0.497-0.138,1.15
			c0.236,0.645,0.827,1.571,1.993,2.587c2.411,2.036,4.727,2.853,7.165,3.486c2.468,0.601,5.131,1.007,8.863,1.413
			c7.461,0.762,14.636,0.024,19.646-2.169c1.223-0.531,1.981-1.214,2.287-1.727c0.307-0.525,0.185-0.867-0.291-0.933
			c-0.476-0.061-1.296,0.139-2.537,0.593c-1.248,0.449-2.936,1.145-5.288,1.993c-2.53,0.885-4.089,1.088-5.907,1.231
			c-1.826,0.102-3.953,0.178-7.795-0.115C119.969,274.504,114.745,272.28,111.161,269.153z"/>
		<path style="fill:#595959;" d="M77.798,280.743c-2.858-0.787-4.935-0.792-5.284-0.288c-0.353,0.506,1.074,1.553,5.254,2.765
			c4.242,1.247,7.532,1.93,11.044,2.93c1.755,0.504,3.549,1.1,5.507,1.974c1.962,0.865,4.073,1.997,6.516,3.384
			c2.445,1.384,4.882,2.723,7.376,3.79c0.623,0.267,1.25,0.518,1.873,0.752c0.625,0.21,1.185,0.478,1.792,0.74l3.502,1.554
			c4.594,2.002,9.049,3.606,13.224,3.731c2.039,0.066,3.542-0.487,4.238-0.999c0.709-0.526,0.688-0.921,0.086-1.022
			c-0.612-0.125-1.789,0.006-3.728-0.081c-1.94-0.082-4.682-0.446-8.364-1.364c-3.944-1.011-6.109-1.991-8.702-3.073l-1.02-0.426
			l-1.079-0.394c-0.725-0.275-1.499-0.594-2.351-0.976c-1.707-0.76-3.713-1.796-6.291-3.218c-2.062-1.135-4.048-2.293-6.042-3.339
			c-1.989-1.052-4.009-1.964-5.997-2.731C85.368,282.913,81.5,281.777,77.798,280.743z"/>
		<path style="fill:#595959;" d="M73.774,299.125c-1.083,0.273-1.302,1.575-0.853,2.64c0.448,1.085,1.43,1.967,2.636,1.831
			c1.239-0.122,2.001-0.709,3.012-1.326c0.991-0.604,2.244-1.206,4.003-1.007c1.757,0.199,3.378,0.802,4.99,1.318
			c0.812,0.255,1.636,0.491,2.521,0.594c0.877,0.107,1.848,0.047,2.723-0.268c0.873-0.314,1.197-1.051,1.066-1.636
			c-0.12-0.606-0.619-1.102-1.173-1.465c-0.558-0.356-1.143-0.626-1.522-0.768c-0.398-0.146-0.607-0.024-1.64,0.466
			c-0.547,0.255-1.06,0.341-1.507,0.355c-0.452,0.013-0.854-0.053-1.29-0.154c-0.876-0.191-1.885-0.58-3.91-0.691
			c-1.614-0.077-3.149-0.242-4.669-0.28C76.648,298.689,75.151,298.778,73.774,299.125z"/>
		<path style="fill:#595959;" d="M95.605,300.968c-0.979-0.304-1.903-0.269-2.606,0.009c-0.702,0.271-1.169,0.773-1.314,1.334
			c-0.148,0.565,0.007,1.2,0.489,1.78c0.489,0.591,1.295,1.146,2.605,1.633c2.669,1.007,5.091,1.307,7.733,1.251
			c0.639-0.015,1.412-0.027,2.088-0.126c0.665-0.083,1.355-0.164,2.081-0.235c1.455-0.143,3.06-0.242,4.936-0.254
			c3.752-0.025,7.389-0.061,10.787-0.381c3.39-0.321,6.57-0.942,9.204-2.19c1.291-0.61,1.974-1.569,2.073-2.333
			c0.106-0.78-0.322-1.345-1.002-1.606c-0.687-0.26-1.584-0.257-2.75,0.072c-1.177,0.33-2.669,1.012-4.857,2.132
			c-2.368,1.181-3.919,1.455-5.709,1.641c-1.809,0.161-3.911,0.222-7.761,0.4c-1.54,0.066-3.035,0.029-4.488-0.074
			c-0.726-0.052-1.44-0.122-2.144-0.203c-0.732-0.072-1.231-0.191-1.905-0.361C100.5,302.814,98.138,301.761,95.605,300.968z"/>
		<path style="fill:#595959;" d="M49.054,285.585c-0.228-0.639-0.638-1.08-1.147-1.368c-0.512-0.283-1.112-0.412-1.692-0.315
			c-0.573,0.096-1.115,0.428-1.435,1.085c-0.319,0.651-0.399,1.642,0.032,2.898c0.916,2.552,2.547,3.997,4.317,5.207
			c1.809,1.211,3.794,2.24,6.338,3.895c5.099,3.285,10.386,5.731,14.74,6.622c1.062,0.216,1.894-0.066,2.358-0.56
			c0.472-0.495,0.585-1.192,0.339-1.854c-0.246-0.661-0.838-1.281-1.823-1.704c-0.992-0.424-2.376-0.646-4.378-0.63
			c-2.152-0.003-3.338-0.374-4.643-0.941c-1.302-0.6-2.769-1.362-5.368-2.837c-2.069-1.199-3.724-2.767-4.966-4.429
			C50.479,288.989,49.643,287.244,49.054,285.585z"/>
		<path style="fill:#595959;" d="M106.616,221.656c-3.516,1.896-6.382,2.253-7.974,1.782c-0.782-0.244-1.22-0.743-1.059-1.439
			c0.157-0.692,0.937-1.598,2.549-2.447c0.923-0.491,2.683-1.256,5.061-2.065c2.378-0.819,5.373-1.671,8.707-2.59
			c3.331-0.93,7.019-1.926,10.678-3.295c1.83-0.686,3.649-1.472,5.381-2.408c0.433-0.234,0.859-0.478,1.279-0.731l0.624-0.388
			l0.434-0.289l0.531-0.382c1.391-0.989,2.786-2.4,4.135-3.627c0.072,0.063,0.153,0.139,0.219,0.189l0.187,0.131l0.187,0.128
			c0.065,0.095,0.136,0.243,0.197,0.357c0.251,0.487,0.466,0.946,0.681,1.415c0.444,0.904,0.792,1.998,1.009,3.175
			c0.114,0.584,0.205,1.181,0.27,1.779c0.034,0.281,0.066,0.636,0.084,0.867l0.037,0.607c0.038,0.808,0.043,1.611,0.012,2.406
			c-0.121,3.174-0.787,6.255-2.057,8.895c-1.253,2.647-3.149,4.76-5.144,6.095c-1.993,1.354-3.99,2.003-5.594,2.335
			c-0.675,0.056-0.124-0.153,1.239-0.762c1.339-0.62,3.565-1.736,5.525-4.01c1.983-2.237,3.432-5.645,3.808-9.474
			c0.202-1.911,0.178-3.923-0.082-5.939c-0.117-0.867-0.281-1.713-0.509-2.515c-0.113-0.401-0.244-0.793-0.41-1.164
			c-0.041-0.093-0.085-0.183-0.134-0.272l-0.075-0.131l-0.041-0.064l-0.058,0.059l-0.465,0.473
			c-0.546,0.537-1.104,1.028-1.663,1.473l-0.42,0.326l-0.506,0.369c-0.388,0.272-0.779,0.535-1.176,0.789
			c-1.586,1.013-3.232,1.88-4.87,2.642c-3.28,1.52-6.509,2.639-9.367,3.608c-2.863,0.963-5.364,1.772-7.291,2.469
			C108.625,220.732,107.263,221.303,106.616,221.656z"/>
		<path style="fill:#595959;" d="M94.489,312.062c0.73-1.81,1.158-3.377,1.315-4.612c0.155-1.231,0.034-2.142-0.409-2.546
			c-0.437-0.399-1.215-0.28-2.249,0.669c-1.025,0.946-2.287,2.752-3.453,5.594c-2.34,5.799-3.034,10.392-4.168,15.245
			c-0.562,2.426-1.205,4.934-2.245,7.639c-0.521,1.348-1.154,2.755-1.933,4.175c-0.812,1.4-1.792,2.866-2.987,4.322
			c-4.789,5.867-10.916,10.114-16.771,13.425c-1.478,0.833-2.916,1.591-4.39,2.34c-1.36,0.728-2.758,1.253-4.184,1.725
			c-2.843,0.935-5.664,1.609-8.292,2.458c-2.577,0.807-4.373,2.071-5.076,3.146c-0.714,1.094-0.388,1.765,0.543,1.881
			c0.952,0.126,2.499-0.142,5.157-0.795c1.33-0.333,2.943-0.773,4.869-1.417c1.918-0.658,4.174-1.487,6.653-2.909
			c0.653-0.378,1.298-0.782,1.844-1.168l1.515-1.028l2.704-1.818l4.787-3.217c1.605-1.109,3.331-2.326,5.379-4.03
			c2.034-1.71,4.428-3.891,7.02-7.163c1.032-1.31,1.987-2.638,2.87-4.011c0.899-1.4,1.636-2.778,2.351-4.18
			c1.409-2.795,2.559-5.593,3.591-8.327C90.982,321.989,92.585,316.763,94.489,312.062z"/>
		<path style="fill:#595959;" d="M45.717,299.873c1.381-1.521,2.283-3.074,2.695-4.341c0.418-1.269,0.352-2.232-0.067-2.65
			c-0.425-0.425-1.181-0.322-2.267,0.384c-1.091,0.709-2.533,2.001-4.522,4.06c-4.067,4.178-7.108,7.777-9.887,12.112
			c-1.385,2.168-2.723,4.51-3.951,7.266c-0.304,0.69-0.598,1.405-0.88,2.152l-0.208,0.566c-0.062,0.165-0.167,0.459-0.205,0.659
			l-0.277,1.212c-0.357,1.641-0.673,3.387-0.984,5.273c-1.196,7.54-1.681,14.942-1.002,21.826c0.358,3.435,1.036,6.75,2.29,9.77
			c1.237,3.001,3.174,5.736,5.738,7.469c1.238,0.853,2.502,1.29,3.554,1.461c1.057,0.172,1.913,0.085,2.514-0.1
			c1.212-0.392,1.411-1.114,0.766-1.798c-0.632-0.728-2.127-1.399-3.971-2.733c-0.92-0.68-1.932-1.555-2.984-2.842
			c-1.054-1.283-2.137-2.997-3.167-5.196c-1.094-2.367-1.633-4.44-1.99-6.303c-0.347-1.874-0.495-3.573-0.557-5.421
			c-0.057-1.848-0.026-3.851,0.111-6.361c0.145-2.51,0.379-5.539,0.933-9.406c0.224-1.543,0.508-3.052,0.858-4.508l0.28-1.078
			l0.149-0.529c0.064-0.215,0.071-0.234,0.136-0.387c0.279-0.666,0.586-1.314,0.915-1.948c1.321-2.537,2.997-4.811,4.785-6.913
			C38.117,307.359,42.141,303.821,45.717,299.873z"/>
		<path style="fill:#595959;" d="M73.237,348.732c-2.385,1.111-3.584,2.767-3.31,3.917c0.261,1.127,2.224,1.753,6.007,0.103
			c3.82-1.691,6.289-3.666,8.977-5.745c1.342-1.042,2.738-2.12,4.385-3.198c0.824-0.537,1.712-1.073,2.689-1.59
			c0.969-0.527,2.042-0.978,3.247-1.473c4.78-1.959,9.412-3.884,13.55-6.054c4.142-2.154,7.768-4.543,10.64-6.885
			c1.406-1.147,2.126-2.323,2.281-3.212c0.16-0.892-0.231-1.493-1.04-1.601c-0.811-0.11-2.026,0.277-3.604,1.299
			c-1.586,1.024-3.523,2.674-6.033,5.063c-2.715,2.54-4.568,3.649-6.805,4.806c-2.259,1.141-4.937,2.311-9.847,4.49
			c-4.059,1.673-7.798,3.569-11.268,5.286C79.623,345.671,76.351,347.285,73.237,348.732z"/>
		<path style="fill:#595959;" d="M86.816,378.083c-0.197,3.709,4.285,5.078,4.81-0.401c0.269-2.773-0.152-4.88-0.612-7.191
			c-0.455-2.308-0.964-4.821-0.762-8.327c0.399-7.019,2.161-13.393,3.676-17.904c0.733-2.181-0.311-3.696-1.761-3.46
			c-0.721,0.13-1.541,0.742-2.191,1.996c-0.644,1.249-1.105,3.139-1.028,5.687c0.094,2.72-0.02,4.208-0.27,5.981
			c-0.236,1.768-0.601,3.817-0.688,7.567C87.867,368.007,87.069,373.236,86.816,378.083z"/>
		<path style="fill:#595959;" d="M463.586,266.232c1.148,3.97,1.45,7.626,1.301,10.516c-0.151,2.898-0.739,5.036-1.368,6.188
			c-0.638,1.156-1.299,1.341-1.791,0.428c-0.501-0.916-0.809-2.919-1.096-6.214c-0.147-1.647-0.368-4.504-1.024-8.24
			c-0.658-3.726-1.747-8.36-3.759-13.308c-1.01-2.462-2.249-5.013-3.846-7.402c-0.8-1.189-1.689-2.342-2.683-3.339
			c-0.497-0.496-1.017-0.959-1.556-1.343c-0.134-0.1-0.272-0.186-0.407-0.278l-0.513-0.325l-1.045-0.656
			c-2.799-1.742-5.703-3.5-8.71-5.081c-1.504-0.79-3.027-1.522-4.598-2.163c-1.563-0.645-3.238-1.2-4.984-1.881
			c-1.74-0.675-3.459-1.461-5.112-2.304l-1.235-0.643l-1.171-0.627c-0.751-0.385-1.53-0.744-2.325-1.081
			c-3.19-1.338-6.579-2.351-9.959-3.059c-3.382-0.697-6.801-1.095-10.042-0.918c-1.614,0.096-3.185,0.337-4.584,0.826
			c-0.348,0.124-0.688,0.257-1.01,0.411c-0.329,0.158-0.605,0.311-0.975,0.531c-0.695,0.409-1.364,0.832-2.026,1.275
			c-2.644,1.768-5.078,3.743-7.414,5.65l-3.441,2.797l-1.689,1.322l-0.839,0.635c-0.13,0.109-0.384,0.274-0.508,0.345l-0.456,0.275
			c-2.433,1.457-4.993,2.302-7.271,2.825c-2.287,0.53-4.306,0.896-6.041,1.385c-1.127,0.274-0.368-0.157,1.982-0.901
			c1.173-0.375,2.765-0.772,4.667-1.366c1.898-0.593,4.091-1.484,6.265-2.932c4.174-3.131,8.513-7.752,14.228-11.803
			c0.719-0.501,1.45-0.985,2.226-1.455c0.792-0.457,1.645-0.814,2.529-1.089c1.77-0.548,3.645-0.796,5.537-0.875
			c3.793-0.147,7.674,0.342,11.509,1.169c3.831,0.855,7.648,2.012,11.257,3.78c1.74,0.892,3.478,1.715,5.254,2.429
			c1.768,0.721,3.58,1.285,5.415,1.924c3.688,1.272,7.104,3.016,10.289,4.765c1.596,0.878,3.144,1.767,4.644,2.65
			c0.76,0.451,1.467,0.863,2.238,1.339c0.794,0.503,1.499,1.078,2.148,1.675c2.574,2.42,4.317,5.155,5.756,7.707
			c1.421,2.57,2.475,5.017,3.312,7.199C462.329,261.367,463.127,264.673,463.586,266.232z"/>
		<path style="fill:#595959;" d="M375.805,247.127c3.019-0.236,6.078-0.726,8.747-1.219l1.925-0.363l0.877-0.167l0.827-0.115
			c1.102-0.149,2.064-0.27,2.83-0.345c1.529-0.145,3.431-0.59,4.829-1.395c0.692-0.397,1.257-0.894,1.521-1.389
			c0.27-0.5,0.193-0.918-0.162-1.157c-0.572-0.382-1.438-0.138-2.735,0.213c-1.261,0.364-2.78,0.872-3.727,1.32
			c-0.471,0.225-1.412,0.562-2.639,0.926c-0.603,0.173-1.332,0.382-2.044,0.62c-0.715,0.223-1.476,0.446-2.255,0.657
			c-3.117,0.859-6.581,1.421-8.661,1.471c-4.154,0.155-8.304-0.322-11.64-1.379c-1.655-0.516-3.063-0.487-3.448-0.061
			c-0.187,0.212-0.098,0.521,0.401,0.887c0.5,0.354,1.42,0.768,2.874,1.029c2.908,0.493,4.594,0.524,6.268,0.593
			C371.264,247.298,372.938,247.338,375.805,247.127z"/>
		<path style="fill:#595959;" d="M422.24,250.245c0.4,0.446,0.853,0.637,1.385,0.717c0.523,0.075,1.13,0.049,1.678-0.163
			c0.536-0.21,1.017-0.645,1.125-1.414c0.113-0.755-0.201-1.862-1.185-2.915c-0.999-1.062-2.074-1.674-3.116-2.09
			c-1.048-0.413-2.081-0.612-3.141-0.76c-2.127-0.279-4.336-0.348-7.285-0.96c-5.897-1.19-11.425-2.393-15.671-2.819
			c-2.085-0.199-3.052,1.341-2.465,2.628c0.588,1.301,2.583,2.334,6.652,1.546c2.191-0.411,3.439-0.352,4.888-0.147
			c1.451,0.22,3.116,0.55,6.14,1.012c2.415,0.382,4.605,1.126,6.489,2.076C419.615,247.9,421.201,249.076,422.24,250.245z"/>
		<path style="fill:#595959;" d="M428.009,266.019c1.189,0.219,2.624,0.239,3.993-0.086c1.372-0.316,2.609-0.999,3.336-1.736
			c0.74-0.734,1.006-1.454,0.873-1.909c-0.136-0.472-0.663-0.673-1.557-0.763c-1.8-0.222-2.792-0.984-3.679-1.539
			c-0.896-0.586-1.674-1.032-3.209-1.447c-0.391-0.109-0.748-0.183-0.979-0.223c-0.266-0.051-0.489-0.066-0.728-0.075
			c-0.457-0.008-0.828,0.07-1.238,0.175c-0.82,0.2-1.801,0.512-4.013,0.168c-0.551-0.088-1.671-0.395-3.236-0.909l-5.946-2.025
			c-1.187-0.392-2.464-0.793-3.828-1.161c-0.681-0.181-1.383-0.359-2.107-0.517c-0.728-0.167-1.499-0.291-2.255-0.385
			c-3.042-0.398-6.371-0.397-9.625,0.282c-3.259,0.658-6.389,1.973-9.197,3.586c-1.398,0.806-2.78,1.652-3.948,2.684
			c-1.193,0.999-2.312,2.019-3.396,2.996c-2.163,1.959-4.2,3.737-6.118,5.118c-1.91,1.391-3.702,2.367-5.132,2.96
			c-1.427,0.601-2.575,0.847-3.375,0.975c-0.802,0.125-1.26,0.144-1.421,0.18c-0.326,0.049,0.543,0.185,1.932,0.048
			c1.39-0.127,3.227-0.65,4.807-1.382c1.592-0.718,2.963-1.569,3.786-2.017c0.828-0.436,3.003-1.826,5.632-3.865
			c1.321-1.007,2.769-2.166,4.298-3.286c0.383-0.278,0.77-0.553,1.162-0.816c0.35-0.251,0.714-0.431,1.147-0.67
			c0.863-0.468,1.75-0.912,2.65-1.319c1.799-0.813,3.655-1.464,5.467-1.884c1.814-0.424,3.581-0.609,5.198-0.624
			c1.618-0.012,3.084,0.132,4.305,0.331c0.612,0.093,1.162,0.206,1.64,0.308c0.47,0.107,0.844,0.189,1.15,0.29
			c2.548,0.736,6.01,1.938,9.295,3.192l8.228,3.075l2.412,0.958c0.706,0.288,1.47,0.549,1.952,0.721
			C427.334,265.803,428.013,266.019,428.009,266.019z"/>
		<path style="fill:#595959;" d="M432.654,279.821c0.458,0.514,0.988,0.82,1.58,0.993c0.295,0.086,0.601,0.133,0.912,0.143
			c0.311,0.005,0.643,0.025,0.886-0.223c0.254-0.211,0.482-0.251,0.654-0.531c0.193-0.226,0.333-0.538,0.369-0.943
			c0.072-0.794-0.244-1.994-1.423-3.234c-1.204-1.251-2.649-1.977-4.037-2.317c-1.398-0.34-2.749-0.318-4.05-0.121
			c-0.653,0.098-1.298,0.241-1.945,0.417l-0.489,0.139c-0.166,0.048-0.21,0.086-0.331,0.111l-0.982,0.169
			c-1.345,0.214-2.829,0.39-4.561,0.411c-3.46,0.045-6.796-0.261-9.678-1.05c-2.893-0.77-5.262-2.015-7.096-3.273
			c-0.896-0.612-1.729-0.8-2.423-0.665c-0.684,0.133-1.223,0.606-1.34,1.331c-0.117,0.72,0.197,1.72,1.271,2.73
			c1.06,0.996,2.942,2.001,5.597,2.279c2.82,0.257,4.314,0.361,6.114,0.614c1.786,0.222,3.883,0.483,7.578,0.299
			c1.476-0.071,2.891-0.097,4.258-0.064l1.016,0.034l0.255,0.012c0.122,0.001,0.244,0.017,0.365,0.003l0.303-0.02l0.228-0.008
			c0.605-0.015,1.196,0.014,1.759,0.09C429.729,277.441,431.478,278.486,432.654,279.821z"/>
		<path style="fill:#595959;" d="M399.07,270.987c1.677-1.313,2.137-2.86,1.754-3.29c-0.19-0.233-0.573-0.223-1.14,0.059
			c-0.572,0.28-1.333,0.823-2.43,1.606c-2.258,1.56-4.113,2.648-6.261,3.705c-2.156,1.016-4.656,1.973-8.335,2.372
			c-7.374,0.762-14.338-0.857-18.776-3.126c-1.09-0.548-1.918-0.871-2.491-0.931c-0.562-0.067-0.877,0.145-0.751,0.62
			c0.121,0.476,0.703,1.23,1.959,2.021c1.25,0.783,3.185,1.569,5.821,1.94c2.817,0.37,4.396,0.497,6.285,0.685
			c1.884,0.142,4.097,0.365,8.071-0.083c3.164-0.385,6.116-0.967,8.861-1.838C394.372,273.85,396.92,272.667,399.07,270.987z"/>
		<path style="fill:#595959;" d="M431.513,283.046c2.879-0.679,4.721-1.724,4.757-2.338c0.034-0.612-1.678-0.789-5.932,0.155
			c-8.623,2.013-13.235,4.244-22.819,10.004c-2.437,1.381-4.874,2.655-7.346,3.624c-0.619,0.243-1.235,0.465-1.857,0.673
			c-0.637,0.189-1.273,0.458-1.868,0.686l-3.561,1.388c-4.635,1.763-9.059,3.009-12.792,2.971c-1.811-0.014-3.088-0.162-3.885-0.149
			c-0.784,0.003-1.116,0.227-0.703,0.744c0.405,0.487,1.67,1.279,3.945,1.496c2.258,0.228,5.403-0.221,9.071-1.696
			c3.91-1.599,6.033-2.643,8.632-3.688l0.973-0.39l1.081-0.37c0.761-0.271,1.573-0.587,2.461-0.973
			c1.777-0.766,3.844-1.836,6.405-3.33c2.046-1.19,4.018-2.329,5.987-3.31c1.966-0.988,3.926-1.779,5.901-2.433
			C423.909,284.802,427.784,283.939,431.513,283.046z"/>
		<path style="fill:#595959;" d="M433.331,303.599c0.718,0.37,1.671-0.34,2.241-1.361c0.554-1.004,0.623-2.429-0.816-3.241
			c-1.466-0.803-2.871-0.651-4.226-0.303c-1.374,0.354-2.715,0.897-4.556,1.105c-1.845,0.21-3.634,0.417-5.205,0.424
			c-0.78,0.002-1.499-0.055-2.074-0.187c-0.58-0.13-0.986-0.337-1.268-0.542c-0.262-0.194-0.638-0.062-1.148,0.187
			c-0.491,0.255-1.073,0.673-1.37,1.28c-0.301,0.592-0.299,1.464,0.528,2.231c0.406,0.374,1.017,0.679,1.727,0.785
			c0.707,0.107,1.491,0.014,2.225-0.29c0.785-0.328,1.31-0.573,1.793-0.733c0.478-0.162,0.896-0.25,1.349-0.318
			c0.905-0.128,1.943-0.226,3.703-0.587c1.409-0.28,2.753-0.151,3.934,0.188C431.357,302.572,432.378,303.106,433.331,303.599z"/>
		<path style="fill:#595959;" d="M414.288,305.576c1.829-0.367,2.817-1.568,2.817-2.747c-0.016-0.584-0.33-1.148-1.06-1.529
			c-0.721-0.373-1.86-0.532-3.344-0.285c-3.007,0.513-4.905,1.542-7.098,2.415c-0.568,0.22-1.03,0.43-1.659,0.578
			c-0.633,0.161-1.295,0.314-2,0.445c-1.408,0.262-2.988,0.445-4.834,0.434c-3.694-0.023-7.255-0.483-10.4-1.263
			c-3.145-0.775-5.866-1.898-7.833-3.125c-0.956-0.595-1.763-0.785-2.471-0.69c-0.692,0.096-1.288,0.503-1.423,1.244
			c-0.138,0.732,0.243,1.852,1.496,2.913c1.238,1.051,3.329,1.966,6.103,2.139c2.955,0.16,4.53,0.28,6.431,0.556
			c1.89,0.242,4.09,0.595,8.08,0.491c1.592-0.045,3.13-0.069,4.629-0.08l2.216-0.011c0.703,0.016,1.607-0.051,2.309-0.13
			C409.198,306.635,411.887,306.038,414.288,305.576z"/>
		<path style="fill:#595959;" d="M463.999,287.536c0.418-0.794,0.451-1.603,0.232-2.227c-0.215-0.628-0.683-1.076-1.225-1.273
			c-0.548-0.2-1.182-0.162-1.782,0.123c-0.603,0.289-1.182,0.81-1.725,1.649c-1.131,1.686-1.702,3.162-2.559,4.847
			c-0.861,1.651-2.038,3.5-4.489,5.094c-2.453,1.58-5.133,2.58-7.636,3.191c-2.51,0.613-4.852,0.844-6.815,0.969
			c-0.96,0.058-1.62,0.452-1.993,1.003c-0.368,0.547-0.439,1.255-0.103,1.882c0.334,0.625,1.091,1.175,2.317,1.317
			c1.216,0.143,2.912-0.132,4.874-1.202c2.081-1.158,3.249-1.681,4.703-2.23c1.429-0.577,3.174-1.148,5.881-3.025
			c2.141-1.515,4.131-2.982,5.908-4.616C461.358,291.411,462.918,289.597,463.999,287.536z"/>
		<path style="fill:#595959;" d="M411.079,226.311c1.799,0.788,3.832,1.322,5.248,1.357c1.4,0.026,2.37-0.472,1.719-2.108
			c-0.69-1.622-1.313-2.895-2.153-3.965c-0.844-1.07-1.932-1.936-3.664-2.681c-3.466-1.446-3.021,0.183-7.636-0.326
			c-1.325-0.16-5.862-1.191-11.832-2.814c-2.981-0.829-6.321-1.824-9.725-3.129c-1.701-0.656-3.418-1.389-5.087-2.25
			c-0.425-0.22-0.813-0.427-1.258-0.681c-0.463-0.266-0.915-0.54-1.358-0.833c-0.882-0.589-1.742-1.239-2.535-1.891
			c-0.256-0.151-0.516-0.302-0.752-0.491l-0.181-0.138l-0.043-0.017l-0.033,0.062l-0.063,0.126
			c-0.083,0.168-0.152,0.341-0.217,0.514c-0.257,0.694-0.437,1.4-0.585,2.113c-0.282,1.434-0.398,2.876-0.414,4.237
			c-0.022,2.678,0.354,5.241,1.1,7.467c0.733,2.228,1.85,4.092,3.09,5.434c1.231,1.357,2.551,2.197,3.611,2.707
			c1.264,0.594,2.243,0.849,2.919,0.998c0.677,0.142,1.058,0.174,1.195,0.173c0.278-0.019-0.415-0.183-1.491-0.564
			c-1.075-0.378-2.51-1.051-3.676-1.973c-1.178-0.904-2.074-2.019-2.468-2.74c-0.221-0.396-0.672-1.169-1.112-2.308
			c-0.444-1.135-0.862-2.644-1.071-4.415c-0.106-0.884-0.163-1.833-0.158-2.821c0.003-0.494,0.019-0.998,0.052-1.509l0.027-0.354
			l0.026-0.212l0.061-0.416c0.088-0.55,0.212-1.076,0.377-1.56c0.084-0.242,0.176-0.475,0.299-0.686l0.107-0.118l0.151,0.162
			l0.304,0.309c0.329,0.32,0.657,0.601,0.973,0.851l0.464,0.352l0.057,0.041l0.1,0.067l0.307,0.195l0.61,0.376
			c1.628,0.973,3.213,1.788,4.666,2.475c2.909,1.372,5.278,2.281,6.531,2.785c5.634,2.263,15.005,4.242,18.323,5.595
			C409.236,225.031,411.082,226.313,411.079,226.311z"/>
		<path style="fill:#595959;" d="M418.684,310.403c-0.677-1.98-1.621-3.536-2.54-4.517c-0.922-0.986-1.796-1.398-2.366-1.236
			c-0.578,0.164-0.852,0.883-0.745,2.19c0.103,1.316,0.568,3.222,1.409,5.976c1.681,5.617,3.219,10.051,5.342,14.746
			c1.057,2.348,2.234,4.769,3.695,7.409c0.734,1.322,1.537,2.684,2.471,4.124c0.965,1.421,2.028,2.873,3.264,4.383
			c4.936,6.046,10.925,10.709,16.665,14.53c1.432,0.951,2.889,1.866,4.263,2.704c1.451,0.927,2.992,1.651,4.454,2.264
			c2.944,1.225,5.729,2.108,8.163,3.044c2.384,0.897,4.058,1.349,5.178,1.439c1.096,0.089,1.774-0.254,1.497-1.254
			c-0.267-0.983-1.716-2.546-4.458-3.847c-1.359-0.658-3.019-1.265-4.937-1.848c-1.914-0.591-4.104-1.134-6.429-1.908
			c-0.629-0.212-1.173-0.421-1.724-0.679l-1.651-0.766c-1.032-0.491-1.956-0.967-2.814-1.445c-1.717-0.951-3.177-1.898-4.711-2.987
			c-1.527-1.098-3.133-2.336-5.051-3.99c-1.909-1.661-4.161-3.716-6.689-6.689c-1.004-1.187-1.923-2.426-2.733-3.685
			c-0.793-1.231-1.49-2.586-2.114-3.91c-1.245-2.673-2.188-5.406-2.995-8.118C421.517,320.903,420.442,315.54,418.684,310.403z"/>
		<path style="fill:#595959;" d="M467.509,296.002c-1.184-1.502-2.408-2.499-3.551-3.079c-1.142-0.572-2.218-0.736-3.033-0.39
			c-0.805,0.344-1.341,1.238-1.199,2.752c0.136,1.504,0.995,3.615,2.85,6.045c3.789,4.924,7.404,7.592,10.938,10.888
			c1.761,1.643,3.521,3.431,5.09,5.742c0.388,0.578,0.764,1.189,1.116,1.838l0.259,0.493c0.079,0.146,0.141,0.266,0.194,0.413
			c0.128,0.343,0.258,0.726,0.377,1.104c0.485,1.528,0.881,3.215,1.184,5.054c1.176,7.365,1.108,14.724-0.137,21.116
			c-0.631,3.186-1.59,6.131-2.897,8.539c-1.302,2.415-2.966,4.206-4.723,5.2c-1.689,0.966-2.996,1.702-3.858,2.617
			c-0.836,0.885-1.132,1.937-0.254,2.851c0.44,0.44,1.181,0.844,2.29,1c1.102,0.155,2.604,0.062,4.328-0.637
			c1.713-0.685,3.605-2.038,5.11-4.03c1.515-1.985,2.617-4.539,3.174-7.404c0.578-3.066,0.736-5.381,0.915-7.444
			c0.163-2.061,0.295-3.86,0.406-5.816c0.104-1.953,0.185-4.062,0.099-6.699c-0.098-2.638-0.342-5.807-1.1-9.842
			c-0.307-1.611-0.635-3.194-1.013-4.765l-0.297-1.178l-0.159-0.589c-0.062-0.234-0.141-0.513-0.25-0.755
			c-0.316-0.796-0.631-1.516-0.977-2.251c-1.375-2.907-3.03-5.522-4.741-7.938C474.217,304.013,470.575,299.912,467.509,296.002z"/>
		<path style="fill:#595959;" d="M433.299,352.958c2.441,1.383,4.675,1.169,5.284,0.17c0.616-1.02-0.243-2.663-3.546-4.692
			c-3.372-2.095-6.25-3.322-9.465-4.562l-5.165-1.989l-6.366-2.503c-4.743-1.943-9.144-4.232-12.894-6.746
			c-3.76-2.506-6.855-5.211-9.386-7.633c-1.234-1.185-2.37-1.808-3.249-1.939c-0.875-0.128-1.495,0.249-1.587,1.064
			c-0.092,0.812,0.337,2.08,1.624,3.632c1.282,1.543,3.444,3.383,6.755,5.039c3.548,1.735,5.501,2.731,7.798,4.002
			c2.301,1.243,4.973,2.722,10.078,4.677c4.036,1.425,7.442,3.465,10.696,5.529C427.116,349.073,430.153,351.176,433.299,352.958z"
			/>
		<path style="fill:#595959;" d="M419.036,368.089c-0.2,1.158,0.762,2.035,1.899,2.289c1.136,0.225,2.498-0.315,2.919-2.168
			c0.418-1.877,0.037-3.359-0.452-4.921c-0.497-1.569-1.091-3.211-1.287-5.542c-0.202-2.334-0.333-4.607-0.562-6.733
			c-0.228-2.122-0.561-4.101-1.086-5.755c-0.257-0.81-0.835-1.238-1.457-1.312c-0.619-0.079-1.273,0.183-1.757,0.666
			c-0.482,0.485-0.793,1.173-0.758,2.017c0.033,0.85,0.418,1.848,1.341,3.138c0.986,1.396,1.247,2.329,1.423,3.428
			c0.161,1.11,0.247,2.401,0.597,4.746C420.4,361.718,419.545,365.092,419.036,368.089z"/>
		<path style="fill:#595959;" d="M179.527,384.885c-1.77-0.305-3.318-0.177-4.415,0.172c-1.102,0.348-1.759,0.918-1.873,1.491
			c-0.117,0.583,0.303,1.18,1.314,1.704c1.016,0.534,2.615,0.989,4.935,1.495l12.549,2.786c2.067,0.472,4.229,1.001,6.646,1.657
			l3.889,1.089c1.449,0.271,2.871,0.561,4.458,0.927c6.292,1.449,12.297,3.137,17.664,5.085c5.374,1.937,10.089,4.138,13.928,6.284
			c1.878,1.041,3.386,1.555,4.426,1.58c1.033,0.024,1.597-0.453,1.396-1.337c-0.198-0.881-1.17-2.194-3.247-3.63
			c-2.07-1.432-5.265-2.957-9.709-4.051c-4.753-1.138-7.396-1.822-10.526-2.753c-3.125-0.908-6.748-1.992-13.421-3.386
			c-1.332-0.279-2.639-0.566-3.923-0.862l-0.426-0.1l-0.377-0.127l-0.914-0.32l-1.799-0.662c-2.38-0.902-4.675-1.862-6.948-2.778
			C188.625,387.312,184.127,385.676,179.527,384.885z"/>
		<path style="fill:#595959;" d="M296.689,398.316c-1.753,1.287-2.934,2.874-3.436,4.215c-0.519,1.349-0.368,2.371,0.084,2.738
			c0.47,0.386,1.192,0.186,2.217-0.438c1.039-0.626,2.432-1.683,4.674-3.159c2.292-1.495,4.491-2.697,6.606-3.857
			c2.125-1.15,4.192-2.236,6.399-3.306c2.209-1.066,4.557-2.11,7.271-3.107c1.357-0.498,2.805-0.982,4.374-1.444
			c1.516-0.428,3.27-0.768,5.11-1.141c7.408-1.449,14.618-2.549,21.281-3.354c6.666-0.809,12.783-1.309,18.021-1.689
			c5.11-0.362,7.403-2.017,5.833-3.2c-1.553-1.149-7.113-1.874-17.36,0.598c-5.464,1.341-8.592,1.936-12.335,2.531
			c-3.739,0.607-8.084,1.229-15.875,2.891l-4.64,0.96c-1.571,0.392-3.011,0.764-4.487,1.157c-2.924,0.78-5.756,1.593-8.501,2.484
			c-2.743,0.895-5.402,1.864-7.957,3.003C301.419,395.344,298.959,396.644,296.689,398.316z"/>
		<path style="fill:#595959;" d="M228.811,397.569c-1.758,0.123-3.201,0.371-4.294,0.723c-1.087,0.354-1.826,0.821-2.017,1.388
			c-0.189,0.557,0.183,1.229,1.387,1.799c1.196,0.559,3.262,1.002,6.194,0.791c2.979-0.218,5.495-0.829,7.799-1.512
			c2.305-0.69,4.409-1.483,6.6-2.237c2.184-0.743,4.492-1.497,7.099-1.93c2.695-0.413,5.729-0.711,9.281-0.846
			c14.228-0.499,27.509,0.337,37.476,0.593c9.743,0.294,9.124-6.117-10.52-3.923c-5.252,0.602-8.254,0.708-11.823,0.726
			c-3.568,0.028-7.701-0.069-15.219,0.34l-8.767,0.461c-2.955,0.149-5.73,0.63-8.406,1.127
			C238.267,396.097,233.383,397.272,228.811,397.569z"/>
		<path style="fill:#595959;" d="M154.962,447.091c-3.041-0.522-5.489-1.318-8.081-2.313c-2.589-1.014-5.336-2.191-8.851-3.935
			c-1.755-0.876-3.667-1.977-5.537-3.276c-0.468-0.323-0.933-0.66-1.396-1.006c-0.473-0.356-0.886-0.675-1.411-1.102l-2.989-2.28
			c-3.831-2.951-7.295-5.766-9.325-7.43c-4.074-3.315-10.468-8.781-12.827-10.868c-0.295-0.259-0.581-0.53-0.866-0.814
			c-0.285-0.284-0.582-0.59-0.817-0.855c-0.499-0.56-0.996-1.178-1.519-1.868c-0.52-0.691-1.07-1.452-1.622-2.322
			c-0.547-0.877-1.108-1.843-1.572-3.097c-0.459-1.261-0.565-2.454-0.513-3.557c0.054-1.107,0.267-2.123,0.581-3.138
			c0.316-1.016,0.739-2.033,1.299-3.198c0.558-1.174,1.273-2.468,2.146-4.219c0.273-0.555,0.562-1.173,0.842-1.891
			c0.14-0.359,0.277-0.743,0.403-1.164c0.08-0.266,0.088-0.313,0.1-0.38c0.014-0.07,0.026-0.143,0.034-0.217
			c0.087-0.172,0.225-0.303,0.405-0.509c0.32-0.324,0.656-0.654,1.018-0.975c0.722-0.647,1.53-1.279,2.407-1.882
			c1.753-1.208,3.782-2.284,5.886-3.2c4.218-1.832,8.709-3.011,12.153-3.645c4.094-0.748,8.247-1.273,12.947-1.681
			c4.698-0.403,9.948-0.675,16.263-0.795c3.154-0.059,5.783-1.034,6.712-2.008c0.926-0.969-0.946-0.03-4.673-0.001
			c-7.454,0.098-8.906,2.189-13.237,1.439c-2.168-0.363-7.302,0.095-11.076,0.506c-3.772,0.394-5.517-0.936-7.572-0.054
			c-2.057,0.878-7.131-0.633-12.151,0.763c-2.509,0.692-5.062,1.583-7.287,2.653c-2.226,1.057-4.106,2.315-5.285,3.366
			c-0.155,0.132-0.311,0.281-0.472,0.434l-0.244,0.234c-0.071,0.065-0.238,0.244-0.353,0.363c-0.512,0.525-1.06,1.127-1.614,1.752
			l-0.177,1.083c-0.029,0.186-0.061,0.368-0.104,0.529l-0.054,0.223c-0.061,0.241-0.151,0.524-0.259,0.833
			c-0.219,0.62-0.523,1.342-0.867,2.117c-0.691,1.556-1.533,3.326-2.259,5.188c-0.73,1.861-1.339,3.836-1.656,5.739
			c-0.33,1.899-0.345,3.707-0.217,5.128c0.14,1.632,0.493,3.453,1.284,5.35c0.787,1.894,2.009,3.841,3.709,5.671
			c0.424,0.459,0.877,0.911,1.359,1.355c0.24,0.223,0.49,0.441,0.745,0.661l0.719,0.601c0.969,0.804,2.023,1.642,3.171,2.514
			c2.294,1.745,4.971,3.629,8.137,5.638c1.419,0.896,3.204,2.07,6.3,4.333l5.774,4.284l3.876,2.882
			c1.364,1.079,2.988,2.304,4.802,3.464c1.819,1.185,4.789,2.562,7.722,3.54c2.93,0.999,5.793,1.637,7.324,2.066
			c1.519,0.445,5.024,1.838,9.1,2.598c4.065,0.783,8.619,0.969,11.883-0.245C173.678,447.999,161.013,448.236,154.962,447.091z"/>
		<path style="fill:#595959;" d="M399.824,434.094c-3.148,2.727-6.281,4.477-9.743,5.921c-1.701,0.696-3.633,1.309-5.783,1.941
			c-2.15,0.624-4.54,1.242-7.32,1.875c-5.551,1.297-12.764,2.288-19.553,3.134c-6.784,0.865-13.007,1.609-16.668,2.016
			c-3.661,0.413-8.418,0.914-12.81,1.309c-4.392,0.401-8.415,0.694-10.611,0.836c-2.195,0.142-4.404,0.031-7.332,0.043
			c-2.93,0.004-6.572,0.151-11.679,0.667c-5.117,0.515-8.387,0.642-11.716,0.638c-3.318-0.005-6.633-0.152-11.796-0.424
			c-5.163-0.267-12.932-0.494-20.912-0.667c-7.977-0.178-16.155-0.225-22.107-0.271c-2.976-0.029-5.954-0.023-9.026,0.037
			c-1.537,0.032-3.096,0.076-4.692,0.134l-2.42,0.104l-2.54,0.143c-0.877,0.107-1.688,0.202-2.524,0.281
			c-0.836,0.084-1.687,0.15-2.554,0.213c-1.734,0.115-3.525,0.192-5.391,0.208c-3.726,0.04-7.735-0.133-12.094-0.576
			c-4.35-0.441-8.113-0.086-9.561,0.657c-1.44,0.721-0.531,1.941,4.686,2.682c5.217,0.696,8.608,0.908,11.432,1.158
			c2.829,0.234,5.094,0.5,8.166,0.884c1.537,0.185,3.659,0.257,6.07,0.137l0.915-0.054l0.888-0.065
			c0.554-0.064,1.138-0.052,1.723-0.073l3.725-0.121c5.095-0.191,10.21-0.431,13.15-0.886c2.939-0.47,9.556-0.077,16.349,0.605
			c6.792,0.671,13.774,1.572,17.471,1.778c7.4,0.423,23.745,0.377,31.297,0.29c3.744,0.001,8.243,0.175,14.408-0.113
			c6.159-0.296,13.983-1.073,24.229-3.115c2.292-0.458,5.219-1.01,10.51-1.823c2.647-0.408,5.885-0.882,9.928-1.449
			c4.039-0.581,8.904-1.174,14.789-2.142c2.94-0.489,7.316-1.556,11.384-2.961c4.078-1.386,7.805-3.108,9.791-4.132
			c1.982-0.971,6.848-3.118,11.225-7.055c2.178-1.947,4.214-4.335,5.544-6.949c1.347-2.594,1.899-5.432,1.446-7.628
			c-0.219-1.095-0.534-1.721-0.787-2.024c-0.255-0.301-0.456-0.286-0.615-0.052c-0.315,0.472-0.452,1.809-1.026,3.573
			c-0.554,1.763-1.603,3.957-3.068,6.003C403.18,430.832,401.389,432.724,399.824,434.094z"/>
		<path style="fill:#595959;" d="M419.543,406.877c0.455-2.335,0.878-4.21,1.324-6.216c0.451-1.992,0.843-4.135,1.339-6.679
			l0.08-0.378l0.115-0.394c0.099-0.327,0.206-0.665,0.323-1.015c0.236-0.699,0.509-1.438,0.804-2.203l1.905-4.804
			c0.637-1.639,1.223-3.29,1.654-4.844c0.107-0.39,0.205-0.77,0.293-1.142c0.09-0.393,0.154-0.655,0.259-1.259
			c0.197-1.057,0.283-2.056,0.367-2.882l0.037-0.357c-0.478-0.694-0.939-1.453-1.511-2.201c-0.138-0.192-0.277-0.375-0.422-0.553
			c-0.133-0.166-0.318-0.39-0.421-0.504c-0.217-0.249-0.441-0.497-0.677-0.741c-0.939-0.979-2.042-1.882-3.162-2.613
			c-2.254-1.477-4.489-2.227-5.676-2.586c-1.215-0.366-1.681,0.33-3.272-0.064c-1.586-0.388-2.168,0.157-4.863,0.486
			c-2.687,0.335-4.416,1.146-6.079,1.215c-1.656,0.073-2.822-0.864-5.349-0.971c-1.263-0.057-2.888,0.294-4.62,0.242
			c-1.877-0.068-4.071,0.365-6.078,0.487c-4.022,0.242-8.293,0.348-11.25,0.553c-2.955,0.207-5.907,0.471-9.222,0.874
			c-3.317,0.422-6.994,0.914-11.409,1.974c-2.224,0.536-5.856,0.051-6.041,1.199c-0.107,0.571,0.084,1.018,0.542,1.223
			c0.462,0.207,1.185,0.173,2.336-0.174c2.322-0.684,3.918-0.987,5.248-1.13c1.337-0.132,2.441-0.075,3.926,0.189
			c1.487,0.261,3.99,0.167,6.486-0.094c2.495-0.267,4.983-0.706,6.39-1.29c1.405-0.587,4.685-0.546,8.01-0.25
			c1.663,0.146,3.336,0.354,4.785,0.555l1.978,0.282c0.604,0.083,1.034,0.151,1.549,0.193c1.909,0.16,4.95,0.072,7.914-0.089
			c2.969-0.158,5.87-0.329,7.648-0.229c1.774,0.103,3.889,0.455,6.585,0.924c1.344,0.246,2.825,0.527,4.427,0.983
			c1.602,0.467,3.327,1.087,5.179,2.361l0.4,0.293l0.316,0.219c0.213,0.156,0.451,0.361,0.715,0.64
			c0.022,0.185,0.035,0.391,0.038,0.626c-0.005,0.248-0.003,0.458-0.056,0.852c-0.107,0.819-0.303,1.774-0.615,2.886
			c-0.603,2.239-1.765,5.038-3.22,8.878c-0.258,0.703-0.513,1.61-0.721,2.629c-0.228,1.104-0.254,2.175-0.3,3.262
			c-0.058,2.154,0.022,4.181-0.092,5.277c-0.122,1.091-0.799,3.618-1.504,6.288l-1.083,4.035c-0.339,1.336-0.651,2.65-0.793,4.011
			c-0.158,1.359-0.075,1.937,0.387,1.918c0.447-0.018,1.229-0.648,2.01-1.704c0.783-1.051,1.52-2.525,2.02-4.02
			C419.01,409.543,419.313,408.046,419.543,406.877z"/>
		<path style="fill:#595959;" d="M94.546,381.022c-1.804,0.145-3.334,0.041-5.007-0.107c-1.676-0.154-3.501-0.366-5.958-0.566
			c-2.467-0.19-5.524-0.554-8.498-0.775c-0.376-0.025-0.749-0.047-1.132-0.06l-0.611-0.012c-0.385,0.012-0.485,0.041-0.66,0.051
			l-1.898,0.164c-1.195,0.09-2.226,0.148-2.991,0.179c-3.055,0.171-7.97,0.061-9.838-0.029c-1.861-0.062-3.701-0.666-8.134-0.312
			c-4.439,0.39-5.661,0.451-10.038,0.433c-4.37,0-13.114,0.487-18.11,0.487H4.188c-3.746,0-6.243,1.945-1.872,1.945
			c4.37,0,5.619,0,8.117,0.486c2.497,0.485,8.743,0.486,11.239,0c2.498-0.487,11.24,0.486,14.363,0.486
			c3.111,0.016,10.019-0.522,13.08-0.449c1.546,0.033,3.397,0.222,5.968,0.333c2.567,0.1,5.894,0.17,10.313-0.387
			c0.985-0.13,2.244-0.273,4.504-0.511l1.894-0.207l1.108-0.128l0.296-0.034c0.104-0.013,0.14-0.018,0.232-0.018l0.609,0.005
			c1.682,0.045,3.739,0.255,6.227,0.494c1.244,0.121,3.128,0.175,4.933,0.175l4.465-0.046c0.935,0.013,3.13,0.286,5.578,0.111
			c1.219-0.088,2.499-0.295,3.66-0.684c1.159-0.385,2.194-0.965,2.866-1.681c0.665-0.718,0.686-1.047,0.433-1.079
			c-0.262-0.037-0.833,0.194-1.639,0.464C98.98,380.328,96.357,380.897,94.546,381.022z"/>
		<path style="fill:#595959;" d="M504.574,372.33c-3.268,0-5.445-0.486-9.803-0.486h-1.724c-0.32,0.017-0.517-0.037-1.14,0.035
			l-0.919,0.107c-1.237,0.144-2.525,0.263-3.765,0.371c-2.481,0.21-4.781,0.348-6.137,0.432c-2.706,0.163-7.071,0.416-8.714,0.542
			c-1.625,0.126-3.363-0.267-7.108,0.654c-1.757,0.422-3.012,0.567-4.2,0.671c-1.204,0.094-2.415,0.111-4.302,0.095l-15.798,0.09
			c-2.191-0.008-4.39,0.024-6.865,0.188c-2.472,0.174-5.232,0.457-8.485,1.201c-1.633,0.375-2.824,1.264-3.115,1.874
			c-0.293,0.618,0.239,0.915,2.012,0.41c1.789-0.485,2.97-0.7,3.961-0.814c0.991-0.108,1.801-0.102,2.882,0.016
			c1.079,0.117,2.928,0.074,4.788,0c1.86-0.081,3.733-0.209,4.811-0.445c2.156-0.516,9.72,0.75,12.474,0.821
			c1.371,0.035,3.576-0.037,5.79-0.182c2.226-0.139,4.392-0.364,5.848-0.48c2.753-0.338,6.448-0.205,14.022-1.601
			c0.846-0.159,1.926-0.341,3.885-0.563c1.958-0.236,4.798-0.451,9.15-0.967c0.161-0.019,0.213-0.032,0.36-0.032l0.475-0.015
			l1.058-0.055l2.323-0.167c1.565-0.122,3.063-0.244,3.88-0.244c1.633,0,7.624,0.973,10.891-0.486
			C514.377,371.844,507.842,372.33,504.574,372.33z"/>
		<path style="fill:#595959;" d="M172.082,214.258c-2.939-3.247-1.21-4.191,1.151-1.584
			C175.586,215.289,173.837,216.212,172.082,214.258z"/>
		<path style="fill:#595959;" d="M179.714,222.34c-2.278-2.439-1.827-4.085,0.561-1.79c2.392,2.288,6.045,6.991,10.663,12.126
			c3.525,3.873,3.815,4.51,5.43,6.149c1.622,1.627,1.091,3.426-0.766,1.548c-1.849-1.884-3.679-4.229-6.941-7.94
			C185.402,228.717,182.407,225.224,179.714,222.34z"/>
		<path style="fill:#595959;" d="M212.467,199.56c-0.265-1.253,0.126-1.903,0.597-1.971c0.477-0.072,1.033,0.396,1.231,1.349
			C214.715,200.839,212.808,201.062,212.467,199.56z"/>
		<path style="fill:#595959;" d="M214.444,205.634c-0.649-1.796,0.587-2.686,1.375-0.983c0.782,1.705,1.583,4.951,2.851,8.711
			c0.931,2.875,0.757,3.324,1.143,4.607c0.362,1.315-1.146,2.072-1.512,0.635c-0.385-1.43-0.563-3.092-1.409-5.746
			C216.039,210.211,215.212,207.745,214.444,205.634z"/>
		<path style="fill:#595959;" d="M253.311,186.428c0-4.813,1.916-4.295,1.916-0.445
			C255.227,189.836,253.311,189.316,253.311,186.428z"/>
		<path style="fill:#595959;" d="M253.677,198.637c-0.122-3.668,1.307-4.693,1.595-1.081c0.291,3.609,0.06,10.107,0.35,17.688
			c0.219,5.753-0.001,6.5,0.144,9.026c0.144,2.53-1.451,3.612-1.597,0.724c-0.144-2.888,0-6.138-0.144-11.552
			C253.88,208.024,253.822,202.97,253.677,198.637z"/>
		<path style="fill:#595959;" d="M292.284,195.338c1.302-2.351,2.816-1.121,1.799,0.701
			C293.096,197.882,291.522,196.764,292.284,195.338z"/>
		<path style="fill:#595959;" d="M289.604,201.569c0.741-1.902,2.27-1.78,1.697,0.124c-0.569,1.9-2.165,5.064-3.448,9.036
			c-0.986,3.01-1.352,3.31-1.754,4.65c-0.413,1.347-2.112,1.258-1.626-0.254c0.483-1.512,1.292-3.103,2.274-5.913
			C287.728,206.402,288.742,203.809,289.604,201.569z"/>
		<path style="fill:#595959;" d="M331.055,209.465c1.91-3.589,3.411-2.34,1.865,0.578
			C331.328,212.944,329.884,211.587,331.055,209.465z"/>
		<path style="fill:#595959;" d="M326.086,218.593c0.695-1.42,1.508-2.133,1.947-2.127c0.443,0.007,0.508,0.69-0.106,2.084
			c-0.596,1.391-1.605,3.343-2.897,5.578c-1.284,2.247-2.828,4.828-4.401,7.659c-2.392,4.291-2.92,4.71-3.93,6.617
			c-1.013,1.906-2.854,1.851-1.681-0.318c1.172-2.169,2.767-4.44,5.057-8.443C322.361,225.633,324.495,221.914,326.086,218.593z"/>
		<path style="fill:#595959;" d="M153.892,262.859c-1.894-1.117-0.691-2.635,0.794-1.755
			C156.184,261.976,155.029,263.521,153.892,262.859z"/>
		<path style="fill:#595959;" d="M158.851,265.307c-1.485-0.726-1.178-2.195,0.383-1.624c1.558,0.585,4.001,2.239,7.008,4.049
			c2.275,1.417,2.377,1.867,3.36,2.539c0.987,0.731,0.178,2.186-0.844,1.395c-1.033-0.77-2.043-1.829-4.109-3.112
			C162.579,267.285,160.604,266.17,158.851,265.307z"/>
		<path style="fill:#595959;" d="M129.165,311.46c-3.129,0-2.792-1.916-0.29-1.916C131.379,309.544,131.041,311.46,129.165,311.46z"
			/>
		<path style="fill:#595959;" d="M137.098,311.094c-2.384,0.123-3.049-1.306-0.702-1.595c2.347-0.291,6.569-0.058,11.497-0.349
			c3.74-0.22,4.225,0,5.867-0.145c1.644-0.145,2.348,1.451,0.47,1.597c-1.878,0.145-3.99,0-7.509,0.144
			C143.202,310.89,139.915,310.948,137.098,311.094z"/>
		<path style="fill:#595959;" d="M129.419,357.896c-3.61,1.311-3.911-0.614-0.98-1.684
			C131.375,355.175,131.597,357.131,129.419,357.896z"/>
		<path style="fill:#595959;" d="M138.585,354.397c-2.761,1.043-3.998-0.049-1.328-1.242c2.667-1.195,7.723-2.583,13.408-4.796
			c4.307-1.688,4.938-1.691,6.799-2.505c1.849-0.824,3.224,0.365,1.087,1.303c-2.142,0.928-4.663,1.657-8.755,3.175
			C145.702,351.85,141.848,353.164,138.585,354.397z"/>
		<path style="fill:#595959;" d="M391.984,350.705c3.804,0.95,2.93,2.708-0.113,1.947
			C388.826,351.892,389.701,350.136,391.984,350.705z"/>
		<path style="fill:#595959;" d="M382.241,348.662c2.932,0.598,3.398,2.186,0.474,1.76c-2.924-0.424-8.005-1.914-14.078-3.051
			c-4.608-0.861-5.151-1.207-7.187-1.533c-2.039-0.323-2.539-2.076-0.214-1.689c2.325,0.392,4.872,1.129,9.199,2.008
			L382.241,348.662z"/>
		<path style="fill:#595959;" d="M381.284,311.925c1.276,0.051,1.84,0.518,1.84,1.001c-0.001,0.476-0.608,0.963-1.675,0.923
			C379.315,313.743,379.758,311.842,381.284,311.925z"/>
		<path style="fill:#595959;" d="M374.701,311.728c1.983,0.096,2.406,1.573,0.406,1.651c-2.001,0.078-5.499-0.616-9.626-0.89
			c-3.132-0.2-3.503-0.461-4.878-0.48c-1.367-0.01-1.795-1.659-0.209-1.631c1.588,0.035,3.33,0.407,6.275,0.663
			C369.615,311.296,372.349,311.605,374.701,311.728z"/>
		<path style="fill:#595959;" d="M352.651,248.947c2.29-1.788,3.174-0.042,1.398,1.336
			C352.283,251.699,351.301,250.033,352.651,248.947z"/>
		<path style="fill:#595959;" d="M347.283,253.846c1.59-1.491,2.97-0.781,1.515,0.811c-1.454,1.592-4.536,3.902-7.822,6.991
			c-2.505,2.338-3,2.437-4.092,3.486c-1.11,1.048-2.582,0.163-1.321-0.993c1.253-1.163,2.844-2.251,5.221-4.404
			C343.159,257.582,345.407,255.607,347.283,253.846z"/>
		<path style="fill:#595959;" d="M153.611,130.125c0-4.887,6.807-17.506,10.698-15.074c3.889,2.431,0.486,3.89,0,7.78
			c-0.486,3.89,0.972,8.266-2.433,10.211C158.474,134.988,153.611,136.446,153.611,130.125z"/>
		<path style="fill:#595959;" d="M322.341,106.299c2.431-1.945,4.377-3.404,9.725,2.431c5.349,5.835,2.917,11.183,9.238,13.615
			c6.322,2.431-6.321,7.78-8.752,4.863c-2.431-2.918-5.349-4.377-5.349-8.266c0-3.891-3.889-7.294-5.349-8.753
			C320.396,108.73,322.341,106.299,322.341,106.299z"/>
		<path style="fill:#595959;" d="M370.967,187.989c6.807,3.891,14.587,11.185,9.725,11.185c-4.863,0-10.211,4.863-14.588,1.459
			c-4.377-3.405,2.43-7.78,0-12.157C363.673,184.099,370.967,187.989,370.967,187.989z"/>
		<path style="fill:#595959;" d="M138.537,191.879c3.076-3.075,5.835-9.725,8.266-6.322c2.431,3.405,2.917,6.322,2.431,8.753
			c-0.487,2.431-2.917,1.945-8.266,3.404C135.618,199.173,137.564,192.852,138.537,191.879z"/>
		<path style="fill:#595959;" d="M104.013,354.775c1.458-5.835,3.889-7.294,8.266-2.918c4.377,4.377,5.835,6.808,2.918,8.753
			c-2.918,1.945,0.486,8.753-6.808,5.835c-7.293-2.918-4.377-2.917-8.266-6.807C96.233,355.747,104.013,354.775,104.013,354.775z"/>
		<path style="fill:#595959;" d="M404.032,354.775c-1.459-3.89-3.889-11.184,0-11.671c3.889-0.485,2.917,0,5.349,2.919
			c2.431,2.917,1.945,7.293,0.486,10.211C408.409,359.151,404.032,354.775,404.032,354.775z"/>
	</g>
</g>
</svg>
