<?xml version="1.0" encoding="iso-8859-1"?>
<!-- Generator: Adobe Illustrator 21.1.0, SVG Export Plug-In . SVG Version: 6.00 Build 0)  -->
<svg version="1.1" id="_x31_2" xmlns="http://www.w3.org/2000/svg" xmlns:xlink="http://www.w3.org/1999/xlink" x="0px" y="0px"
	 viewBox="0 0 512 512" style="enable-background:new 0 0 512 512;" xml:space="preserve">
<g>
	<path style="fill:#94C85C;" d="M121.016,178.846c-11.741-11.741-6.523-35.222,6.523-49.572s37.179-43.05,40.44-47.615
		c3.261-4.566,13.697-34.57,23.481-43.049c9.784-8.479,20.22-3.914,28.7,8.479c8.48,12.393,22.829,14.35,33.918,14.35
		c11.089,0,18.916-6.523,18.916-6.523s15.002-29.352,31.961-24.786c16.959,4.566,20.872,21.525,26.743,30.004
		c5.87,8.479,84.794,57.399,80.229,107.624c11.741,48.92,75.663,90.665,75.663,90.665s26.128,12.422,19.568,31.961
		c9.132,11.089,1.957,18.264-1.957,20.22c9.132,5.218,0,20.872-7.175,30.656c-7.175,9.784-28.7,18.263-28.7,18.263
		s-414.84,1.957-424.624,1.957s-33.918-15.002-39.136-27.395c-5.218-12.393-7.175-19.568-1.305-22.177
		c-4.566-5.218-5.87-18.263,2.609-24.134c-5.87-3.914-7.827-16.959,7.827-22.829c15.654-5.87,27.395-3.914,27.395-3.914
		L121.016,178.846z"/>
	<path style="fill:#FFFFFF;" d="M181.024,212.111c7.175-7.175,11.088-26.091,1.304-35.875c-9.784-9.784-16.959-25.438-3.261-33.265
		c13.697-7.827,45.658,3.261,71.749,3.261s38.484-3.914,55.442-8.479c16.959-4.566,41.745-6.523,35.875,7.175
		c-5.87,13.697-16.959,18.916-12.393,31.309c4.566,12.393,18.263,30.004,18.263,30.004l-11.089,18.916l-75.01,54.138
		L181.024,212.111z"/>
	<path style="fill:#C8C9CA;" d="M477.152,322.996c0,0-3.914-2.609-14.35,2.609c-10.436,5.218,8.48-16.959,10.436-18.916
		c1.957-1.957,0.652-5.87-13.698,0.653c-8.48-1.957,11.088-21.525,16.306-26.743c-7.175-1.957-21.525,7.827-20.873,3.262
		c7.581-15.636,25.136-22.662,35.428-25.09c9.443-47.14,16.753-84.491,16.753-84.491l3.262-16.307c0,0-11.741-5.87-67.184-3.261
		c-55.442,2.609-177.416,65.226-177.416,65.226s-4.922,2.449-24.134-7.827c-50.224-27.395-161.761-43.049-195.679-44.354
		c-33.918-1.304-39.788,0.653-39.788,0.653s18.916,90.013,19.568,91.969c0,0,3.261-3.914,16.306,0.652
		c13.045,4.566,22.177,31.961,22.177,31.961s-4.566-1.304-15.654-3.914c14.243,10.255,16.306,30.004,13.045,28.048
		c-3.261-1.957-16.306-13.046-18.263-9.784c9.784,5.218,16.306,27.395,10.436,22.177c-5.87-5.218-11.741-1.957-16.958-2.609
		c-5.218-0.653-2.609,10.436-2.609,10.436l28.7,113.494c0,0,12.393,0,15.002-1.957c2.609-1.957,13.698-1.957,19.568-1.305
		c5.87,0.653,41.745,5.218,48.92,8.48c7.175,3.261,73.706,15.654,114.798,24.786c141.542-41.745,183.286-30.656,187.852-31.961
		c2.149-0.614,15.133-61.473,28.278-125.734C477.247,323.062,477.152,322.996,477.152,322.996z"/>
	<path style="fill:#9E9E9F;" d="M398.554,278.969l1.957-73.38c0,0,43.049-12.719,45.985-9.784
		c2.935,2.935-1.957,76.315-1.957,76.315L398.554,278.969z"/>
	<polygon style="fill:#9E9E9F;" points="312.455,422.793 315.391,449.21 287.995,458.993 287.995,429.642 	"/>
	<path style="fill:#9E9E9F;" d="M224.4,394.419l-4.892,45.006h-11.741c0,0-107.624-15.654-125.235-12.719
		C77.64,400.29,77.64,381.7,77.64,381.7S141.236,374.851,224.4,394.419z"/>
	<g>
		<path style="fill:#231815;" d="M24.773,172.558c-2.386,0.134-11.447-1.537-8.128-5.686c2.219-2.774,10.271-2.468,13.491-3.066
			c4.498-0.835,8.92-1.866,13.498-1.104c4.799,0.799,9.576,1.594,14.408,2.225c19.885,2.596,39.568,4.83,59.272,8.683
			c25.808,5.047,52.303,8.1,77.523,15.809c20.402,6.236,39.537,15.275,58.84,24.207c2.963,1.371,7.095,2.237,9.806,4
			c3.349,2.179,0.622,4.941-2.586,4.761c-2.624-0.147-5.755-2.212-8.098-3.239c-5.208-2.282-10.432-4.531-15.683-6.712
			c-15.675-6.51-31.739-11.971-47.603-17.963c-11.922-4.503-25.492-6.964-38.129-8.355c-8.917-0.981-17.834-2.077-26.674-3.613
			c-10.427-1.812-20.436-4.394-31.012-5.469c-11.676-1.186-23.033-3.953-34.757-4.776C47.442,171.453,36.238,172.196,24.773,172.558
			z"/>
		<path style="fill:#231815;" d="M275.946,209.253c-2.179,1.207-16.837,11.832-11.699,14.647c2.277,1.248,7.423-2.066,9.396-3.047
			c3.76-1.87,7.417-3.969,11.089-6.006c15.695-8.705,31.627-17.053,47.993-24.434c34.534-15.574,71.568-27.171,109.359-30.851
			c17.457-1.7,34.87-1.711,52.378-2.045c2.043-0.039,15.039,0.151,15.082-3.812c0.041-3.733-11.911-4.082-13.947-4.226
			c-16.733-1.179-33.334,1.882-49.864,3.997c-17.202,2.201-34.361,4.51-51.087,9.239c-20.799,5.881-41.334,13.16-61.59,20.681
			C313.504,190.657,293.91,198.558,275.946,209.253z"/>
		<path style="fill:#231815;" d="M175.631,50.98c5.829-11.716,16.05-23.457,30.627-19.656c6.723,1.753,11.794,6.782,15.723,12.298
			c2.252,3.162,4.164,6.545,6.046,9.936c1.217,2.194,5.281,6.978,5.143,9.525c0.013-0.237-7.872-5.155-8.828-6.081
			c-3.661-3.543-6.319-7.88-9.684-11.67c-6.734-7.583-14.26-8.586-22.769-3.447c-7.61,4.597-10.373,14.232-13.527,21.977
			c-1.258,3.089-3.308,6.129-3.668,0.634C174.398,59.984,174.927,55.428,175.631,50.98z"/>
		<path style="fill:#231815;" d="M272.578,48.078c6.533-13.754,19.913-26.017,36.157-20.201c7.443,2.665,13.353,8.659,17.006,15.554
			c1.682,3.175,2.95,6.577,3.719,10.087c0.242,1.103,1.725,7.074,0.472,7.709c0.54-0.274-13.89-20.144-15.214-21.381
			c-7.604-7.105-15.758-6.691-24.367-1.968c-8.313,4.561-11.169,13.609-14.434,21.933c-1.235,3.147-4.278,9.261-4.378,2.301
			C271.471,57.439,271.722,52.674,272.578,48.078z"/>
		<path style="fill:#231815;" d="M153.815,99.082c-11.411,12.086-21.418,26.326-27.922,41.669
			c-3.015,7.112-5.357,14.726-5.62,22.497c-0.044,1.306,2.099,18.856,3.189,18.567c-0.92,0.244-5.294-6.488-5.748-7.264
			c-1.174-2.006-2.048-4.122-2.641-6.371c-1.92-7.285-0.691-14.692,1.305-21.821c3.422-12.224,9.188-25.43,17.427-35.163
			c7.551-8.92,14.635-18.618,23.701-26.079c1.686-1.387,10.062-7.15,6.117-1.161C160.308,88.987,156.812,93.835,153.815,99.082z"/>
		<path style="fill:#231815;" d="M178.052,135.477c-3.393,0.477-11.67,3.113-11.439,7.868c0.234,4.82,9.942,2.638,12.832,2.401
			c12.747-1.044,25.621-0.303,38.324,1.02c12.983,1.352,26.359,4.724,39.437,4.356c13.136-0.369,26.463-4.254,39.277-6.883
			c12.44-2.553,25.33-5.454,38.094-5.311c3.031,0.034,8.961,1.325,11.697-0.37c5.811-3.601-6.057-8.278-8.688-8.691
			c-11.446-1.795-22.601,3.147-33.406,6.103c-12.192,3.335-24.725,5.814-37.177,7.964
			C236.879,149.136,208.173,130.968,178.052,135.477z"/>
		<path style="fill:#231815;" d="M362.839,76.468c14.804,12.567,28.674,26.763,38.994,43.305c5.001,8.017,9.32,16.743,11.299,26.037
			c0.899,4.223,1.347,8.563,0.885,12.872c-0.081,0.759-2.426,10.011-3.163,9.393c-0.277-0.232-0.049-7.512-0.186-8.324
			c-0.439-2.589-1.102-5.139-1.843-7.657c-2.149-7.304-4.974-14.495-8.636-21.174c-6.716-12.248-16.452-21.593-25.138-32.3
			c-8.233-10.149-18.814-17.81-28.941-25.92c-2.55-2.043-8.114-7.091-0.983-4.543C351.249,70.343,357.096,73.455,362.839,76.468z"/>
		<path style="fill:#231815;" d="M5.678,266.144c8.803-8.933,22.323-11.077,34.083-7.623c5.586,1.641,10.884,4.522,15.005,8.673
			c1.604,1.616,7.064,7.607,5.9,10.308c0.703-1.631-14.459-10.421-15.744-11.068c-7.685-3.868-14.982-3.496-23.197-2.321
			c-8.245,1.18-12.454,6.593-17,13.009c-2.239,3.16-3.297,2.808-2.587-1.132C2.755,272.575,3.868,269.125,5.678,266.144z"/>
		<path style="fill:#231815;" d="M6.754,283.191c11.474-6.619,27.135-4.73,38.798,0.39c5.824,2.557,11.449,6.198,15.324,11.326
			c1.308,1.732,2.478,3.648,3.184,5.712c0.264,0.771,1.314,6.279,0.479,6.128c-0.01-0.002-2.089-3.925-2.242-4.126
			c-1.082-1.415-2.37-2.682-3.671-3.892c-3.543-3.292-7.513-6.301-11.849-8.464c-7.576-3.781-15.581-4.402-23.859-5.024
			c-7.982-0.6-14.856,2.895-19.757,9.057c-1.961,2.465-4.003,4.067-2.801-0.556C1.437,289.599,3.757,286.172,6.754,283.191z"/>
		<path style="fill:#231815;" d="M7.625,304.537c8.618-5.166,19.66-6.332,29.202-3.267c4.371,1.405,8.535,3.793,11.721,7.128
			c0.435,0.456,4.978,7.99,4.261,7.87c-1.599-0.268-4.492-3.014-6.043-3.922c-3.185-1.862-6.306-3.917-9.803-5.163
			c-5.548-1.978-11.112-1.276-16.813-0.851c-5.546,0.413-9.881,3.398-14.313,6.51c-1.71,1.2-3.812,3.083-3.532,0.067
			C2.565,310.105,5.898,306.64,7.625,304.537z"/>
		<path style="fill:#231815;" d="M22.861,322.009c4.91-1.929,11.097-0.262,15.517,2.11c2.115,1.135,9.851,6.042,8.619,9.423
			c-0.339,0.93-6.729-1.887-7.264-2.197c-3.396-1.965-6.234-2.663-9.911-3.534c-1.658-0.393-2.301-0.918-4.23-0.556
			c-1.343,0.252-3.903,1.865-5.263,1.137C18.119,327.21,21.608,323.285,22.861,322.009z"/>
		<path style="fill:#231815;" d="M10.489,181.23c2.899,14.551,6.648,28.926,10.046,43.365c1.658,7.046,3.254,14.107,4.684,21.204
			c0.315,1.562,3.688,13.207,2.55,14.293c-0.516,0.492-7.592-13.387-8.102-14.836c-2.474-7.022-3.982-14.408-5.942-21.587
			C11.867,216.86,8.99,210.02,8,203.02c-1.359-9.613-3.908-18.955-5.527-28.518c-0.327-1.929-0.688-3.907-0.779-5.865
			c-0.08-1.719-0.372-3.868,1.603-2.383c1.989,1.495,3.241,6.554,4.26,8.724C8.535,177.062,9.512,179.146,10.489,181.23z"/>
		<path style="fill:#231815;" d="M43.74,357.21c3.769,17.429,8.975,34.357,11.819,51.992c1.371,8.501,2.679,17.038,4.725,25.41
			c0.302,1.233,5.208,16.841,6.1,16.465c-0.496,0.209-4.398-4.006-4.65-4.286c-1.906-2.111-3.448-4.551-4.728-7.083
			c-3.183-6.297-4.57-13.222-5.927-20.09c-2.226-11.27-4.767-22.211-7.649-33.303c-1.656-6.376-2.499-12.99-4.056-19.406
			c-1.624-6.691-3.417-13.355-4.4-20.181c-0.171-1.184-1.614-7.722-0.206-8.624c1.515-0.97,2.698,4.138,3.008,4.942
			C39.622,347.823,41.657,352.532,43.74,357.21z"/>
		<path style="fill:#231815;" d="M10.888,335.75c2.744,4.655,6.304,8.974,10.484,12.412c2.131,1.753,4.479,3.189,6.795,4.677
			c1.106,0.711,4.808,2.437,5.073,3.86c0.089,0.475-6.309,0.516-6.663,0.444c-2.679-0.541-5.174-2.15-7.419-3.642
			c-2.966-1.971-6.614-4.204-8.595-7.234c-2.147-3.286-5.1-7.13-6.371-10.799c-0.583-1.682-1.046-3.677,1.198-3.254
			C6.963,332.51,9.382,334.873,10.888,335.75z"/>
		<path style="fill:#231815;" d="M501.303,270.474c-6.696-8.322-19.164-8.113-28.443-5.142c-4.626,1.481-8.988,3.768-12.976,6.527
			c-0.761,0.526-8.148,5.563-8.098,6.063c-0.216-2.189,2.873-6.403,4.183-8.088c2.87-3.691,6.881-6.167,11.07-8.118
			c6.568-3.06,15.704-5.897,23.041-4.304c7.409,1.609,15.514,6.982,18.674,13.944c0.517,1.139,2.991,9.131,0.117,7.964
			c-1.012-0.411-2.795-4.653-3.722-5.665C504.031,272.434,502.719,271.329,501.303,270.474z"/>
		<path style="fill:#231815;" d="M501.591,288.657c-9.031-6.464-23.057-2.977-32.35,0.982c-5.253,2.238-10.348,5.209-14.593,9.053
			c-0.574,0.52-6.969,8.018-6.671,8.173c-1.221-0.637,1.556-7.936,2.061-8.883c2.246-4.211,6.073-7.273,10.048-9.762
			c7.547-4.726,18.177-9.799,27.308-9.232c8.019,0.497,17.388,2.482,22.245,9.504c0.857,1.24,4.004,9.402,1.266,8.315
			c-1.139-0.452-3.012-4.332-4.066-5.251C505.283,290.202,503.531,289.317,501.591,288.657z"/>
		<path style="fill:#231815;" d="M500.596,309.922c-6.396-5.067-16.036-4.52-23.379-2.28c-3.878,1.183-7.545,3.022-11.01,5.11
			c-0.647,0.39-6.221,4.474-6.678,3.964c-0.55-0.613,2.97-5.96,3.575-6.711c2.163-2.686,5.064-4.398,8.131-5.874
			c5.747-2.765,13.879-5.677,20.299-4.182c5.766,1.343,12.525,3.95,16.2,8.821c0.713,0.945,3.789,5.733,1.103,5.738
			c-0.904,0.002-3.293-2.534-4.204-3.019C503.331,310.796,502.011,310.33,500.596,309.922z"/>
		<path style="fill:#231815;" d="M486.552,328.006c-2.994-2.541-8.972,1.497-11.43,2.887c-1.682,0.951-7.653,4.956-9.816,3.394
			c-1.365-0.985,5.245-6.921,5.75-7.278c2.802-1.984,6.238-5.134,9.703-5.594c3.086-0.409,7.784,0.38,10.065,2.547
			c0.9,0.855,2.741,3.449,0.918,4.348C490.612,328.867,488.141,327.496,486.552,328.006z"/>
		<path style="fill:#231815;" d="M508.285,182.933c-4.047,14.103-6.237,28.691-9.566,42.968c-1.704,7.311-3.592,14.624-6.308,21.633
			c-0.612,1.579-5.323,13.746-7.621,13.032c0.211,0.066,2.9-14.982,3.215-16.467c1.575-7.431,3.631-14.737,5.05-22.207
			c1.293-6.811,1.558-14.005,3.586-20.645c2.828-9.263,4.339-19.025,7.809-28.062c0.523-1.361,4.508-10.533,5.418-6.366
			c0.54,2.473-1.05,6.765-1.244,9.336C508.455,178.411,508.338,180.672,508.285,182.933z"/>
		<path style="fill:#231815;" d="M475.032,358.923c-5.047,17.449-8.656,35.029-11.562,52.932
			c-1.356,8.352-2.967,16.774-6.083,24.674c-1.386,3.514-3.091,6.979-5.399,9.985c-0.422,0.549-5.794,5.918-6.036,5.21
			c-0.086-0.252,3.38-5.947,3.605-6.557c0.922-2.499,1.624-5.092,2.303-7.666c1.886-7.147,3.514-14.384,4.664-21.686
			c1.655-10.512,1.814-21.533,4.525-31.85c1.697-6.458,4.017-12.753,5.706-19.23c1.757-6.737,3.379-13.538,5.868-20.055
			c0.38-0.994,2.106-6.747,3.654-6.827C477.648,337.784,475.226,356.357,475.032,358.923z"/>
		<path style="fill:#231815;" d="M506.095,339.478c-4.138,4.753-7.028,10.388-12.04,14.38c-2.426,1.932-5.188,3.449-8.229,4.138
			c-1.316,0.298-6.167,1.188-7.156-0.382c-0.311-0.493,9.802-6.457,10.285-6.814c3.157-2.327,4.605-5.717,7.1-8.505
			c2.643-2.954,5.22-7.472,8.589-9.53C509.795,329.618,506.581,336.793,506.095,339.478z"/>
		<path style="fill:#231815;" d="M262.156,284.434c-0.682,56.49,1.551,113.062-0.966,169.522c-0.17,3.82-0.353,7.643-0.654,11.455
			c-0.042,0.532,0.071,3.741-0.478,4.065c0.84-0.495-0.568-10.561-0.635-11.626c-0.699-11.057-1.078-22.125-1.183-33.204
			c-0.256-26.999-0.209-53.986-0.929-80.979c-0.283-10.602,0.271-21.21,0.371-31.812c0.139-14.646-0.025-29.295,0.322-43.938
			c0.114-4.786,0.262-9.574,0.559-14.353c0.139-2.236-0.078-5.229,0.701-7.368c0.378-1.037,0.085-1.66,0.744-0.728
			c1.086,1.536,0.453,6.548,0.518,8.152C260.942,263.897,261.527,274.168,262.156,284.434z"/>
		<path style="fill:#231815;" d="M110.578,444.911c16.048,2.667,31.718,7.059,47.573,10.621
			c15.766,3.542,31.686,6.286,47.419,10.027c13.539,3.219,27.037,6.67,40.415,10.507c0.89,0.255,14.003,3.6,13.837,4.565
			c-0.055,0.321-19.369-1.901-20.399-2.042c-18.401-2.516-36.377-7.565-54.592-11.113c-9.053-1.764-18.182-3.019-27.253-4.666
			c-6.732-1.222-13.147-3.426-19.725-5.252c-15.477-4.295-31.765-7.927-47.899-7.936c-3.048-0.002-8.162,1.564-11.035,0.747
			c-3.406-0.968,3.978-3.086,5.304-3.438C92.723,444.671,101.843,444.532,110.578,444.911z"/>
		<path style="fill:#231815;" d="M321.995,463.429c-11.691,2.548-23.515,4.689-35.303,6.735c-4.236,0.735-8.572,1.651-12.879,1.824
			c-4.496,0.181-10.659,0.132-13.408,4.526c-3.251,5.196,2.016,9.507,6.981,9.058c4.753-0.429,8.844-3.657,13.275-5.245
			c14.105-5.057,29.175-10.226,43.953-12.853c30.144-5.359,59.839-13.877,90.426-16.505c5.609-0.482,11.27-0.792,16.898-0.482
			c4.563,0.251,12.049,3.23,16.103,0.396c3.007-2.102,2.57-5.073-0.645-6.506c-3.263-1.454-7.512-0.729-10.987-0.608
			c-4.698,0.163-9.402,0.382-14.087,0.767C388.461,447.318,355.132,456.307,321.995,463.429z"/>
		<path style="fill:#231815;" d="M400.382,207.061c-0.633,6.795,0.351,13.938,0.168,20.791c-0.209,7.839-0.683,15.676-1.046,23.51
			c-0.287,6.196-0.282,12.156,0.945,18.275c0.335,1.671,1.951,5.525,0.668,7.105c-1.311,1.614-4.24,1.29-5.146-0.413
			c-1.007-1.892-0.225-5.781-0.177-7.837c0.089-3.808,0.371-7.612,0.375-11.421c0.009-7.949,0.01-15.904-0.011-23.854
			c-0.019-7.321-0.147-14.708-1.248-21.959c-0.255-1.681-1.531-4.802-0.288-6.149C396.21,203.388,400.709,204.296,400.382,207.061z"
			/>
		<path style="fill:#231815;" d="M399.503,201.706c4.113,1.144,10.301-0.711,14.37-1.347c5.391-0.843,10.823-1.854,16.091-3.295
			c2.28-0.624,4.357-1.407,6.417-2.591c1.309-0.752,2.909-2.43,4.334-2.86c1.871-0.565,3.413,0.626,3.453,2.948
			c0.037,2.139-0.949,2.137-2.894,2.746c-9.75,3.054-19.787,5.846-29.771,8.049c-3.339,0.737-6.688,1.437-10.034,2.141
			C395.914,208.663,398.355,201.38,399.503,201.706z"/>
		<path style="fill:#231815;" d="M451.475,202.135c-1.509,2.862-1.761,6.899-2.25,10.04c-0.666,4.28-1.144,8.587-1.539,12.899
			c-0.748,8.173-1.223,16.368-1.833,24.552c-0.506,6.778-0.598,13.489-0.711,20.282c-0.035,2.125,0.323,5.931-2.403,6.43
			c-3.525,0.645-3.646-2.474-3.174-4.747c3.198-15.399,2.986-30.598,3.736-46.252c0.353-7.36,0.963-14.683,1.841-21.998
			c0.216-1.803,0.03-4.556,1.957-5.375C449.236,197.059,452.614,199.899,451.475,202.135z"/>
		<path style="fill:#231815;" d="M397.048,276.943c4.092,1.576,10.889-0.375,15.005-1.104c5.636-0.998,11.219-2.299,16.871-3.212
			c4.985-0.805,9.913-2.465,14.885-3.121c3.721-0.491,5.025,3.964,1.818,5.5c-1.432,0.686-4.69-0.257-6.255-0.267
			c-2.851-0.018-5.601,0.204-8.384,0.812c-6.039,1.319-11.969,3.106-17.972,4.573c-4.797,1.172-9.749,2.372-14.683,2.812
			C392.254,283.477,395.945,276.526,397.048,276.943z"/>
		<path style="fill:#231815;" d="M370.402,221.027c-1.151,4.355-0.674,9.575-0.81,14.039c-0.222,7.32-0.391,14.641-0.567,21.962
			c-0.113,4.736-0.262,9.473-0.34,14.21c-0.098,5.934,0.896,11.585,1.463,17.448c0.154,1.591,0.49,3.402-1.043,4.346
			c-1.594,0.982-3.838,0.111-4.461-1.423c-1.113-2.739,0.43-8.377,0.61-11.24c0.766-12.172-0.045-24.454-0.276-36.641
			c-0.127-6.746-0.168-13.514-0.558-20.252c-0.084-1.445-0.743-3.968,0.322-5.107C366.442,216.55,371.135,218.319,370.402,221.027z"
			/>
		<path style="fill:#231815;" d="M341.939,234.497c-1.962,6.005-0.767,14.289-0.811,20.501c-0.051,7.227-0.108,14.462-0.024,21.688
			c0.043,3.69,0.455,7.3,1.123,10.926c0.292,1.586,1.534,4.558,0.85,6.155c-0.686,1.604-3.892,2.278-5.202,0.783
			c-0.914-1.044-0.35-3.486-0.281-4.741c0.641-11.576-0.217-22.971-0.748-34.546c-0.272-5.929-0.466-11.866-0.834-17.79
			c-0.071-1.142-0.644-3.447-0.123-4.467C337.022,230.786,342.869,231.65,341.939,234.497z"/>
		<path style="fill:#231815;" d="M316.18,237.958c-1.929,6.09-0.704,14.415-0.685,20.694c0.021,6.897,0.153,13.797,0.397,20.69
			c0.122,3.432,0.48,6.779,1.22,10.138c0.469,2.128,1.556,4.458,1.666,6.62c0.111,2.171-1.914,4.514-4.427,3.005
			c-1.594-0.957-1.24-3.007-1.263-4.673c-0.179-12.597-1.312-25.062-1.995-37.643c-0.288-5.315-0.471-10.64-0.828-15.951
			c-0.08-1.188-0.723-3.854-0.009-4.827C311.588,234.194,317.054,235.221,316.18,237.958z"/>
		<path style="fill:#231815;" d="M292.965,253.257c-1.67,5.294-0.804,12.172-1.039,17.664c-0.29,6.766-0.583,13.533-0.829,20.301
			c-0.195,5.342,0.707,10.106,1.413,15.348c0.244,1.814,0.712,3.217-1.251,4.022c-2.452,1.006-3.85-0.313-4.174-2.346
			c-0.623-3.919,0.697-8.657,0.803-12.637c0.175-6.541-0.228-13.142-0.298-19.688c-0.071-6.677-0.033-13.396-0.541-20.057
			c-0.114-1.498-0.829-3.793,0.477-4.84C288.938,249.894,293.746,250.878,292.965,253.257z"/>
		<path style="fill:#231815;" d="M356.771,334.298c-1.091,2.578-0.829,6.148-1.036,8.88c-0.366,4.85-0.731,9.705-0.956,14.565
			c-0.313,6.749-0.954,13.848,1.723,20.231c-0.649-0.966-1.299-1.932-1.949-2.897c0.199,0.036,0.319,0.034,0.51-0.005
			c-0.156,0.758-0.754,2.139-0.287,2.914c-0.448-0.744-2.315-0.948-3.01-1.206c0.445-1.418,2.003-3.767,3.777-3
			c1.295,0.561,0.949,2.614,1.031,3.502c2.669,1.176-2.635,4.715-4.71,2.148c-0.897-1.11-0.403-3.77-0.381-5.33
			c0.046-3.375-0.195-6.678-0.363-10.047c-0.391-7.848-0.129-15.712-0.246-23.565c-0.022-1.469-1.019-6.112-0.221-7.452
			C351.778,331.149,357.81,331.926,356.771,334.298z"/>
		<path style="fill:#231815;" d="M377.503,326.924c-2.85,3.392-2.555,11.575-2.756,15.684c-0.271,5.543-0.244,11.124-0.161,16.672
			c0.041,2.76,0.265,5.456,0.734,8.177c0.253,1.469,1.358,4.073,0.893,5.53c-1.047,3.283-5.605,2.051-5.571-1.243
			c0.039-3.789,0.995-7.518,0.852-11.343c-0.234-6.251-0.976-12.464-1.044-18.731c-0.054-4.963,0.175-9.948,0.904-14.863
			C372.316,320.321,378.063,326.217,377.503,326.924z"/>
		<path style="fill:#231815;" d="M407.192,318.93c-1.853,5.167-1.828,11.603-3.073,16.996c-1.353,5.862-2.927,11.685-4.023,17.603
			c-0.913,4.93-0.116,8.732,0.623,13.539c0.256,1.667,0.649,2.329-1.042,3.249c-1.513,0.824-3.514,0.511-4.225-0.903
			c-1.699-3.381,0.697-10.22,1.176-13.839c0.788-5.956,1.715-11.846,2.761-17.765c0.934-5.286,1.818-10.646,1.8-16.029
			c-0.007-1.904-0.772-3.925,0.984-5.06C403.408,315.923,407.975,316.723,407.192,318.93z"/>
		<path style="fill:#231815;" d="M438.194,324.166c-1.59,3.528-0.87,9.223-1.1,12.98c-0.302,4.942-0.65,9.891-0.816,14.841
			c-0.077,2.302,0.088,4.513,0.59,6.765c0.262,1.178,1.426,3.338,1.168,4.554c-0.558,2.628-5.003,2.118-5.705-0.076
			c-0.779-2.437,0.743-6.682,0.807-9.269c0.123-4.951-0.276-9.968-0.365-14.925c-0.082-4.579-0.43-9.141-0.571-13.711
			C432.034,319.847,438.451,323.614,438.194,324.166z"/>
		<path style="fill:#231815;" d="M318.421,344.41c-1.529,3.806-0.242,10.048-0.01,13.984c0.341,5.774,0.826,11.539,1.185,17.312
			c0.294,4.733,1.077,9.197,1.951,13.849c0.207,1.101,0.902,3.006,0.021,4.011c-0.88,1.004-4.128,0.823-4.959-0.212
			c-0.844-1.05-0.124-3.609-0.031-4.801c0.208-2.668,0.393-5.406,0.219-8.084c-0.398-6.126-1.578-12.284-2.383-18.371
			c-0.688-5.2-1.366-10.406-1.892-15.626c-0.169-1.681-0.766-3.097,0.838-4.125C314.423,341.668,319.188,342.413,318.421,344.41z"/>
		<path style="fill:#231815;" d="M294.885,351.709c-1.502,4.099-0.69,10.005-0.683,14.264c0.01,5.986,0.25,11.976,0.897,17.93
			c0.561,5.168,2.682,8.938,4.27,13.719c0.523,1.575,1.021,2.191-0.479,3.33c-1.649,1.251-3.477,0.878-4.473-0.536
			c-0.992-1.409-0.924-5.178-1.15-6.847c-0.347-2.562-0.674-5.093-1.154-7.632c-1.134-6.007-1.813-12.069-2.263-18.163
			c-0.353-4.78-0.598-9.569-0.932-14.35c-0.114-1.632-0.616-2.877,0.935-3.857C290.968,348.863,295.675,349.655,294.885,351.709z"/>
		<path style="fill:#231815;" d="M329.652,415.035c-1.565,2.305-0.659,7.456-0.497,10.03c0.278,4.407,0.85,8.804,1.383,13.186
			c0.392,3.225,2.465,6.487,2.684,9.559c0.212,2.985-4.315,3.304-5.51,1.094c-0.919-1.699,0.278-6.257,0.014-8.301
			c-0.57-4.43-1.906-8.822-2.667-13.231c-0.604-3.497-2.264-8.807-1.519-12.323C324.37,411.133,329.882,414.684,329.652,415.035z"/>
		<path style="fill:#231815;" d="M354.924,405.32c-0.981,1.888-0.554,5.178-0.591,7.21c-0.069,3.857-0.019,7.716,0.04,11.573
			c0.043,2.795-0.08,5.669,0.189,8.455c0.298,3.091,4.508,9.647-0.514,9.809c-4.621,0.15-2.809-4.051-2.656-7.358
			c0.233-5.034-0.73-10.115-1.195-15.125c-0.398-4.293-0.751-8.589-1.188-12.878c-0.13-1.283-0.621-2.275,0.517-3.122
			C350.291,403.316,355.787,403.662,354.924,405.32z"/>
		<path style="fill:#231815;" d="M395.648,393.657c-1.308,3.176-0.861,7.73-1.34,11.091c-0.643,4.514-1.518,8.997-2.111,13.519
			c-0.239,1.824-0.396,3.578-0.145,5.423c0.193,1.418,1.735,4.285,1.409,5.531c-0.579,2.214-4.897,2.171-5.706,0.224
			c-1.057-2.546,1.01-7.724,1.174-10.53c0.267-4.569,0.645-9.134,0.898-13.704c0.194-3.504-0.475-7.229-0.186-10.661
			c0.144-1.71-0.168-1.76,1.601-2.379C392.062,391.884,396.368,392.05,395.648,393.657z"/>
		<path style="fill:#231815;" d="M424.56,391.834c-1.8,3.204-2.085,7.716-3.539,11.186c-1.644,3.924-3.681,7.68-5.277,11.624
			c-0.665,1.644-1.145,3.255-1.204,5.043c-0.038,1.137,0.934,3.905,0.318,4.777c-1.118,1.583-5.151,0.812-5.559-1.042
			c-0.518-2.354,2.389-6.708,3.171-8.921c1.495-4.232,3.048-8.506,4.398-12.789c1.011-3.206,0.726-6.778,1.622-9.825
			c0.461-1.57,0.26-1.679,2.439-1.791C421.559,390.064,425.378,390.338,424.56,391.834z"/>
		<path style="fill:#231815;" d="M303.486,420.691c2.903-0.705,5.819-1.304,8.778-1.712c4.067-0.56,3.426-0.156,4.26,4.024
			c1.831,9.188,4.712,19.162,3.714,28.623c-0.18,1.706,0.013,1.479-1.398,2.171c-0.825,0.404-2.109,0.422-3.029,0.631
			c-3.848,0.874-7.625,2.032-11.392,3.202c-6.518,2.024-13.013,3.84-19.688,5.241c-1.226-5.822-0.321-12.957,0.022-18.86
			c0.192-3.305,0.453-6.611,0.838-9.899c0.104-0.887,1.252-4.785,0.962-5.278c0.538,0.912,0.305,3.699,0.421,4.713
			c0.324,2.845,0.658,5.684,0.889,8.538c0.416,5.145,0.606,10.304,0.866,15.458c3.323,0.395,8.477-2.387,11.599-3.41
			c2.454-0.804,4.902-1.627,7.362-2.411c1.819-0.579,4.883-0.849,6.438-1.882c1.549-1.03,0.644,0.011,1.092-1.577
			c0.861-3.052-0.904-8.698-1.263-11.96c-0.384-3.491-0.709-7.299-1.688-10.675c-0.234-0.807-0.03-1.558-0.614-1.851
			c-0.925-0.465-4.274,0.837-5.299,1.086c-4.499,1.094-8.926,2.475-13.457,3.437c-0.549,0.116-10.28,1.425-9.904,0.446
			c0.577-1.499,9.619-3.525,11.316-4.222C297.378,423.267,300.411,421.931,303.486,420.691z"/>
		<path style="fill:#231815;" d="M103.612,375.832c27.366,0.244,54.676,3.838,81.676,8.066c11.651,1.825,23.284,3.861,34.801,6.409
			c1.128,0.25,12.346,1.929,12.592,3.344c-0.107-0.613-12.28-1.026-13.089-1.096c-12.992-1.128-25.831-3.363-38.739-5.156
			c-11.104-1.542-22.241-2.928-33.414-3.862c-10.689-0.894-21.26-2.637-31.993-3.089c-7.786-0.328-15.582-0.204-23.371-0.372
			c-3.262-0.07-6.528-0.171-9.781-0.427c-0.757-0.06-6.721-0.957-6.492-1.248c0.939-1.19,5.203-0.685,6.635-0.779
			c2.898-0.191,5.792-0.432,8.685-0.682C95.286,376.579,99.449,376.202,103.612,375.832z"/>
		<path style="fill:#231815;" d="M228.713,404.652c-0.529,3.403-5.935,40.06-8.086,39.216c-0.189-0.074-0.447-3.544-0.477-3.826
			c-0.386-3.723,0.279-7.298,0.822-10.968c0.701-4.738,0.539-9.73,1.445-14.399c0.948-4.888,1.554-9.951,2.636-14.804
			c0.506-2.271,1.425-5.749,2.553-1.806C228.205,400.16,228.337,402.499,228.713,404.652z"/>
		<path style="fill:#231815;" d="M77.696,387.088c-0.631,7.765,0.565,15.666,1.462,23.364c0.149,1.275,2.407,16,0.793,16.34
			c-1.651,0.348-4.261-11.789-4.388-12.56c-0.854-5.174-2.415-10.714-2.576-15.964c-0.14-4.562-0.029-9.65,0.579-14.138
			c0.151-1.115,0.698-6.021,2.496-5.453C76.579,378.841,77.481,386.191,77.696,387.088z"/>
		<path style="fill:#231815;" d="M107.026,424.825c22.831,1.283,45.587,3.257,68.107,7.341c9.92,1.799,19.8,3.949,29.545,6.54
			c1.138,0.302,10.19,1.872,10.578,3.356c-0.261-0.996-18.855-2.066-20.15-2.261c-15.356-2.301-30.496-5.489-45.982-6.936
			c-9.553-0.892-19.082-2.149-28.648-2.887c-7.803-0.602-15.628-0.833-23.44-1.293c-1.474-0.087-12.898,0.11-13.511-1.754
			C83.516,426.906,104.889,424.947,107.026,424.825z"/>
		<path style="fill:#231815;" d="M227.089,253.702c-1.67,5.806-0.86,13.112-1.085,19.084c-0.293,7.78-0.56,15.56-0.777,23.342
			c-0.18,6.466,0.362,12.584,1.354,18.971c0.234,1.509,0.917,3.661-0.404,4.853c-2.238,2.02-4.736-0.22-4.936-2.353
			c-0.442-4.719,0.65-9.794,0.76-14.546c0.176-7.62-0.295-15.296-0.379-22.92c-0.082-7.363-0.113-14.733-0.42-22.091
			c-0.06-1.448-0.895-5.226-0.03-6.464C222.593,249.545,227.941,250.817,227.089,253.702z"/>
		<path style="fill:#231815;" d="M205.8,253.036c-1.445,4.126-0.739,9.871-0.785,14.15c-0.069,6.432,0.084,12.871,0.736,19.273
			c0.511,5.024,1.985,9.132,4.141,13.657c0.707,1.484,1.426,2.364,0.224,3.709c-1.292,1.446-3.59,1.247-4.662,0.129
			c-1.206-1.257-1.12-5.034-1.364-6.63c-0.448-2.933-0.796-5.862-1.33-8.781c-1.141-6.24-1.739-12.545-2.124-18.873
			c-0.315-5.188-0.665-10.395-0.869-15.587C199.54,248.258,206.335,251.597,205.8,253.036z"/>
		<path style="fill:#231815;" d="M178.344,236.986c-1.07,4.483-0.286,9.911-0.124,14.451c0.288,8.051,0.911,16.083,1.507,24.116
			c0.932,12.558,1.739,24.991,3.729,37.435c0.247,1.544,0.806,3.505,0.455,5.088c-0.432,1.948-2.743,3.447-4.669,1.914
			c-1.535-1.222-0.954-3.964-0.91-5.714c0.093-3.65,0.145-7.302,0.087-10.953c-0.231-14.722-2.923-29.487-4.372-44.131
			c-0.663-6.703-1.175-13.415-1.694-20.13c-0.135-1.741-0.842-4.315,0.777-5.481C175.283,232.031,178.916,234.432,178.344,236.986z"
			/>
		<path style="fill:#231815;" d="M218.709,347.67c0.322-1.954,0.567-3.722,0.763-5.706c0.032-0.323,0.868-2.813,0.917-2.611
			c-0.372-1.552-5.57-2.588-6.327-1.116c0.1-0.195,0.295,3.26,0.258,3.669c-0.133,1.481,0.254,2.991,0.137,4.392
			c-0.271,3.259-1.637,6.847-2.257,10.083c-0.424,2.214-2.273,7.535-0.709,9.589c0.6,0.787,4.274,1.703,5.137,0.694
			c-0.06,0.07-0.09-2.039-0.089-2.143c0.028-2.045,0.406-4.214,0.617-6.264C217.522,354.711,218.09,351.179,218.709,347.67z"/>
		<path style="fill:#231815;" d="M145.8,236.4c-1.137,4.153-0.355,9.397-0.251,13.641c0.179,7.314,0.563,14.624,1.009,21.927
			c0.303,4.954,0.527,9.938,1.011,14.879c0.532,5.428,2.414,10.438,3.307,15.752c0.268,1.592,0.518,2.864-1.017,3.793
			c-1.837,1.112-3.671,0.244-4.339-1.416c-1.213-3.011-0.471-7.898-0.611-11.087c-0.518-11.738-2.372-23.414-3.423-35.117
			c-0.593-6.608-1.025-13.23-1.609-19.838c-0.126-1.432-0.827-3.928,0.232-5.074C141.744,232.091,146.513,233.744,145.8,236.4z"/>
		<path style="fill:#231815;" d="M117.64,238.051c-0.199,5.577,1.245,11.542,1.47,17.166c0.278,6.932,0.329,13.873,0.547,20.808
			c0.159,5.082,0.536,10.05,2.331,14.865c0.542,1.452,2.485,4.078,1.681,5.714c-0.991,2.017-4.105,2.03-5.201,0.628
			c-1.287-1.646-1.079-5.956-1.216-7.811c-0.206-2.793-0.231-5.597-0.477-8.387c-0.607-6.891-1.178-13.78-1.721-20.677
			c-0.48-6.096-0.83-12.458-2.563-18.356c-0.495-1.685-1.646-3.106-0.422-4.626C113.277,235.874,117.488,235.44,117.64,238.051z"/>
		<path style="fill:#231815;" d="M82.6,221.499c-0.993,3.87,0.426,9.415,0.77,13.293c0.485,5.478,1,10.954,1.649,16.416
			c0.543,4.571,1.904,8.282,3.646,12.495c0.358,0.865,1.177,1.901,0.725,2.898c-0.496,1.094-3.765,1.949-4.789,1.319
			c-2.327-1.432-1.682-9.756-2.079-12.235c-0.908-5.658-2.126-11.273-3.036-16.937c-0.792-4.926-1.575-9.854-2.566-14.745
			c-0.328-1.622-0.979-2.673,0.44-3.836C78.278,219.414,83.153,219.463,82.6,221.499z"/>
		<path style="fill:#231815;" d="M105.339,331.827c0.172-3.139,0.742-6.909,0.362-9.945c-0.148-1.183,0.649-1.175-1.823-1.486
			c-1.59-0.2-3.764-0.184-4.255,1.064c0.051-0.13,0.725,3.18,0.734,3.629c0.041,2.091,0.532,4.199,0.553,6.219
			c0.038,3.763-0.948,7.9-1.317,11.667c-0.272,2.776-1.972,8.852-0.142,11.289c0.996,1.327,4.302,1.457,5.087,0.172
			c0.032-0.052-0.07-2.736-0.062-2.882c0.141-2.348,0.129-4.696,0.201-7.047C104.808,340.274,105.151,336.055,105.339,331.827z"/>
		<path style="fill:#231815;" d="M137.112,337.681c0.172-3.139,0.74-6.908,0.361-9.943c-0.148-1.184,0.652-1.176-1.823-1.487
			c-1.59-0.2-3.764-0.185-4.255,1.064c0.051-0.13,0.726,3.179,0.735,3.629c0.041,2.091,0.532,4.199,0.552,6.218
			c0.039,3.764-0.947,7.9-1.317,11.667c-0.272,2.776-1.972,8.852-0.143,11.289c0.997,1.328,4.302,1.457,5.087,0.171
			c0.032-0.053-0.07-2.735-0.061-2.88c0.141-2.348,0.128-4.696,0.201-7.047C136.579,346.129,136.918,341.909,137.112,337.681z"/>
		<path style="fill:#231815;" d="M234.584,129.93c-8.627-3.697-9.88-9.057-2.47-9.057C239.524,120.873,240.348,132.4,234.584,129.93
			z"/>
		<path style="fill:#231815;" d="M267.517,130.753c-4.859-1.214,1.647-12.35,6.587-11.526
			C279.044,120.05,270.81,131.576,267.517,130.753z"/>
		<path style="fill:#231815;" d="M171.353,161.481c1.711-0.143,6.172-1.624,4.413-4.196c-1.215-1.776-5.588-1.198-7.265-1.171
			c-5.377,0.087-11.994,0.534-14.077-5.65c-2.077-6.166,2.018-12.597,7.027-15.889c2.938-1.931,6.284-2.99,9.724-3.57
			c1.479-0.249,6.248-0.132,6.579-2.513c0.739-5.323-11.464-1.057-12.957-0.191c-4.373,2.535-9.098,6.392-11.512,10.923
			c-2.773,5.206-2.777,12.588,1.223,17.19C158.603,161.124,165.521,161.823,171.353,161.481z"/>
		<path style="fill:#231815;" d="M344.175,141.974c-5.411-0.091-6.572,4.435-0.752,5.329c5.512,0.847,12.153-0.819,16.453-4.414
			c4.4-3.679,6.413-10.386,3.659-15.634c-2.887-5.501-9.815-7.978-15.559-9.004c-2.439-0.436-5.873-1.23-8.267-0.304
			c-2.427,0.939-2.697,2.608-0.41,3.895c4.848,2.727,11.617-0.136,16.786,2.261c4.68,2.17,7.477,7.122,5.371,12.136
			C358.76,142.656,349.877,142.014,344.175,141.974z"/>
		<path style="fill:#231815;" d="M200.83,99.467c-9.228-4.612-8.233-27.168,1.647-25.521
			C212.356,75.592,207.417,102.76,200.83,99.467z"/>
		<path style="fill:#231815;" d="M302.92,99.467c-10.059-3.657-11.526-30.461-0.823-30.461
			C312.798,69.006,311.975,102.76,302.92,99.467z"/>
	</g>
</g>
</svg>
