<?xml version="1.0" encoding="iso-8859-1"?>
<!-- Generator: Adobe Illustrator 21.1.0, SVG Export Plug-In . SVG Version: 6.00 Build 0)  -->
<svg version="1.1" id="_x31_2" xmlns="http://www.w3.org/2000/svg" xmlns:xlink="http://www.w3.org/1999/xlink" x="0px" y="0px"
	 viewBox="0 0 512 512" style="enable-background:new 0 0 512 512;" xml:space="preserve">
<g>
	<path style="fill:#94C85C;" d="M205.145,64.327c-10.864,0-25.349-4.074-17.654-13.58c7.695-9.506,20.37-13.127,26.255-16.749
		c5.885-3.621,12.173-9.623,13.58-15.843c1.407-6.22,6.79-13.127,12.675-12.222c5.885,0.905,13.495,9.998,15.843,13.58
		c2.348,3.583,12.675,3.621,12.675,3.621s9.053-1.811,11.317-4.979c2.263-3.169,16.296-12.675,23.991-14.485
		c7.695-1.811,11.317,4.527,14.938,9.506c3.621,4.979,14.485,11.769,21.275,16.749c6.79,4.979,54.772,51.151,75.142,98.681
		c20.37,47.53,21.275,82.385,21.275,86.912c0,4.527-1.358,19.012-2.263,23.086c-0.905,4.074-3.621,10.411-2.263,16.296
		c1.358,5.885,0.453,23.991-4.527,29.876c-4.979,5.885-20.823,12.222-20.823,12.222s-50.699,20.823-54.772,21.728
		c-4.074,0.905-8.148,27.613-8.148,27.613s13.58,17.654,22.181,28.97c8.601,11.317,14.485,31.234,6.79,36.666
		c-7.695,5.432-28.065,7.695-29.876,7.243c-1.811-0.453-24.444,5.432-24.897,10.411c-0.453,4.979-2.263,43.456-9.053,47.53
		s-31.687,3.621-39.835,4.979c-8.148,1.358-13.127,3.621-11.769,1.811c1.358-1.811,16.296-9.506,11.769-9.053
		c-4.527,0.453-13.427,1.961-23.086,2.716c-9.659,0.755,5.885-9.053,9.053-10.411c3.169-1.358-6.79-2.263-5.432-3.169
		c1.358-0.905,4.074-5.432,18.107-7.243c14.033-1.811,24.444-2.716,23.539-12.222c-0.905-9.506-5.885-20.37-5.885-20.37
		s0.453-10.864-2.716-11.317c-3.169-0.453-12.675,4.074-9.506,0c3.169-4.074,12.222-11.317,12.222-11.317
		s-11.769-15.843-15.391-24.444c-3.621-8.601-17.654-33.497-19.012-37.118c-1.358-3.621-20.37-17.654-15.391-36.666
		c4.979-19.012,14.485-21.275,14.485-21.275l-8.148-22.633c0,0-9.506-2.263-12.222-5.885c-2.716-3.621-7.243,2.716-11.317-5.432
		c-4.074-8.148-1.358-22.181,6.79-25.802c8.148-3.621,20.823-25.802,20.823-25.802l-5.432-19.917c0,0-17.201,16.296-33.044,18.559
		c-15.843,2.263-39.382,10.864-46.172,12.222c-6.79,1.358-12.675,3.621-12.675,3.621s6.337-0.905,4.527,4.527
		c-1.811,5.432-6.337,10.411-8.148,9.053c-1.811-1.358-7.695,5.885-11.769,1.811c-8.148,3.621-15.843,2.716-17.201,1.358
		c-1.358-1.358-9.506-0.905-9.506-0.905s-3.169,0-11.317-6.79c-8.148-6.79-12.222-25.349,9.053-30.329
		c21.275-4.979,57.036-11.769,67.9-15.391c10.864-3.621,17.654-8.601,17.654-8.601s42.551-35.76,46.625-39.382
		c4.074-3.621,12.222-13.127,12.222-13.127l9.959-28.518L205.145,64.327z"/>
	<path style="fill:#FFFFFF;" d="M215.556,63.875c13.127-0.905,21.275-0.453,49.341,2.716c28.065,3.169,40.74,3.621,52.962,1.358
		c12.222-2.263,12.675,18.559,1.358,28.065c-11.317,9.506,3.169,40.287,14.938,52.962c11.769,12.675,19.012,26.707-3.169,43.908
		c-22.181,17.201-72.879,28.065-85.554,28.518c-12.675,0.453-14.485,0-15.843-0.453c-1.358-0.453-8.601-1.358-1.811-18.107
		c6.79-16.749,13.58-38.024,18.107-50.246c4.527-12.222-0.453-30.781-5.432-47.077c-4.979-16.296-15.391-30.328-21.275-32.592
		c-5.885-2.263-10.864-7.243-10.864-7.243L215.556,63.875z"/>
	<path style="fill:#FFFFFF;" d="M354.072,222.76c1.811,8.601-18.107,42.551-29.876,44.361c-11.769,1.811-51.604-2.716-66.995,10.411
		c-11.317,7.243-14.485,8.601-14.485,8.601s-10.411-20.823-6.337-28.971c3.169,3.169,13.58,2.716,14.938,0.453
		c2.263,1.811,9.053,2.263,11.769-2.716c4.074,0,5.885-8.601,8.601-9.959c2.716-1.358,44.361-10.864,52.509-13.127
		c8.148-2.263,20.823-3.621,22.181-4.527S354.072,222.76,354.072,222.76z"/>
	<g>
		<path style="fill:#231815;" d="M245.901,63.817c-7.034-0.696-14.141-1.775-21.204-2.105c-8.457-0.395-16.911,1.316-25.382,0.593
			c-5.609-0.479-14.944-1.758-11.428-9.324c2.959-6.366,15.593-10.407,21.309-13.405c4.203-2.204,16.993-7.559,6.595-9.603
			c-7.536-1.482-18.951,6.996-24.21,11.397c-4.078,3.412-9.913,8.254-9.734,14.161c0.307,10.137,12.647,10.762,20.16,10.747
			c10.123-0.02,19.701-1.584,29.837-0.659c8.305,0.758,16.585,1.686,24.868,2.648c18.649,2.165,38.817,5.352,57.623,2.75
			c2.415-0.334,13.216-2.069,8.762-5.254c-4.083-2.92-17.502,0.876-22.527,1.178C282.229,68.043,264.12,65.585,245.901,63.817z"/>
		<path style="fill:#231815;" d="M219.576,78.169c-2.06-1.788-17.586-11.306-13.93-13.618c5.169-3.268,22.822,15.952,25.611,19.227
			c6.902,8.103,12.091,17.661,13.742,28.277c0.552,3.551,2.668,16.015-0.359,18.642c1.98-1.718-5.559-22.261-6.757-25.229
			C233.741,95.199,227.169,86.169,219.576,78.169z"/>
		<path style="fill:#231815;" d="M233.246,12.789c-0.914,2.103-10.05,14.086-9.96,6.795c0.002-0.187,5.176-7.206,5.446-7.649
			c1.984-3.253,3.017-6.359,6.672-8.119c6.492-3.126,11.553,0.687,14.924,6.01c1.654,2.612,7.625,13.221,7.01,15.951
			c-0.034,0.511-11.983-14.153-12.991-15.012C242.017,8.78,232.394,6.392,233.246,12.789z"/>
		<path style="fill:#231815;" d="M291.632,11.388c-1.92,1.961-12.869,13.231-13.251,6.583c-0.217-3.773,15.964-15.148,19.619-16.647
			c9.061-3.717,17.122,0.759,21.741,8.86c0.62,1.087,4.753,14.448,3.697,14.199c-3.156-0.746-8.547-14.128-12.725-16.726
			C304.031,3.5,297.201,6.703,291.632,11.388z"/>
		<path style="fill:#231815;" d="M351.379,43.742c-2.008-2.043-16.928-15.75-14.744-19.765c1.359-2.499,19.469,18.269,21.819,20.692
			c9.098,9.384,17.975,18.99,25.904,29.402c3.471,4.557,6.732,9.266,9.512,14.28c0.737,1.329,4.564,12.491,4.851,12.615
			c-3.177-1.377-7.59-10.945-9.967-13.791c-4.038-4.835-8.258-9.525-12.346-14.318C368.103,63.118,359.757,53.418,351.379,43.742z"
			/>
		<path style="fill:#231815;" d="M416.236,133.905c-1.397-3.244-25.675-49.787-27.33-48.371
			c7.088-6.064,29.552,42.236,31.288,46.354c8.191,19.436,13.307,38.505,15.529,59.407c1.162,10.938,3.581,21.788,3.719,32.823
			c0.116,9.243-3.417,16.153-4.823,24.83c-1.482,9.147,2.023,17.895-0.949,27.346c-2.427,7.717-8.451,12.952-14.387,18.025
			c9.304-9.683,14.093-20.995,12.189-35.073c-0.761-5.626-1.674-9.194-0.299-14.857c1.555-6.401,2.973-11.823,2.886-18.543
			C433.66,194.773,427.131,162.895,416.236,133.905z"/>
		<path style="fill:#231815;" d="M223.507,134.698c2.298-2.327,11.465-12.723,15.865-11.215
			c3.017,1.035-14.306,15.936-16.168,17.807c-7.075,7.107-14.28,14.135-22.471,19.976c-3.765,2.685-18.539,13.197-23.4,9.722
			c2.495,1.783,18.929-12.938,21.543-15.097C207.23,148.992,215.351,141.83,223.507,134.698z"/>
		<path style="fill:#231815;" d="M159.177,180.037c5.444-1.341,17.239-2.258,21.467-5.861c1.927-1.642,4.511-5.384-0.178-6.381
			c-2.298-0.489-3.32,1.828-4.964,2.745c-13.64,7.609-27.454,9.369-42.687,12.042c-5.778,1.014-15.547,1.058-20.614,4.188
			c-5.848,3.612-2.112,4.053,2.653,2.928C129.505,186.238,144.583,183.799,159.177,180.037z"/>
		<path style="fill:#231815;" d="M93.94,191.19c2.013-1.336,14.235-6.471,16.039-1.889c0.776,1.972-14.294,5.608-16.515,8.089
			c-5.142,5.743-4.462,13.134-0.447,19.263c1.363,2.081,10.48,12.351,12.522,12.102c-8.231,1.004-18.365-9.228-20.507-16.117
			C82.457,204.359,86.058,195.126,93.94,191.19z"/>
		<path style="fill:#231815;" d="M100.725,219.257c-0.18-0.842-0.249-5.817,2.175-5.416c1.99,0.329,0.729,4.98,1.008,5.692
			c1.382,3.528,8.662,7.446,9.116,10.327c0.208,1.318-7.397-1.686-7.547-1.794C102.665,226.039,101.052,222.666,100.725,219.257z"/>
		<path style="fill:#231815;" d="M110.764,219.552c-0.29-1.621,0.223-7.993,3.57-7.172c-0.148-0.041,0.322,9.781,1.756,11.896
			c1.57,2.314,3.714,4.133,6.278,5.275c1.647,0.734,5.411,0.307,6.443,1.346c0.568,0.572-10.17,0.967-12.257-0.558
			C113.217,227.899,111.133,223.579,110.764,219.552z"/>
		<path style="fill:#231815;" d="M125.615,221.013c-0.23-0.684-1.052-6.132,1.615-5.74c1.815,0.267,1.279,5.089,1.562,5.671
			c2.516,5.172,7.876,5.145,10.453,8.403c0.958,1.211-7.551,0.488-8.049,0.22C128.131,227.917,126.298,224.318,125.615,221.013z"/>
		<path style="fill:#231815;" d="M143.751,219.687c1.264,2.099,6.395,7.875,0.607,6.765c-4.348-0.833-6.311-8.226-5.156-11.752
			c0.971-2.963,3.685-5.472,6.761-5.997c2.444-0.417,12.934,5.824,11.659,6.616C154.316,217.375,142.102,209.508,143.751,219.687z"
			/>
		<path style="fill:#231815;" d="M228.281,182.83c1.566-1.166,12.164-10.687,14.689-9.05c4.074,2.642-15.636,15.1-17.582,16.322
			c-8.325,5.229-17.587,9.101-27.144,11.42c-1.641,0.398-18.154,1.983-18.009,1.681c1.475-3.079,19.815-7.546,23.306-8.899
			C212.076,190.998,220.357,187.44,228.281,182.83z"/>
		<path style="fill:#231815;" d="M174.906,202.359c2.178-0.928,8.783-4.483,10.764-1.797c2.045,2.773-10.759,6.6-12.529,7.192
			c-5.245,1.755-10.64,2.707-16.106,3.508c-1.248,0.183-13.547,0.947-13.46,0.795C147.997,204.333,167.54,204.187,174.906,202.359z"
			/>
		<path style="fill:#231815;" d="M240.914,167.348c0.67-2.614,1.335-18.334,4.422-15.909c5.152,4.049-0.383,18.458-2.011,22.964
			c-2.724,7.536-6.909,14.351-10.561,21.446c-1.998,3.882-4.226,7.883-5.429,12.109c-0.528,1.854-0.147,7.825-1.247,9.185
			c0.04-0.078-1.965-8.936-1.819-10.678c0.434-5.166,2.264-9.926,4.427-14.586C232.547,183.584,237.801,175.996,240.914,167.348z"/>
		<path style="fill:#231815;" d="M350.228,157.023c0.712-1.766,5.043-18.781,7.411-19.121c5.919-0.848-4.828,24.465-6.065,27.403
			c-3.999,9.494-7.936,18.369-15.491,25.638c-3.689,3.549-18.486,16.254-24.254,13.896c3.538,1.446,21.037-18.078,23.634-21.234
			C341.924,175.749,345.709,166.06,350.228,157.023z"/>
		<path style="fill:#231815;" d="M295.409,210.754c1.707-0.642,14.421-7.133,16.267-5.512c3.507,3.081-19.079,10.654-21.052,11.287
			c-9.304,2.986-19.028,4.899-28.785,5.551c-1.894,0.127-17.831-1.284-18.001-1.075c2.383-2.937,20.675-3.722,24.64-4.425
			C277.528,214.975,286.586,213.377,295.409,210.754z"/>
		<path style="fill:#231815;" d="M236.543,220.048c2.92,0.098,18.92,1.007,15.594,5.425c-2.054,2.729-19.377-1.556-23.764-0.171
			c-7.144,2.256-9.791,8.155-10.245,15.298c-0.235,3.693,0.002,8.2,2.163,11.378c0.825,1.213,3.734,2.543,4.332,3.778
			c0.026,0.054-6.933-2.885-8.159-4.533c-3.402-4.573-4.008-11.046-2.918-16.447C215.848,223.378,225.585,218.696,236.543,220.048z"
			/>
		<path style="fill:#231815;" d="M224.581,247.619c-0.315-1.852,1.105-7.792,4.249-6.636c-0.397-0.159-0.305,8.87,1.183,11.052
			c2.244,3.291,10.648,6.315,11.847,9.314c0.629,1.574-10.909-2.903-11.444-3.338C227.288,255.467,225.008,251.627,224.581,247.619z
			"/>
		<path style="fill:#231815;" d="M243.015,250.855c-0.241-0.64-1.096-5.985,1.57-5.528c1.865,0.32,1.137,4.48,1.586,5.31
			c1.673,3.094,9.365,6.514,9.987,9.28c0.413,1.836-7.752-1.181-8.521-1.745C245.303,256.46,243.623,253.657,243.015,250.855z"/>
		<path style="fill:#231815;" d="M257.873,250.176c-0.308-0.895-0.915-4.467,1.032-4.811c2.029-0.359,1.136,2.311,1.855,3.091
			c1.913,2.075,6.62,7.24,8.154,9.791c0.614,1.021-6.84-1.063-7.322-1.434C259.557,255.242,258.292,252.663,257.873,250.176z"/>
		<path style="fill:#231815;" d="M384.077,191.031c1.241-2.181,7.815-19.294,10.808-19.359c5.243-0.114-7.552,22.585-8.87,24.616
			c-6.417,9.884-14.758,18.103-24.859,24.218c-4.988,3.02-24.677,13.55-30.57,8.622c3.563,2.979,25.658-11.854,28.912-14.066
			C369.056,208.562,377.556,200.613,384.077,191.031z"/>
		<path style="fill:#231815;" d="M312.397,232.163c1.881-0.66,13.752-5.395,15.779-2.172c1.949,3.099-16.388,7.075-18.608,7.824
			c-8.02,2.708-16.242,5.208-24.64,6.46c-1.15,0.171-19.936,1.769-18.132-2.139c0.822-0.807,8.307-0.541,10.359-1.01
			c4.188-0.956,8.316-2.334,12.485-3.385C297.213,235.833,304.812,234.022,312.397,232.163z"/>
		<path style="fill:#231815;" d="M251.757,279.614c12.889-8.484,28.491-12.829,43.801-13.825c1.597-0.104,28.894,0.232,27.763,4.28
			c-0.252,0.901-26.586-0.01-28.546,0.168c-14.127,1.282-28.888,5.116-40.74,13.203c-11.092,7.569-18.185,19.117-14.755,32.836
			c3.327,13.306,16.92,21.181,27.842,27.925c12.007,7.415,24.578,13.902,36.404,21.615c8.803,5.741,27.302,17.079,24.947,29.989
			c-1.332,7.301-8.243,4.74-15.153,4.517c-13.182-0.425-26.801-2.616-36.051,7.909c4.036-7.673,10.191-9.508,19.187-10.464
			c3.358-0.357,26.105,1.302,27.701-1.257c6.477-10.384-24.899-27.127-31.104-30.783c-18.04-10.626-44.961-20.876-55.808-39.91
			C227.411,308.561,236.523,289.657,251.757,279.614z"/>
		<path style="fill:#231815;" d="M298.815,406.552c1.823-0.128,7.585-0.618,8.779,1.756c0.128,0.269-33.98,2.508-33.564,7.24
			C273.24,406.56,293.756,406.352,298.815,406.552z"/>
		<path style="fill:#231815;" d="M300.141,417.368c-1.912,0.62-10.31,4.308-11.367,2.017c-1.051-2.278,12.356-5.497,13.97-5.961
			c5.759-1.655,11.646-2.832,17.58-3.662c2.331-0.326,13.368,0.23,14.584-0.803C327.25,415.469,309.503,415.215,300.141,417.368z"/>
		<path style="fill:#231815;" d="M365.022,418.405c-4.129,1.502-35.833,5.125-36.152,6.487c2.003-8.548,26.709-7.901,33.214-10.168
			c12.682-4.419,14.687-15.506,8.386-26.757c-6.369-11.372-17.585-20.337-25.205-30.993c-3.263-4.563-6.52-9.13-9.953-13.569
			c-2.479-3.205-9.201-8.608-10.096-12.517c0.196,0.65,5.612,4.242,6.421,4.984c3.826,3.512,7.429,7.276,10.928,11.112
			c7.678,8.416,14.873,17.19,22.628,25.543C377.261,385.527,389.224,410.48,365.022,418.405z"/>
		<path style="fill:#231815;" d="M346.164,323.982c-0.937,0.159-30.399,4.113-29.863-0.424c0.36-3.043,22.654-2.994,25.358-3.385
			c11.37-1.647,22.604-4.662,33.428-8.49c10.42-3.685,20.493-8.484,29.588-14.807c3.45-2.399,6.724-5.057,9.831-7.885
			c1.84-1.675,5.48-6.981,8.03-7.621c-1.529,0.384-8.953,12.641-11.055,14.78c-4.668,4.749-9.831,8.831-15.56,12.231
			C380.805,317.35,363.392,321.49,346.164,323.982z"/>
		<path style="fill:#231815;" d="M253.163,352.102c-0.944-1.407-6.868-9.189-5.108-11.227c3.083-3.572,9.16,9.277,9.95,10.49
			c3.727,5.717,7.224,11.52,10.629,17.436c0.872,1.515,6.36,13.505,7.093,13.608C265.495,380.971,257.085,359.712,253.163,352.102z"
			/>
		<path style="fill:#231815;" d="M287.818,439.056c-0.654-1.987-8.879-17.888-3.866-16.113c6.599,2.336,10.506,19.913,8.165,25.449
			c-3.164,7.483-12.646,9.407-19.785,10.566c-4.256,0.691-19.798,4.328-23.454,2.03c0.285,0.179,19.84-6.738,22.316-7.31
			c4.541-1.047,10.94-1.688,14.411-5.18C286.269,447.831,290.011,439.287,287.818,439.056z"/>
		<path style="fill:#231815;" d="M259.425,463.696c1.09-0.227,10.022-2.004,10.912,0.44c0.46,1.264-14.125,3.428-15.749,3.809
			c-6.492,1.526-20.355,7.03-26.935,3.271c1.531,0.875,12.092-3.551,14.161-4.088C247.584,465.633,253.501,464.406,259.425,463.696z
			"/>
		<path style="fill:#231815;" d="M269.411,469.794c1.857-0.352,10.015-1.892,11.416,0.83c0.428,0.832-14.131,2.836-15.788,3.184
			c-7.317,1.535-21.329,7.628-28.813,4.558c1.781,0.731,12.318-4.487,14.664-5.127C256.927,471.592,263.181,470.427,269.411,469.794
			z"/>
		<path style="fill:#231815;" d="M279.784,478.581c1.776-0.392,8.292-1.581,8.818,1.44c0.533,3.065-7.763,2.924-9.516,3.227
			c-2.496,0.431-25.11,2.949-24.593,1.863C257.422,478.95,274.319,478.819,279.784,478.581z"/>
		<path style="fill:#231815;" d="M313.692,444.966c-0.141-1.497-0.29-20.21,4.732-17.54c1.316,0.7,0.319,22.703,0.54,25.539
			c0.647,8.296,1.138,18.604-5.796,24.644c-3.496,3.045-19.318,7.653-22.561,1.974c0.213,0.374,9.096-1.064,10.277-1.361
			c4.358-1.095,7.977-2.953,10.385-6.866C315.738,464.097,313.869,453.1,313.692,444.966z"/>
		<path style="fill:#231815;" d="M265.539,241.433c-4.412-1.403-6.432,10.849,3.007,11.356c5.387,0.29,9.063-1.735,14.72,0.113
			c2.98,0.973,11.663,7.164,14.523,5.745c6.365-3.159,1.465-9.315-2.978-10.087c-4.172-0.725-8.042-0.33-12.435-1.46
			C276.459,245.579,271.312,243.352,265.539,241.433z"/>
		<path style="fill:#231815;" d="M183.014,225.49c-7.482-1.785-15.283-3.433-22.418-6.388c-3.592-1.488-10.583-6.777-14.137-2.298
			c-7.224,9.103,17.428,8.855,20.967,9.411c5.295,0.833,10.522,1.882,15.693,3.28c4.954,1.339,17.005,7.487,22.29,5.981
			c5.966-1.7,3.42-4.972-1.015-6.259C197.753,227.288,189.878,227.123,183.014,225.49z"/>
		<path style="fill:#231815;" d="M73.35,201.468c-4.087-0.751-0.097-7.34,6.068-2.514C86.591,204.566,77.669,205.49,73.35,201.468z"
			/>
		<path style="fill:#231815;" d="M141.637,355.932c10.486-32.404,21.171-64.722,33.158-96.591
			c1.341-3.566,11.689-30.468,3.375-31.347c-7.151-0.757-11.951,22.505-12.967,27.025c-7.315,32.533-16.131,64.54-26.677,96.211
			c-5.538,16.632-11.368,33.164-16.85,49.816c-2.576,7.827-16.35,35.517-10.483,43.187c3.984,5.208,6.962-8.265,7.821-11.389
			c2.404-8.749,4.348-17.619,6.794-26.361C130.565,389.478,136.228,372.737,141.637,355.932z"/>
		<path style="fill:#231815;" d="M52.344,360.208c-6.061,5.501-11.534,11.643-16.019,18.499c-0.766,1.171-8.29,13.129-8.378,12.938
			c-4.729-10.225,14.436-28.424,20.753-34.147c10.394-9.418,22.7-16.619,36.145-20.659c14.599-4.387,30.008-5.182,44.934-1.986
			c7.53,1.612,14.843,4.197,21.712,7.69c0.763,0.388,13.333,8.962,13.581,8.865c-1.866,0.733-9.379-4.323-11.341-5.151
			c-4.442-1.875-8.98-3.427-13.651-4.619c-9.302-2.374-18.87-3.44-28.462-3.295C90.156,338.665,68.816,346.366,52.344,360.208z"/>
		<path style="fill:#231815;" d="M180.391,280.754c-2.913-0.902-17.808-4.843-16.581-10.044c1.008-4.275,23.419,5.379,26.606,6.398
			c10.213,3.267,20.404,7.037,30.15,11.518c1.861,0.855,15.557,8.944,15.215,9.113c-4.735,2.346-20.547-3.379-25.516-4.952
			C200.041,289.553,190.214,285.017,180.391,280.754z"/>
		<path style="fill:#231815;" d="M188.271,405.828c-13.05-56.433-80.74-72.93-123.44-37.563
			c-18.233,15.102-28.758,37.306-32.211,60.494c-1.967,13.211-0.792,26.647,5.249,38.701c1.781,3.553,13.684,22.444,15.081,14.308
			c0.487-2.839-3.678-8.754-4.745-11.243c-2.361-5.508-4.541-11.123-5.766-17.008c-2.677-12.852-0.986-26.468,1.755-39.171
			c5.323-24.664,21.768-44.788,44.914-55.038c24.175-10.706,53.577-7.024,73.738,10.422c20.419,17.669,27.151,46.258,21.911,72.118
			c-5.423,26.764-22.931,50.926-49.283,60.074c-14.052,4.878-29.813,5.507-44.376,2.699c-3.031-0.584-29.89-8.559-29.633-10.49
			c-0.71,5.349,12.978,11.684,16.284,13.075c7.466,3.14,15.554,4.414,23.606,4.718c16.892,0.637,34.183-2.677,48.752-11.492
			C181.485,481.444,196.398,441.096,188.271,405.828z"/>
		<path style="fill:#231815;" d="M414.25,488.305c-19.59,1.226-38.408-9.136-50.538-24.05c-5.01-6.16-9.082-13.176-11.658-20.702
			c-1.041-3.041-5.532-15.843-1.936-18.4c1.036-0.737,7.632,15.177,8.143,16.22c3.356,6.844,7.386,13.492,12.413,19.247
			c10.339,11.837,25.215,20.106,41.202,19.958c32.307-0.3,56.84-31.83,62.141-61.327c5.438-30.26-5.915-64.632-36.947-75.51
			c-15.42-5.406-32.136-4.909-46.69,2.742c-6.291,3.307-11.922,7.704-16.949,12.702c-3.465,3.445-7.129,10.271-11.259,12.851
			c1.262-0.872,4.755-9.344,5.98-11.007c3.723-5.051,8.158-9.697,13.012-13.673c9.421-7.717,20.818-12.875,32.993-14.034
			c26.158-2.49,51.504,11.102,63.07,34.728C499.487,413.514,470.916,487.665,414.25,488.305z"/>
		<path style="fill:#231815;" d="M345.761,339.991c-0.339,1.739-1.042,7.448-3.464,7.992c-4.448,0.998-0.314-11.22,0.031-12.309
			c0.725-2.29,11.382-21.722,11.719-21.186C357.843,320.517,348.021,334.623,345.761,339.991z"/>
		<path style="fill:#231815;" d="M343.96,321.791c15.324,0.891,45.656,10.094,57.195-4.325c9.408-11.756-6.074-13.989-14.671-10.268
			C372.665,313.179,359.187,320.106,343.96,321.791z"/>
		<path style="fill:#231815;" d="M354.556,359.73c-1.68-1.118-5.851-2.85-7.047-0.035c-1.312,3.09,4.678,6.434,6.516,7.643
			c6.724,4.424,14.535,7.086,21.573,10.96c8.28,4.557,16.043,10.109,23.652,15.699c4.019,2.953,13.484,13.549,18.646,13.714
			c11.678,0.372-13.93-15.239-15.898-16.538C386.172,380.726,370.354,370.24,354.556,359.73z"/>
		<path style="fill:#231815;" d="M312.037,426.612c1.328,8.485,4.88,9.715,12.037,10.223c5.216,0.37,10.443,0.706,15.675,0.673
			c6.059-0.038,24.862,0.45,24.52-9.404c-0.467-13.443-50.478-3.545-51.034,2.807C313.133,429.408,312.733,427.975,312.037,426.612z
			"/>
		<path style="fill:#231815;" d="M273.936,483.462c-4.086,1.858-2.961,7.503-0.044,9.706c2.989,2.257,11.682,1.106,15.265,1.096
			c6.177-0.018,30.099,0.512,29.661-7.903C318.25,475.472,280.727,480.375,273.936,483.462z"/>
		<path style="fill:#231815;" d="M338.475,62.098c3.923,5.775-0.786,12.51-6.187,14.624c-4.274,1.673-16.639-1.668-19.018,3.047
			c-3.455,6.847,8.305,5.374,11.262,4.648c6.448-1.584,14.633-4.873,17.298-11.492c2.819-7.001-0.083-14.865-7.35-17.225
			c-4.58-1.488-18.635-1.594-21.525,2.597c-4.21,6.104,5.446,2.823,8.204,2.086C326.088,59.068,335.069,56.506,338.475,62.098z"/>
		<path style="fill:#231815;" d="M303.464,475.29c0.218,2.362,1.238,14.573-3.769,14.404c-4.65-0.157-2.549-10.667-2.618-12.826
			c-0.127-3.974-2.646-45.771,5.176-44.755C306.63,432.681,303.735,470.955,303.464,475.29z"/>
		<path style="fill:#231815;" d="M235.689,32.957c-3.867-2.416,0.626-20.046,5.013-13.781
			C245.086,25.44,240.702,36.092,235.689,32.957z"/>
		<path style="fill:#231815;" d="M300.846,33.586c-7.35-1.698-6.265-18.797-0.626-16.917
			C305.859,18.55,308.992,35.464,300.846,33.586z"/>
		<path style="fill:#231815;" d="M234.437,59.274c-6.267-3.135-5.013-6.893-1.255-5.639
			C236.941,54.887,234.437,59.274,234.437,59.274z"/>
		<path style="fill:#231815;" d="M253.858,59.9c-3.647,0.912-0.626-6.265,3.761-5.639C262.003,54.887,256.364,59.274,253.858,59.9z"
			/>
		<path style="fill:#231815;" d="M258.192,23.096c-6.469,0.497-5.163-2.179,0.824-2.63c2.055-0.155,13.28-0.914,14.255,2.097
			C273.759,24.074,258.482,23.131,258.192,23.096z"/>
		<path style="fill:#231815;" d="M354.103,164.529c7.999,0.87,17.534,13.508,25.797,7.298c6.561-4.931,1.486-13.633-2.985-17.802
			c-3.71-3.459-13.418-11.991-18.953-9.086C354.042,146.997,350.772,161.167,354.103,164.529z"/>
		<path style="fill:#231815;" d="M348.464,178.939c3.815,5.532,20.89,29.457,1.571,22.427c-3.2-1.165-14.682-3.738-16.013-6.622
			C332.069,190.515,344.921,181.111,348.464,178.939z"/>
		<path style="fill:#231815;" d="M236.315,130.07c1.841,5.772,9.487,15.805,1.791,20.355c-5.91,3.494-13.604-2.694-19.268-4.16
			C220.692,139.532,229.646,131.764,236.315,130.07z"/>
		<path style="fill:#231815;" d="M212.508,155.758c5.382,6.271,7.824,18.996-4.246,14.88c-3.201-1.092-10.925-4.782-10.88-8.631
			C197.449,156.304,208.87,154.473,212.508,155.758z"/>
		<path style="fill:#231815;" d="M379.165,93.104c-3.816-1.596-8.269,0.786-7.941,5.126c0.271,3.585,4.339,4.081,6.212,6.745
			c3.488,4.963,1.304,13.401,8.819,14.983c7.989,1.683,9.665-7.024,9.059-13.001C394.387,97.816,388.348,92.823,379.165,93.104z"/>
		<path style="fill:#231815;" d="M413.621,135.083c-5.671,2.401-11.566,9.85-7.764,15.944c1.614,2.586,13.431,8.021,16.486,7.122
			c5.5-1.619,2.369-5.57,0.537-10.537C421.499,143.866,419.332,133.873,413.621,135.083z"/>
		<path style="fill:#231815;" d="M415.502,207.759c-9.136-3.98-8.543-24.163,1.19-18.662c4.648,2.627,9.643,15.086,8.479,20.011
			C423.046,218.096,413.654,211.579,415.502,207.759z"/>
		<path style="fill:#231815;" d="M286.436,271.665c10.368,3.711,15.711,13.003,23.143,20.192c4.77,4.614,13.797,7.418,14.232-1.672
			c0.29-6.07-5.045-13.872-9.128-17.931C306.408,264.027,296.317,269.137,286.436,271.665z"/>
		<path style="fill:#231815;" d="M268.894,276.678c3.267,3.666,17.951,15.789,14.102,21.801c-3.575,5.584-13.51-0.94-17.236-3.046
			c-4.768-2.694-14.818-6.131-12.117-12.761C255.445,278.248,264.594,276.016,268.894,276.678z"/>
	</g>
</g>
</svg>
