<?xml version="1.0" encoding="iso-8859-1"?>
<!-- Generator: Adobe Illustrator 22.1.0, SVG Export Plug-In . SVG Version: 6.00 Build 0)  -->
<svg version="1.1" id="_x31_" xmlns="http://www.w3.org/2000/svg" xmlns:xlink="http://www.w3.org/1999/xlink" x="0px" y="0px"
	 viewBox="0 0 512 512" style="enable-background:new 0 0 512 512;" xml:space="preserve">
<g>
	<path style="fill:#94C85C;" d="M153.03,141.2c-1.021,4.594-7.146,14.803-26.544,30.115c-19.396,15.313-24.501,46.45-22.459,65.846
		c2.043,19.397,9.189,22.97,15.824,21.949c6.635-1.021,16.333-4.083,16.333-4.083s5.615,42.876,26.544,64.315
		c-13.783,9.187-36.242,33.689-39.303,59.721c-3.063,26.032,1.531,37.261,4.594,45.428c3.063,8.167,17.865,29.095,18.886,34.71
		c1.021,5.615,3.574,16.334-10.209,18.886c-13.781,2.551-19.396-1.532-29.605-1.532c-10.209,0-14.802,5.105-9.698,6.125
		c5.104,1.021,10.72,3.062,10.72,3.062s-24.501,4.084-23.481,9.699c1.021,5.615,21.439,0,24.501,0c3.063,0-20.416,8.167-12.76,12.25
		c7.655,4.083,21.949-3.573,33.688-3.573c11.74,0,21.949,2.551,33.688-2.042c11.741-4.594,15.824-21.439,17.355-33.178
		c1.532-11.74-1.02-47.471,0.511-55.127c1.531-7.657,20.928-38.793,34.199-45.939c13.272-7.147,28.585-8.677,49.512-9.188
		c20.928-0.511,51.044,9.188,60.742,23.48c9.698,14.292,16.333,39.303,14.803,49.512c-1.532,10.209-10.209,33.178-10.72,43.898
		c-0.511,10.719,6.635,25.522,15.313,29.605c8.677,4.083,20.418,2.552,29.605,1.531c9.187-1.021,25.011,0,31.647,4.084
		c6.635,4.084,0.511-10.209-8.677-12.25c21.948,4.594,24.501,7.657,24.501,4.084c0-3.573-8.167-13.272-16.844-13.272
		c20.416-0.51,21.948,0.511,17.864-4.083c-4.083-4.594-11.229-8.167-17.355-7.657c-6.124,0.511-18.375,2.552-27.562-4.084
		c-9.189-6.635-5.104-20.928-4.084-25.011c1.021-4.083,13.272-29.095,14.292-51.043c1.021-21.949-6.124-53.085-7.146-56.148
		c-1.02-3.062-17.865-31.137-21.948-34.199c-4.083-3.063-12.761-16.334-12.761-16.334s9.698-21.439,10.72-54.617
		c1.021-33.178-14.292-61.252-14.292-61.252l-9.189-28.074c0,0-4.594-29.094-28.073-49.512
		c-23.481-20.417-31.137-24.501-31.137-24.501s2.043-15.313-10.209-20.417c-12.25-5.104-20.927,7.146-23.479,18.376
		c-5.104,0.51-8.678,0-17.355-1.532c-8.677-1.531-19.907-5.615-22.459-7.657c-2.552-2.042-3.572-20.417-16.333-23.991
		c-12.761-3.573-18.887,5.615-18.887,12.251c0,6.635-3.572,16.333-3.572,16.333s-12.25,2.042-26.033,5.104
		c-13.781,3.063-17.866,3.573-16.844,9.188c1.021,5.615,16.333,13.271,18.376,14.803c2.042,1.532,3.062,6.125,5.104,7.657
		C145.373,104.448,156.091,128.439,153.03,141.2z"/>
	<path style="fill:#FFFFFF;" d="M143.384,98.656l44.315,14.772c0,0-11.078,5.539-14.772,17.849
		c-3.693,12.309-4.309,20.926-4.924,22.773c-0.616,1.847-13.541,16.618-14.156,14.156c-0.616-2.462,2.462-29.543-1.847-44.315
		C147.693,109.119,143.384,98.656,143.384,98.656z"/>
	<path style="fill:#FFFFFF;" d="M195.085,116.505c4.308,1.231,62.78,25.85,67.087,27.697c4.309,1.847-17.234,5.539-15.387,28.313
		c1.847,22.773,16.618,46.162,16.618,46.162s-7.385,22.158-4.923,27.697c-1.847,3.693-47.393-20.927-64.011-25.851
		c-16.618-4.924-19.081-12.925-19.081-12.925s-1.231-3.693,1.231-4.308c2.462-0.616,10.463-1.847,14.772-11.079
		c4.309-1.847,8.001-7.386,6.77-14.156c-1.231-6.77,0-4.309,0-4.309s4.924-10.463-0.616-16.618
		c-5.538-6.155-10.463-5.54-10.463-5.54S181.544,132.508,195.085,116.505z"/>
	<path style="fill:#FFFFFF;" d="M146.691,249.114c-2.77,18.005,22.852,65.786,52.629,82.405c29.776,16.62,65.093,7.617,82.405-4.155
		c17.312-11.772,17.312-53.321,15.927-63.708c-7.618,15.235-33.239,27.007-44.319,28.392c-11.08,1.385-30.469-5.54-34.624-11.772
		c-4.156-6.233-58.861-45.011-58.861-45.011L146.691,249.114z"/>
	<path style="fill:#FF7D4A;" d="M368.738,128.971c-6.243-1.702-8.497-12.744-3.399-17.417c5.098-4.673,13.168-2.974,17.841,0.849
		c4.673,3.824,5.098,11.47,2.55,15.293C383.181,131.52,373.41,130.246,368.738,128.971z"/>
	<path style="fill:#FF7D4A;" d="M366.189,99.235c4.673-0.425,22.514,3.399,22.514,0.85c0-2.549-0.849-10.62,1.7-12.744
		c2.548-2.124,19.965-14.018,27.187-20.391c7.221-6.372,10.194-16.143,2.548-31.86c-7.646-15.718-14.868-24.639-28.461-29.312
		c-13.594-4.673-35.684-5.098-45.455-0.85c-9.769,4.248-18.691,12.744-18.691,12.744L342.4,41.462c0,0,11.045-9.345,22.514-10.62
		c11.47-1.274,21.665,5.098,25.913,9.346c4.247,4.248,3.822,14.868,0.425,18.266c-3.399,3.399-13.594,5.947-20.391,11.895
		c-6.797,5.947-8.072,11.045-8.072,14.868C362.79,89.04,366.189,99.235,366.189,99.235z"/>
	<path style="fill:#231815;" d="M168.376,46.432c-1.321,4.414-1.462,7.997-1.935,10.473c-0.407,2.497-0.935,3.94-1.516,4.468
		c-1.124,1.055-2.453-1.425-2.072-5.777c0.433-4.327,0.942-8.826,2.861-12.896c1.835-3.984,5.002-7.464,8.923-8.851
		c1.925-0.696,4.014-0.933,6.012-0.765c2.004,0.167,3.907,0.755,5.647,1.572c3.471,1.627,6.346,4.368,8.266,7.436
		c0.985,1.529,1.951,3.555,2.664,5.593c0.719,2.04,1.228,4.078,1.528,5.666c0.585,3.181,0.458,4.562-1.282,0.733
		c-1.766-3.804-3.334-6.272-5.213-8.587c-0.943-1.14-1.976-2.288-3.214-3.365c-1.251-1.08-2.767-2.193-4.742-3.097
		c-1.965-0.91-4.258-1.41-6.38-1.102c-2.121,0.272-4.075,1.361-5.541,2.706c-1.476,1.344-2.484,2.855-3.109,3.961
		C168.655,45.719,168.376,46.432,168.376,46.432z"/>
	<path style="fill:#231815;" d="M201.276,116.203c-6.65-2.873-10.466-0.457-0.814,3.924c9.795,4.517,15.825,5.017,28.35,10.525
		c12.522,5.515,23.737,11.605,32.231,16.014c8.31,4.271,10.085-0.66-7.682-7.311c-9.529-3.463-10.527-4.727-23.798-10.399
		C218.953,124.465,209.887,119.951,201.276,116.203z"/>
	<path style="fill:#231815;" d="M147.681,71.425c4.721-0.722,7.837-1.885,8.107-2.965c0.284-1.025-2.588-2.133-9.803-1.132
		c-3.649,0.518-7.092,1.254-10.542,2.009c-1.72,0.37-3.451,0.741-5.217,1.121c-1.784,0.392-3.484,0.636-5.551,1.041
		c-1.965,0.492-4.184,1.143-6.031,2.898c-0.909,0.855-1.591,2.066-1.907,3.25c-0.374,1.161-0.43,2.65,0.032,3.916
		c0.452,1.28,1.284,2.38,2.337,3.197c0.265,0.205,0.542,0.396,0.835,0.568c0.128,0.084,0.333,0.18,0.419,0.225l0.101,0.056
		l0.179,0.121c0.499,0.339,1.003,0.682,1.513,1.03c2.011,1.437,4.225,2.781,6.537,4.235c9.382,5.632,19.622,9.765,28.887,13.084
		c9.281,3.305,17.563,6.019,23.569,8.271c5.856,2.177,9.062,2.019,7.808,0.282c-1.25-1.713-7.19-4.998-19.59-7.901
		c-6.616-1.586-11.402-3.117-17.153-5.313c-5.713-2.257-12.52-4.924-22.289-10.474c-1.895-1.191-3.86-2.308-5.663-3.651
		l-1.374-0.976l-0.686-0.489l-0.43-0.308l-0.433-0.243c-0.741-0.436-1.384-1.101-1.774-1.822c-0.384-0.729-0.511-1.5-0.357-2.265
		c0.079-0.382,0.227-0.852,0.402-1.222c0.157-0.38,0.407-0.694,0.659-1.004c1.079-1.203,2.98-1.808,4.939-2.14
		c1.919-0.241,4.187-0.433,6.201-0.738c2.051-0.293,4.029-0.614,5.927-0.935C141.127,72.502,144.604,71.878,147.681,71.425z"/>
	<path style="fill:#231815;" d="M211.034,66.679c-10.522-1.693-8.333-6.663-4.172-5.093c4.162,1.57,8.688,1.726,12.113,2.604
		c3.427,0.879,6.854,1.758,10.16,3.109c3.305,1.351,9.671,4.997,5.268,4.371c-4.403-0.626-6.361-0.123-11.499-1.441
		C217.766,68.91,211.034,66.679,211.034,66.679z"/>
	<path style="fill:#231815;" d="M249.303,58.199c-1.378,1.856-2.353,3.693-3.16,5.29c-0.813,1.64-1.492,3.006-2.051,4.131
		c-1.171,2.279-2.124,3.51-2.84,3.84c-1.396,0.672-1.894-2.132-0.16-6.215c1.761-4.034,3.748-8.236,6.951-11.475
		c1.579-1.596,3.38-2.97,5.391-3.895c1.99-0.939,4.196-1.428,6.272-1.326c2.074,0.081,4.11,0.625,5.909,1.517
		c1.802,0.897,3.392,2.097,4.754,3.476c2.742,2.726,4.525,6.332,5.342,9.884c0.435,1.786,0.687,4.042,0.711,6.227
		c0.028,2.189-0.14,4.312-0.362,5.935c-0.458,3.246-1.019,4.533-1.45,0.288c-0.457-4.231-1.165-7.112-2.188-9.969
		c-0.516-1.421-1.132-2.849-1.954-4.331c-0.813-1.461-1.895-3.038-3.473-4.603c-1.567-1.574-3.605-2.875-5.739-3.4
		c-2.126-0.55-4.333-0.275-6.188,0.479c-1.863,0.736-3.33,1.844-4.298,2.689C249.803,57.601,249.303,58.199,249.303,58.199z"/>
	<path style="fill:#231815;" d="M153.202,143.353c-0.727-7.072-0.314-10.4,0.516-11.232c0.797-0.828,1.902,0.871,1.966,3.886
		c0.137,6.01,1.085,12.019,0.929,16.898c-0.146,4.857-0.616,9.747-1.849,14.469c-0.148,0.528-0.316,1.124-0.492,1.751
		c-0.122,0.886-0.442,1.742-0.91,2.487c-0.91,1.519-2.566,2.443-3.816,2.458c-1.251,0.083-1.976-0.408-2.059-0.582
		c-0.094-0.255,0.457-0.175,1.667-0.458c1.196-0.361,1.886-1.264,2.224-2.146c0.171-0.445,0.265-0.896,0.292-1.331
		c0-0.217,0.004-0.429-0.024-0.631c0.007-0.601,0.059-0.751,0.069-1.053c0.197-2.21,0.384-4.551,0.755-8.046
		c0.375-3.498,0.61-7.608,0.685-10.853C153.231,145.726,153.202,143.353,153.202,143.353z"/>
	<path style="fill:#231815;" d="M143.036,105.834c-3.153-3.923-4.225-6.026-3.932-7.07c0.251-1,1.86-0.688,3.165,1.151
		c2.574,3.619,5.522,7.026,7.118,10.26c1.594,3.199,2.907,6.559,3.547,10.07c0.758,3.543,0.458,10.621-0.693,6.446
		c-0.599-2.064-1.236-3.446-1.887-4.912c-0.659-1.464-1.332-3.012-2.231-5.362c-0.903-2.35-2.087-5.037-3.146-7.091
		C143.909,107.277,143.036,105.834,143.036,105.834z"/>
	<path style="fill:#231815;" d="M328.991,126.099c3.154,6.324,4.618,11.313,5.362,14.796c0.691,3.508,0.618,5.553,0.312,6.368
		c-0.328,0.821-0.984,0.448-1.705-0.807c-0.743-1.251-1.442-3.41-2.254-6.135c-0.699-2.763-1.74-5.421-2.757-8.042
		c-1.142-2.572-2.282-5.104-3.611-7.462c-1.223-2.411-2.689-4.607-3.967-6.774c-1.433-2.077-2.672-4.146-4.018-5.972
		c-5.161-7.467-11.163-14.318-17.761-20.597c-3.208-3.245-8.423-7.723-11.783-10.499c-3.367-2.749-4.604-4.172,0.469-1.275
		c1.282,0.701,2.426,1.419,3.501,2.103c1.086,0.673,2.105,1.306,3.086,1.915c1.887,1.321,3.723,2.432,5.465,3.785
		c1.758,1.334,3.594,2.705,5.514,4.481c1.985,1.707,4.047,3.823,6.436,6.432c4.748,5.26,9.494,12.062,12.687,17.697
		c1.539,2.853,2.883,5.303,3.681,7.124C328.493,125.035,328.991,126.099,328.991,126.099z"/>
	<path style="fill:#231815;" d="M269.94,161.022c-2.683-0.237-4.762-1.25-6.383-2.209c-1.617-0.994-2.797-2.008-3.701-2.879
		c-1.796-1.757-2.552-2.939-2.71-3.52c-0.281-1.207,1.926,0.041,4.896,2.59c2.98,2.513,6.66,4.234,10.158,3.793
		c1.731-0.167,3.33-0.792,4.532-1.699c1.195-0.923,1.922-2.161,2.265-3.431c0.699-2.555-0.464-5.492-2.205-7.873
		c-0.882-1.205-1.926-2.316-3.08-3.292c-1.142-0.955-2.49-1.86-3.808-2.758c-1.326-0.905-3.028-2.034-4.626-3.308
		c-1.606-1.257-3.058-2.708-3.954-3.978c-0.914-1.26-1.294-2.279-1.271-2.492c0.064-0.245,0.439,0.351,1.765,1.781
		c1.352,1.412,2.744,2.365,4.074,3.179c1.333,0.813,2.619,1.483,3.959,2.197c1.34,0.716,2.742,1.462,4.301,2.476
		c1.595,1.031,3.274,2.458,4.857,4.535c1.554,2.074,2.918,4.79,2.953,7.825c0.081,3.047-1.669,5.94-3.838,7.313
		c-2.149,1.445-4.334,1.757-5.81,1.847c-0.749,0.034-1.341,0.006-1.747-0.03C270.157,161.066,269.94,161.022,269.94,161.022z"/>
	<path style="fill:#231815;" d="M138.937,279.004c-2.562-6.8-3.502-12.069-3.825-15.72c-0.297-3.668,0.068-5.759,0.568-6.572
		c1.063-1.613,2.644,1.732,3.535,7.468c0.907,5.769,2.668,11.383,4.768,16.506c2.101,5.131,4.52,9.783,6.7,13.883
		c4.349,8.224,9.677,15.874,15.491,23.179c2.868,3.687,7.47,9.037,10.486,12.355c1.484,1.677,2.524,2.882,2.558,3.263
		c0.042,0.371-0.94-0.069-3.328-1.883c-4.743-3.669-8.007-6.367-11.334-9.461c-3.293-3.119-6.682-6.645-10.866-12.607
		c-4.195-5.959-8.227-13.475-10.799-19.619c-1.309-3.064-2.289-5.769-2.949-7.701C139.275,280.166,138.937,279.004,138.937,279.004z
		"/>
	<path style="fill:#231815;" d="M316.003,233.102c1.363-3.828,2.321-7.196,3.021-10.105c0.742-2.902,1.199-5.354,1.597-7.367
		c0.763-4.03,1.185-6.336,1.734-7.206c0.534-0.87,1.067-0.29,1.431,1.44c0.195,0.864,0.324,2.013,0.294,3.386
		c0.03,1.379-0.143,2.973-0.423,4.727c-2.408,14.005-8.143,27.18-14.503,36.523c-6.383,9.299-14.124,17.742-23.321,24.313
		c-2.294,1.642-5.274,3.546-8.384,5.117c-3.096,1.595-6.299,2.859-8.823,3.594c-2.532,0.729-4.365,0.928-4.707,0.813
		c-0.176-0.067,0.011-0.239,0.637-0.536c0.628-0.29,1.697-0.701,3.251-1.386c6.202-2.804,10.039-5.751,13.995-8.933
		c3.926-3.24,7.971-6.87,13.54-12.789c5.578-5.919,11.3-13.564,14.973-20.057c1.869-3.224,3.309-6.108,4.244-8.193
		C315.519,234.367,316.003,233.102,316.003,233.102z"/>
	<path style="fill:#231815;" d="M270.323,204.524c4.4-8.536,7.811-11.558,9.187-11.811c1.426-0.229,1.013,2.332-1.267,5.51
		c-4.587,6.386-7.58,13.696-10.093,19.339c-2.535,5.661-4.708,11.445-6.466,17.359c-0.991,2.936-2.114,7.451-2.817,10.363
		c-0.657,2.904-1.257,4.156-1.335,0.132c-0.003-4.013,0.108-6.86,0.45-9.884c0.32-3.031,0.957-6.238,2.517-10.83
		c1.583-4.588,3.973-9.699,6.05-13.583c1.062-1.93,1.974-3.597,2.677-4.748C269.915,205.211,270.323,204.524,270.323,204.524z"/>
	<path style="fill:#231815;" d="M241.334,236.937c10.452,4.747,14.42,8.441,14.918,9.896c0.477,1.511-2.505,1-6.498-1.473
		c-8.02-4.974-16.938-8.201-23.854-11.08c-6.93-2.904-13.971-5.503-21.018-8.166c-6.97-2.794-21.314-8.034-12.003-6.18
		c4.66,0.964,7.954,1.574,11.457,2.355c3.501,0.788,7.212,1.757,12.604,3.709c5.393,1.958,11.543,4.608,16.286,6.868
		c2.364,1.149,4.403,2.14,5.829,2.893C240.485,236.498,241.334,236.937,241.334,236.937z"/>
	<path style="fill:#231815;" d="M256.968,292.63c-7.025,1.244-12.605,2.262-19.169-1.142c-4.173-2.15-10.627-5.523-17.243-9.47
		c-6.614-3.963-13.39-8.485-18.732-12.211c-5.42-3.653-12.472-9.438-18.652-14.669c-6.178-5.242-11.635-9.792-13.66-11.391
		c-4.025-3.263-8.118-4.965-8.097-6.656c-0.003-1.705,3.746-0.195,6.462,1.921c1.388,1.013,8.282,6.305,15.071,11.908
		c3.393,2.781,6.823,5.591,9.639,7.897c2.809,2.289,4.992,4.079,5.852,4.93c1.677,1.748,7.245,5.363,12.83,8.427
		c5.561,3.11,11.136,5.596,12.311,6.442c2.32,1.776,8.948,4.587,12.514,5.945c3.54,1.448,10.027,3.18,14.307,3.549
		c1.036,0.113,2.305,0.404,3.649,0.736c1.332,0.378,2.746,0.78,4.052,1.151C260.86,290.827,258.907,292.276,256.968,292.63z"/>
	<path style="fill:#231815;" d="M130.814,165.159c7.056-6.546,11.889-11.383,14.776-15.139c1.513-1.828,2.494-3.382,3.363-4.486
		c0.745-1.163,1.327-1.91,1.736-2.28c0.821-0.743,0.957,0.04,0.405,2.011c-0.507,1.979-2.051,4.998-4.641,8.207
		c-2.597,3.203-5.471,6.099-8.358,8.85c-2.882,2.719-5.727,5.405-8.498,8.021c-2.726,2.622-5.255,5.258-7.491,7.903
		c-2.263,2.638-4.052,5.368-5.604,8.02c-3.025,5.465-5.384,11.328-7.209,17.345c-1.832,6.02-3.091,12.221-3.779,18.486
		c-0.372,3.132-0.613,7.069-0.603,10.976c0.106,3.892,0.353,7.774,0.921,10.71c0.19,1.491,0.496,2.726,0.677,3.661
		c0.181,0.934,0.269,1.558,0.23,1.759c-0.039,0.201-0.203-0.02-0.523-0.773c-0.161-0.376-0.36-0.886-0.602-1.544
		c-0.251-0.654-0.535-1.458-0.765-2.447c-0.254-0.984-0.497-1.931-0.732-2.847c-0.179-0.929-0.351-1.825-0.518-2.695
		c-0.378-1.738-0.485-3.4-0.732-4.988c-0.159-1.593-0.251-3.131-0.371-4.651c-0.027-1.519-0.081-3.024-0.078-4.554
		c0.068-3.056,0.231-6.223,0.739-9.809c0.456-3.594,1.304-7.597,2.638-12.309c1.353-4.709,3.255-9.692,5.59-14.368
		c0.564-1.177,1.226-2.304,1.826-3.441c0.606-1.134,1.368-2.208,2.031-3.285c0.706-1.053,1.487-2.017,2.201-2.992
		c0.753-0.941,1.534-1.812,2.263-2.677c3.027-3.357,5.881-5.94,7.884-7.788C129.613,166.228,130.814,165.159,130.814,165.159z"/>
	<path style="fill:#231815;" d="M144.252,182.27c-5.727,7.828-9.617,13.772-12.529,17.759c-2.884,4.008-4.694,6.119-5.596,6.752
		c-1.792,1.274,0.039-3.344,4.625-10.11c4.604-6.753,9.181-13.555,14.014-19.703c4.837-6.156,9.798-11.653,14.734-16.109
		c2.411-2.161,4.752-4.291,6.177-6.772c0.706-1.237,1.156-2.516,1.236-3.861c0.105-1.565,0.125-3.156,0.145-4.787
		c0.026-3.242,0.137-6.748,1.116-10.113c1.012-3.366,2.525-6.346,4.348-9.209c1.821-2.838,4.533-6.111,7.739-8.726
		c3.153-2.676,6.756-4.638,9.646-5.733c2.89-1.118,5.035-1.425,5.411-1.369c0.195,0.037-0.036,0.2-0.784,0.515
		c-0.751,0.302-2.016,0.784-3.814,1.648c-3.59,1.752-6.333,3.804-8.593,5.958c-2.263,2.156-4.086,4.396-5.708,6.862
		c-1.614,2.471-3.037,5.182-4.242,8.428c-1.271,3.191-1.671,6.874-1.618,11.76c-0.008,1.221-0.013,2.49-0.07,3.795
		c-0.03,1.217-0.188,2.882-0.702,4.276c-1,2.878-2.927,5.112-4.834,7.009c-1.931,1.916-3.939,3.524-5.665,5.188
		c-1.779,1.694-3.453,3.371-4.989,4.971c-3.072,3.201-5.585,6.095-7.318,8.196C145.241,180.99,144.252,182.27,144.252,182.27z"/>
	<path style="fill:#231815;" d="M188.421,125.873c1.723-5.428,3.775-7.338,4.574-7.512c0.867-0.155,0.765,1.355-0.35,3.297
		c-2.269,3.937-3.078,8.479-3.748,11.969c-0.697,3.519-1.038,7.089-1.222,10.693c-0.363,3.563-0.056,11.045-1.114,6.531
		c-0.492-2.281-0.827-3.902-1.072-5.66c-0.241-1.756-0.383-3.66-0.156-6.493c0.232-2.834,0.898-6.094,1.632-8.586
		c0.388-1.24,0.72-2.31,1.015-3.051C188.255,126.315,188.421,125.873,188.421,125.873z"/>
	<path style="fill:#231815;" d="M188.908,153.617c-2.468-0.591-4.29-0.662-5.586-0.775c-1.294-0.101-2.08-0.213-2.437-0.482
		c-0.356-0.263-0.259-0.634,0.261-0.994c0.512-0.378,1.473-0.659,2.691-0.656c2.428,0.056,4.814,0.426,6.999,1.174
		c2.179,0.743,4.139,1.869,5.577,3.24c2.908,2.718,4.67,6.573,4.828,10.45c0.141,1.948-0.464,4.828-1.339,6.366
		c-0.874,1.549-1.413,1.963-0.839-0.128c0.468-2.136,0.308-3.688,0.046-5.251c-0.292-1.562-0.697-3.203-1.745-5.444
		c-1.031-2.261-2.978-4.454-4.907-5.715c-0.952-0.64-1.851-1.078-2.498-1.37C189.301,153.772,188.908,153.617,188.908,153.617z"/>
	<path style="fill:#231815;" d="M192.595,169.41c-1.919-1.467-3.383-2.424-4.407-3.104c-1-0.736-1.583-1.175-1.726-1.616
		c-0.152-0.409,0.11-0.677,0.704-0.72c0.296-0.022,0.672,0.012,1.107,0.11c0.419,0.126,0.884,0.336,1.378,0.61
		c1.933,1.159,3.746,2.433,5.357,3.838c1.614,1.399,2.908,3.025,3.834,4.621c1.73,3.23,2.403,7.321,1.097,10.837
		c-0.671,1.736-2.133,4.049-3.484,5.049c-1.247,1.093-1.856,1.327-0.742-0.413c0.274-0.439,0.546-0.833,0.75-1.23
		c0.169-0.412,0.328-0.8,0.481-1.173c0.136-0.376,0.313-0.716,0.398-1.082l0.235-1.088c0.331-1.437,0.458-2.982,0.208-5.225
		c-0.259-2.26-1.412-4.789-2.703-6.551C193.827,170.481,192.595,169.41,192.595,169.41z"/>
	<path style="fill:#231815;" d="M188.399,184.161c-1.415-2.041-2.598-3.435-3.377-4.462c-0.753-1.057-1.156-1.707-1.144-2.166
		c-0.004-0.438,0.347-0.589,0.926-0.419c0.288,0.085,0.633,0.251,1.011,0.495c0.356,0.265,0.741,0.615,1.126,1.042
		c1.497,1.742,2.915,3.533,4.036,5.455c0.257,0.493,0.566,0.952,0.774,1.46c0.208,0.51,0.414,1.012,0.615,1.503
		c0.274,1.038,0.585,2.042,0.559,3.054c0.108,0.997-0.105,1.999-0.265,2.994c-0.121,0.488-0.333,0.954-0.504,1.427l-0.275,0.704
		c-0.116,0.221-0.261,0.424-0.393,0.636l-0.822,1.242c-0.304,0.382-0.669,0.704-1.007,1.052c-0.354,0.325-0.669,0.708-1.062,0.97
		l-1.176,0.785c-0.758,0.568-1.84,0.993-2.887,1.408c-1.027,0.468-2.134,0.642-2.96,0.819c-1.667,0.313-2.356,0.221-0.419-0.737
		c1.972-0.896,3.144-1.874,4.375-2.823c1.109-1.075,2.433-2.107,3.548-4.084c0.599-0.966,0.933-2.136,1.095-3.321
		c0.046-0.597,0.005-1.204,0.001-1.787c-0.117-0.583-0.181-1.155-0.312-1.685c-0.167-0.526-0.321-1.017-0.461-1.456
		c-0.191-0.428-0.362-0.807-0.503-1.122c-0.137-0.317-0.25-0.57-0.355-0.73C188.451,184.251,188.399,184.161,188.399,184.161z"/>
	<path style="fill:#231815;" d="M135.415,256.941c-3.521,2.187-6.985,3.688-10.182,4.305c-3.201,0.634-6.048,0.372-8.182-0.28
		c-2.16-0.648-3.661-1.636-4.603-2.517c-0.942-0.895-1.367-1.648-1.482-2.137c-0.215-0.987,0.582-0.826,1.941-0.224
		c1.38,0.591,3.523,1.51,6.52,1.917c2.992,0.43,6.122-0.224,9.028-1.417c2.906-1.204,5.664-2.871,8.228-4.677
		c5.18-3.523,9.589-7.498,13.326-11.178c7.533-7.346,13.538-16.122,18.41-25.475c0.585-1.186,1.245-2.521,1.938-3.925
		c0.621-1.436,1.332-2.929,1.969-4.442c0.586-1.53,1.239-3.037,1.763-4.486c0.519-1.457,1.005-2.82,1.427-4.007
		c1.493-4.809,2.438-6.777,1.363-0.046c-1.257,6.69-2.605,11.313-4.333,16.165c-1.793,4.818-4.017,9.944-8.756,16.737
		c-2.333,3.423-5.251,6.843-8.235,10.068c-3.091,3.124-6.236,6.081-9.268,8.362c-1.465,1.202-2.923,2.199-4.223,3.101
		c-1.278,0.931-2.48,1.651-3.47,2.257c-0.992,0.605-1.779,1.087-2.322,1.417C135.716,256.772,135.415,256.941,135.415,256.941z"/>
	<path style="fill:#231815;" d="M338.062,165.453c1.837,1.336,3.547,2.579,5.186,3.771c1.568,1.277,2.992,2.594,4.336,3.995
		c2.774,2.757,4.662,6.151,5.94,10.582c0.694,2.841,1.585,6.487,2.591,10.611c0.413,2.067,0.849,4.253,1.304,6.518
		c0.116,0.562,0.234,1.13,0.354,1.702c0.083,0.579,0.168,1.163,0.251,1.75c0.175,1.171,0.35,2.356,0.527,3.551
		c1.359,9.548,2.075,19.723,1.899,27.862c-0.001,1.017,0.058,2.085,0.009,3.194c-0.059,1.108-0.121,2.258-0.185,3.443
		c-0.155,2.365-0.176,4.876-0.566,7.419c-0.156,1.275-0.315,2.565-0.474,3.863c-0.169,1.296-0.278,2.609-0.567,3.891
		c-0.503,2.578-1.005,5.149-1.492,7.646c-0.66,2.458-1.298,4.841-1.9,7.083c-0.271,1.13-0.636,2.193-1.001,3.209
		c-0.354,1.02-0.694,1.996-1.015,2.922c-1.195,3.737-2.503,6.503-3.14,8.002c-0.654,1.492-1.177,2.974-1.704,4.331
		c-0.591,1.328-1.12,2.562-1.622,3.626c-1.005,2.128-1.904,3.566-2.969,3.654c-2.117,0.151-0.947-4.67,0.974-8.319
		c0.532-0.894,1.625-3.863,3.242-7.767c0.43-0.966,0.749-2.049,1.112-3.168c0.36-1.12,0.738-2.288,1.125-3.49
		c0.856-2.378,1.437-4.986,2.087-7.585c0.313-1.302,0.677-2.595,0.953-3.895c0.236-1.309,0.47-2.606,0.7-3.874
		c0.235-1.267,0.466-2.505,0.688-3.699c0.226-1.194,0.306-2.366,0.462-3.465c0.277-2.204,0.55-4.163,0.794-5.756
		c0.138-1.602,0.286-2.834,0.438-3.568c0.152-0.732,0.271-1.795,0.364-3.098c0.04-0.651,0.098-1.362,0.109-2.124
		c-0.026-0.761-0.051-1.572-0.079-2.421c-0.085-1.694-0.177-3.541-0.273-5.456c-0.152-1.909-0.476-3.873-0.715-5.818
		c-0.398-3.902-1.372-7.642-1.891-10.667c-0.242-1.517-0.644-2.812-0.856-3.864c-0.233-1.048-0.374-1.835-0.394-2.283
		c-0.039-0.896-0.204-2.107-0.443-3.49c-0.301-1.369-0.743-2.894-1.183-4.457c-0.462-1.556-0.888-3.164-1.399-4.626
		c-0.539-1.452-1.04-2.801-1.45-3.908c-0.403-1.109-0.906-2.418-1.497-3.817c-0.677-1.365-1.433-2.824-2.218-4.284
		c-0.818-1.445-1.529-2.957-2.473-4.256c-0.901-1.32-1.781-2.55-2.589-3.604c-1.473-2.102-3.373-5.494-4.822-8.563
		C333.053,163.515,336.082,164.003,338.062,165.453z"/>
	<path style="fill:#231815;" d="M123.505,419.31c-0.742-4.428-1.873-8.822-2.72-13.034c-0.857-4.201-1.368-8.22-1.095-11.563
		c0.308-3.345,1.391-2.906,2.412-1.218c0.997,1.699,2.039,4.606,2.262,6.572c0.366,3.951,1.595,11.015,3.181,16.361
		c0.403,1.331,1.324,4.643,2.933,8.788c1.582,4.151,3.82,9.14,6.467,13.887c1.316,2.367,2.7,4.73,4.1,6.85
		c1.425,2.156,2.861,4.252,4.045,6.228c2.43,3.923,3.623,7.524,3.883,8.888c0.075,0.339,0.207,0.81,0.269,1.449
		c0.094,0.627,0.173,1.394,0.153,2.301c0.022,0.448-0.016,0.93-0.086,1.441c-0.061,0.509-0.102,1.047-0.265,1.595
		c-0.23,1.082-0.665,2.357-1.353,3.496c-1.36,2.296-3.451,4.272-5.979,5.78c-1.257,0.757-2.676,1.398-4.203,1.835
		c-1.515,0.425-3.064,0.626-4.586,0.708c-3.051,0.142-5.962-0.179-8.717-0.428c-2.758-0.285-5.426-0.56-7.88-0.814
		c-4.858-0.498-8.791-0.485-10.901-0.153c-4.192,0.62-7.011,0.608-8.616,0.134c-1.585-0.487-1.784-1.54,0.199-2.334
		c0.988-0.364,2.771-0.878,4.962-1.187c2.187-0.333,4.764-0.47,7.262-0.417c5.005,0.113,9.652,0.761,10.863,0.863
		c0.601,0.089,2.653,0.393,5.482,0.812c2.839,0.376,6.419,0.978,10.002,0.444c3.556-0.495,6.97-2.638,9.037-5.076
		c1.029-1.233,1.72-2.562,1.969-3.781c0.071-0.302,0.141-0.59,0.206-0.863c0.025-0.279,0.05-0.544,0.073-0.791
		c0.054-0.493,0.059-0.921,0.005-1.271c-0.081-1.394-0.443-3.416-1.329-5.635c-0.865-2.224-2.183-4.64-3.652-7.003
		c-1.466-2.366-3.076-4.69-4.368-6.884c-1.304-2.178-2.375-4.148-3.166-5.574c-1.554-2.862-4.299-6.964-6.541-10.956
		C125.559,424.789,123.751,420.976,123.505,419.31z"/>
	<path style="fill:#231815;" d="M146.687,329.295c1.141-0.644,2.269-1.309,3.282-2.097c0.515-0.384,1.005-0.794,1.499-1.191
		c0.504-0.382,1.005-0.76,1.497-1.132c0.986-0.743,1.904-1.524,2.868-2.11c0.968-0.577,1.917-1.058,2.847-1.355
		c1.864-0.591,2.134,0.484,1.753,1.819c-0.39,1.339-1.409,2.923-2.375,3.485c-0.947,0.603-2.232,1.513-3.63,2.455
		c-1.374,0.975-2.75,2.141-3.998,3.099c-0.606,0.501-2.04,1.813-3.892,3.507c-0.875,0.902-1.848,1.906-2.872,2.96
		c-0.992,1.081-1.961,2.28-2.966,3.439c-3.915,4.75-6.92,10.078-7.564,11.261c-0.697,1.149-3.67,6.38-5.745,12.322
		c-2.158,5.914-3.179,12.459-3.002,14.958c0.161,2.492-0.616,4.109-1.598,4.883c-0.958,0.767-2.019,0.639-2.156-0.554
		c-0.13-1.185-0.118-4.158,0.286-6.979c0.087-0.706,0.153-1.409,0.261-2.066c0.126-0.655,0.245-1.273,0.352-1.826
		c0.22-1.105,0.388-1.948,0.458-2.297c0.042-0.355,0.485-1.501,1.066-3.072c0.306-0.781,0.594-1.685,1.011-2.612
		c0.411-0.925,0.848-1.91,1.292-2.907c0.411-1.005,0.933-1.98,1.413-2.931c0.47-0.952,0.927-1.871,1.345-2.715
		c0.917-1.648,1.617-3.018,1.882-3.8c0.25-0.79,0.837-1.834,1.497-3.064c0.34-0.608,0.695-1.267,1.098-1.925
		c0.431-0.642,0.878-1.306,1.325-1.973c0.453-0.662,0.909-1.327,1.353-1.977c0.485-0.62,0.96-1.224,1.409-1.795
		c0.899-1.138,1.665-2.167,2.296-2.857c0.605-0.71,1.238-1.699,1.882-2.813c0.675-1.097,1.402-2.277,2.097-3.406
		c0.677-1.165,1.418-2.203,2.079-3.033C145.689,330.161,146.261,329.536,146.687,329.295z"/>
	<path style="fill:#231815;" d="M124.18,483.361c7.556-0.541,11.029,0.236,11.795,0.889c0.769,0.683-1.117,1.336-4.228,1.202
		c-6.244-0.272-12.457,0.618-17.41,1.056c-4.963,0.429-9.905,1.022-14.872,1.531c-4.962,0.433-15.005,1.431-8.92-0.111
		c6.108-1.474,8.517-2.457,16.023-3.435c3.757-0.466,8.162-0.799,11.627-0.957C121.659,483.382,124.18,483.361,124.18,483.361z"/>
	<path style="fill:#231815;" d="M123.192,493.333c6.67-0.774,9.773-0.107,10.468,0.522c0.7,0.659-0.944,1.37-3.696,1.333
		c-5.525-0.077-10.974,1.001-15.323,1.586c-4.363,0.578-8.694,1.316-13.059,1.97c-4.36,0.578-13.213,1.87-7.927,0.157
		c5.314-1.648,7.385-2.699,13.986-3.902c3.306-0.578,7.194-1.045,10.256-1.309C120.96,493.431,123.192,493.333,123.192,493.333z"/>
	<path style="fill:#231815;" d="M211.2,373.624c0.445-0.364,0.882-0.72,1.309-1.069c0.442-0.33,0.874-0.652,1.296-0.967
		c0.841-0.634,1.632-1.255,2.367-1.858c1.523-1.13,2.861-2.147,3.94-3.102c2.255-1.732,3.539-3.135,3.527-3.895
		c-0.012-0.757-1.327-0.857-4.305,0.072c-1.513,0.423-3.294,1.355-5.577,2.497c-2.184,1.288-4.797,2.92-7.61,5.233
		c-5.747,4.683-10.064,9.71-13.541,14.862c-3.465,5.171-6.11,10.494-8.214,16.235c-2.084,5.747-3.644,11.937-4.41,18.988
		c-0.814,7.065-0.496,14.897,0.048,23.928c0.527,9.019,1.063,17.925-0.202,26.349c-1.297,8.361-4.622,16.235-9.693,22.083
		c-2.524,2.927-5.578,5.216-8.858,6.688c-3.258,1.469-6.834,2.084-10.322,2.342c-6.973,0.462-13.9-0.604-20.524,0.067
		c-6.489,0.583-10.939,2.765-13.072,4.325c-2.158,1.625-2.254,2.56-0.353,2.537c0.95-0.005,2.377-0.304,4.373-0.648
		c1.981-0.389,4.516-0.833,7.685-1.125c3.181-0.306,6.983-0.343,11.729-0.252c2.36,0.033,4.993,0.054,7.852-0.138
		c2.855-0.194,5.979-0.607,9.166-1.591c3.486-1.047,6.392-2.638,8.761-4.36c2.399-1.721,4.199-3.682,5.833-5.545
		c3.113-3.864,5.225-7.702,7.003-12.035c0.839-2.187,1.645-4.488,2.25-7.058c0.653-2.55,1.125-5.39,1.39-8.522
		c0.589-6.26,0.288-13.787-0.39-23.268c-0.492-7.566-0.822-14.877,0.15-21.807c0.882-6.938,2.817-13.523,5.485-19.568
		C193.653,390.915,201.838,380.991,211.2,373.624z"/>
	<path style="fill:#231815;" d="M291.838,366.034c-8.454-3.004-17.798-4.191-26.433-4.211c-8.663-0.007-16.605,1.06-22.934,2.384
		c-0.818,0.117-1.473,0.305-2.047,0.435c-0.576,0.126-1.066,0.204-1.474,0.239c-0.816,0.071-1.309-0.026-1.519-0.259
		c-0.419-0.462,0.301-1.474,1.808-2.76c2.986-2.552,9.505-5.183,13.956-5.444c4.434-0.432,10.646-0.689,17.237-0.181
		c6.594,0.443,13.566,1.499,19.587,2.879c2.982,0.786,10.47,2.379,19.541,6.825c2.223,1.233,4.604,2.475,6.872,4.281
		c0.565,0.434,1.185,0.841,1.716,1.311c0.524,0.474,1.052,0.953,1.586,1.435c1.091,0.939,2.099,1.99,3.11,3.062
		c4.053,4.277,7.642,9.33,10.5,14.732c2.868,5.4,5.01,11.14,6.415,16.744c1.413,5.606,2.082,11.07,2.243,15.95
		c0.138,2.441-0.007,4.738-0.055,6.848c-0.207,2.099-0.317,4.037-0.578,5.711c-0.478,3.359-0.985,5.79-1.265,7.076
		c-0.265,1.295-0.831,3.666-1.648,6.819c-0.812,3.154-1.907,7.072-2.962,11.517c-1.025,4.451-2.063,9.442-2.18,14.7
		c-0.13,5.257,0.508,10.918,2.579,15.974c2.039,5.047,5.725,9.293,10.534,10.985c4.916,1.767,10.484,1.909,15.523,1.835
		c5.082-0.122,9.798-0.523,13.847-0.815c4.052-0.305,7.447-0.51,9.89-0.632c4.876-0.277,9.179,0.312,12.475,1.487
		c3.314,1.197,5.494,2.963,6.513,4.357c1.004,1.453,1.044,2.348,0.492,2.597c-0.581,0.274-1.652-0.142-3.447-0.953
		c-1.804-0.806-5.165-1.898-9.505-2.254c-4.317-0.427-9.498-0.26-14.604,0.033c-5.108,0.297-10.164,0.684-14.308,0.782
		c-4.138,0.129-7.356-0.044-8.686-0.155c-0.667-0.054-2.138-0.196-4.225-0.608c-2.071-0.413-4.815-1.085-7.73-2.669
		c-2.946-1.577-5.758-4.19-7.802-7.505c-1.082-1.625-1.878-3.459-2.624-5.323c-0.652-1.899-1.253-3.849-1.595-5.858
		c-0.79-3.998-0.922-8.116-0.718-12.05c0.198-3.947,0.908-7.692,1.622-11.087c1.496-6.786,3.096-12.247,3.652-15.206
		c0.582-2.951,1.593-7.231,2.369-12.265c0.724-5.034,1.089-10.85,0.609-16.698c-0.439-5.844-1.642-11.678-3.268-16.733
		c-1.62-5.058-3.591-9.356-5.303-12.314c-0.782-1.523-1.91-3.091-3.084-4.787c-1.284-1.621-2.64-3.368-4.264-4.977
		c-3.157-3.26-6.99-6.409-10.897-8.517C303.239,368.661,294.943,367.192,291.838,366.034z"/>
	<path style="fill:#231815;" d="M389.261,497.603c-5.781,0.05-8.439,0.075-9.19-0.593c-0.741-0.575,0.636-1.608,3.211-1.681
		c5.079-0.155,10.225-0.148,14.23,0.805c3.983,0.921,7.87,2.333,11.369,4.425c1.774,1.003,4.196,2.88,5.536,4.234
		c1.341,1.361,1.718,2.065-0.391,0.806c-2.121-1.247-3.726-1.896-5.424-2.577c-1.706-0.652-3.513-1.342-6.217-2.375
		c-2.714-1.004-5.97-1.917-8.581-2.397c-1.308-0.217-2.438-0.424-3.25-0.495C389.742,497.66,389.261,497.603,389.261,497.603z"/>
	<path style="fill:#231815;" d="M349.543,289.634c2.064,2.892,5.349,6.541,8.516,10.162c3.156,3.63,6.09,7.329,7.766,9.895
		c1.683,2.559,3.701,5.553,5.478,8.454c1.769,2.903,3.326,5.692,4.166,7.747c0.93,2.004,4.135,8.448,6.689,15.246
		c2.626,6.774,4.409,13.909,4.909,16.342c0.507,2.436,1.405,6.77,1.99,10.881c0.152,1.027,0.302,2.037,0.445,2.996
		c0.116,0.962,0.226,1.874,0.325,2.699c0.218,1.651,0.39,2.96,0.481,3.652c0.219,1.383,0.315,1.66,0.379,2.283
		c0.061,0.624,0.13,1.595,0.099,4.373c0.02,2.777-0.177,4.435-0.305,5.606c-0.142,1.171-0.228,1.855-0.301,2.683
		c-0.067,0.828-0.126,2.628-0.169,4.225c-0.089,1.595-0.167,2.982-0.167,2.982s-0.009,2.743-0.292,5.707
		c-0.198,2.974-0.763,6.142-1.121,7.018c-2.033,4.071-0.516,3.88-1.267,6.577c-0.747,2.695-1.957,4.631-3.493,9.982
		c-0.754,2.683-1.904,5.689-3.049,8.59c-1.165,2.86-2.294,5.623-3.028,7.929c-1.446,4.6-2.558,6.979-3.301,10.523
		c-0.329,1.766-0.163,0.884-0.093,0.444c0.129-0.444-0.038-0.436-0.383,3.082c-0.035,0.438-0.067,0.847-0.098,1.227
		c-0.01,0.376-0.018,0.725-0.026,1.048c-0.016,0.324-0.038,0.624-0.065,0.9c0.003,0.27-0.003,0.517-0.015,0.742
		c-0.063,0.909-0.199,1.476-0.345,1.763c-0.3,0.587-1.071,0.095-1.341-0.986c-0.333-1.054-0.491-2.852-0.331-4.693
		c0.091-1.847,0.464-3.725,0.585-5.104c0.195-2.775,1.693-8.157,3.74-12.043c2.02-3.893,2.965-5.868,3.464-8.043
		c0.566-2.153,1.886-7.479,2.652-10.076c0.871-2.571,1.32-4.619,1.862-6.246c1.125-3.629,1.875-6.114,2.305-7.973
		c0.449-1.855,0.711-3.06,0.694-4.174c-0.03-2.218,0.253-1.071,0.523-5.989c0.148-2.455,0.126-4.234,0.11-5.804
		c0.017-1.568,0.015-2.926,0.066-4.551c0.175-3.254-0.235-4.893-0.21-7.056c-0.032-2.167-0.446-4.324-0.567-6.479
		c-0.086-1.076-0.278-2.826-0.57-4.63c-0.341-1.797-0.696-3.659-1.054-4.969c-0.399-1.304-0.824-4.092-1.403-6.781
		c-0.48-2.71-1.095-5.32-1.161-6.411c-0.067-1.089-0.147-1.902-0.394-2.955c-0.274-1.042-0.652-2.349-1.679-4.292
		c-1.973-3.9-2.172-3.248-3.279-6.262c-1.154-2.988-0.981-4.213-1.818-6.196c-0.437-0.983-1.091-2.457-1.746-3.933
		c-0.727-1.442-1.56-2.836-2.353-3.638c-0.782-0.809-1.578-1.595-2.31-2.563c-0.737-0.965-1.469-2.079-2.337-3.419
		c-1.664-2.727-2.336-4.193-3.232-5.525c-0.892-1.346-3.359-2.855-4.635-4.53c-0.672-0.82-1.796-1.79-2.961-2.88
		c-1.218-1.045-2.476-2.209-3.408-3.491c-0.987-1.23-1.989-2.818-2.923-4.412c-0.956-1.57-1.714-3.297-2.18-4.788
		C346.507,291.518,346.525,285.271,349.543,289.634z"/>
	<path style="fill:#231815;" d="M375.735,473.416c1.144,1.277,2.312,1.892,3.514,2.408c1.238,0.475,2.554,0.83,4.389,1.22
		c1.848,0.335,3.106,0.798,4.559,1.279c1.449,0.456,3.089,0.934,5.572,0.965c2.482,0.025,4.399-0.284,5.7-0.556
		c1.3-0.278,1.986-0.542,1.986-0.542l-5.448-1.284c0,0-3.232-0.291-5.876-0.153c-1.327,0.058-2.482-0.31-3.739-0.773
		c-1.277-0.447-2.629-0.951-4.498-1.415c-3.708-0.968-5.986-2.767-6.893-5.126c-0.487-1.138-1.007-1.618-1.308-1.017
		c-0.064,0.149-0.117,0.373-0.112,0.663c0.024,0.28,0.094,0.632,0.223,1.062C374.047,471.009,374.589,472.178,375.735,473.416z"/>
	<path style="fill:#231815;" d="M402.584,476.135c2.77,0.691,2.163,2.349,5.426,2.496c1.633,0.106,3.532,0.289,5.268,0.612
		c1.734,0.337,3.31,0.753,4.375,1.069c1.07,0.272,3.157,1.175,4.662,2.484c0.733,0.657,1.425,1.28,1.829,1.819
		c0.431,0.519,0.703,0.848,0.703,0.848s0.452-0.104,0.465-0.73c0-0.593-0.339-1.94-2.597-3.665c-2.29-1.626-3.357-1.902-4.123-2.21
		c-0.794-0.247-1.378-0.434-3.107-0.788c-1.731-0.298-3.533-0.695-4.935-0.975c-1.392-0.295-2.372-0.502-2.372-0.502
		C406.3,476.363,404.436,476.242,402.584,476.135z"/>
	<path style="fill:#231815;" d="M395.426,488.893c-7.215,0.036-10.549-0.246-11.362-0.95c-0.809-0.644,0.981-1.53,4.072-1.468
		c6.146,0.118,12.359-0.07,17.29,0.828c4.889,0.878,9.816,2.228,14.172,4.801c2.235,1.173,5.145,3.658,6.622,5.455
		c1.468,1.832,1.836,2.664-0.47,0.769c-2.356-1.846-4.25-2.779-6.283-3.67c-1.02-0.443-2.07-0.891-3.31-1.325
		c-1.21-0.492-2.626-0.927-4.309-1.476c-3.385-1.072-7.485-1.909-10.749-2.361c-1.637-0.195-3.049-0.388-4.063-0.457
		C396.025,488.947,395.426,488.893,395.426,488.893z"/>
	<path style="fill:#231815;" d="M123.731,203.175c1.804-0.218,2.486,0.712,2.446,1.365c-0.031,0.687-0.56,1.251-1.091,1.015
		c-1.145-0.488-2.365,0.118-3.228,0.288c-0.909,0.163-1.755,0.453-2.714,0.631c-0.273,0.052-0.644,0.099-1.027,0.137l-0.779,0.079
		l-0.083-0.129c-0.505-0.773-0.093-1.457,0.184-1.542c0.301-0.106,0.411,0.096,0.511,0.274c0.07,0.133,0.212,0.177,0.278,0.12
		l-0.946-0.054c0.586-0.709,1.034-1.359,2.344-1.829c0.848-0.299,1.894-0.441,2.708-0.443
		C123.149,203.076,123.731,203.175,123.731,203.175z"/>
	<path style="fill:#231815;" d="M127.048,197.013c2.242,0.292,2.922,1.412,2.817,2.07c-0.105,0.692-0.841,1.101-1.517,0.687
		c-1.421-0.857-3.157-0.613-4.383-0.687c-1.263-0.086-2.509-0.032-3.814-0.071c-0.654-0.04-1.681-0.122-2.398-0.243
		c-0.711-0.12-1.112-0.35-0.316-0.782c1.595-0.808,2.244-1.537,4.486-1.724c1.121-0.069,2.429,0.069,3.427,0.283
		C126.35,196.764,127.048,197.013,127.048,197.013z"/>
	<path style="fill:#231815;" d="M131.443,191.183c2.664,0.326,3.57,1.485,3.546,2.166c-0.026,0.715-0.845,1.115-1.724,0.667
		c-1.817-0.922-3.923-0.708-5.463-0.795c-1.573-0.099-3.132-0.04-4.742-0.062c-1.567-0.115-5.118-0.094-3.191-0.998
		c1.978-0.842,2.782-1.578,5.449-1.768c1.333-0.069,2.891,0.075,4.086,0.3C130.6,190.921,131.443,191.183,131.443,191.183z"/>
	<path style="fill:#231815;" d="M136.564,184.487c2.754,0.431,3.673,1.632,3.644,2.316c-0.032,0.719-0.887,1.088-1.798,0.599
		c-1.879-1.002-4.083-0.873-5.696-1.019c-1.642-0.16-3.279-0.158-4.962-0.234c-1.638-0.169-5.328-0.265-3.274-1.107
		c2.102-0.777,2.968-1.484,5.744-1.579c1.388-0.021,3,0.182,4.236,0.452C135.695,184.192,136.564,184.487,136.564,184.487z"/>
	<path style="fill:#231815;" d="M174.856,210.045c-1.443-2.215-1.244-3.617-0.731-4.084c0.531-0.482,1.398-0.153,1.671,0.833
		c0.558,2.011,2.058,3.553,2.925,4.91c0.882,1.37,1.833,2.677,2.684,4.102c0.331,0.577,0.771,1.418,1.09,2.15l-0.758,0.612
		c-0.29-1.173-0.293-2.025,0.551-1.065c0.146,0.166,0.288,0.319,0.402,0.428l-1.019,0.822c-1.414-1.073-2.404-1.488-3.825-3.373
		c-0.785-1.056-1.567-2.381-2.111-3.453C175.184,210.855,174.856,210.045,174.856,210.045z"/>
	<path style="fill:#231815;" d="M186.148,103.647c-2.298-3.063-1.993-5.409,0-5.694c1.992-0.284,1.992,1.708,2.562,3.986
		C189.279,104.217,187.856,105.925,186.148,103.647z"/>
	<path style="fill:#231815;" d="M207.498,111.903c-3.711,0-1.486-2.621,0.855-3.701c3.701-1.708,6.548-1.139,5.125,1.423
		C212.054,112.188,209.492,111.903,207.498,111.903z"/>
	<path style="fill:#231815;" d="M250.202,91.121c-2.446-2.703-0.285-16.512,3.986-17.366c4.27-0.854,6.546,1.993,6.263,7.687
		C260.166,87.135,255.611,97.1,250.202,91.121z"/>
	<path style="fill:#231815;" d="M175.614,58.667c-1.749,2.404-5.693,11.672-1.708,15.373c5.694,5.409,8.256-2.562,9.679-9.964
		C185.008,56.673,177.892,55.535,175.614,58.667z"/>
	<path style="fill:#231815;" d="M293.443,184.811c0,0,9.382,5.808,5.361,11.169c-4.02,5.361-2.68,7.148-4.914,9.828
		c-2.234,2.681-4.467,6.702-10.276,5.361c-5.807-1.34-8.041,5.361-8.041-4.021c0-9.382,4.914-17.424,4.914-17.424
		S288.53,180.79,293.443,184.811z"/>
	<path style="fill:#231815;" d="M267.085,213.85c7.595,3.128,12.509,8.489,11.168,11.616c-1.34,3.128-4.914,4.021-8.489,7.595
		c-3.574,3.574-7.147,8.935-8.488,0C259.936,224.126,267.085,213.85,267.085,213.85z"/>
	<path style="fill:#231815;" d="M334.546,170.961c-6.151,7.237-8.935,12.062-3.574,12.956c5.361,0.894,6.254,12.956,12.508,12.51
		c6.255-0.447,7.595,1.787,6.255-6.702C348.396,181.237,342.141,162.026,334.546,170.961z"/>
	<path style="fill:#231815;" d="M346.608,216.978c-7.149,8.488-12.956,13.403-8.041,16.53c4.914,3.128,5.361,3.574,6.254,10.722
		c0.894,7.148,4.915,8.489,4.915,8.489s5.809-15.19,5.809-24.572C355.544,218.765,346.608,216.978,346.608,216.978z"/>
	<path style="fill:#231815;" d="M341.695,259.42c4.02,7.149,1.786,10.722-3.128,13.85c-4.915,3.128-4.915-5.808-2.681-11.169
		C338.12,256.739,341.695,259.42,341.695,259.42z"/>
	<path style="fill:#231815;" d="M153.16,329.562c9.913,1.238,20.105,10.722,24.572,14.743c4.467,4.021,1.34,13.403-3.574,15.637
		c-4.915,2.234-12.956-1.787-12.956-1.787s-6.292,1.578-9.829,0.894c0,0-21.892-1.341-17.871-8.489
		C137.524,343.411,149.586,329.115,153.16,329.562z"/>
	<path style="fill:#231815;" d="M128.142,360.835c11.169,1.787,19.211,7.595,17.423,12.509c-1.788,4.915-5.361,6.702-8.041,7.149
		c-2.681,0.447-14.058,2.47-15.191,0L128.142,360.835z"/>
	<path style="fill:#231815;" d="M341.247,330.902c-8.971,9.968-4.914,21.891,1.787,20.551c6.701-1.34,7.147,1.341,13.85-1.787
		c6.701-3.127,6.255-3.574,8.489-5.361c2.234-1.787-0.448-3.128,3.127-7.595c3.574-4.467,2.234,2.234,3.574-4.467
		c1.34-6.702,0.894-11.616-5.807-10.722c-6.703,0.893-8.042,4.02-11.17,6.254C351.969,330.008,345.268,326.435,341.247,330.902z"/>
	<path style="fill:#231815;" d="M358.671,363.963c-7.147,4.02-9.381,13.403-4.914,14.296c4.467,0.893,6.19,0.403,11.168,0
		c0,0,4.467,2.681,9.828-0.894c5.361-3.574,4.469-4.914,8.042-8.489c3.574-3.574,4.915-4.914,1.34-7.595
		c-3.574-2.681-5.807-5.361-9.382-2.681c-3.574,2.681-4.467-2.681-8.041,1.34C363.139,363.963,358.671,363.963,358.671,363.963z"/>
	<path style="fill:#231815;" d="M316.629,145.387c-8.502,0-12.948-14.675-7.768-18.128c5.178-3.453,6.042,1.726,9.495,6.905
		C321.809,139.345,320.946,145.387,316.629,145.387z"/>
	<path style="fill:#231815;" d="M339.226,38.722c-2.203-2.88-4.244-5.551-6.209-8.122c-0.969-1.296-1.919-2.565-2.86-3.824
		c-0.462-0.636-0.921-1.269-1.379-1.902L328.1,23.92l-0.336-0.479l-0.391-0.638c-0.984-1.781-1.558-4.038-0.935-6.499
		c0.151-0.609,0.407-1.218,0.727-1.802c0.307-0.558,0.836-1.214,1.081-1.455c0.609-0.667,1.238-1.335,1.887-2.002
		c2.704-2.484,5.954-4.496,9.681-6.056c4.755-1.961,11.053-3.721,18.275-4.53c7.213-0.852,15.362-0.531,23.496,1.093
		c4.049,0.949,8.092,2.021,12.007,3.703c3.88,1.706,7.491,3.92,10.746,6.435c6.516,5.049,11.548,11.283,15.085,17.317
		c1.766,3.023,3.458,6.518,4.68,10.439c1.23,3.901,2.043,8.259,1.711,12.772c-0.171,2.245-0.605,4.537-1.519,6.687
		c-0.868,2.148-2.289,4.163-3.856,5.78c-3.043,3.314-6.366,6.356-9.785,9.05c-3.41,2.703-6.92,5.054-10.169,7.243
		c-3.231,2.195-6.252,4.297-8.127,6.78c-0.22,0.313-0.438,0.62-0.652,0.924c-0.149,0.254-0.275,0.569-0.379,0.894
		c-0.207,0.657-0.328,1.368-0.414,2.058c-0.164,1.388-0.199,2.717-0.196,3.926c0.009,0.62,0.019,1.21,0.027,1.767
		c-0.003,0.671-0.149,1.338-0.41,1.904c-0.523,1.142-1.446,1.836-2.262,2.14c-0.79,0.345-1.796,0.337-2.435,0.272
		c-0.675-0.046-1.341-0.093-2-0.138c-1.316-0.092-2.594-0.181-3.824-0.267c-2.461-0.178-4.731-0.363-6.72-0.6
		c-3.959-0.46-6.882-1.2-7.725-2.296c-0.394-0.513-0.081-0.687,0.531-0.701c0.628-0.031,1.654,0.05,2.997,0.126
		c2.672,0.17,6.502,0.454,10.081,0.819c0.895,0.091,2.703,0.263,5.207,0.451c0.626,0.046,1.296,0.095,2.005,0.146
		c0.483,0.024,0.845-0.052,1.214-0.269c0.349-0.225,0.626-0.591,0.739-1.025c0.055-0.235,0.073-0.437,0.06-0.812
		c-0.012-0.46-0.026-0.927-0.038-1.403c-0.009-1.916-0.009-3.937,0.496-6.243c0.142-0.582,0.324-1.191,0.665-1.857
		c0.188-0.376,0.348-0.558,0.522-0.82l0.517-0.74c0.734-0.945,1.556-1.813,2.429-2.61c3.527-3.13,7.534-5.511,11.279-8.233
		c3.77-2.68,7.373-5.557,10.541-8.62c0.778-0.779,1.57-1.528,2.312-2.303c0.73-0.784,1.449-1.557,2.154-2.316
		c1.242-1.4,2.124-3.004,2.742-4.621c1.262-3.251,1.31-6.557,1.176-9.17c-0.187-2.636-0.585-4.673-0.835-5.886
		c-0.21-1.222-0.722-2.945-1.485-5.006c-0.809-2.046-1.923-4.414-3.395-6.883c-2.914-4.947-7.319-10.247-12.479-14.393
		c-5.134-4.201-10.96-7.092-15.889-8.493c-1.251-0.353-2.426-0.685-3.506-0.989c-1.099-0.235-2.102-0.45-2.992-0.64
		c-1.766-0.439-3.125-0.556-3.852-0.75c-2.919-0.704-8.205-1.22-13.722-0.886c-5.522,0.273-11.203,1.45-15.015,2.62
		c-3.817,1.113-8.972,3.232-13.354,6.476c-0.556,0.39-1.038,0.861-1.559,1.285c-0.519,0.429-1.03,0.862-1.453,1.357
		c-0.419,0.455-0.956,0.994-1.269,1.364c-0.16,0.235-0.274,0.509-0.323,0.842c-0.113,0.656,0.043,1.489,0.41,2.206
		c0.094,0.193,0.181,0.327,0.315,0.549c0.165,0.272,0.328,0.542,0.489,0.806c0.325,0.529,0.641,1.043,0.946,1.539
		c2.385,3.855,5.494,10.089,8.06,15.481C344.805,44.446,341.619,41.876,339.226,38.722z"/>
	<path style="fill:#231815;" d="M364.224,95.589c-1.247-1.387-2.06-3.184-2.667-4.893c-0.594-1.734-0.977-3.491-1.119-5.277
		c-0.262-3.55,0.261-7.37,2.857-11.248c0.419-0.605,0.908-1.258,1.455-1.892c0.543-0.604,1.105-1.245,1.747-1.855
		c1.265-1.239,2.731-2.459,4.356-3.585c3.247-2.275,7.106-4.104,10.929-5.936c1.911-0.922,3.806-1.87,5.543-2.976
		c1.722-1.11,3.259-2.423,4.207-4.037c0.456-0.812,0.774-1.683,0.942-2.591c0.124-0.914,0.182-1.847,0.05-2.773
		c-0.094-0.921-0.284-1.846-0.601-2.693c-0.312-0.85-0.505-1.73-0.976-2.456c-1.492-3.09-4.502-6.174-8.42-8.212
		c-3.918-2.049-8.596-3.052-12.991-3.23c-4.412-0.195-8.569,0.536-11.721,1.704c-0.776,0.322-1.507,0.627-2.189,0.911
		c-0.673,0.341-1.305,0.639-1.863,0.95c-1.126,0.596-2.011,1.119-2.623,1.487c-4.935,2.963-8.063,6.768-9.666,6.492
		c-1.671-0.228,1.149-3.776,4.376-5.966c0.804-0.543,3.174-2.293,6.663-4.24c0.888-0.479,1.778-1.005,2.864-1.447
		c0.531-0.229,1.074-0.462,1.626-0.699c0.559-0.212,1.144-0.373,1.73-0.565c2.348-0.761,4.914-1.167,7.498-1.372
		c5.177-0.338,10.459,0.474,14.536,2.037c0.999,0.446,1.943,0.868,2.818,1.259c0.829,0.495,1.593,0.952,2.277,1.361
		c1.298,0.937,2.253,1.732,2.751,2.274c0.46,0.592,1.245,1.304,2.066,2.304c0.392,0.519,0.82,1.085,1.278,1.689
		c0.466,0.599,0.793,1.351,1.228,2.078c0.464,0.72,0.753,1.559,1.071,2.419c0.161,0.43,0.324,0.867,0.489,1.309
		c0.13,0.454,0.235,0.924,0.355,1.394c0.421,1.894,0.527,4.103-0.107,6.229c-0.591,2.144-1.913,3.957-3.263,5.307
		c-1.363,1.37-2.771,2.378-4.014,3.206c-2.507,1.634-4.391,2.617-5.15,2.931c-1.521,0.603-4.039,1.871-6.409,3.457
		c-2.395,1.567-4.567,3.521-5.861,5.03c-0.648,0.738-1.407,1.706-1.992,2.75c-0.598,1.074-1.129,2.333-1.512,3.674
		c-0.789,2.676-1.033,5.606-0.864,7.811c0.078,1.071,0.077,2.412,0.172,3.755c0.073,1.316,0.313,2.75,0.578,3.385
		c0.145,0.312-0.058,0.311-0.091,0.542c-0.064,0.193-0.161,0.424-0.359,0.604c-0.206,0.174-0.481,0.326-0.855,0.27
		C364.993,96.227,364.569,95.948,364.224,95.589z"/>
	<path style="fill:#231815;" d="M374.653,132.378c-2.505-0.003-4.846-0.205-6.97-1.053c-2.105-0.839-4.048-2.381-5.19-5.009
		c-0.72-1.669-1.496-3.934-1.689-6.53c-0.191-2.56,0.089-5.667,1.934-8.29c0.919-1.296,2.207-2.311,3.567-2.92
		c1.36-0.625,2.759-0.936,4.104-1.111c2.683-0.308,5.239-0.218,7.517,0.257c2.248,0.444,4.973,1.641,6.994,3.838
		c2.028,2.151,3.395,5.039,3.789,7.938c0.198,1.449,0.148,2.906-0.175,4.239c-0.321,1.339-0.902,2.502-1.567,3.446
		c-1.364,1.886-2.954,2.819-3.771,3.26c-3.283,1.8-6.797,2.377-7.345,1.071c-0.276-0.648,0.293-1.12,1.086-1.457
		c0.805-0.343,1.855-0.652,2.822-0.894c0.465-0.127,2.004-0.534,3.521-1.801c1.542-1.22,2.796-3.416,2.77-5.858
		c0.028-2.477-1.013-5.012-2.207-6.72c-1.204-1.747-2.527-2.68-3.029-3.172c-0.518-0.489-1.73-1.13-3.383-1.404
		c-1.636-0.295-3.699-0.217-5.646,0.157c-1.938,0.354-3.572,1.102-4.455,1.889c-0.904,0.776-1.226,1.5-1.472,1.781
		c-0.501,0.496-0.94,1.802-0.887,3.298c0.021,1.494,0.513,3.066,0.934,4.098c0.399,1.038,1.278,2.365,2.435,3.519
		c1.148,1.155,2.56,2.098,3.764,2.646c1.157,0.542,2.658,1.736,4.064,2.728C377.661,131.348,376.053,132.382,374.653,132.378z"/>
</g>
</svg>
