<?xml version="1.0" encoding="iso-8859-1"?>
<!-- Generator: Adobe Illustrator 22.1.0, SVG Export Plug-In . SVG Version: 6.00 Build 0)  -->
<svg version="1.1" id="_x31_" xmlns="http://www.w3.org/2000/svg" xmlns:xlink="http://www.w3.org/1999/xlink" x="0px" y="0px"
	 viewBox="0 0 512 512" style="enable-background:new 0 0 512 512;" xml:space="preserve">
<g>
	<path style="fill:#94C85C;" d="M512,422.27c0,0-10.461,6.351-23.88,5.575c-2.421-0.135-8.847-0.254-17.783-0.344
		c-17.828-0.194-45.714-0.343-71.955-0.568c-33.355-0.284-64.05-0.687-68.1-1.509c-8.802-1.764-86.54-0.344-101.425,0
		c-14.899,0.344-143.596,2.421-143.596,2.421H43.148c0,0-4.304-0.09-10.132-0.284c-10.177-0.328-25.046-1.001-29.738-2.137
		c-1.718-13.584-2.824-53.499,13.106-90.531c15.945-37.032,44.548-62.795,45.863-64.319c1.315-1.539,4.468-8.712,8.025-20.682
		c3.541-11.97,28.812-68.129,34.475-74.691c5.649-6.545,5.276-18.515,7.816-23.775c2.541-5.246,15.527-22.327,15.527-22.327
		s14.555-26.361,20.144-32.608c5.589-6.261,19.98-11.536,33.011-11.761c13.031-0.223,28.289,17.635,33.534,24.853
		c5.245,7.202,12.404,9.951,20.339,9.264c6.082-0.522,13.031,2.914,17.813,2.914c1.449,0,2.705-0.328,3.676-1.166
		c4.154-3.616,30.052-20.383,35.372-23.7c5.32-3.303,14.87-1.824,14.87-1.824c28.483-0.238,40.901,25.256,51.422,43.413
		c10.685,10.758,44.384,52.812,66.097,129.608C497.624,323.685,512,422.27,512,422.27z"/>
	<path style="fill:#85B94D;" d="M470.336,427.501c-17.828-0.194-45.714-0.343-71.955-0.568c-33.355-0.284-64.05-0.687-68.1-1.509
		c-8.802-1.764-86.54-0.344-101.425,0c-14.899,0.344-143.596,2.421-143.596,2.421H43.148c0,0-4.304-0.09-10.132-0.284
		c1.54-23.597,7.069-51.945,27.094-76.453c28.125-34.446,41.075-117.487,49.967-132.955c8.877-15.466,40.837-87.972,69.231-89.019
		c28.379-1.032,46.068,13.684,58.546,14.79c5.021,0.448,13.196-3.93,22.207-9.385c13.39-8.114,28.633-18.604,38.062-19.217
		c15.781-1.017,69.624,66.978,87.736,127.8C402.132,297.803,460.817,370.953,470.336,427.501z"/>
	<ellipse style="fill:#679B2F;" cx="179.307" cy="167.481" rx="41.355" ry="38.347"/>
	<ellipse style="fill:#679B2F;" cx="303.553" cy="161.034" rx="41.355" ry="38.347"/>
	<ellipse style="fill:#FFFFFF;" cx="177.559" cy="163.191" rx="32.71" ry="29.362"/>
	<ellipse style="fill:#FFFFFF;" cx="301.266" cy="158.429" rx="30.798" ry="29.227"/>
	<path style="fill:#FFFFFF;" d="M398.381,426.933c-33.355-0.284-64.05,4.781-68.1,3.96c-8.802-1.764-86.54-0.344-101.425,0
		c-14.899,0.344-143.596-3.048-143.596-3.048h-7.652c8.025-41.843,37.868-116.862,55.577-133.255
		c21.295-19.712,26.959-29.679,38.107-38.272c11.163-8.593,39.437-50.779,69.31-48.194c29.873,2.586,42.052,25.749,52.827,33.085
		c10.775,7.338,22.625,18.725,36.852,30.307C341.998,281.065,402.446,362.614,398.381,426.933z"/>
	<path d="M171.374,248.781c-3.212,1.969-5.916,3.626-7.887,4.835c-0.978,0.679-1.801,1.172-2.389,1.684
		c-0.587,0.511-0.944,1.001-1.006,1.43c-0.13,0.843,0.953,1.511,3.789,1.49c2.77-0.121,7.265-1.311,12.586-4.753
		c10.746-7.125,17.81-16.349,26.449-25.512c4.336-4.542,9.116-9.233,15.218-13.099c3.048-1.909,6.436-3.597,10.225-4.633
		c3.78-1.032,7.954-1.424,12.305-0.831c8.752,1.175,17.076,4.93,24.261,9.836c7.232,4.911,13.532,10.789,19.53,16.363
		c5.986,5.593,11.73,10.923,17.564,15.178c5.789,4.295,11.748,7.392,17.186,9.096c5.325,1.724,9.574,1.451,11.802,0.789
		c2.269-0.684,2.657-1.655,1.195-2.586c-1.462-0.934-4.754-1.713-9.812-3.388c-5.063-1.689-11.853-4.653-20.484-10.372
		c-9.241-6.18-15.204-12.233-23.075-19.08c-3.943-3.431-8.373-7.148-14.264-10.869c-5.914-3.61-13.415-7.354-23.438-8.654
		c-4.01-0.471-8.181-0.355-12.183,0.502c-4.008,0.841-7.808,2.358-11.291,4.236c-6.984,3.771-12.921,8.697-18.253,13.645
		c-5.327,4.958-10.089,9.895-14.736,14.161C180.047,242.525,175.597,246.198,171.374,248.781z"/>
	<path d="M221.085,197.91c-2.571-1.41-3.114-5.463-1.004-7.5c4.51-2.093,10.268,3.421,8.375,8.017
		c-3.312-0.43-6.624-0.861-9.936-1.289"/>
	<path d="M257.806,189.033c-4.826-2.714-12.033,7.253-9.619,12.235c2.166-0.205,4.86-1.719,7.04-3.647
		C258.594,194.642,260.735,190.68,257.806,189.033z"/>
	<path d="M337.543,102.964c3.034,3.827,6.401,7.227,9.439,10.626c3.004,3.398,5.633,6.775,6.855,10.115
		c1.188,3.356-0.594,3.825-2.87,3.115c-2.274-0.732-5.105-2.536-6.271-4.18c-2.26-3.374-6.843-9.046-11.023-12.73
		c-1.035-0.924-3.597-3.224-7.282-5.61c-3.673-2.38-8.516-4.699-13.681-5.901c-2.565-0.619-5.173-0.989-7.647-1.108
		c-2.477-0.116-4.806,0.065-6.848,0.36c-4.097,0.623-6.94,1.871-7.975,2.321c-0.521,0.248-1.486,0.707-2.792,1.327
		c-0.664,0.288-1.351,0.771-2.144,1.211c-0.785,0.461-1.654,0.936-2.521,1.583c-3.581,2.355-7.728,6.016-12.023,10.033
		c-4.294,3.995-8.935,8.224-13.635,11.151c-4.682,2.963-9.207,4.5-11.7,5.295c-1.236,0.52-2.437,0.628-3.529,0.693
		c-1.092,0.041-2.088,0.042-2.945-0.166c-1.716-0.471-2.937-1.209-3.651-1.99c-1.422-1.563-0.922-3.304,1.08-3.579
		c2.03-0.138,6.998-0.447,11.385-2.057c4.417-1.529,8.165-4.254,9.129-4.971c0.474-0.381,2.259-1.411,4.608-3.165
		c2.37-1.71,5.313-4.102,8.371-6.584c3.039-2.492,6.263-4.977,9.097-6.912c2.816-1.967,5.281-3.323,6.488-4.218
		c1.261-0.8,3.142-1.969,5.569-2.859c2.423-0.875,5.311-1.527,8.257-1.785c2.945-0.271,5.932-0.155,8.57,0.17
		c2.636,0.362,4.927,0.872,6.575,1.309c3.292,0.795,8.466,1.61,13.198,3.25C332.316,99.302,336.433,101.512,337.543,102.964z"/>
	<path d="M114.894,140.471c3.941-3.913,7.154-8.384,9.936-12.681c2.793-4.295,5.073-8.343,7.527-11.368
		c2.414-3.04,3.8-1.936,4.222,0.727c0.43,2.647-0.369,6.772-1.801,8.938c-2.783,4.399-8.326,11.691-12.395,17.278
		c-0.498,0.702-1.359,1.922-2.492,3.524c-0.548,0.799-1.18,1.719-1.795,2.681c-0.614,0.945-1.239,2.003-1.875,3.147
		c-2.561,4.581-4.897,10.825-7.419,17.295c-1.276,3.224-2.646,6.485-4.185,9.534c-1.618,3.145-3.049,5.587-4.313,8.037
		c-2.529,4.774-4.312,8.467-4.962,9.807c-1.319,2.661-7.322,14.412-12.538,27.223c-5.318,12.763-9.75,26.537-10.593,31.974
		c-0.864,5.428-2.996,8.676-4.897,9.994c-1.905,1.31-3.556,0.645-3.244-1.889c0.303-2.529,1.782-8.683,3.543-14.485
		c1.717-5.818,3.64-11.301,4.143-12.731c0.5-1.433,4.116-9.53,8.21-17.914c4.069-8.403,8.624-17.077,9.821-20.4
		c1.192-3.328,4.134-9.456,7.499-15.503c1.7-3.031,3.455-5.996,4.77-8.807c1.339-2.802,2.391-5.351,3.128-7.214
		c1.49-3.739,2.511-9.74,4.169-15.291c0.815-2.767,1.838-5.43,2.873-7.548C113.229,142.753,114.158,141.203,114.894,140.471z"/>
	<path d="M133.728,107.708c2.068-0.484,4.576,1.936,6.682,3.916c2.087,1.974,4.013,3.26,5.179-0.482
		c0.548-1.827,1.189-4.114,1.928-6.205c0.739-2.124,1.677-4.05,2.981-5.784c1.279-1.69,3.025-3.294,4.516-4.492
		c1.502-1.203,2.834-2.013,3.614-2.43c1.547-0.812,5.834-3.16,11.628-4.164c2.879-0.492,6.109-0.663,9.348-0.35
		c3.239,0.3,6.462,1.092,9.324,2.182c5.757,2.146,11.863,6.247,16.179,11.64c2.229,2.702,4.265,5.649,6.359,8.32
		c2.077,2.678,4.254,5.072,6.374,6.803c2.14,1.783,4.141,2.839,5.842,3.52c1.724,0.67,3.185,1.061,4.599,1.252
		c1.407,0.199,2.751,0.279,4.248,0.15c1.484-0.126,3.156-0.38,5.025-1.227c1.883-0.862,2.567-2.107,2.634-2.816
		c0.073-0.737-0.476-1.115-1.245-1.23c-0.764-0.085-1.751,0.011-2.945,0.214c-1.216,0.183-2.754,0.445-5.013,0.608
		c-2.262,0.103-4.806-0.458-7.102-1.618c-2.292-1.115-4.352-2.935-6.211-4.937c-3.699-4.031-6.562-8.747-9.659-12.409
		c-1.503-1.853-4.207-4.986-8.119-7.97c-3.879-3.018-9.033-5.765-14.553-7.401c-5.516-1.63-11.352-2.088-16.159-1.587
		c-4.814,0.479-8.508,1.706-10.271,2.437c-3.559,1.454-7.13,3.864-10.212,6.567c-1.524,1.327-3.054,2.821-4.359,4.35
		c-1.319,1.527-2.444,3.092-3.446,4.493c-1.982,2.818-3.898,4.576-5.358,5.745C134.091,105.978,133.214,106.656,133.728,107.708z"/>
	<path d="M358.843,135.87c3.015,1.86,5.975,4.299,8.491,6.985c1.281,1.323,2.5,2.663,3.639,3.959
		c1.098,1.33,2.101,2.626,3.023,3.801c1.931,2.28,10.209,13.703,17.353,26.036c3.608,6.144,6.925,12.505,9.577,17.747
		c1.387,2.591,2.422,4.994,3.414,6.871c0.949,1.897,1.774,3.313,2.272,4.15c2.021,3.336,3.876,7.119,5.747,12.199
		c0.981,2.523,2.078,5.328,3.18,8.578c0.587,1.612,1.209,3.325,1.872,5.147c0.628,1.838,1.293,3.788,2.002,5.864
		c2.143,5.979,3.427,14.23,4.017,20.908c0.359,3.331,0.345,6.313,0.439,8.424c0.042,2.115,0.066,3.395,0.066,3.395
		c-0.407,0.154-1.178-1.477-2.123-4.126c-0.472-1.325-0.988-2.904-1.523-4.643c-0.578-1.728-1.208-3.615-1.862-5.571
		c-1.192-3.927-2.724-8.05-3.907-11.772c-1.257-3.703-2.432-6.942-2.995-9.113c-1.275-4.294-3.146-10.299-5.252-15.781
		c-0.97-2.772-2.068-5.385-3.01-7.649c-0.953-2.26-1.68-4.205-2.297-5.481c-0.587-1.289-1.939-4.138-3.714-7.711
		c-1.928-3.497-4.122-7.803-6.671-11.849c-2.402-4.13-5.093-8.019-7.207-11.146c-2.169-3.093-3.95-5.307-4.615-6.069
		c-2.685-3.031-8.905-10.623-15.578-17.737c-3.391-3.507-5.308-6.524-6.545-8.944c-1.193-2.454-1.534-4.456-1.617-5.945
		C354.84,133.406,358.843,135.87,358.843,135.87z"/>
	<path d="M170.563,238.34c8.669-3.875,10.616-8.02-2.194-2.463c-3.261,1.415-6.096,2.759-8.771,4.1
		c-2.663,1.34-5.25,2.666-7.788,4.384c-2.509,1.716-5.063,3.827-7.006,6.893c-0.956,1.525-1.779,3.278-2.193,5.285
		c-0.411,1.995-0.364,4.272,0.469,6.479c1.685,4.436,5.72,7.507,10.016,8.628c4.376,1.096,8.856,0.249,12.622-1.387
		c1.9-0.819,3.654-1.847,5.256-3.001c1.542-1.125,3.069-2.151,4.577-3.165c3.008-2.024,5.855-3.942,8.391-5.896
		c2.486-1.895,4.042-3.705,4.651-4.927c0.592-1.256,0.36-1.705-0.508-1.313c-0.849,0.403-2.428,1.548-5.095,3.477
		c-2.665,1.948-6.452,4.592-11.347,8.487c-0.649,0.536-1.263,1.042-1.847,1.525c-0.548,0.461-1.088,0.875-1.617,1.257
		c-1.059,0.761-2.091,1.355-3.096,1.852c-2.011,0.988-3.936,1.581-6.051,1.84c-2.105,0.239-4.471,0.205-7.114-0.803
		c-1.316-0.513-2.719-1.263-4.046-2.413c-1.329-1.134-2.615-2.666-3.398-4.679c-1.293-3.228-0.463-6.859,1.335-9.655
		c1.79-2.858,4.467-4.923,7.301-6.538c2.842-1.618,5.874-2.848,8.82-4.156C164.871,240.853,167.745,239.584,170.563,238.34z"/>
	<path d="M322.432,245.641c-1.795-0.768-3.089-1.582-4.059-2.239c-0.957-0.659-1.61-1.164-2.035-1.094
		c-0.377,0.041-0.568,0.719,0.098,2.079c0.638,1.337,2.454,3.28,5.641,4.509c3.218,1.241,6.157,1.586,8.816,1.894
		c2.594,0.297,5.038,0.655,7.394,1.491c2.308,0.832,4.679,2.215,5.833,4.881c0.557,1.301,0.706,2.875,0.341,4.495
		c-0.379,1.612-1.266,3.251-2.601,4.664c-1.343,1.409-3.011,2.493-4.82,3.057c-1.819,0.574-3.749,0.724-5.615,0.586
		c-3.757-0.286-7.261-1.653-10.421-3.231c-6.474-3.259-12.478-5.958-17.265-8.842c-4.657-2.791-7.255-3.574-6.455-1.953
		c0.422,0.789,1.74,2.176,4.312,3.895c2.558,1.73,6.416,3.709,11.651,5.686c2.801,1.066,4.952,1.932,6.868,2.798
		c1.962,0.873,3.738,1.584,5.738,2.194c1.998,0.588,4.243,1.126,7.156,1.085c1.455-0.04,3.061-0.237,4.812-0.848
		c1.759-0.613,3.542-1.724,5.118-3.401c2.472-2.634,3.987-6.427,3.025-10.014c-0.466-1.752-1.441-3.3-2.678-4.51
		c-1.243-1.205-2.701-2.059-4.167-2.726c-2.944-1.317-6.004-1.915-8.865-2.385C327.444,247.227,324.754,246.659,322.432,245.641z"/>
	<path d="M196.404,141.587c-2.65-2.22-5.558-3.721-8.377-4.756c-2.826-1.029-5.589-1.635-8.174-1.83
		c-5.176-0.531-9.545,0.233-12.983,1.152c-1.738,0.451-3.213,1.05-4.551,1.54c-1.257,0.628-2.455,1.043-3.36,1.594
		c-1.917,0.957-3.133,1.732-3.949,2.008c-1.612,0.585-1.385-0.636,0.743-3.159c2.135-2.448,6.786-5.652,13.373-7.036
		c3.286-0.634,6.623-0.87,9.938-0.715c3.314,0.21,6.583,0.852,9.719,1.881c6.251,2.096,11.884,6.143,15.61,11.4
		c3.796,5.212,5.818,11.322,6.434,17.271c0.517,5.963-0.305,11.858-2.547,16.89c-1.018,2.555-2.551,4.888-4.205,7.098
		c-1.773,2.119-3.732,4.105-5.988,5.68c-2.187,1.68-4.658,2.895-7.146,3.995c-2.546,0.953-5.153,1.775-7.841,2.15
		c-2.671,0.487-5.398,0.507-8.101,0.409c-2.696-0.262-5.4-0.641-7.983-1.521c-2.615-0.759-5.073-2.006-7.406-3.41
		c-2.248-1.543-4.424-3.243-6.158-5.336c-3.653-4.013-6.667-10.265-7.525-16.697c-1.024-6.43,0.184-12.874,2.093-17.255
		c0.97-2.204,2.073-3.911,2.947-5.113c0.967-1.144,1.624-1.837,1.895-1.971c0.27-0.135,0.156,0.288-0.423,1.372
		c-0.281,0.548-0.735,1.226-1.133,2.194c-0.22,0.469-0.465,0.991-0.734,1.565c-0.237,0.587-0.452,1.248-0.716,1.952
		c-0.945,2.854-1.478,5.616-1.524,8.24c-0.126,1.304,0.039,2.577,0.057,3.807c0.166,1.224,0.26,2.424,0.522,3.571
		c0.96,4.599,2.747,8.604,5.298,12.135c2.611,3.491,6.051,6.448,10.646,8.535c2.335,0.973,4.929,1.737,7.826,2.161
		c2.903,0.368,6.095,0.367,9.495-0.194c6.789-1.076,13.828-4.741,18.087-10.566c4.352-5.787,5.824-13.307,5.309-19.636
		c-0.529-6.402-2.92-11.568-5.125-14.745c-1.125-1.581-2.113-2.784-2.89-3.504C196.81,141.996,196.404,141.587,196.404,141.587z"/>
	<path d="M172.387,162.483c0.37,0.786,0.618,1.307,0.722,1.79c0.106,0.473,0.089,0.891-0.057,1.227
		c-0.241,0.683-1.245,0.865-1.816-0.122c-0.506-0.953-0.959-1.879-1.249-2.862c-0.288-0.975-0.389-2.005-0.17-2.891
		c0.417-1.78,1.65-3.323,3.244-3.99c0.792-0.365,2.116-0.451,2.854-0.155c0.752,0.288,0.92,0.649,0.158,0.854
		c-0.767,0.253-1.189,0.68-1.569,1.095c-0.378,0.427-0.732,0.861-1.212,1.49c-0.489,0.629-0.834,1.462-0.919,2.226
		C172.285,161.901,172.387,162.483,172.387,162.483z"/>
	<path d="M183.167,160.832l-0.092-0.256l-0.132-0.205c-0.075-0.202-0.746-0.406-0.865-0.733c-0.189-0.311-0.176-0.675,0.009-0.967
		c0.137-0.155,0.129-0.254,0.501-0.389c0.322-0.126,0.733-0.23,1.154-0.277c0.407-0.042,0.806-0.085,1.203-0.127
		c0.077,0.419,0.154,0.835,0.23,1.248l0.225,1.227c0.092,0.455,0.09,0.572,0.143,0.87c0.149,1.017,0.218,2.018,0.079,2.885
		c-0.286,1.718-0.891,3.421-2.008,4.772c-0.549,0.685-1.605,1.496-2.386,1.796c-0.792,0.303-1.213,0.218-0.673-0.553
		c1.002-1.625,0.912-2.52,1.682-4.451c0.358-0.989,0.669-2.186,0.796-3.155C183.168,161.551,183.167,160.832,183.167,160.832z"/>
	<path d="M175.587,167.902c-0.609-0.528-0.795-1.151-0.742-1.586c0.06-0.45,0.346-0.732,0.656-0.874
		c0.649-0.259,1.397-0.179,1.4,0.192c0.063,0.895,1.139,1.147,1.62,1.419c0.533,0.328,1.086,0.538,1.69,0.866
		c0.299,0.187,0.821,0.499,1.279,0.753c0.442,0.251,0.79,0.526,0.245,0.835c-1.072,0.531-1.74,1.129-3.311,0.689
		c-0.772-0.251-1.556-0.79-2.063-1.31C175.852,168.36,175.587,167.902,175.587,167.902z"/>
	<path d="M169.112,161.786c0.29-1.733,1.221-2.81,1.978-3.273c0.777-0.478,1.378-0.411,1.677-0.205
		c0.579,0.471,0.381,1.343-0.329,1.917c-0.756,0.654-1.128,1.713-1.141,2.663c-0.02,0.966,0.269,1.794,0.557,2.433
		c0.562,1.296,1.872,2.204,3.418,2.714c0.763,0.287,2.065,0.51,3.014,0.435c0.915-0.068,1.558-0.034,0.423,0.763
		c-1.178,0.697-2.168,0.994-3.252,1.111c-1.076,0.09-2.353,0-3.889-1.02c-0.756-0.517-1.474-1.268-1.957-2.143
		c-0.491-0.872-0.729-1.819-0.801-2.637c-0.066-0.823,0.027-1.519,0.114-2.001C169.029,162.063,169.112,161.786,169.112,161.786z"/>
	<path d="M175.829,159.289c0.263-2.81,3.237-1.648,2.62-0.634c-0.617,1.014-0.403,2.283-0.675,3.163
		c-0.272,0.878-0.544,1.758-1.093,2.552c-0.548,0.794-2.199,2.208-2.136,1.025c0.064-1.185-0.354-1.796,0.054-3.115
		C175.008,160.961,175.829,159.289,175.829,159.289z"/>
	<path d="M176.819,161.238c-0.482-2.133,2.692-1.812,2.362-0.947c-0.33,0.864,0.208,1.77,0.176,2.473
		c-0.032,0.702-0.064,1.405-0.386,2.094c-0.322,0.689-1.543,2.04-1.792,1.149c-0.249-0.891-0.811-1.27-0.763-2.322
		C176.465,162.63,176.819,161.238,176.819,161.238z"/>
	<path d="M180.951,159.36c-1.88,0.528-1.736-2.655-0.867-2.34c0.317,0.116,0.609,0.113,0.945,0.064
		c0.572-0.064,1.17-0.129,1.713-0.189c0.19,0.287,0.374,0.595,0.519,0.909c0.344,0.746,0.417,0.905,0.537,1.25
		c0.108,0.321,0.184,0.659,0.193,1.025c0.02,0.733-0.468,2.443-1.084,1.799c-0.616-0.644-1.283-0.709-1.706-1.627l-0.153-0.362
		l-0.085-0.262l0.055-0.121L180.951,159.36z"/>
	<path d="M182.064,158.953c-0.874-0.781-1.544-1.234-2.01-1.664c-0.466-0.427-0.753-0.807-0.83-1.178
		c-0.217-0.715,0.757-1.389,2.014-0.655c1.179,0.722,2.23,1.558,3.076,2.569c0.848,0.996,1.438,2.212,1.571,3.377
		c0.273,2.306-0.576,4.669-2.279,6.122c-0.23,0.194-0.427,0.329-0.788,0.562c-0.402,0.24-0.812,0.443-1.198,0.596l-0.28,0.109
		l-0.258-0.209c-0.166-0.161-0.318-0.308-0.456-0.461c-0.29-0.313-0.477-0.557-0.583-0.745c-0.505-0.802-0.581-1.301,0.456-0.742
		l0.358,0.184l0.2,0.065l0.296-0.023l0.165-0.293c0.029-0.078,0.027-0.152,0.166-0.332c0.377-0.644,0.729-1.314,1.09-2.357
		c0.376-1.051,0.42-2.344,0.091-3.31C182.565,159.584,182.064,158.953,182.064,158.953z"/>
	<path d="M185.253,164.046c0.213-1.209,0.311-2.055,0.494-2.692c0.178-0.632,0.419-1.056,0.731-1.27
		c0.59-0.463,1.535,0.143,1.44,1.524c-0.223,2.593-0.786,5.298-2.314,6.982c-1.468,1.651-3.563,2.728-5.699,2.82
		c-1.073,0.078-2.652-0.306-3.458-0.864c-0.819-0.557-0.966-0.978,0.111-0.864c1.097,0.064,1.851-0.187,2.584-0.461
		c0.733-0.288,1.469-0.606,2.5-1.149c1.04-0.539,2.06-1.441,2.689-2.348C184.965,164.825,185.253,164.046,185.253,164.046z"/>
	<path d="M171.004,170.86c-0.879-1.4-0.922-2.727-0.7-3.53c0.227-0.826,0.684-1.177,1.04-1.237c0.738-0.072,1.237,0.655,1.118,1.522
		c-0.101,0.947,0.309,1.92,0.893,2.604c0.589,0.702,1.304,1.128,1.902,1.442c1.195,0.645,2.688,0.647,4.186,0.279
		c0.756-0.155,1.926-0.606,2.688-1.098c0.739-0.473,1.299-0.722,0.743,0.455c-0.627,1.121-1.257,1.855-2.056,2.503
		c-0.806,0.624-1.852,1.208-3.577,1.24c-1.737,0.07-3.746-0.878-4.777-2.019c-0.538-0.556-0.896-1.11-1.129-1.508
		C171.128,171.103,171.004,170.86,171.004,170.86z"/>
	<path d="M168.529,160.223c0.998-2.018,2.507-3.014,3.582-3.354c1.104-0.35,1.797-0.13,2.068,0.139
		c0.278,0.275,0.201,0.667-0.057,1.001c-0.271,0.318-0.691,0.663-1.313,0.942c-1.244,0.623-2.155,1.863-2.571,3.121
		c-0.43,1.273-0.405,2.512-0.23,3.509c0.318,2.014,1.902,3.708,3.901,4.743c0.981,0.562,2.701,1.079,3.938,1.095
		c1.197,0.015,1.944,0.119,0.293,0.823c-1.687,0.562-3.017,0.608-4.396,0.422c-1.361-0.225-2.912-0.717-4.528-2.415
		c-0.79-0.854-1.461-1.992-1.794-3.216c-0.342-1.221-0.341-2.466-0.168-3.499c0.181-1.036,0.524-1.868,0.79-2.436
		C168.336,160.537,168.529,160.223,168.529,160.223z"/>
	<path d="M171.339,156.819c0.787-1.639,2.014-1.594,2.483-1.124c0.514,0.481,0.674,1.24,0.234,1.462
		c-0.977,0.528-1.005,1.806-1.209,2.516c-0.237,0.764-0.339,1.53-0.537,2.365c-0.125,0.416-0.333,1.11-0.497,1.661
		c-0.174,0.536-0.411,0.916-0.8,0.339c-0.703-1.151-1.402-1.729-1.292-3.514c0.086-0.887,0.441-1.869,0.835-2.569
		C170.954,157.255,171.339,156.819,171.339,156.819z"/>
	<path d="M177.635,162.661c-0.23-0.879,0.591-1.105,1.234-0.895c0.661,0.197,1.302,0.543,1.133,0.629
		c-0.364,0.279,0.226,0.65,0.272,0.825c0.049,0.228,0.112,0.414-0.004,0.773c-0.072,0.188-0.22,0.577-0.359,0.944
		c-0.14,0.37-0.292,0.727-0.609,0.619c-0.601-0.22-1.284-0.16-1.631-0.957c-0.16-0.398-0.199-0.904-0.162-1.287
		C177.546,162.925,177.635,162.661,177.635,162.661z"/>
	<path d="M186.663,161.786c-0.254-1.172-0.509-1.953-0.61-2.591c-0.105-0.632-0.082-1.112,0.096-1.447
		c0.301-0.688,1.448-0.58,1.975,0.745c0.46,1.281,0.803,2.557,0.91,3.846c0.107,1.279-0.046,2.567-0.527,3.602
		c-0.938,2.091-2.838,3.677-4.96,4.153c-1.062,0.28-2.718,0.129-3.583-0.349c-0.879-0.473-1.043-0.877,0.019-0.87
		c1.081-0.055,1.78-0.421,2.437-0.807c0.655-0.401,1.301-0.841,2.147-1.576c0.859-0.732,1.55-1.834,1.832-2.867
		C186.689,162.599,186.663,161.786,186.663,161.786z"/>
	<path d="M185.777,157.713c-1.244-0.976-2.226-1.475-2.922-1.918c-0.697-0.434-1.136-0.787-1.294-1.156
		c-0.157-0.365-0.018-0.704,0.422-0.901c0.434-0.215,1.167-0.207,1.962,0.14c1.561,0.734,2.965,1.667,4.11,2.831
		c1.138,1.156,1.988,2.56,2.304,3.969c0.679,2.829-0.22,5.874-2.126,7.831c-0.921,1.033-2.78,2.01-4.014,2.091
		c-1.242,0.09-1.654-0.17-0.412-0.768c1.22-0.694,1.812-1.525,2.331-2.37c0.503-0.862,0.969-1.798,1.355-3.237
		c0.406-1.446,0.233-3.183-0.371-4.466c-0.29-0.637-0.638-1.149-0.898-1.504C185.943,157.915,185.777,157.713,185.777,157.713z"/>
	<path d="M185.907,166.344c0.899-2.51,1.753-3.718,2.545-3.783c0.743-0.09,1.237,0.817,0.7,1.979
		c-0.539,1.154-0.953,2.388-1.536,3.553c-0.562,1.159-1.377,2.27-2.34,2.948c-0.956,0.684-2.109,1.208-3.383,1.317
		c-1.239,0.139-2.695-0.277-3.61-1.116c-0.477-0.406-0.952-1.041-1.208-1.747c-0.266-0.702-0.29-1.457-0.13-1.971
		c0.156-0.52,0.43-0.782,0.578-0.794c0.177-0.008,0.206,0.21,0.284,0.693c0.229,0.979,0.898,1.442,1.51,1.744
		c0.32,0.147,0.655,0.254,1.01,0.321c0.347,0.063,0.711,0.088,1.242,0.029c1.021-0.083,2.284-0.787,3.08-1.589
		C185.446,167.144,185.907,166.344,185.907,166.344z"/>
	<path d="M181.653,159.584c0.342-0.704,0.896-1.025,1.323-1.066c0.442-0.038,0.774,0.184,0.975,0.458
		c0.385,0.58,0.49,1.32,0.167,1.38c-0.369,0.086-0.591,0.435-0.674,0.786c-0.099,0.349-0.085,0.694-0.158,0.96
		c-0.152,0.546-0.195,1.074-0.34,1.685c-0.095,0.311-0.247,0.861-0.35,1.358c-0.105,0.479-0.25,0.898-0.707,0.505
		c-0.829-0.797-1.603-1.25-1.634-2.833c0.019-0.785,0.314-1.659,0.67-2.264C181.286,159.944,181.653,159.584,181.653,159.584z"/>
	<path d="M181.068,160.012c0.085-1.446,2.874,0.095,2.366,0.456s-0.242,1.118-0.443,1.512c-0.2,0.395-0.4,0.789-0.859,1.053
		c-0.458,0.264-1.893,0.528-1.9-0.096c-0.008-0.624-0.424-1.084-0.123-1.675C180.408,160.671,181.068,160.012,181.068,160.012z"/>
	<path d="M179.324,158.643c0.542-0.44,1.136-0.452,1.484-0.272c0.362,0.189,0.508,0.548,0.529,0.885
		c0.005,0.693-0.217,1.392-0.405,1.275c-0.249-0.119-0.505,0.049-0.645,0.274c-0.153,0.218-0.216,0.473-0.337,0.621
		c-0.254,0.308-0.426,0.621-0.757,0.96c-0.187,0.166-0.528,0.496-0.8,0.869c-0.268,0.352-0.536,0.699-0.829,0.259
		c-0.504-0.857-1.072-1.527-0.553-2.831c0.286-0.632,0.843-1.221,1.357-1.563C178.886,158.775,179.324,158.643,179.324,158.643z"/>
	<path d="M183.94,167.226c0.396-1.136,0.575-1.938,0.813-2.541c0.229-0.598,0.488-1.006,0.811-1.208
		c0.602-0.45,1.55,0.227,1.329,1.658c-0.258,1.356-0.631,2.639-1.224,3.807c-0.587,1.159-1.415,2.182-2.394,2.805
		c-1.95,1.276-4.462,1.537-6.501,0.717c-1.047-0.373-2.335-1.459-2.766-2.358c-0.445-0.905-0.339-1.327,0.522-0.696
		c0.915,0.587,1.702,0.688,2.463,0.747c0.769,0.042,1.554,0.046,2.666-0.095c1.122-0.13,2.297-0.68,3.087-1.408
		C183.537,167.938,183.94,167.226,183.94,167.226z"/>
	<path d="M185.631,167.348c0.28-1.232,0.388-2.099,0.573-2.753c0.178-0.647,0.408-1.086,0.715-1.312
		c0.573-0.491,1.555,0.135,1.455,1.592c-0.139,1.392-0.375,2.732-0.826,3.983c-0.447,1.242-1.126,2.383-1.994,3.163
		c-1.722,1.584-4.11,2.373-6.326,2.063c-1.123-0.117-2.668-0.841-3.355-1.592c-0.701-0.753-0.741-1.198,0.306-0.815
		c1.085,0.331,1.903,0.24,2.695,0.112c0.796-0.142,1.602-0.323,2.727-0.714c1.136-0.385,2.27-1.185,2.982-2.067
		C185.301,168.139,185.631,167.348,185.631,167.348z"/>
	<path d="M212.115,148.657c-2.776-4.324-5.403-7.098-7.093-9.137c-1.72-2.019-2.627-3.24-2.804-3.871
		c-0.394-1.237,2.162-0.083,5.221,3.248c2.994,3.361,5.895,6.879,7.902,10.784c2.061,3.853,3.113,8.12,2.9,11.916
		c-0.183,3.713-0.937,7.264-1.943,10.755c-1.033,3.478-2.397,6.862-4.189,10.023c-0.926,1.563-2.127,3.498-3.601,5.198
		c-1.451,1.708-3.049,3.253-4.46,4.198c-1.356,1.009-2.485,1.421-2.694,1.439c-0.257-0.046,0.359-0.512,1.958-1.948
		c3.134-2.981,4.594-5.737,6.049-8.607c1.385-2.926,2.75-6.113,4.187-11.086c1.393-4.984,2.566-11.023,1.467-15.465
		c-0.458-2.252-1.231-4.123-1.85-5.414c-0.306-0.649-0.553-1.165-0.756-1.503C212.219,148.843,212.115,148.657,212.115,148.657z"/>
	<path d="M135.527,166.17c0.055-3.54,0.827-6.069,1.558-7.688c0.746-1.628,1.473-2.38,1.918-2.568
		c0.925-0.341,0.824,1.423-0.09,3.952c-0.889,2.577-1.186,5.341-1.071,7.918c0.113,2.585,0.615,4.974,1.167,7.047
		c1.094,4.161,3.192,8.006,5.851,11.448c1.298,1.75,3.562,4.18,5.157,5.602c1.582,1.413,2.193,2.186-0.356,0.807
		c-2.494-1.46-4.157-2.679-5.813-4.141c-1.631-1.478-3.292-3.235-5.015-6.359c-1.743-3.12-2.915-7.188-3.23-10.423
		c-0.172-1.618-0.179-3.022-0.159-4.014C135.496,166.758,135.527,166.17,135.527,166.17z"/>
	<path d="M132.764,183.951c-0.759-2.047-0.76-3.708-0.573-4.793c0.222-1.095,0.645-1.649,0.986-1.817
		c0.744-0.31,1.286,0.724,1.19,2.244c-0.101,1.565,0.301,3.142,0.939,4.492c0.605,1.369,1.413,2.531,2.128,3.542
		c1.428,2.039,3.244,3.775,5.308,5.209c0.995,0.787,2.678,1.746,3.834,2.334c1.148,0.57,1.677,1.03-0.085,0.867
		c-1.749-0.199-2.998-0.465-4.29-0.903c-1.288-0.448-2.635-1.11-4.28-2.564c-1.641-1.462-3.128-3.576-3.982-5.38
		c-0.394-0.919-0.739-1.705-0.892-2.301C132.87,184.298,132.764,183.951,132.764,183.951z"/>
	<path d="M216.371,177.394c3.631-8.147,3.848-12.284,4.795-13.177c0.394-0.455,0.712-0.116,0.859,0.859
		c0.131,0.965,0.202,2.593-0.373,4.498c-1.967,7.66-5.928,14.633-10.006,19.374c-4.073,4.748-8.78,8.931-14.034,12.246
		c-2.581,1.732-6.777,3.783-9.485,4.798c-2.733,0.986-3.882,1.165-0.572-0.683c3.285-1.902,5.428-3.486,7.66-5.23
		c2.245-1.728,4.564-3.649,7.952-6.604c3.372-2.976,6.994-6.795,9.399-10.123c1.165-1.68,2.224-3.115,2.805-4.226
		C215.998,178.04,216.371,177.394,216.371,177.394z"/>
	<path d="M145.895,137.923c-2.257,4.373-2.642,6.627-3.318,7.072c-0.291,0.228-0.506,0.02-0.583-0.538
		c-0.06-0.551-0.065-1.475,0.349-2.518c0.719-2.106,1.653-4.125,2.802-5.895c1.111-1.793,2.415-3.349,3.766-4.515
		c2.676-2.34,5.889-4.161,9.394-4.862c1.73-0.451,4.43-0.44,6.027-0.106c1.609,0.35,2.169,0.641,0.083,0.623
		c-2.091,0.028-3.524,0.401-4.992,0.865c-1.469,0.478-2.99,1.087-5.156,2.217c-2.166,1.146-4.437,2.937-5.972,4.591
		c-0.729,0.857-1.386,1.583-1.758,2.168C146.135,137.589,145.895,137.923,145.895,137.923z"/>
	<path d="M309.05,132.473c-3.144-0.95-6.244-1.177-9.093-1.028c-2.853,0.156-5.493,0.658-7.824,1.452
		c-4.719,1.47-8.251,3.768-10.911,5.854c-1.349,1.043-2.415,2.117-3.401,3.046c-0.864,1.015-1.754,1.827-2.34,2.645
		c-1.317,1.551-2.09,2.684-2.7,3.229c-1.19,1.113-1.447-0.039-0.53-3.036c0.95-2.937,3.817-7.471,9.055-11.14
		c2.633-1.78,5.46-3.232,8.415-4.335c2.973-1.053,6.068-1.713,9.192-1.985c6.243-0.504,12.675,0.929,17.892,4.13
		c10.533,6.371,16.251,17.983,16.15,28.391c0.065,2.611-0.404,5.22-1.023,7.769c-0.758,2.513-1.728,4.981-3.11,7.197
		c-1.283,2.283-2.988,4.267-4.752,6.157c-1.869,1.783-3.838,3.475-6.047,4.805c-2.151,1.423-4.524,2.459-6.923,3.383
		c-2.453,0.776-4.955,1.455-7.541,1.651c-2.568,0.313-5.181,0.142-7.743-0.214c-2.539-0.508-5.075-1.18-7.372-2.362
		c-4.689-2.142-9.655-6.477-12.807-11.777c-3.296-5.233-4.645-11.314-4.614-15.853c0.025-2.288,0.35-4.192,0.667-5.566
		c0.416-1.363,0.733-2.212,0.918-2.43c0.187-0.218,0.244,0.194,0.144,1.358c-0.041,0.582-0.185,1.345-0.171,2.339
		c-0.018,0.492-0.037,1.038-0.058,1.64c0.012,0.601,0.072,1.26,0.103,1.974c0.241,2.846,0.807,5.458,1.746,7.768
		c0.376,1.185,0.996,2.236,1.472,3.304c0.601,1.007,1.132,2.021,1.79,2.924c2.556,3.661,5.611,6.492,9.159,8.625
		c3.583,2.073,7.692,3.372,12.487,3.481c2.402-0.023,4.953-0.324,7.642-1.035c2.674-0.763,5.461-1.954,8.222-3.713
		c5.528-3.475,10.309-9.305,11.855-15.984c1.641-6.681,0.12-13.798-2.692-19.136c-2.853-5.395-6.87-9.014-9.983-10.967
		c-1.574-0.96-2.886-1.643-3.833-1.982C309.558,132.679,309.05,132.473,309.05,132.473z"/>
	<path d="M293.19,158.446c0.715,1.424,0.904,2.174,0.632,2.867c-0.228,0.649-1.182,0.821-1.724-0.116
		c-0.481-0.906-0.911-1.786-1.187-2.72c-0.274-0.924-0.369-1.904-0.161-2.745c0.396-1.692,1.568-3.159,3.082-3.791
		c0.752-0.349,2.01-0.43,2.711-0.148c0.715,0.274,0.874,0.618,0.151,0.812c-0.729,0.241-1.13,0.645-1.491,1.041
		c-0.359,0.404-0.696,0.817-1.152,1.413c-0.464,0.598-0.792,1.39-0.873,2.117C293.093,157.893,293.19,158.446,293.19,158.446z"/>
	<path d="M303.431,156.878l-0.088-0.243l-0.126-0.196c-0.072-0.192-0.709-0.386-0.821-0.696c-0.181-0.297-0.168-0.641,0.008-0.919
		c0.13-0.147,0.122-0.241,0.476-0.37c0.306-0.119,0.697-0.218,1.096-0.262c0.387-0.041,0.767-0.081,1.143-0.121
		c0.073,0.398,0.146,0.792,0.218,1.187l0.214,1.165c0.087,0.432,0.086,0.543,0.136,0.826c0.142,0.967,0.208,1.917,0.075,2.74
		c-0.272,1.633-0.846,3.252-1.907,4.534c-0.522,0.65-1.526,1.423-2.267,1.706c-0.752,0.287-1.152,0.207-0.639-0.526
		c0.952-1.543,0.866-2.393,1.598-4.228c0.34-0.939,0.635-2.076,0.756-2.996C303.432,157.561,303.431,156.878,303.431,156.878z"/>
	<path d="M296.229,163.595c-0.578-0.5-0.755-1.092-0.704-1.506c0.057-0.427,0.328-0.696,0.623-0.83
		c0.616-0.246,1.327-0.171,1.33,0.183c0.059,0.849,1.082,1.089,1.539,1.348c0.505,0.311,1.032,0.512,1.604,0.823
		c0.284,0.178,0.78,0.473,1.215,0.715c0.42,0.238,0.751,0.5,0.233,0.79c-1.019,0.507-1.653,1.074-3.146,0.655
		c-0.733-0.238-1.478-0.75-1.96-1.243C296.481,164.03,296.229,163.595,296.229,163.595z"/>
	<path d="M290.079,157.784c0.275-1.646,1.16-2.67,1.878-3.108c0.739-0.455,1.31-0.391,1.594-0.197
		c0.549,0.448,0.362,1.278-0.313,1.822c-0.719,0.619-1.072,1.627-1.084,2.529c-0.02,0.919,0.255,1.705,0.53,2.311
		c0.533,1.23,1.778,2.094,3.247,2.578c0.725,0.272,1.962,0.484,2.864,0.414c0.869-0.067,1.48-0.033,0.403,0.725
		c-1.12,0.662-2.06,0.942-3.09,1.055c-1.022,0.085-2.236,0-3.695-0.968c-0.719-0.491-1.4-1.204-1.86-2.037
		c-0.466-0.828-0.693-1.728-0.761-2.505c-0.063-0.782,0.026-1.442,0.108-1.9C290.012,158.052,290.079,157.784,290.079,157.784z"/>
	<path d="M296.46,155.411c0.249-2.668,3.076-1.565,2.49-0.601c-0.586,0.962-0.384,2.169-0.641,3.004
		c-0.259,0.836-0.517,1.671-1.038,2.425c-0.521,0.755-2.089,2.099-2.029,0.975c0.06-1.126-0.337-1.706,0.051-2.96
		C295.679,157,296.46,155.411,296.46,155.411z"/>
	<path d="M297.4,157.264c-0.457-2.028,2.557-1.723,2.244-0.901c-0.313,0.823,0.198,1.682,0.168,2.349
		c-0.031,0.668-0.062,1.335-0.367,1.99c-0.306,0.655-1.467,1.939-1.703,1.092c-0.236-0.846-0.771-1.206-0.725-2.207
		C297.064,158.586,297.4,157.264,297.4,157.264z"/>
	<path d="M301.326,155.481c-1.785,0.5-1.649-2.523-0.824-2.225c0.301,0.111,0.579,0.106,0.898,0.06
		c0.542-0.06,1.112-0.122,1.626-0.179c0.181,0.272,0.355,0.566,0.493,0.864c0.327,0.709,0.397,0.859,0.51,1.188
		c0.103,0.305,0.175,0.624,0.184,0.973c0.019,0.696-0.444,2.321-1.029,1.71c-0.585-0.613-1.219-0.673-1.622-1.545l-0.145-0.344
		l-0.082-0.249l0.052-0.114L301.326,155.481z"/>
	<path d="M302.383,155.094c-0.83-0.743-1.467-1.172-1.91-1.581c-0.442-0.406-0.714-0.768-0.787-1.12
		c-0.207-0.68,0.719-1.318,1.913-0.623c1.121,0.686,2.119,1.482,2.921,2.441c0.805,0.945,1.367,2.099,1.493,3.206
		c0.259,2.192-0.547,4.436-2.165,5.815c-0.218,0.186-0.405,0.315-0.749,0.535c-0.382,0.228-0.772,0.422-1.138,0.567l-0.266,0.104
		l-0.245-0.199c-0.157-0.153-0.302-0.292-0.433-0.439c-0.275-0.297-0.453-0.528-0.554-0.706c-0.48-0.764-0.552-1.237,0.433-0.706
		l0.34,0.176l0.191,0.062l0.281-0.023l0.156-0.279c0.027-0.075,0.025-0.143,0.157-0.316c0.359-0.611,0.693-1.247,1.036-2.238
		c0.358-0.999,0.398-2.226,0.087-3.146C302.859,155.692,302.383,155.094,302.383,155.094z"/>
	<path d="M305.413,159.932c0.347-2.261,0.533-3.32,1.164-3.765c0.561-0.44,1.459,0.135,1.368,1.447
		c-0.212,2.464-0.746,5.035-2.199,6.633c-1.395,1.568-3.384,2.591-5.413,2.678c-1.02,0.075-2.52-0.29-3.286-0.82
		c-0.777-0.53-0.917-0.929,0.106-0.82c1.042,0.06,1.758-0.179,2.454-0.44c0.697-0.272,1.396-0.575,2.375-1.09
		c0.988-0.512,1.957-1.367,2.555-2.231C305.139,160.672,305.413,159.932,305.413,159.932z"/>
	<path d="M291.876,166.404c-0.835-1.33-0.876-2.59-0.664-3.353c0.215-0.786,0.649-1.118,0.988-1.177
		c0.701-0.067,1.175,0.623,1.061,1.447c-0.095,0.9,0.294,1.822,0.849,2.474c0.559,0.667,1.239,1.071,1.806,1.371
		c1.136,0.613,2.554,0.613,3.977,0.266c0.719-0.148,1.83-0.577,2.554-1.045c0.702-0.45,1.234-0.686,0.707,0.432
		c-0.596,1.066-1.194,1.762-1.953,2.378c-0.764,0.593-1.759,1.147-3.398,1.178c-1.65,0.067-3.559-0.835-4.537-1.92
		c-0.512-0.526-0.852-1.053-1.072-1.431C291.994,166.636,291.876,166.404,291.876,166.404z"/>
	<path d="M289.525,156.298c0.948-1.917,2.381-2.862,3.402-3.185c1.049-0.334,1.707-0.124,1.965,0.13
		c0.484,0.577-0.179,1.33-1.301,1.847c-1.182,0.59-2.048,1.77-2.442,2.965c-0.409,1.209-0.385,2.386-0.218,3.333
		c0.302,1.913,1.807,3.524,3.706,4.505c0.931,0.535,2.565,1.025,3.741,1.041c1.138,0.013,1.846,0.112,0.278,0.782
		c-1.603,0.533-2.866,0.579-4.176,0.401c-1.293-0.214-2.767-0.681-4.302-2.295c-0.751-0.812-1.388-1.892-1.704-3.054
		c-0.325-1.16-0.324-2.342-0.16-3.325c0.173-0.984,0.499-1.773,0.751-2.314C289.341,156.598,289.525,156.298,289.525,156.298z"/>
	<path d="M292.194,153.066c0.747-1.556,1.914-1.514,2.359-1.067c0.488,0.456,0.641,1.178,0.222,1.389
		c-0.927,0.502-0.954,1.714-1.147,2.389c-0.226,0.727-0.323,1.455-0.511,2.247c-0.116,0.391-0.314,1.05-0.473,1.578
		c-0.165,0.508-0.39,0.87-0.76,0.323c-0.667-1.094-1.332-1.643-1.227-3.339c0.082-0.841,0.419-1.776,0.794-2.44
		C291.828,153.48,292.194,153.066,292.194,153.066z"/>
	<path d="M298.175,158.615c-0.218-0.834,0.562-1.05,1.173-0.849c0.628,0.186,1.236,0.515,1.076,0.596
		c-0.346,0.264,0.215,0.618,0.258,0.784c0.047,0.217,0.107,0.393-0.004,0.733c-0.067,0.176-0.208,0.546-0.341,0.896
		c-0.134,0.35-0.278,0.691-0.579,0.588c-0.571-0.209-1.221-0.152-1.55-0.91c-0.152-0.378-0.189-0.857-0.155-1.222
		C298.09,158.867,298.175,158.615,298.175,158.615z"/>
	<path d="M306.752,157.783c-0.241-1.112-0.484-1.855-0.579-2.461c-0.1-0.6-0.078-1.056,0.091-1.375
		c0.286-0.652,1.376-0.551,1.876,0.709c0.438,1.217,0.764,2.428,0.865,3.654c0.101,1.214-0.044,2.438-0.5,3.423
		c-0.892,1.985-2.696,3.493-4.712,3.944c-1.009,0.266-2.582,0.122-3.405-0.331c-0.834-0.45-0.991-0.835,0.019-0.826
		c1.027-0.054,1.691-0.401,2.315-0.768c0.621-0.381,1.235-0.799,2.039-1.498c0.817-0.694,1.473-1.741,1.741-2.723
		C306.777,158.557,306.752,157.783,306.752,157.783z"/>
	<path d="M305.911,153.913c-1.182-0.926-2.115-1.4-2.776-1.82c-0.663-0.412-1.079-0.748-1.229-1.098
		c-0.359-0.66,0.693-1.392,2.265-0.722c1.482,0.696,2.817,1.582,3.904,2.689c1.081,1.097,1.888,2.432,2.189,3.77
		c0.645,2.688-0.21,5.579-2.02,7.44c-0.875,0.981-2.641,1.909-3.813,1.985c-1.18,0.085-1.571-0.16-0.391-0.73
		c1.159-0.658,1.721-1.447,2.214-2.251c0.478-0.818,0.921-1.706,1.287-3.074c0.386-1.374,0.222-3.023-0.352-4.242
		c-0.275-0.606-0.606-1.092-0.852-1.429C306.068,154.106,305.911,153.913,305.911,153.913z"/>
	<path d="M306.034,162.115c0.854-2.384,1.666-3.532,2.419-3.594c0.706-0.086,1.174,0.776,0.665,1.879
		c-0.513,1.097-0.905,2.269-1.46,3.375c-0.534,1.102-1.308,2.158-2.223,2.8c-0.909,0.652-2.004,1.149-3.213,1.253
		c-1.178,0.13-2.56-0.264-3.431-1.061c-0.453-0.386-0.903-0.989-1.146-1.661c-0.254-0.667-0.276-1.384-0.123-1.871
		c0.148-0.494,0.408-0.743,0.549-0.755c0.168-0.007,0.195,0.199,0.269,0.658c0.218,0.931,0.853,1.369,1.434,1.656
		c0.305,0.139,0.623,0.241,0.96,0.305c0.33,0.06,0.676,0.085,1.18,0.028c0.97-0.078,2.17-0.746,2.926-1.509
		C305.595,162.874,306.034,162.115,306.034,162.115z"/>
	<path d="M301.992,155.693c0.325-0.67,0.852-0.976,1.257-1.014c0.42-0.036,0.734,0.174,0.927,0.435
		c0.365,0.551,0.465,1.253,0.158,1.312c-0.751,0.21-0.686,1.204-0.791,1.658c-0.144,0.518-0.185,1.02-0.323,1.602
		c-0.09,0.295-0.234,0.817-0.332,1.289c-0.1,0.455-0.237,0.854-0.672,0.479c-0.787-0.758-1.523-1.187-1.552-2.691
		c0.018-0.746,0.298-1.576,0.637-2.151C301.644,156.034,301.992,155.693,301.992,155.693z"/>
	<path d="M301.437,156.099c0.081-1.374,2.731,0.09,2.247,0.433c-0.483,0.344-0.231,1.063-0.421,1.438
		c-0.19,0.375-0.38,0.75-0.816,0.999c-0.436,0.251-1.798,0.502-1.805-0.09c-0.008-0.593-0.403-1.03-0.117-1.592
		C300.81,156.725,301.437,156.099,301.437,156.099z"/>
	<path d="M299.779,154.798c0.514-0.417,1.08-0.429,1.411-0.257c0.344,0.179,0.482,0.518,0.502,0.839
		c0.005,0.659-0.205,1.323-0.385,1.211c-0.236-0.112-0.479,0.047-0.613,0.261c-0.145,0.209-0.204,0.45-0.319,0.59
		c-0.241,0.293-0.405,0.59-0.72,0.911c-0.177,0.158-0.5,0.471-0.759,0.826c-0.256,0.334-0.51,0.663-0.788,0.245
		c-0.479-0.813-1.018-1.449-0.526-2.688c0.272-0.601,0.8-1.16,1.289-1.485C299.364,154.924,299.779,154.798,299.779,154.798z"/>
	<path d="M304.166,162.952c0.375-1.079,0.546-1.842,0.772-2.414c0.218-0.569,0.465-0.955,0.77-1.147
		c0.572-0.427,1.473,0.215,1.263,1.574c-0.244,1.288-0.599,2.507-1.162,3.617c-0.558,1.1-1.345,2.073-2.274,2.665
		c-1.852,1.213-4.238,1.46-6.176,0.681c-0.994-0.354-2.218-1.385-2.627-2.241c-0.423-0.859-0.322-1.258,0.495-0.662
		c0.869,0.559,1.617,0.655,2.34,0.711c0.73,0.041,1.477,0.042,2.533-0.091c1.065-0.124,2.182-0.645,2.932-1.337
		C303.783,163.629,304.166,162.952,304.166,162.952z"/>
	<path d="M305.771,163.068c0.266-1.172,0.368-1.995,0.544-2.614c0.17-0.616,0.388-1.032,0.68-1.247
		c0.544-0.466,1.477,0.129,1.383,1.512c-0.229,2.585-0.981,5.259-2.679,6.788c-1.635,1.506-3.904,2.256-6.01,1.961
		c-1.066-0.111-2.534-0.797-3.186-1.512c-0.666-0.715-0.704-1.138,0.292-0.774c1.03,0.315,1.807,0.228,2.56,0.108
		c0.755-0.135,1.521-0.308,2.591-0.68c1.079-0.363,2.155-1.125,2.833-1.962C305.458,163.82,305.771,163.068,305.771,163.068z"/>
	<path d="M335.269,144.485c-1.901-4.226-3.866-6.974-5.213-8.894c-1.367-1.913-2.167-3.004-2.304-3.594
		c-0.358-1.144,2.08-0.153,4.608,3.154c4.928,6.571,7.828,14.644,7.763,21.342c0.037,6.659-2.085,13.291-5.926,18.642
		c-1.859,2.735-5.492,6.131-8.134,7.632c-2.643,1.506-3.762,1.837-0.66-0.533c3.01-2.51,4.656-4.748,6.217-7.179
		c1.522-2.458,3.009-5.181,4.398-9.547c0.678-2.187,1.167-4.63,1.341-7.055c0.183-2.423,0.052-4.824-0.249-6.912
		c-0.313-2.088-0.793-3.854-1.168-5.098C335.519,145.214,335.269,144.485,335.269,144.485z"/>
	<path d="M260.791,161.275c0.052-3.364,0.786-5.766,1.48-7.303c0.708-1.547,1.399-2.261,1.822-2.44
		c0.879-0.324,0.782,1.351-0.086,3.755c-1.741,4.951-0.993,10.344,0.091,14.215c1.04,3.952,3.032,7.605,5.559,10.876
		c1.232,1.662,3.383,3.97,4.898,5.321c1.503,1.341,2.084,2.076-0.338,0.766c-2.369-1.387-3.949-2.546-5.522-3.933
		c-1.55-1.405-3.128-3.074-4.764-6.043c-1.657-2.961-2.771-6.827-3.069-9.901c-0.163-1.537-0.17-2.87-0.152-3.812
		C260.762,161.834,260.791,161.275,260.791,161.275z"/>
	<path d="M277.215,197.679c0.44,0.186,0.864,0.367,1.273,0.539c0.424,0.142,0.831,0.277,1.225,0.409
		c0.788,0.259,1.499,0.546,2.176,0.758c1.37,0.372,2.493,0.764,3.425,1.069c1.883,0.53,2.917,1.032,3.278,1.424
		c0.738,0.764-1.341,1.188-4.617,0.367c-3.253-0.867-6.43-1.985-9.374-3.31c-2.881-1.442-5.505-3.105-7.518-4.966
		c-4.035-3.703-7.118-8.32-9.25-13.208c-2.249-4.898-4.756-15.147-2.189-9.112c1.324,2.994,2.41,5.017,3.626,7.122
		c1.195,2.119,2.526,4.329,4.693,7.463c2.173,3.136,5.252,6.355,8.095,8.363c0.349,0.257,0.686,0.508,1.01,0.748
		c0.345,0.207,0.672,0.407,0.984,0.595c0.623,0.378,1.173,0.711,1.632,0.988C276.645,197.4,277.215,197.679,277.215,197.679z"/>
	<path d="M339.987,171.051c0.577-3.83,1.138-5.551,1.857-5.946c0.667-0.398,1.333,0.668,0.998,2.381
		c-0.655,3.37-1.081,6.832-2.147,9.424c-1.043,2.569-2.375,5.049-4.198,7.147c-1.768,2.233-6.352,5.222-4.242,2.631
		c1.015-1.299,1.563-2.331,2.14-3.413c0.574-1.085,1.172-2.228,2.107-3.911c0.931-1.689,1.878-3.736,2.505-5.4
		C339.629,172.299,339.987,171.051,339.987,171.051z"/>
	<path d="M270.641,134.442c-2.145,4.153-2.511,6.294-3.152,6.718c-0.276,0.217-0.481,0.018-0.553-0.512
		c-0.058-0.523-0.062-1.4,0.332-2.391c0.682-2,1.57-3.92,2.661-5.602c1.056-1.701,2.295-3.18,3.577-4.288
		c2.543-2.223,5.595-3.952,8.925-4.619c1.643-0.429,4.208-0.417,5.725-0.099c1.529,0.332,2.06,0.608,0.08,0.592
		c-1.987,0.026-3.348,0.38-4.743,0.821c-1.396,0.453-2.841,1.032-4.898,2.106c-2.058,1.089-4.215,2.79-5.673,4.361
		c-0.692,0.815-1.316,1.503-1.67,2.06C270.868,134.124,270.641,134.442,270.641,134.442z"/>
	<path d="M118.059,216.268c0.115-2.293,1.532-3.589,2.57-3.983c1.095-0.419,1.772-0.086,1.955,0.174
		c0.201,0.275,0.041,0.595-0.204,0.83c-0.253,0.262-0.586,0.466-1.062,0.755c-1.004,0.575-1.492,1.995-1.232,2.979
		c0.228,0.991,1.092,1.587,1.898,1.902c0.825,0.333,1.815,0.342,2.612,0.041c0.785-0.285,1.455-0.926,1.9-1.798
		c0.493-0.844,0.773-2.485,0.539-3.597c-0.088-0.549-0.217-0.96-0.148-1.098c0.044-0.127,0.353-0.005,0.789,0.711
		c0.79,1.462,0.981,2.722,0.835,4.045c-0.088,0.663-0.286,1.364-0.729,2.083c-0.438,0.698-1.153,1.47-2.256,1.915
		c-2.185,0.94-5.052,0.205-6.431-1.503c-0.698-0.823-0.981-1.785-1.042-2.43c-0.031-0.326-0.033-0.583-0.014-0.758
		C118.053,216.363,118.059,216.268,118.059,216.268z"/>
	<path d="M303.408,198.28c-4.743-0.007-6.746-1.281-7.047-1.969c-0.305-0.748,0.936-1.133,2.727-0.698
		c3.643,0.89,7.422,0.339,10.322,0.013c2.936-0.311,5.819-0.922,8.707-1.635c2.893-0.551,8.795-2.542,5.523-0.525
		c-1.668,0.986-2.854,1.689-4.175,2.352c-1.323,0.657-2.794,1.268-5.101,1.794c-2.31,0.523-5.067,0.79-7.229,0.808
		C304.971,198.433,303.408,198.28,303.408,198.28z"/>
	<path d="M159.814,198.574c-4.559-2.512-5.95-4.531-6-5.36c-0.023-0.87,1.426-0.701,3.045,0.628
		c3.233,2.657,7.13,4.371,10.079,5.256c3.075,0.962,6.318,1.54,9.532,1.913c1.612,0.204,4.046,0.352,5.627,0.204
		c1.548-0.178,2.404-0.148,0.366,0.8c-2.079,0.769-3.622,1.063-5.269,1.283c-1.65,0.189-3.437,0.235-6.027-0.207
		c-2.587-0.44-5.542-1.289-7.78-2.427C161.233,199.564,159.814,198.574,159.814,198.574z"/>
	<path d="M222.437,232.487c0.221-3.737,1.971-3.163,1.58-1.651c-0.392,1.512-0.293,3.098-0.476,4.328
		c-0.183,1.23-0.365,2.459-0.711,3.665c-0.346,1.205-1.364,3.567-1.299,2.006c0.064-1.561-0.171-2.225,0.103-4.069
		S222.437,232.487,222.437,232.487z"/>
	<path d="M235.857,230.003c-2.04-5.212-0.17-5.33,0.393-3.066c0.562,2.266,1.596,4.378,2.171,6.149
		c0.575,1.771,1.151,3.542,1.57,5.365c0.419,1.822,0.94,5.567,0.065,3.406c-0.877-2.163-1.478-2.947-2.341-5.603
		C236.851,233.596,235.857,230.003,235.857,230.003z"/>
	<path d="M248.201,235.541c-2.422-3.155-0.717-3.859,0.038-2.381c0.755,1.478,1.926,2.688,2.641,3.8
		c0.715,1.111,1.431,2.222,2.006,3.423c0.577,1.2,1.451,3.78,0.419,2.481c-1.033-1.299-1.668-1.677-2.74-3.344
		C249.493,237.853,248.201,235.541,248.201,235.541z"/>
	<path d="M358.487,219.007c-0.427-2.039,0.373-3.509,1.069-4.198c0.725-0.722,1.373-0.784,1.672-0.66
		c0.31,0.129,0.372,0.466,0.292,0.799c-0.077,0.352-0.282,0.717-0.606,1.165c-0.676,0.906-0.74,2.231-0.294,3.115
		c0.43,0.918,1.22,1.32,2,1.54c0.777,0.22,1.647,0.142,2.286-0.199c0.648-0.344,1.069-0.898,1.235-1.742
		c0.212-0.815-0.033-2.295-0.724-3.061c-0.313-0.393-0.646-0.629-0.673-0.782c-0.045-0.119,0.275-0.244,1.018,0.116
		c1.407,0.833,2.025,1.964,2.314,3.203c0.124,0.632,0.145,1.346-0.109,2.146c-0.248,0.794-0.848,1.68-1.834,2.234
		c-1.998,1.18-4.724,0.662-6.164-0.729C358.482,220.501,358.528,218.956,358.487,219.007z"/>
	<path d="M168.014,115.905c-0.016-2.443,0.859-3.96,1.438-4.888c0.629-0.929,1.163-1.322,1.523-1.39
		c0.737-0.129,0.759,1.1-0.035,2.59c-0.79,1.49-1.156,3.165-0.873,4.547c0.271,1.333,1.21,2.427,2.055,2.922
		c0.85,0.531,1.785,0.468,2.588-0.112c0.806-0.595,1.423-1.684,1.645-2.816c0.285-1.18,0.084-3.242-0.103-4.593
		c-0.163-1.345-0.069-1.967,0.67-0.334c0.717,1.646,1.232,2.886,1.402,4.387c0.085,0.735,0.051,1.601-0.23,2.5
		c-0.295,0.89-0.785,1.907-1.876,2.78c-1.069,0.892-2.831,1.292-4.279,0.766c-1.451-0.494-2.422-1.556-3.008-2.544
		c-0.603-1.002-0.832-1.998-0.899-2.714C167.965,116.293,168.014,115.905,168.014,115.905z"/>
	<path d="M98.574,262.845c-0.55-2.268,0.118-3.979,0.753-4.89c0.658-0.943,1.315-1.202,1.658-1.173
		c0.709,0.125,0.469,1.112-0.152,2.331c-0.656,1.282-0.629,2.878-0.08,4.056c0.531,1.212,1.508,1.916,2.468,2.362
		c1.967,0.905,4.296,0.473,5.415-1.385c0.64-0.876,1.072-2.656,0.755-3.85c-0.121-0.59-0.32-1.018-0.266-1.17
		c0.02-0.131,0.383-0.03,0.894,0.757c0.902,1.63,0.95,3.081,0.633,4.493c-0.181,0.711-0.491,1.442-1.073,2.155
		c-0.578,0.708-1.486,1.398-2.688,1.705c-2.446,0.7-5.306-0.389-6.741-2.057c-0.741-0.829-1.13-1.708-1.329-2.327
		C98.62,263.228,98.574,262.845,98.574,262.845z"/>
	<path d="M184.435,147.616c-0.863,2.5-0.08,3.37-0.189,3.938c-0.033,0.267-0.238,0.38-0.612,0.23
		c-0.352-0.148-0.839-0.662-0.965-1.428c-0.236-1.509,0.18-2.868,0.794-4.037c0.681-1.204,1.571-1.992,2.355-2.637
		c1.588-1.263,3.113-2.264,3.783-3.837c0.395-0.768,0.65-2.091,0.294-2.935c-0.15-0.419-0.36-0.704-0.341-0.823
		c-0.007-0.094,0.281-0.078,0.753,0.456c0.856,1.151,0.885,2.257,0.787,3.284c-0.074,0.523-0.217,1.058-0.494,1.628
		c-0.275,0.577-0.731,1.177-1.302,1.713c-1.17,1.116-2.645,2.013-3.568,2.859c-0.477,0.427-0.794,0.795-0.996,1.095
		C184.528,147.42,184.435,147.616,184.435,147.616z"/>
	<path d="M185.14,143.781c1.075,1.392-0.785,2.132-0.934,1.406c-0.149-0.725-0.787-1.213-1.037-1.729
		c-0.249-0.517-0.499-1.033-0.585-1.628c-0.086-0.596,0.07-1.946,0.545-1.379c0.475,0.567,0.927,0.668,1.301,1.442
		C184.805,142.669,185.14,143.781,185.14,143.781z"/>
	<path d="M159.103,179.182c-2.119,0.665-3.199,0.248-3.43-0.147c-0.24-0.421,0.246-0.891,1.089-0.905
		c1.725-0.026,3.291-0.854,4.52-1.354c1.251-0.5,2.441-1.118,3.663-1.731c1.231-0.536,3.788-1.959,2.598-0.631
		c-1.244,1.294-1.647,2.042-3.581,3.124c-0.976,0.523-2.189,0.98-3.161,1.252C159.826,179.061,159.103,179.182,159.103,179.182z"/>
	<path d="M162.184,178.352c0.434-1.108,1.211-1.173,1.543-0.919c0.359,0.257,0.497,0.733,0.212,0.926
		c-0.619,0.438-0.603,1.292-0.718,1.799c-0.132,0.538-0.176,1.074-0.277,1.654c-0.18,0.525-0.268,2.06-0.768,1.349
		c-0.466-0.764-0.916-1.126-0.896-2.3c0.029-0.585,0.223-1.245,0.448-1.723C161.956,178.661,162.184,178.352,162.184,178.352z"/>
	<path d="M187.212,182.528c-1.932-5.564,0.123-5.629,0.607-3.221c0.485,2.407,1.494,4.669,2.021,6.557l0.77,2.849
		c0.232,0.976,0.436,2.107,0.132,3.263c-0.123,0.557-0.552,1.304-1.124,1.714c-0.563,0.447-1.282,0.639-1.798,0.553
		c-0.525-0.075-0.766-0.355-0.768-0.448c0.001-0.126,0.2-0.046,0.678-0.091c0.981-0.194,1.433-1.043,1.526-1.659
		c0.105-0.732-0.013-1.514-0.378-2.872C188.098,186.363,187.212,182.528,187.212,182.528z"/>
	<path d="M189,184.51c-0.947,0.445-0.407-2.694-0.09-2.355c0.316,0.341,0.76-0.179,1.048-0.137c0.287,0.042,0.574,0.086,0.819,0.414
		c0.245,0.329,0.649,1.561,0.247,1.794c-0.401,0.233-0.63,0.784-1.061,0.72C189.531,184.883,189,184.51,189,184.51z"/>
	<path d="M291.185,182.235c-1.751,0.993-1.948,1.586-2.455,1.819c-0.219,0.103-0.447,0.037-0.561-0.279
		c-0.116-0.303-0.036-0.864,0.356-1.309c0.76-0.887,1.746-1.369,2.534-1.778c0.823-0.411,1.395-0.79,1.871-1.198
		c0.975-0.808,1.637-1.97,2.054-3.232c0.225-0.627,0.439-1.649,0.48-2.367c0.034-0.701,0.138-1.105,0.517-0.176
		c0.31,0.944,0.437,1.664,0.455,2.445c0.003,0.776-0.113,1.648-0.722,2.767c-0.618,1.113-1.765,2.169-2.841,2.647
		c-0.518,0.24-0.946,0.383-1.235,0.491C291.354,182.171,291.185,182.235,291.185,182.235z"/>
	<path d="M296.414,180.46c-1.244-0.862,0.323-2.086,0.593-1.507c0.271,0.579,0.947,0.797,1.272,1.164
		c0.325,0.367,0.65,0.735,0.839,1.221c0.19,0.486,0.298,1.698-0.242,1.359c-0.541-0.339-0.975-0.284-1.461-0.833
		C296.929,181.312,296.414,180.46,296.414,180.46z"/>
	<path d="M319.867,172.402c2.156,1.173,3.176,1.275,3.509,1.742c0.341,0.386-0.384,0.991-1.645,0.649
		c-2.377-0.768-4.293-2.179-5.611-3.416c-1.277-1.266-2.466-2.45-3.81-3.411c-0.653-0.505-1.732-1.107-2.545-1.322
		c-0.792-0.207-1.24-0.394-0.045-0.543c1.196-0.062,2.054,0.14,2.914,0.427c0.857,0.305,1.72,0.774,2.776,1.685
		c1.068,0.921,2.08,2.099,2.931,2.893C319.192,171.921,319.867,172.402,319.867,172.402z"/>
	<path d="M314.896,164.747c0.054-1.229,0.742-1.587,1.149-1.49c0.433,0.094,0.727,0.504,0.515,0.826
		c-0.446,0.702-0.173,1.574-0.137,2.161c0.031,0.618,0.146,1.209,0.209,1.856c-0.014,0.618,0.243,2.212-0.414,1.563
		c-0.635-0.699-1.152-0.954-1.447-2.137c-0.129-0.593-0.134-1.307-0.064-1.852C314.78,165.128,314.896,164.747,314.896,164.747z"/>
	<path d="M301.004,134.887c0.804-2.604,2.005-3.377,2.46-3.351c0.504,0.038,0.496,0.791-0.077,1.618
		c-1.185,1.708-1.421,3.843-1.618,5.421c-0.215,1.607-0.202,3.229-0.077,4.863c-0.009,1.617,0.774,5.061-0.231,3.139
		c-0.483-0.988-0.813-1.703-1.095-2.502c-0.278-0.797-0.502-1.687-0.545-3.043c-0.04-1.358,0.183-2.934,0.503-4.128
		C300.648,135.71,301.004,134.887,301.004,134.887z"/>
	<path d="M302.339,139.799c-1.721-0.541-0.63-2.207-0.073-1.692c0.557,0.515,1.375,0.556,1.891,0.843
		c0.515,0.285,1.03,0.57,1.459,1.014c0.427,0.443,1.108,1.646,0.376,1.447c-0.732-0.199-1.164-0.026-1.937-0.455
		C303.281,140.528,302.339,139.799,302.339,139.799z"/>
	<path d="M278.682,148.134c-0.602-1.307-0.663-2.402-0.569-3.118c0.101-0.725,0.359-1.097,0.579-1.214
		c0.46-0.217,0.803,0.442,0.781,1.436c-0.018,2.099,1.329,3.892,2.42,4.969c1.011,1.144,2.826,1.869,3.902,3.749
		c0.551,0.909,0.596,2.624-0.073,3.361c-0.298,0.367-0.61,0.463-0.698,0.427c-0.108-0.047,0.009-0.2,0.185-0.614
		c0.282-0.882-0.085-1.594-0.458-2.137c-0.394-0.535-0.971-0.996-2.001-1.757c-1.049-0.715-2.419-1.912-3.084-3.054
		C278.953,149.058,278.682,148.134,278.682,148.134z"/>
	<path d="M283.696,150.814c-1.754,0.818-2.089-1.144-1.277-1.164c0.812-0.021,1.491-0.566,2.105-0.722
		c0.614-0.157,1.228-0.313,1.887-0.295c0.659,0.02,2.064,0.406,1.342,0.776c-0.724,0.372-0.942,0.799-1.863,1.033
		C284.97,150.677,283.696,150.814,283.696,150.814z"/>
	<path d="M27.799,307.097c1.73-2.754,3.371-5.308,4.92-7.671c1.57-2.348,3.227-4.378,4.68-6.302c0.744-0.949,1.457-1.858,2.14-2.729
		c0.72-0.84,1.443-1.614,2.123-2.362c1.367-1.488,2.624-2.814,3.775-3.986c1.125-1.196,2.247-2.146,3.247-2.969
		c0.997-0.826,1.884-1.517,2.663-2.081c1.558-1.129,2.688-1.753,3.426-1.959c1.474-0.411,1.387,0.846,0.017,3.106
		c-1.34,2.294-4.136,5.424-7.569,9.41c-3.623,3.831-6.718,8.111-9.803,12.295c-1.414,2.184-2.819,4.354-4.211,6.503
		c-0.711,1.064-1.357,2.162-1.956,3.279c-0.615,1.107-1.226,2.208-1.833,3.301c-0.605,1.094-1.205,2.18-1.801,3.258
		c-0.588,1.082-1.079,2.207-1.615,3.293c-1.047,2.186-2.076,4.333-3.084,6.436c-0.905,2.148-1.791,4.251-2.655,6.301
		c-0.429,1.025-0.889,2.022-1.286,3.027c-0.38,1.012-0.755,2.01-1.125,2.993C11.767,355.9,7.7,372.303,5.577,389.016
		c-0.243,2.092-0.635,4.44-0.889,6.925c-0.227,2.494-0.466,5.111-0.702,7.712c-0.272,2.608-0.266,5.206-0.433,7.656
		c-0.07,1.227-0.139,2.415-0.203,3.547c-0.048,1.132-0.025,2.204-0.051,3.206c-0.126,8.011-0.658,11.388-1.929,0.684
		c-0.145-1.338-0.344-2.624-0.441-3.873c-0.085-1.251-0.167-2.459-0.247-3.631c-0.152-2.346-0.365-4.553-0.47-6.68
		c-0.05-2.13-0.097-4.176-0.144-6.196c-0.06-2.025-0.116-4.028,0.002-6.058c0.147-4.065,0.253-8.285,0.91-13.065
		c0.461-4.807,1.49-10.155,2.901-16.521c0.845-3.151,1.631-6.462,2.63-9.763c1.092-3.272,2.101-6.626,3.302-9.876
		c1.285-3.218,2.472-6.439,3.785-9.477c1.389-3.004,2.727-5.901,3.98-8.612c2.802-5.278,5.178-9.851,7.182-12.924
		C26.667,308.948,27.799,307.097,27.799,307.097z"/>
	<path d="M459.666,304.052c-17.199-21.019-27.027-28.642-28.152-31.93c-0.65-1.525,0.597-1.556,3.162-0.229
		c1.281,0.663,2.89,1.664,4.737,2.975c0.946,0.632,1.883,1.415,2.833,2.308c0.965,0.878,1.972,1.832,3.01,2.859l3.123,3.066
		l2.932,3.227c1.925,2.169,4.021,4.181,5.794,6.438c1.852,2.194,3.691,4.373,5.512,6.532c1.719,2.239,3.421,4.455,5.1,6.644
		c1.736,2.154,3.24,4.42,4.779,6.612c1.498,2.216,3.106,4.316,4.433,6.523c2.723,4.372,5.398,8.535,7.517,12.668
		c8.799,16.345,16.15,33.511,21.02,51.407c2.64,8.89,5.082,22.612,5.841,31.23c0.659,8.653,0.416,12.091-1.852,0.923
		c-2.453-11.139-4.932-18.751-7.789-26.791c-0.712-2.009-1.436-4.052-2.192-6.187c-0.81-2.114-1.656-4.318-2.557-6.672
		c-0.442-1.178-0.896-2.395-1.369-3.656c-0.506-1.248-1.03-2.538-1.575-3.881c-1.122-2.671-2.18-5.608-3.556-8.718
		c-5.236-12.56-12.317-26.812-18.84-37.438c-1.573-2.691-3.216-5.083-4.594-7.291c-0.701-1.097-1.361-2.131-1.974-3.092
		c-0.659-0.929-1.266-1.788-1.817-2.567C460.977,305.898,459.666,304.052,459.666,304.052z"/>
	<path d="M224.967,160.628c-1.886-2.525-2.833-3.579-2.805-4.182c-0.021-0.552,0.977-0.411,1.92,0.704
		c1.837,2.181,3.494,4.523,4.297,6.679c0.795,2.132,1.318,4.41,1.181,6.71c-0.008,1.149-0.447,2.846-0.911,3.797
		c-0.488,0.955-0.798,1.24-0.548-0.062c0.214-1.317,0.146-2.259,0.034-3.24c-0.1-0.983-0.282-2.013-0.574-3.551
		c-0.307-1.539-0.863-3.304-1.46-4.624C225.513,161.535,224.967,160.628,224.967,160.628z"/>
	<path d="M248.02,169.964c-0.122,2.903-0.407,4.234-0.86,4.56c-0.421,0.324-0.905-0.42-0.788-1.69
		c0.23-2.515,0.248-5.077,0.722-7.067c0.463-1.982,1.088-3.92,1.97-5.732c0.864-1.834,3.125-5.17,2.312-2.824
		c-0.785,2.353-0.834,3.395-1.745,6.164c-0.443,1.39-0.9,3.023-1.183,4.326C248.166,169.001,248.02,169.964,248.02,169.964z"/>
	<path d="M47.873,292.906c2.079,8.495,14.143,6.468,14.37,16.019c0.124,5.201-11.842,17.065-13.71,24.483
		c-1.884,7.48-0.061,16.27-2.06,23.656c-1.808,6.678-10.339,21.588-13.049,6.003c-7.618,0.061-15.54,7.41-20.979,0.917
		c-2.504-2.989-0.925-20.057-0.132-23.975C15.646,323.547,24.212,306.299,47.873,292.906z"/>
	<path d="M436.112,288.624c-13.312,14.378,5.489,20.193,10.059,32.169c4.795,12.568,4.665,21.721,21.094,24.776
		C472.444,329.55,461.484,275.576,436.112,288.624z"/>
	<path d="M403.979,218.848c-2.983-0.67-4.757,1.524-5.95,3.952c-2.051,4.174,0.377,3.036,0.931,6.876
		c0.434,3.015-1.278,4.079-2.058,6.791c-1.385,4.817-0.224,3.772,3.026,4.886c2.846,0.975,3.767,0.558,6.107,2.909
		c1.428,1.434,3.285,6.091,5.328,5.59c4.773-1.172,1.568-13.263,0.939-15.688c-0.806-3.113-1.156-6.431-2.336-9.574
		C408.768,221.397,406.75,220.353,403.979,218.848z"/>
	<path d="M80.349,226.471c3.965,2.391,7.271,9.669,2.686,12.499c0.314,5.895-5.849,15.973-9.213,6.69
		C70.973,237.795,80.373,233.248,80.349,226.471z"/>
	<path d="M55.245,413.549c1.742,17.974-7.507,16.544-6.705,9.027c0.782-7.508-0.923-15.139-0.448-21.365
		c0.447-6.17,1.277-12.527,3.87-18.41c1.187-2.969,3.957-7.024,6.195-9.083c2.269-2.075,3.641-2.432,2.342,0.971
		c-1.255,3.437-1.52,6.039-1.812,8.74c-0.292,2.706-0.551,5.537-1.253,9.762c-0.685,4.234-1.27,9.297-1.627,13.336
		C55.481,410.591,55.245,413.549,55.245,413.549z"/>
	<path d="M430.857,373.669c-5.543-10.539-7.398-15.398-6.571-17.782c0.407-1.135,1.455-1.438,2.811-0.813
		c0.676,0.311,1.425,0.852,2.187,1.611c0.702,0.778,1.38,1.784,2.003,2.978c4.653,9.552,9.855,18.672,12.269,26.816
		c2.372,8.064,4.141,16.447,3.85,25.058c-0.038,1.072-0.201,2.296-0.346,3.56c-0.082,0.634-0.157,1.279-0.265,1.931
		c-0.153,0.653-0.306,1.313-0.46,1.971c-0.535,2.612-1.624,5.116-2.54,6.892c-2.27,3.506-3.6,4.18-2.518-0.42
		c0.341-2.393,0.471-4.441,0.263-6.381c-0.089-0.965-0.1-1.867-0.258-2.78c-0.15-0.906-0.298-1.801-0.448-2.71
		c-0.222-1.798-0.764-3.678-1.068-5.8c-0.214-1.066-0.439-2.2-0.684-3.428c-0.201-1.23-0.462-2.552-0.767-3.999
		c-1.102-5.79-2.753-12.55-4.4-17.767C432.293,377.382,430.857,373.669,430.857,373.669z"/>
	<path d="M361.63,298.69c-0.896-2.693-0.884-4.737-0.774-6.125c0.142-1.395,0.509-2.159,0.825-2.403
		c0.65-0.445,1.05,0.824,1.045,2.949c-0.007,2.137,0.409,4.306,1.196,6.069c0.406,0.864,0.921,1.611,1.472,2.043
		c0.565,0.459,1.039,0.499,1.693,0.447c0.598-0.089,0.984-0.306,1.31-0.794c0.323-0.489,0.546-1.203,0.65-1.979
		c0.217-1.563,0.135-3.291,0.015-5.013c-0.105-1.728-0.366-4.377-0.421-6.075c-0.025-1.709,0.178-2.369,0.704-0.262
		c0.59,2.133,1.105,3.628,1.529,5.278c0.376,1.663,0.878,3.436,0.599,6.379c-0.1,0.74-0.266,1.536-0.645,2.347
		c-0.367,0.8-1.041,1.641-1.961,2.094c-0.944,0.447-1.815,0.537-2.736,0.377c-0.938-0.095-1.728-0.629-2.303-1.136
		c-1.121-1.091-1.5-2.221-1.82-2.971C361.745,299.147,361.63,298.69,361.63,298.69z"/>
	<path d="M183.406,314.663c-0.226-1.892-0.001-3.202,0.228-4.083c0.247-0.881,0.553-1.344,0.854-1.521
		c0.603-0.37,1.193,0.603,0.958,2.061c-0.218,1.443-0.229,2.904,0.039,4.147c0.132,0.616,0.333,1.17,0.582,1.577
		c0.128,0.218,0.242,0.344,0.407,0.52c0.194,0.18,0.375,0.359,0.544,0.54c1.445,1.349,3.391,1.602,4.803,0.465
		c0.728-0.521,1.522-1.943,1.717-3.069c0.189-1.076,0.434-1.674,0.733-0.111c0.202,1.565,0.029,2.824-0.626,4.022
		c-0.647,1.125-2.04,2.437-4.39,2.3c-1.145-0.084-2.28-0.578-3.177-1.248c-0.447-0.342-0.851-0.711-1.179-1.11
		c-0.338-0.335-0.712-0.901-0.9-1.35c-0.411-0.942-0.486-1.732-0.547-2.278C183.4,314.977,183.406,314.663,183.406,314.663z"/>
	<path d="M261.158,274.904c-0.015-4.45,0.79-6.266,1.328-6.716c0.593-0.482,1.224,0.711,0.935,2.509
		c-0.271,1.789-0.36,3.574-0.266,5.228c0.082,1.623,0.39,3.227,0.864,4.001l0.181,0.25l0.338,0.329
		c0.224,0.218,0.441,0.461,0.684,0.607c0.235,0.169,0.466,0.371,0.701,0.45l0.345,0.174l0.328,0.072
		c0.799,0.205,1.693-0.339,2.411-1.393c0.763-0.982,1.496-2.943,1.747-4.274c0.233-1.314,0.468-2.001,0.743-0.106
		c0.127,1.89-0.008,3.26-0.463,4.709c-0.269,0.713-0.58,1.477-1.296,2.22c-0.644,0.725-1.94,1.52-3.5,1.262
		c-1.505-0.259-2.704-1.173-3.533-2.105l-0.336-0.346l-0.353-0.5c-0.24-0.341-0.324-0.667-0.474-0.995
		c-0.197-0.637-0.305-1.23-0.368-1.772c-0.117-1.082-0.083-1.971-0.069-2.605C261.139,275.276,261.158,274.904,261.158,274.904z"/>
	<path d="M68.438,330.443c-0.288-1.906,0.396-3.262,0.96-3.959c0.604-0.716,1.156-0.892,1.478-0.844
		c0.662,0.149,0.597,1.068,0.009,2.001c-0.61,0.985-0.684,2.224-0.351,3.203c0.332,0.995,0.989,1.724,1.635,2.289
		c0.497,0.398,0.266,0.218,0.322,0.265l0.034-0.018c0.177-0.121,0.317-0.283,0.479-0.422c0.59-0.614,1.07-1.37,1.425-2.253
		c0.397-0.857,0.778-2.355,0.973-3.374c0.196-1.006,0.436-1.506,0.734-0.137c0.252,1.371,0.361,2.388,0.299,3.511
		c-0.093,1.096-0.338,2.428-1.629,3.907c-0.384,0.377-0.564,0.609-1.39,1.151l-0.528,0.34c-0.176,0.075-0.351,0.346-0.529,0.126
		l-1.056-0.689c-0.377-0.262-0.484-0.39-0.691-0.557c-0.189-0.158-0.347-0.355-0.515-0.527c-0.317-0.364-0.607-0.741-0.814-1.132
		c-0.451-0.761-0.657-1.509-0.75-2.036C68.436,330.759,68.438,330.443,68.438,330.443z"/>
	<path d="M138.645,361.74c-0.357-5.355,1.219-7.729,1.893-7.997c0.734-0.27,0.836,1.032,0.39,2.999
		c-0.896,4.06-0.018,8.356,0.955,11.338c0.251,0.755,0.553,1.476,0.911,2.148c0.206,0.309,0.37,0.663,0.599,0.941l0.337,0.423
		l0.047,0.075l0.034,0.034l0.027,0.001l0.37-0.399c0.508-0.577,0.966-1.216,1.381-1.898c0.863-1.342,1.805-3.667,2.272-5.222
		c0.46-1.541,0.81-2.223,0.75-0.018c-0.148,2.193-0.421,3.752-0.94,5.39c-0.278,0.813-0.634,1.646-1.191,2.534
		c-0.137,0.223-0.287,0.448-0.462,0.671l-0.261,0.344c-0.135,0.152-0.272,0.306-0.412,0.462c-0.376,0.396-0.787,0.761-1.212,1.17
		l-0.325,0.221l-0.341-0.294c-0.229-0.2-0.464-0.403-0.703-0.611c-0.231-0.208-0.499-0.42-0.706-0.632l-0.411-0.499
		c-0.256-0.295-0.483-0.608-0.666-0.941c-0.427-0.647-0.716-1.345-1.014-2.029c-0.524-1.386-0.832-2.772-1.028-3.992
		c-0.185-1.221-0.252-2.277-0.281-3.026C138.65,362.183,138.645,361.74,138.645,361.74z"/>
	<path d="M228.09,391.906c-0.226-2.361,0.024-4.013,0.247-5.133c0.247-1.121,0.535-1.724,0.831-1.962
		c0.588-0.497,1.226,0.711,0.983,2.588c-0.231,1.863-0.248,3.716,0.024,5.369c0.304,1.664,0.85,2.971,1.751,3.719
		c0.925,0.944,1.967,1.489,3.075,1.491c1.122,0.036,2.387-0.555,3.637-1.221c1.256-0.662,3.204-1.882,4.552-2.451
		c1.363-0.549,1.952-0.555,0.504,0.552c-1.427,1.176-2.31,2.177-3.415,3.141c-0.552,0.485-1.165,0.963-1.956,1.438
		c-0.808,0.441-1.832,0.924-3.258,0.984c-1.431,0.068-2.992-0.557-4.04-1.463c-0.518-0.482-0.99-0.869-1.424-1.47
		c-0.442-0.569-0.708-1.181-0.916-1.741c-0.394-1.134-0.481-2.099-0.55-2.776C228.098,392.301,228.09,391.906,228.09,391.906z"/>
	<path d="M384.946,407.668c-0.398-2.321,0.207-3.99,0.795-4.983c0.614-1.012,1.314-1.338,1.659-1.305
		c0.355,0.026,0.465,0.373,0.419,0.765c-0.033,0.418-0.225,0.94-0.528,1.642c-0.612,1.408-0.642,3.103-0.2,4.407
		c0.233,0.649,0.585,1.181,0.99,1.56c0.189,0.208,0.431,0.331,0.637,0.486c0.273,0.122,0.53,0.249,0.777,0.385
		c1.051,0.434,1.493,0.271,2.189-0.508c0.657-0.824,1.136-2.096,1.615-3.328c0.482-1.245,1.222-3.225,1.92-4.387
		c0.735-1.154,1.183-1.42,0.733,0.146c-0.372,1.635-0.423,2.863-0.616,4.17c-0.092,0.656-0.208,1.34-0.431,2.126
		c-0.218,0.782-0.533,1.688-1.259,2.735c-0.222,0.256-0.421,0.524-0.693,0.767c-0.315,0.222-0.599,0.487-0.979,0.638
		c-0.764,0.343-1.64,0.383-2.353,0.219c-0.341-0.099-0.7-0.191-1.009-0.319c-0.279-0.153-0.555-0.304-0.826-0.453
		c-0.531-0.281-1.068-0.742-1.435-1.191c-0.774-0.921-1.069-1.879-1.242-2.526C384.973,408.055,384.946,407.668,384.946,407.668z"/>
	<path d="M460.438,391.405c-0.869-2.682-0.169-4.202,0.451-4.375c0.619-0.159,1.117,0.438,1.077,1.437
		c-0.064,2.12,1.036,4.144,1.631,5.682c0.306,0.781,0.654,1.541,1.036,2.225c0.331,0.664,0.925,1.332,1.016,1.417
		c0.084,0.077,0.232,0.184,0.637-0.102c0.376-0.25,0.727-0.681,1.028-0.992c0.56-0.656,0.984-0.927,0.711,0.217
		c-0.166,0.569-0.307,1.067-0.563,1.547c-0.11,0.24-0.283,0.475-0.487,0.705c-0.238,0.229-0.551,0.447-0.906,0.551
		c-0.712,0.245-1.643-0.09-2.14-0.492c-0.549-0.408-0.981-0.929-1.379-1.571C460.965,395.084,460.438,391.405,460.438,391.405z"/>
</g>
</svg>
