<?xml version="1.0" encoding="iso-8859-1"?>
<!-- Generator: Adobe Illustrator 21.1.0, SVG Export Plug-In . SVG Version: 6.00 Build 0)  -->
<svg version="1.1" id="_x31_2" xmlns="http://www.w3.org/2000/svg" xmlns:xlink="http://www.w3.org/1999/xlink" x="0px" y="0px"
	 viewBox="0 0 512 512" style="enable-background:new 0 0 512 512;" xml:space="preserve">
<g>
	<path style="fill:#94C85C;" d="M173.266,486.893c-30.675,20.51-72.821,38.951-104.998-1.694S8.996,400.524,5.609,361.574
		c-3.387-38.951,33.87-152.416,67.74-199.834s69.434-77.902,69.434-77.902s20.322-54.192,44.031-71.128
		c23.709-16.935,27.096,6.774,35.564,13.548c8.467,6.774,28.79,10.161,33.87,10.161c5.081,0,10.161-16.935,25.403-27.096
		c15.242-10.161,22.016,16.935,28.79,28.79c6.774,11.854,13.548,1.694,45.725,10.161c32.177,8.468,64.353,10.161,59.273,23.709
		c-5.081,13.548-35.564,25.403-59.273,35.564c-23.709,10.161-60.966,33.87-62.66,49.112c-1.694,15.242,0,60.966,11.854,88.063
		c11.855,27.096,69.434,99.917,82.982,108.385c13.548,8.468,3.387,5.081,35.564,8.468s59.273,6.774,74.514,33.87
		c15.242,27.096,8.468,47.418-27.096,66.047c-35.564,18.629-93.143,32.177-135.481,37.257c-42.338,5.081-108.575-1.542-125.32-1.693
		S173.266,486.893,173.266,486.893z"/>
	<path style="fill:#FFFFFF;" d="M271.49,148.191c-2.391,1.594-4.688,3.376-6.627,5.234c-6.3,6.04-8.814,12.896,1.546,16.781
		c13.548,5.081,17.521,21.114,27.096,37.257c9.576,16.143,23.709,50.805,23.709,50.805s-8.015-46.497,1.694-71.128
		s42.338-74.515,49.112-79.595c6.774-5.08,1.694-8.467-11.854,0c-13.548,8.468-55.886,23.709-67.741,30.483
		C276.57,144.804,271.49,148.191,271.49,148.191z"/>
	<path style="fill:#FFFFFF;" d="M268.103,320.929c0,0-5.081,42.338,10.161,42.338s35.564-5.08,35.564-5.08L268.103,320.929z"/>
	<g>
		<path style="fill:#231815;" d="M150.04,52.6c11.719-15.915,22.042-36.851,39.117-47.665c9.272-5.873,20.048-7.612,28.204,1.009
			c3.42,3.615,5.785,8.23,7.726,12.763c0.748,1.746,2.247,9.534,2.898,10.061c-10.405-8.43-16.428-27.387-32.58-17.622
			c-10.585,6.399-15.609,17.972-23.502,27.016c-8.956,10.263-15.386,22.484-24.499,32.601c-0.797,0.885-3.966,4.975-5.319,4.362
			c-1.724-0.782,1.065-5.717,1.515-6.794C145.781,63.101,147.917,57.852,150.04,52.6z"/>
		<path style="fill:#231815;" d="M256.53,35.587c-1.772,3.205-2.365,10.123,2.864,10.314c4.866,0.178,8.367-7.407,9.957-10.768
			c3.798-8.029,4.7-18.596,11.476-24.914c20.169-18.807,20.958,33.796,29.67,37.561c10.216,4.415,3.363-15.821,1.84-18.839
			c-3.692-7.316-7.902-17.808-14.105-23.365C280.296-10.492,263.278,23.654,256.53,35.587z"/>
		<path style="fill:#231815;" d="M352.517,39.841c-4.086-0.792-18.208-3.489-21.4,1.116c-3.454,4.983,9.523,7.31,12.787,8.144
			c18.966,4.844,38.08,9.132,57.031,14.043c5.117,1.326,18.691,3.356,14.53,10.945c-4.195,7.65-17.576,11.718-24.957,15.127
			c-18.176,8.396-35.586,16.758-54.703,23.051c-19.359,6.372-39.661,12.115-57.445,22.334c-2.124,1.22-17.076,10.705-12.197,13.844
			c4.425,2.847,17.259-5.482,21.113-7.302c16.481-7.78,32.73-16.059,49.734-22.665c16.935-6.579,33.521-12.944,49.638-21.409
			c9.346-4.909,51.707-20.832,30.429-35.234c-8.892-6.018-20.345-8.475-30.31-12.115C375.563,45.627,364.243,42.134,352.517,39.841z
			"/>
		<path style="fill:#231815;" d="M118.155,116.411c5.23-5.773,10.391-11.684,14.959-18.003c1.556-2.153,6.551-7.832,5.942-10.928
			c-1.345-6.839-19.295,9.388-21.69,11.6c-22.94,21.188-41.148,47.572-56.611,74.534c-16.054,27.993-29.861,57.647-40.59,88.088
			C8.874,293.737,1.429,327.848,4.45,361.966c2.861,32.315,16.826,63.082,33.57,90.516c6.855,11.232,15.134,24.985,27.236,31.338
			c4.623,2.427,7.356,1.953,4.767-3.357c-2.384-4.888-6.077-9.381-9.089-13.886c-15.978-23.904-32.46-49.245-42.552-76.264
			c-9.709-25.995-9.301-54.085-4.52-81.096C26.826,235.992,68.935,170.713,118.155,116.411z"/>
		<path style="fill:#231815;" d="M81.388,491.783c13.846,9.491,32.316,12.183,48.635,9.432c7.967-1.343,15.557-4.125,22.698-7.876
			c1.909-1.003,14.956-7.417,15.067-8.558c-0.332,3.418-5.85,9.056-8.248,11.503c-4.729,4.826-10.654,7.974-16.95,10.29
			c-11.979,4.407-28.334,7.395-40.912,3.883c-11.591-3.236-24.862-8.988-33.282-17.698c-1.366-1.414-8.901-10.6-3.879-10.057
			c2.112,0.228,6.777,4.859,8.964,5.953C76.013,489.92,78.679,490.969,81.388,491.783z"/>
		<path style="fill:#231815;" d="M353.792,132.645c-11.153,14.509-20.346,30.847-27.149,47.825
			c-3.343,8.344-5.992,16.972-7.628,25.818c-0.711,3.847-1.166,7.73-1.414,11.632c-0.165,2.601,0.74,8.33-0.537,10.738
			c0.884-1.667-2.43-10.144-2.663-12.617c-0.559-5.949-0.025-11.906,1.227-17.743c2.721-12.688,7.615-24.849,12.988-36.616
			c4.271-9.354,10.377-17.647,16.231-26.075c3.728-5.367,7.568-10.683,11.918-15.571c1.214-1.365,6.041-7.776,8.308-7.331
			C364.51,112.594,354.872,130.624,353.792,132.645z"/>
		<path style="fill:#231815;" d="M289.34,194.438c-1.612,6.615-3.633,13.34-3.558,20.218c0.089,8.182,4.142,14.478,8.14,21.294
			c7.756,13.224,15.578,26.357,24.141,39.084c16.454,24.458,34.531,47.307,57.722,65.765c4.476,3.563,8.952,7.406,13.636,10.679
			c1.403,0.981,5.072,4.244,7.132,2.605c2.313-1.841,0.118-4.751-1.285-6.46c-3.213-3.915-8.452-6.843-12.397-9.995
			c-6.114-4.885-11.87-10.223-17.409-15.749c-8.222-8.203-15.534-17.224-23.507-25.648c-10.781-11.391-16.601-26.552-23.655-40.318
			c-5.607-10.943-11.805-21.101-15.218-33.134c-2.042-7.197-2.343-14.605-4.159-21.787c-0.638-2.523-1.916-9.525-4.201-10.802
			C291.858,188.588,289.964,191.823,289.34,194.438z"/>
		<path style="fill:#231815;" d="M240.373,265.598c13.951,22.294,30.884,42.812,49.547,61.311
			c8.708,8.632,17.918,16.709,27.438,24.43c1.487,1.206,21.041,17.276,21.127,17.211c-1.574,1.187-15.581-6.244-17.565-7.224
			c-8.505-4.197-16.061-9.88-23.268-15.995c-13.061-11.08-25.307-23.122-36.996-35.633c-8.2-8.777-14.478-19.713-21.258-29.596
			c-5.234-7.63-10.427-15.303-14.776-23.483c-0.466-0.877-7.115-14.059-5.001-14.38c2.443-0.371,9.303,10.414,10.727,12.089
			C233.606,258.161,236.997,261.871,240.373,265.598z"/>
		<path style="fill:#231815;" d="M257.805,387.143c21.409-11.34,43.031-16.724,66.974-19.364c21.223-2.34,42.239-5.665,63.611-6.633
			c26.168-1.185,54.332-0.525,78.95,9.424c20.048,8.102,41.944,29.052,36.329,52.985c-5.452,23.241-32.852,36.317-52.831,44.483
			c-24.685,10.088-50.941,16.475-77.149,21.112c-45.763,8.097-93.207,8.124-139.338,2.977c-11.957-1.334-23.713-3.436-35.365-6.431
			c-2.941-0.756-25.309-9.506-27.009-6.482c-1.539,2.739,4.792,7.912,6.579,9.259c4.567,3.445,9.824,5.778,15.223,7.6
			c11.904,4.018,24.587,5.533,37.062,6.444c46.102,3.364,93.668,3.923,139.289-3.965c25.789-4.459,51.557-10.756,75.927-20.409
			c18.691-7.403,37.251-17.221,50.829-32.425c16.831-18.848,13.981-43.991-2.32-62.336c-11.184-12.587-27.585-19.55-43.584-23.599
			c-22.952-5.809-47.685-6.979-71.254-5.33c-21.302,1.49-42.51,1.228-63.865,1.738c-23.691,0.566-47.772,1.234-69.475,11.756
			c-5.928,2.874-14.352,6.863-17.793,12.892c-2.02,3.539-3.245,14.385,2.72,14.695c3.707,0.193,9.852-4.465,13.564-5.587
			C249.092,388.672,253.445,387.739,257.805,387.143z"/>
		<path style="fill:#231815;" d="M266.309,164.399c1.76-0.788,7.77-5.329,4.011-7.16c-2.155-1.049-10.033,3.555-12.248,4.045
			c-8.4,1.857-17.565-1.428-14.432-11.765c2.644-8.72,13.23-13.354,20.791-16.827c2.379-1.093,22.855-8.422,20.124-12.905
			c-2.542-4.173-33.832,16.634-37.562,20.165c-5.578,5.281-9.289,14.405-4.465,21.425
			C247.621,168.787,259.15,167.716,266.309,164.399z"/>
		<path style="fill:#231815;" d="M388.024,77.285c-12.252-3.341-7.797-11.139,0-10.025
			C395.821,68.374,396.935,78.399,388.024,77.285z"/>
		<path style="fill:#231815;" d="M267.733,215.395c-6.377,5.182-22.038,24.649-7.765,30.508c4.968,2.04,11.746,0.829,17.123,2.115
			c5.566,1.33,11.359,3.851,17.129,4.062c13.485,0.493,4.174-19.227,0.784-25.353C289.775,217.275,278.254,204.876,267.733,215.395z
			"/>
		<path style="fill:#231815;" d="M311.171,264.402c3.235,4.853,7.033,9.196,10.745,13.674c1.579,1.905,4.611,4.776,4.077,7.569
			c-0.657,3.437-6.512,5.289-9.137,6.409c-5.021,2.144-10.704,3.958-16.153,2.431c-8.345-2.339-17.803-13.073-10.216-20.614
			C293.934,270.444,306.451,257.325,311.171,264.402z"/>
		<path style="fill:#231815;" d="M149.671,169.73c4.653-2.991,28.352-16.035,28.249-2.383c-0.076,10.146-12.242,17.143-16.352,25.59
			c-4.997,10.271,2.447,18.422,1.478,28.439c-0.43,4.447-3.814,7.635-6.693,10.726c-3.936,4.226-6.738,8.426-9.338,13.543
			c-5.593,11.008-15.852,18.333-22.066,28.99c-3.004,5.151-5.853,10.35-9.011,15.415c-2.947,4.726-8.624,11.869-7.508,17.912
			c1.628,8.813,17.058,4.965,17.685,12.129c0.387,4.419-6.775,10.616-9.459,13.487c-2.631,2.816-5.729,5.321-8.078,8.386
			c-13.842,18.071-11.584,46.975-12.774,68.311c-0.206,3.694-0.275,26.329-5.357,27.174c-5.318,0.884-8.338-24.425-8.514-27.842
			c-0.671-13.069,2.525-26.051,4.865-38.811c2.026-11.047,1.09-19.833-0.052-30.881c-0.753-7.283-2.132-15.246-1.601-22.578
			c0.75-10.361,4.765-20.957,9.787-29.895c6.955-12.378,12.047-25.304,18.123-38.077c3.317-6.973,7.957-13.609,13.677-18.828
			c3.246-2.962,9.826-4.808,12.336-8.296c2.888-4.014-0.3-12.173,0.149-16.873c0.241-2.529,0.87-5.029,0.458-7.577
			c-0.365-2.259-1.635-4.077-1.632-6.396C138.053,183.816,145.167,175.376,149.671,169.73z"/>
		<path style="fill:#231815;" d="M302.26,367.987c-1.36,12.24,7.645,28.128-2.735,38.432c-3.731,3.703-13.027,9.265-18.363,10.353
			c-6.18,1.261-9.854-6.021-12.336-10.625c-1.374-2.549-1.835-4.635-2.387-7.312c-0.179-0.869,0.708-1.507,0.281-2.34
			c-0.717-1.401-4.427-2.238-5.671-2.892c-3.345-1.761-6.661-4.021-6.447-8.202c0.426-8.344,10.698-8.175,16.725-9.682
			C281.638,373.142,291.949,370.564,302.26,367.987z"/>
		<path style="fill:#231815;" d="M350.156,360.19c-6.758-3.073-30.233-5.716-32.244,5.209c-0.922,5.009,5.02,8.366,8.48,10.629
			c5.125,3.351,10.6,6.549,13.896,11.91c3.318,5.397,3.965,13.71,11.197,15.709c5.654,1.563,9.006-2.92,10.048-7.907
			C363.878,384.526,362.056,365.6,350.156,360.19z"/>
		<path style="fill:#231815;" d="M297.807,56.122c-9.01-6.552-7.797-24.505,0-23.391C305.602,33.845,310.057,65.033,297.807,56.122z
			"/>
		<path style="fill:#231815;" d="M91.753,209.826c-5.074-2.537-1.979-8.08,2-9.696c3.024-1.229,10.654-0.707,10.67,3.711
			C104.44,208.682,91.791,221.19,91.753,209.826z"/>
		<path style="fill:#231815;" d="M131.849,298.931c-11.196,3.054,1.352-13.07,3.446-15.507c2.496-2.905,16.859-19.448,20.694-14.903
			c2.014,2.387-1.681,11.366-1.746,14.432c-0.095,4.503,1.609,9.895-0.191,14.2C150.216,306.326,138.217,303.143,131.849,298.931z"
			/>
		<path style="fill:#231815;" d="M116.258,374.67c-14.091-3.523,11.136-32.302,13.364-23.391
			C131.849,360.19,125.166,376.898,116.258,374.67z"/>
		<path style="fill:#231815;" d="M117.371,148.567c-7.852-6.68-40.977,43.031-44.297,48.117
			c-18.35,28.111-29.159,58.245-36.869,90.731c-4.912,20.697-10.864,42.914-12.137,64.24c-0.34,5.694,6.436,37.312,13.743,34.553
			c4.398-1.66,3.524-13.244,3.479-16.566c-0.12-8.704-1.034-17.386-1.558-26.07c-1.106-18.336,0.175-36.706,5.589-54.324
			c12.265,12.458,15.228-20.574,15.445-25.705c0.167-3.952,0.177-7.913,0.048-11.866c-0.102-3.144-0.635-3.452,1.54-5.415
			c1.414-1.277,3.744-1.99,5.406-3.013c6.134-3.772,16.275-11.447,12.533-19.66c-3.747-8.222-9.334-11.578-2.543-20.606
			c5.998-7.974,15.185-14.153,22.691-20.649c8.286-7.173,16.356-14.912,22.77-23.853
			C128.374,151.28,124.289,150.873,117.371,148.567z M50.58,254.682c-0.337,0.829-0.672,1.662-1.007,2.501
			C49.767,256.282,50.111,255.454,50.58,254.682z"/>
	</g>
</g>
</svg>
