<?xml version="1.0" encoding="iso-8859-1"?>
<!-- Generator: Adobe Illustrator 21.1.0, SVG Export Plug-In . SVG Version: 6.00 Build 0)  -->
<svg version="1.1" id="_x31_2" xmlns="http://www.w3.org/2000/svg" xmlns:xlink="http://www.w3.org/1999/xlink" x="0px" y="0px"
	 viewBox="0 0 512 512" style="enable-background:new 0 0 512 512;" xml:space="preserve">
<g>
	<path style="fill:#94C85C;" d="M186.624,27.274c-18.258,4.763-37.309,7.938-43.66,18.258c-6.35,10.32,11.113,15.876,23.814,18.258
		c12.701,2.381,33.34,35.722,33.34,35.722s-5.557,7.144-13.495,4.763c-7.938-2.381-16.556,2.359-11.113,3.969
		c-7.911-0.172-7.938,5.557-10.32,5.557c-9.526-2.382-12.701,3.175-15.082,11.907c-2.382,8.732,5.557,31.752,12.701,38.897
		c-3.969,11.907-13.495,47.629-7.938,59.536c5.557,11.907,23.021,9.526,23.021,9.526s9.526,38.103,28.577,48.423
		c-7.144,14.289-3.969,73.031,22.227,103.99s27.783,52.392,20.639,65.093c-7.144,12.701-24.608,20.639-36.515,23.814
		c-11.907,3.175,18.258,3.969,33.34-6.35c-24.583,14.059-40.484,17.464-30.959,19.052c9.526,1.588,26.196-2.382,38.103-12.701
		c-3.969,7.938-19.845,18.258-8.732,17.464c11.113-0.794,38.103-25.402,39.691-41.278c1.588-15.876-5.55-58.86-3.969-69.855
		c1.581-10.995,10.32,9.526,19.845,23.021c9.526,13.495,18.258,57.948,13.495,66.68c-4.763,8.732-20.639,15.876-16.67,17.464
		c3.969,1.588,15.876,0,23.02-11.113c3.175,3.175-13.495,20.639-21.433,25.402s14.289,2.382,25.402-15.082
		c11.113-5.557-11.907,20.639,0,17.464c11.907-3.175,30.959-31.753,30.165-49.216c-0.794-17.464-8.732-100.814-11.113-117.484
		c-2.381-16.67,13.495-45.247,13.495-45.247s19.845-75.412,10.32-121.453C357.294,125.706,316.11,70.1,308.077,59.026
		c-8.033-11.073-17.464-14.289-19.845-15.876c-2.381-1.588-8.732-12.701-15.082-21.433c-6.35-8.732-17.464-11.907-26.196,3.175
		c-0.794,3.969-3.175,4.763-3.175,4.763s-23.8-6.19-26.196-8.732c-2.396-2.542-2.466-15.736-9.526-16.67
		c-7.06-0.934-10.32,4.763-13.495,11.907C191.387,23.305,186.624,27.274,186.624,27.274z"/>
	<path style="fill:#FFFFFF;" d="M183.449,68.552c12.701,3.969,34.928,13.495,47.629,23.814
		c12.701,10.32,19.845,18.258,19.845,26.196c0,7.938-0.794,11.907-4.763,15.876c-3.969,3.969,9.526,24.608,11.907,30.959
		c2.381,6.35-11.113,22.227-22.227,25.402c-11.113,3.175-16.04-8.26-20.639-23.814c-4.599-15.555-0.794-17.464-1.588-22.227
		c-0.794-4.763-7.144-34.134-23.814-38.103c0-4.986,2.928-11.685,0.026-18.368c-4.49-10.34-16.296-20.641-23.047-24.498
		C162.016,58.232,183.449,68.552,183.449,68.552z"/>
	<path style="fill:#FFFFFF;" d="M279.5,215.407c11.113,21.433,7.938,84.938-29.371,88.907c-37.309,3.969-66.247-36.115-70.649-66.68
		c-4.402-30.566-3.969-54.773,3.175-64.299c0.794-5.557,3.175-0.794,3.175,8.732c0,9.526,11.113,42.866,19.845,52.392
		c8.732,9.526,27.784,6.351,35.722,4.763C249.335,237.634,279.5,215.407,279.5,215.407z"/>
	<g>
		<path style="fill:#231815;" d="M196.854,13.235c-0.857,1.928-9.286,17.333-8.936,9.406c0.141-3.198,4.013-8.299,5.399-11.142
			c1.826-3.745,3.839-8.262,7.681-10.334c5.149-2.776,11.173-0.314,14.221,4.443c2.141,3.341,2.894,7.222,3.445,11.086
			c0.052,0.368,0.838,9.127,0.619,9.065c-1.989-0.559-3.309-7.583-4.096-9.531c-1.193-2.953-2.459-6.727-4.776-9.012
			C204.564,1.452,199.762,8.152,196.854,13.235z"/>
		<path style="fill:#231815;" d="M272.687,16.879c-3.538-4.936-10.038-9.668-16.424-7.558c-5.07,1.675-9.157,8.211-11.833,12.523
			c-0.949,1.528-3.046,4.592-2.196,6.566c1.306,3.036,4.153,1.263,5.85-0.5c4.197-4.358,3.178-12.556,9.263-15.398
			c13.288-6.205,19.372,21.255,25.53,27.331c1.293,1.276,3.801,3.374,4.992,1.071c0.943-1.823-4.024-6.442-4.773-7.421
			C279.11,28.277,276.545,22.183,272.687,16.879z"/>
		<path style="fill:#231815;" d="M166.213,35.875c2.185-0.474,12.411-1.71,13.398-4.419c0.903-2.478-3.275-2.557-5.051-2.669
			c-11.134-0.706-28.42,3.939-35.907,12.694c-11.341,13.264,13.12,17.581,21.497,19.546c11.763,2.759,22.473,6.503,33.727,10.913
			c13.332,5.225,27.574,11.007,37.548,21.652c2.13,2.273,17.382,24.556,19.666,20.965c1.424-2.239-4.829-10.809-5.82-12.354
			c-3.916-6.105-8.625-11.723-14.441-16.104c-10.626-8.005-24.284-12.779-36.617-17.514c-6.479-2.487-13.023-5.237-19.674-7.232
			c-7.473-2.242-15.187-3.473-22.581-6.047c-5.663-1.971-15.968-5.252-7.928-11.354C150.138,39.315,158.886,37.453,166.213,35.875z"
			/>
		<path style="fill:#231815;" d="M170.073,66.045c-1.145-0.763-12.672-6.205-11.667-8.112c1.945-3.688,16.369,7.469,17.944,8.904
			c5.4,4.917,9.25,11.378,11.581,18.271c1.03,3.046,1.701,6.157,2.001,9.357c0.061,0.652-0.213,8.073-0.447,7.899
			c-1.569-1.167-1.828-7.394-2.58-9.51c-1.169-3.294-2.576-6.537-4.075-9.691C179.757,76.696,175.733,70.545,170.073,66.045z"/>
		<path style="fill:#231815;" d="M175.077,204.915c-0.828-8.344-0.174-15.824,2.229-23.872c0.422-1.414,3.385-12.483,5.359-11.179
			c2.596,1.715-3.039,17.267-3.475,19.684c-1.492,8.272,0,16.807,0.812,25.083c1.72,17.532,2.917,34.165,13.118,49.169
			c7.289,10.72,17.707,27.334,30.474,31.844c-0.277-0.148-3.376-0.234-4.098-0.499c-2.056-0.753-4.1-2.265-5.856-3.536
			c-3.938-2.85-7.549-6.264-10.986-9.687c-6.909-6.882-13.679-14.509-18.32-23.138C175.556,242.461,176.184,222.924,175.077,204.915
			z"/>
		<path style="fill:#231815;" d="M333.721,98.239c-5.825-10.504-12.224-20.052-19.823-29.368
			c-6.168-7.562-13.865-14.865-18.766-23.348c-3.492-6.047,2.428-1.762,4.912,0.277c9.337,7.664,17.191,17.457,24.539,26.977
			c14.89,19.292,25.691,42.911,35.519,65.118c5.385,12.168,11.221,25.433,12.145,38.831c-0.015-0.234-0.029-0.468-0.044-0.702
			c3.707,22.772,5.942,45.94,2.051,68.846c-1.704,10.03-4.495,19.889-8.597,29.207c-1.901,4.319-3.949,8.581-6.367,12.64
			c-0.926,1.555-6.035,7.072-5.977,8.146c-0.153-2.848,3.596-7.854,4.774-10.464c2.253-4.99,4.21-10.14,5.817-15.374
			c2.516-8.201,4.037-16.644,4.879-25.173c1.791-18.165,0.462-36.399-2.055-54.429c-0.918-6.579-1.397-13.705-2.938-20.17
			c-2.285-9.586-6.184-18.875-9.981-27.932C347.686,126.717,340.958,112.326,333.721,98.239z"/>
		<path style="fill:#231815;" d="M237.953,112.902c-1.548-3.853-4.11-3.647-2.848,0.777c1.52,5.327,6.41,10.823,11.377,13.144
			c13.926,6.508,15.233-11.646,11.015-20.207c-0.83-1.684-5.299-8.455-4.888-3.492c0.406,4.904,5.752,8.45,5.839,13.961
			c0.081,5.18-3.093,10.461-8.885,9.049C243.804,124.729,240.107,117.89,237.953,112.902z"/>
		<path style="fill:#231815;" d="M302.098,405.497c-8.125-14.639-18.02-27.85-24.142-43.57c-4.849-12.452-7.697-25.218-10.077-38.31
			c-1.166-6.412-2.467-13.623-6.05-19.193c-1.51-2.348-3.579-5.015-6.544-5.512c-5.122-0.858-4.65,1.606-3.199,4.211
			c4.985,8.951,7.486,19.727,10.726,29.623c4.341,13.26,8.677,26.472,14.933,38.989c6.675,13.354,16.062,25.03,22.816,38.332
			c6.81,13.412,13.686,29.301,12.096,44.695c-0.723,6.995-3.525,12.705-8.255,17.833c-1.136,1.231-10.572,8.931-7.588,10.481
			c4.268,2.217,12.744-7.397,14.539-9.964c4.591-6.565,6.176-14.794,5.875-22.678C316.622,434.578,309.604,419.168,302.098,405.497z
			"/>
		<path style="fill:#231815;" d="M204.549,339.082c-2.688-10.821-4.604-21.909-5.016-33.067c-0.109-2.943-0.46-24.433,4.954-23.551
			c-1.047-0.171-1.082,23.569-0.972,25.313c0.717,11.351,2.679,22.749,5.753,33.698c5.647,20.114,17.965,38.297,30.095,55.003
			c10.37,14.282,24.473,38.633,12.01,55.568c-4.801,6.523-12.738,10.431-20.083,13.342c-1.832,0.726-22.709,6.353-22.698,6.169
			c0.087-1.375,13.409-4.838,14.625-5.312c6.782-2.64,13.639-5.802,19.335-10.402c12.764-10.31,9.608-25.778,3.311-38.975
			c-7.037-14.749-18.567-26.519-26.076-40.982C213.625,364.018,207.491,352.207,204.549,339.082z"/>
		<path style="fill:#231815;" d="M237.667,470.508c1.367-0.758,9.249-5.568,10.967-3.998c1.7,1.553-9.787,6.353-11.331,7.178
			c-5.069,2.708-10.167,5.279-15.725,6.851c-2.905,0.821-15.09,3.815-17.448,0.45c1.06,1.513,13.492-2.621,15.52-3.252
			C225.856,475.808,231.751,473.171,237.667,470.508z"/>
		<path style="fill:#231815;" d="M246.198,477.692c0.977-0.709,7.31-6.13,8.899-5.04c2.158,1.481-8.417,7.93-9.674,8.756
			c-4.847,3.183-10.244,5.94-16.011,6.958c-1.959,0.346-10.903,1.236-11.641-1.852c0.508,2.125,12.715-1.628,13.902-2.038
			C236.746,482.723,241.577,480.415,246.198,477.692z"/>
		<path style="fill:#231815;" d="M280.341,402.165c-0.391-2.711-3.598-34.656,1.534-33.999c2.045,0.262,0.94,17.146,1,18.709
			c0.343,8.981,1.818,17.853,3.162,26.724c2.486,16.409,4.059,33.859-4.457,48.895c-3.945,6.965-9.635,12.743-16.065,17.445
			c-3.473,2.54-11.393,9.125-16.041,8.86c1.212,0.069,7.482-5.541,8.542-6.344c3.354-2.542,6.52-5.311,9.419-8.364
			c6.01-6.328,10.785-13.69,13.367-22.07C285.739,435.993,282.151,418.444,280.341,402.165z"/>
		<path style="fill:#231815;" d="M315.3,477.922c0.867-1.161,6.724-9.872,8.955-8.746c1.735,0.875-4.944,7.913-5.088,8.091
			c-4.534,5.599-8.795,11.26-14.069,16.21c-2.181,2.047-12.887,12.003-16.711,9.431c2.001,1.346,13.634-10.975,15.142-12.467
			C307.6,486.41,311.506,482.216,315.3,477.922z"/>
		<path style="fill:#231815;" d="M324.918,483.88c0.478-0.905,6.097-13.188,6.314-12.987c2.85,2.633-2.781,11.978-3.986,14.213
			c-2.695,5.002-6.049,9.552-10.104,13.533c-3.891,3.82-8.268,7.236-13.109,9.774c-1.348,0.707-10.909,3.092-11.173,3.586
			c0.956-1.79,6.858-3.654,8.736-4.925c2.732-1.849,5.352-3.898,7.889-6.006C315.401,496.157,320.934,490.502,324.918,483.88z"/>
		<path style="fill:#231815;" d="M340.861,346.427c-0.447-11.708-0.159-23.632,2.115-35.16c0.66-3.345,4.636-22.051,10.098-21.339
			c0.212,0.028-2.81,8.346-3.207,9.604c-1.597,5.059-2.762,10.252-3.575,15.493c-1.784,11.509-1.886,23.222-1.319,34.832
			c0.465,9.53,1.961,18.908,2.789,28.4c0.984,11.287,1.172,22.634,2.579,33.885c2.38,19.031,9.352,34.92,3.816,54.099
			c-2.866,9.928-7.958,19.235-14.412,27.28c-4.506,5.616-11.231,13.921-18.319,16.363c1.038-0.306,3.581-3.48,4.487-4.311
			c2.606-2.391,5.086-4.912,7.367-7.616c5.09-6.035,9.333-12.887,12.525-20.105c5.733-12.965,8.071-27.386,4.48-41.223
			c-4.102-15.808-5.769-31.422-6.576-47.706C343.008,374.727,341.175,360.642,340.861,346.427z"/>
		<path style="fill:#231815;" d="M253.038,171.007c3.108-4.515,6.097-9.138,9.406-13.511c0.897-1.186,5.074-7.671,6.17-4.754
			c1.3,3.46-6.623,12.175-8.368,14.746c-3.908,5.757-7.827,11.57-12.5,16.746c-7.458,8.262-17.836,15.301-25.788,4.05
			c-3.41-4.825-5.764-10.497-7.397-16.146c-0.938-3.244-4.216-12.443-2.155-15.593c-0.857,1.31,3.866,11.517,4.73,13.512
			c2.405,5.557,5.378,11.237,9.157,15.985C234.629,196.515,247.92,177.445,253.038,171.007z"/>
		<path style="fill:#231815;" d="M210.603,149.277c0.453,5.266,3.796,6.769,4.223,0.966c0.456-6.201-2.206-12.535-4.493-18.148
			c-4.612-11.32-10.294-26.785-23.474-30.428c-4.703-1.3-10.387,0.813-3.055,3.168c5.218,1.676,10.021,3.076,13.788,7.368
			C206.405,122.243,209.42,136.384,210.603,149.277z"/>
		<path style="fill:#231815;" d="M179.35,153.521c0.731,0.868,7.526,8.923,4.568,10.415c-2.61,1.316-6.472-6.445-7.467-7.727
			c-3.78-4.865-7.542-9.515-10.155-15.157c-1.113-2.404-5.77-14.521-1.92-16.402C162.348,125.64,177.76,151.066,179.35,153.521z"/>
		<path style="fill:#231815;" d="M190.368,207.575c-2.824-8.575-5.032-17.383-6.229-26.339c-0.314-2.353-2.835-16.206,0.438-17.521
			c0.841-0.338,3.406,17.132,3.594,18.301c1.355,8.403,3.396,16.695,6.098,24.765c4.875,14.566,12.233,29.201,29.482,30.266
			c15.315,0.945,29.996-8.473,41.957-16.959c6.176-4.382,12.091-9.14,17.952-13.93c1.119-0.915,10.616-7.228,10.628-8.161
			c-0.035,2.834-8.238,8.591-10.047,10.351c-4.257,4.14-8.563,8.235-13.065,12.109c-9.671,8.32-20.535,16.007-32.904,19.669
			c-11.807,3.496-24.665,2.137-34.188-6.115C196.583,227.511,193.07,216.85,190.368,207.575z"/>
		<path style="fill:#231815;" d="M180.945,123.941c1.048,1.172,3.874,4.62,2.529,6.405c-1.102,1.462-4.818-4.978-5.243-5.446
			c-2.249-2.473-5.123-4.874-8.06-6.479c-0.761-0.416-6.886-2.992-7.387-2.219c1.74-2.685,7.873-1.001,9.842-0.031
			C176.011,117.841,178.796,120.887,180.945,123.941z"/>
		<path style="fill:#231815;" d="M190.158,117.199c0.542,0.867,3.85,7.818,1.395,8.628c-1.385,0.457-4.05-7.858-4.975-9.05
			c-2.351-3.033-5.602-5.42-8.991-7.151c-1.034-0.528-9.125-4.264-9.987-3.709c3.217-2.071,10.354,0.169,13.353,1.782
			C184.923,109.834,188.05,113.254,190.158,117.199z"/>
		<path style="fill:#231815;" d="M145.596,128.913c-0.096-1.704,0-11.239,3.337-11.14c2.945,0.088,0.531,10.534,0.75,12.708
			c0.561,5.566,2.848,10.68,4.896,15.826c1.026,2.577,6.3,11.467,5.439,14.044c-0.238,0.713-9.693-11.842-10.396-13.342
			C146.925,141.252,145.272,135.304,145.596,128.913z"/>
		<path style="fill:#231815;" d="M154.208,183.138c0.379-1.447,5.281-21.71,8.616-20.667c3.068,0.959-3.509,16.85-3.783,17.832
			c-2.631,9.451-6.918,21.692-5.971,31.683c0.589,6.21,3.904,11.831,8.66,15.792c2.307,1.921,4.921,3.396,7.77,4.357
			c1.822,0.614,6.265,0.438,7.483,1.701c-0.163-0.117-5.067,0.686-5.97,0.621c-3.149-0.227-6.274-1.025-9.121-2.393
			c-5.432-2.609-9.645-7.078-11.968-12.626C145.181,208.111,150.737,194.182,154.208,183.138z"/>
		<path style="fill:#231815;" d="M226.66,23.416c-1.332-0.357-4.945-1.343-4.773-3.362c0.16-1.874,5.179,0.715,5.419,0.796
			c3.497,1.168,7.02,1.874,10.356,3.549c0.161,0.081,5.856,3.759,5.133,4.015C238.9,29.794,230.275,24.975,226.66,23.416z"/>
		<path style="fill:#231815;" d="M199.003,32.035c-4.374-2.467,0.108-15.877,5.673-13.693
			C210.241,20.526,202.851,34.207,199.003,32.035z"/>
		<path style="fill:#231815;" d="M252.573,43.131c-4.327-2.072,2.698-18.005,7.411-16.686
			C264.695,27.765,259.845,46.614,252.573,43.131z"/>
		<path style="fill:#231815;" d="M169.675,53.294c-3.457-2.107-2.093-7.74,0.902-6.43C173.573,48.17,171.812,54.596,169.675,53.294z
			"/>
		<path style="fill:#231815;" d="M189.378,59.008c-4.304-0.284-0.398-4.723,3.042-5.558
			C195.858,52.614,196.67,59.487,189.378,59.008z"/>
		<path style="fill:#231815;" d="M256.935,172.763c1.244,9.644,10.549,6.021,16.905,4.976c4.083-0.671,5.857-0.351,7.929-4.233
			c1.877-3.517,3.115-8.06,3.541-11.989c0.996-9.2-4.045-18.326-12.856-10.691C266.007,156.411,258.244,163.939,256.935,172.763z"/>
		<path style="fill:#231815;" d="M248.853,183.008c0.97,3.747,4.134,10.1,2.383,14.013c-2.004,4.477-8.997,3.771-13.057,3.416
			c-5.513-0.483-6.696-3.873-2.723-8.085C239.128,188.457,245.663,187.283,248.853,183.008z"/>
		<path style="fill:#231815;" d="M327.92,85.122c-1.594,1.774-5.414,4.43-5.721,7.046c-0.26,2.213,2.105,4.267,3.228,6.052
			c4.329,6.879,7.856,8.323,15.431,10.994C341.529,99.312,330.803,93.741,327.92,85.122z"/>
		<path style="fill:#231815;" d="M293.689,70.008c-2.845-1.648-5.272,0.808-4.581,3.254c0.316,1.118,2.665,3.208,3.414,4.247
			c1.737,2.407,4.857,8.683,8.31,9.008C307.952,87.186,308.225,63.396,293.689,70.008z"/>
		<path style="fill:#231815;" d="M348.207,131.039c-5.242-2.255-11.58,7.981-12.496,11.859c-0.804,3.403-0.066,5.515,3.119,6.923
			c1.869,0.826,4.193,0.548,6,1.609c2.501,1.47,3.267,4.037,4.474,6.505c1.377,2.817,4.495,9.202,8.618,7.033
			c3.008-1.582,2.983-7.142,2.568-9.933C359.365,147.471,354.363,135.814,348.207,131.039z"/>
		<path style="fill:#231815;" d="M352.299,202.027c-2.776,2.34-4.634,7.09-4.553,10.725c0.099,4.467,1.72,4.369,4.691,6.14
			c2.43,1.449,6.074,7.88,8.556,7.023c2.324-0.802,3.848-6.368,4.408-8.287c1.769-6.068,3.222-14.119-1.114-19.406
			c-2.506-3.055-5.868-4.744-9.423-2.282c-1.058,0.732-5.371,7.106-5.105,7.181C350.685,202.966,351.532,202.601,352.299,202.027z"
			/>
		<path style="fill:#231815;" d="M343.298,263.195c-1.834-4.223-1.803-10.701,0.336-14.824c2.717-5.235,7.54-5.452,9.402,0.25
			c1.313,4.02,1.688,10.349-0.041,14.242C351.007,267.341,344.659,269.25,343.298,263.195z"/>
		<path style="fill:#231815;" d="M274.329,306.786c7.803,3.44,16.579,5.641,25.061,6.502c4.275,0.434,9.581-0.305,13.566,1.596
			c4.645,2.215,3.239,6.425,0.736,10.065c-3.385,4.924-8.726,7.895-14.515,9.017c-9.426,1.827-26.234-0.934-31.122-10.536
			c-2.082-4.09-1.206-9.501,0.688-13.493C269.421,308.51,273.264,302.357,274.329,306.786z"/>
		<path style="fill:#231815;" d="M280.342,348.029c5.543,2.261,11.384,3.849,17.211,5.189c3.397,0.781,9.472,0.198,12.304,2.214
			c3.004,2.139,1.885,4.948,0.827,8.25c-1.174,3.665-2.196,4.505-6.048,5.213c-8.44,1.552-14.302,3.15-20.868-3.393
			C280.286,362.033,271.738,350.75,280.342,348.029z"/>
		<path style="fill:#231815;" d="M209.136,300.619c3.257,4.001,7.956,8.031,12.648,10.244c3.35,1.58,7.055,1.643,10.551,2.714
			c10.891,3.337,1.79,11.044-4.561,13.493c-9.37,3.613-17.903-0.475-21.861-9.904C204.257,313.22,202.035,300.729,209.136,300.619z"
			/>
		<path style="fill:#231815;" d="M209.446,338.961c5.629,5.381,13.028,6.369,20.309,7.737c5.594,1.051,11.24,3.219,5.211,8.741
			c-5.991,5.487-15.026,6.243-20.19-0.639C212.759,352.114,206.945,342.31,209.446,338.961z"/>
	</g>
</g>
</svg>
