<?xml version="1.0" encoding="iso-8859-1"?>
<!-- Generator: Adobe Illustrator 21.1.0, SVG Export Plug-In . SVG Version: 6.00 Build 0)  -->
<svg version="1.1" id="_x31_0" xmlns="http://www.w3.org/2000/svg" xmlns:xlink="http://www.w3.org/1999/xlink" x="0px" y="0px"
	 viewBox="0 0 512 512" style="enable-background:new 0 0 512 512;" xml:space="preserve">
<g>
	<path style="fill:#94C85C;" d="M149.528,56.175c-13.622-5.449-25.671-15.093-24.52-19.071c1.15-3.978,51.765-11.806,51.765-11.806
		s7.265-15.439,12.714-20.888c5.449-5.449,10.712-2.548,14.531,4.541c3.818,7.089,4.157,15.984,11.806,17.255
		c7.649,1.271,15.439,2.725,20.888-3.633c5.449-6.357,12.714-9.99,19.071-10.898c6.357-0.908,9.082,5.449,11.806,12.714
		c2.724,7.265,19.071,23.612,23.612,29.969s23.612,30.877,34.51,41.775c10.898,10.898,45.408,30.877,56.306,40.867
		c10.898,9.99,23.612,19.98,21.796,33.602c-1.816,13.622-25.428,23.612-43.591,19.979c10.898,10.898,12.714,65.387,4.541,89.907
		c8.173,14.53,21.796,54.489,8.173,97.173c-13.622,42.683-19.071,69.02,5.449,83.55c24.52,14.53,36.326,19.071,45.408,21.796
		c9.082,2.725-20.888,1.816-39.051-5.449c20.888,11.806,29.907,16.197,37.234,17.255c7.328,1.058-29.969,1.816-46.316-8.173
		c30.877,16.347,25.428,20.887,9.99,15.439c-15.439-5.449-45.408-18.163-51.765-38.143c-6.357-19.979-4.021-59.415-14.53-79.01
		c-10.509-19.594-21.796-53.581-38.142-56.306c-16.347-2.725-36.326,29.061-34.51,48.132c1.816,19.071,9.433,54.618,6.357,72.652
		c-3.076,18.035-7.265,40.867-59.03,49.04c-16.347,1.816,9.99-13.622,0.908-8.173c-9.082,5.449-15.439,1.816-27.245,2.724
		c-11.806,0.908,19.071-9.99,24.52-11.806c-9.081,4.541-27.245,2.724-19.071,0c8.173-2.724,19.071-7.265,30.877-14.531
		c11.806-7.265,19.071-19.979,9.99-48.132c-9.082-28.153-29.061-63.571-32.694-74.469c-3.633-10.898,1.66-48.177,1.816-52.673
		c0.157-4.496-0.908-9.082-0.908-9.082l-25.428-88.091c0,0-18.163,14.531-49.04,9.99c0,0-24.52-1.816-24.52-14.53
		c0-12.714,16.347-29.969,23.612-34.51c7.265-4.541,58.122-46.316,58.122-46.316s13.622-16.347,17.255-24.52
		S149.528,56.175,149.528,56.175z"/>
	<path style="fill:#FFFFFF;" d="M180.405,64.348c9.082,4.541,55.398,19.979,64.479,19.979c9.081,0,16.347-5.449,20.887-4.541
		c4.541,0.908,7.265,15.439-6.357,24.52c-13.622,9.082-9.107,12.208-10.898,19.071c-5.449,20.888,10.898,41.775,10.898,41.775
		s-8.28,2.341-4.541,5.449c3.739,3.108,8.173-0.908,11.806,4.541c3.633,5.449,63.571,79.009,21.796,119.876
		c-41.775,40.867-86.275,6.357-103.53-8.173c-17.255-14.53-37.234-65.387-28.153-92.632c10.898-9.081,36.326-21.796,55.398-21.796
		c19.071,0,33.602,0.908,33.602-2.725c0-3.633-1.816-9.081-14.531-11.806s-21.796-17.255-10.898-25.428
		c10.898-8.173,21.796-9.082,21.796-9.082s3.633-5.449-4.541-9.99s-37.234-5.449-47.224,9.081s-13.622,19.071-13.622,26.337
		c0,7.265-17.255,9.99-17.255,9.99s16.347-37.234,13.622-60.846c-2.725-23.612-10.898-30.877-17.255-36.326
		c-6.357-5.449-6.357-4.541,5.449-1.816C173.14,62.532,180.405,64.348,180.405,64.348z"/>
	<g>
		<g>
			<path style="fill:#231815;" d="M166.973,29.097c1.793-0.402,14.535-3.328,13.926-6.6c-0.397-2.135-7.347-0.389-8.547-0.188
				c-15.342,2.562-31.478,5.713-46.194,10.817c-4.076,1.414-8.719,3.461-4.848,7.754c4.839,5.367,10.705,9.072,17.276,11.999
				c15.689,6.989,32.742,9.898,49.031,15.063c16.013,5.078,30.948,13.009,47.533,16.362c7.251,1.466,15.771,2.576,22.833-0.293
				c2.38-0.967,5.172-2.615,6.496-4.934c2.592-4.539-2.929-1.382-4.68-0.678c-12.958,5.204-29.617,1.01-42.323-2.967
				c-14.297-4.475-27.796-10.626-42.343-14.431c-16.35-4.277-36.946-7.656-48.967-20.628c-1.35-1.457-1.61-1.297-0.451-2.468
				c0.949-0.958,3.951-1.12,5.187-1.419c2.452-0.592,4.919-1.117,7.391-1.617C147.852,32.938,157.465,31.275,166.973,29.097z"/>
			<path style="fill:#231815;" d="M179.702,10.469c5.144-6.608,14.932-15.577,22.736-6.851c3.05,3.411,4.132,8.148,5.397,12.422
				c0.202,0.683,4.122,10.598,4.65,10.145c-0.582,0.499-4.28-2.78-4.552-3.068c-1.641-1.735-2.688-3.993-3.548-6.193
				c-1.745-4.462-3.255-12.981-9.685-12.502c-3.931,0.293-7.275,3.033-9.712,5.874c-0.441,0.515-7.774,11.205-8.665,10.392
				C175.179,19.645,179.095,11.898,179.702,10.469z"/>
			<path style="fill:#231815;" d="M226.831,22.862c-2.417,0.105-5.894,2.287-3.36,4.614c1.835,1.685,5.364,1.007,7.441,0.285
				c6.343-2.206,9.637-8.505,15.005-12.096c3.946-2.64,9.161-3.352,13.618-1.507c6.582,2.725,5.912,11.984,8.028,17.644
				c0.656,1.754,3.468,7.505,6.268,5.252c1.76-1.416-0.785-5.408-1.477-6.924c-2.419-5.301-3.955-13.468-8.576-17.284
				c-5.013-4.141-12.857-3.464-18.336-0.749C239.366,15.108,233.932,22.323,226.831,22.862z"/>
			<path style="fill:#231815;" d="M159.525,61.574c5.812,5.616,10.764,12.268,13.078,20.089c1.511,5.107,1.879,10.598,0.694,15.815
				c-0.37,1.629-0.889,3.24-1.589,4.758c-0.266,0.577-2.21,3.211-2.182,3.315c-0.345-1.277,0.481-4.248,0.542-5.611
				c0.109-2.468,0.267-4.947,0.249-7.418c-0.04-5.427-1.34-10.593-4.133-15.256c-1.73-2.889-3.32-5.979-5.467-8.592
				c-0.766-0.933-11.428-10.789-10.599-11.499C151.187,56.259,158.286,60.803,159.525,61.574z"/>
			<path style="fill:#231815;" d="M181.749,132.365c7.973-10.754,19.359-20.215,32.446-23.798
				c6.525-1.786,13.624-1.859,19.913,0.848c2.659,1.145,5.126,2.741,7.219,4.743c0.641,0.613,4.086,3.775,3.653,4.598
				c0.363-0.691-6.28-4.514-7.073-4.925c-3.424-1.772-7.18-2.925-11.014-3.357c-8.343-0.94-16.745,2.19-23.614,6.743
				c-5.78,3.831-11.406,8.02-15.915,13.325c-2.718,3.198-5.127,6.694-7.138,10.378c-0.606,1.109-2.176,6.082-3.403,6.529
				c-0.511,0.186,1.279-7.023,1.499-7.627C179.257,137.25,180.411,134.752,181.749,132.365z"/>
			<path style="fill:#231815;" d="M258.985,105.358c12.899-5.715,28.141-1.458,39.03,6.612c5.349,3.964,9.999,8.988,13.04,14.944
				c1.39,2.723,2.429,5.614,2.952,8.631c0.103,0.594,0.069,6.685,0.091,6.699c-0.401-0.25-0.526-2.967-0.678-3.525
				c-0.455-1.672-1.105-3.294-1.799-4.879c-1.484-3.389-3.376-6.582-5.58-9.552c-5.005-6.744-11.947-12.107-19.837-15.045
				c-6.048-2.252-12.991-3.917-19.442-2.844c-3.895,0.648-7.602,2.23-10.84,4.475c-1.604,1.112-6.072,6.603-7.779,6.542
				c-0.535-0.019,4.179-6.556,4.567-6.969C254.543,108.496,256.638,106.672,258.985,105.358z"/>
			<path style="fill:#231815;" d="M205.079,129.691c3.758-3.244,7.902-6.321,12.714-7.776c1.612-0.487,10.452-1.957,10.84,1.416
				c-0.047-0.405-8.303,1.088-8.893,1.263c-3.028,0.898-5.403,2.751-8.054,4.324c-2.279,1.352-4.904,5.089-7.272,5.696
				C201.314,135.41,204.212,131.391,205.079,129.691z"/>
			<path style="fill:#231815;" d="M203.851,122.508c3.712-2.969,7.606-5.821,12.334-6.897c1.546-0.352,9.086-1.266,9.846,1.332
				c-0.224-0.765-12.279,3.055-13.22,3.598c-1.58,0.911-10.454,7.547-11.072,6.831C201.2,126.747,203.438,123.294,203.851,122.508z"
				/>
			<path style="fill:#231815;" d="M265.491,112.185c5.322-0.686,10.743,0.414,15.501,2.855c1.846,0.947,9.805,5.719,8.937,8.742
				c0.03-0.106-5.119-2.754-5.375-2.912c-3.228-1.999-6.065-3.625-9.778-4.52c-2.083-0.502-4.345-1.121-6.511-1.112
				c-0.721,0.003-7.538,1.677-7.864,0.651C260.084,114.894,264.992,112.42,265.491,112.185z"/>
			<path style="fill:#231815;" d="M281.392,132.409c-4.546-6.191-11.412-9.816-18.22-12.941c-2.079-0.954-5.452-2.638-7.286-0.238
				c-2.341,3.062,1.451,5.26,4.044,5.346c11.19,0.371,26.195,9.641,24.363,22.838c-1.821,13.124-19.256,14.201-28.718,19.244
				c-1.01,0.538-2.23,0.986-2.653,2.165c-1.255,3.493,2.351,3.002,4.066,1.657c2.622-2.056,5.377-3.37,8.481-4.649
				c7.552-3.113,16.971-5.979,20.287-14.298C288.365,144.983,285.686,137.626,281.392,132.409z"/>
			<path style="fill:#231815;" d="M223.989,158.393c4.452,1.684,16.041,2.778,17.781,7.757c0.679,1.941,0.309,5.693,3.999,4.888
				c3.484-0.76,2.361-5.669,0.797-7.573c-6.867-8.359-21.357-2.291-27.12-12.04c-3.673-6.215-3.681-11.924,1.104-17.738
				c3.566-4.334,9.013-8.06,14.649-8.917c1.948-0.296,3.703,0.555,5.506,0.426c2.672-0.191,4.276-2.411,1.452-3.885
				c-4.331-2.262-12.163,1.635-15.78,3.87c-6.308,3.897-12.4,10.513-12.303,18.372C214.147,149.447,218.364,156.357,223.989,158.393
				z"/>
			<path style="fill:#231815;" d="M226.457,172.702c-7.946-1.101-16.082,0.858-23.864,2.253c-0.733,0.131-14.904,2.224-14.797,1.152
				c0.064-0.646,6.127-2.688,6.639-2.86c5.46-1.827,11.346-2.693,16.961-3.958c3.567-0.804,6.869-0.751,10.498-0.654
				c2.427,0.065,11.931-0.249,13.021,3.19C234.966,171.988,227.513,172.553,226.457,172.702z"/>
			<path style="fill:#231815;" d="M264.49,170.578c6.328-0.778,12.654-0.732,19.008-0.356c2.95,0.174,5.899,0.389,8.844,0.635
				c1.118,0.094,5.433-0.053,6.253,0.868c0.223,0.251-8.938,2.328-9.549,2.333c-4.904,0.04-9.931,0.265-14.815,0.169
				c-4.517-0.09-8.663,0.329-13.185,0.712c-1.568,0.133-3.563,0.537-2.433-1.228C259.425,172.443,263.155,171.196,264.49,170.578z"
				/>
			<path style="fill:#231815;" d="M127.652,135.389c7.342-4.31,14.013-9.69,20.175-15.544c1.489-1.414,12.821-13.712,13.873-11.61
				c0.933,1.864-2.361,6.529-3.266,7.923c-2.196,3.385-5.195,6.054-8.206,8.702c-5.895,5.182-12.154,9.911-18.507,14.512
				c-12.902,9.345-25.931,18.478-36.977,30.057c-4.803,5.035-11.683,12.274-10.399,19.914c0.909,5.411,6.173,9.444,10.877,11.499
				c14.703,6.424,34.602,2.888,48.925-2.949c6.895-2.81,13.159-6.601,19.386-10.628c1.155-0.747,14.681-8.051,13.977-4.124
				c-0.317,1.771-5.51,4.171-6.846,5.023c-3.639,2.322-7.329,4.564-11.072,6.717c-5.556,3.195-11.375,6.162-17.463,8.216
				c-13.894,4.687-31.836,6.287-45.823,1.246c-6.282-2.264-13.262-6.613-15.008-13.507c-2.025-7.994,3.785-15.506,8.829-21.059
				c5.458-6.008,11.583-11.455,17.463-17.044C113.781,146.849,120.253,139.784,127.652,135.389z"/>
			<path style="fill:#231815;" d="M313.965,176.109c13.607,4.933,27.551,9.431,41.884,11.685c6.719,1.057,13.563,1.616,20.357,1.048
				c2.32-0.194,4.629-0.518,6.91-0.982c0.974-0.198,4.693-1.727,5.376-1.137c-0.19-0.164-7.943,3.838-9.008,4.159
				c-4.29,1.293-8.76,1.654-13.222,1.527c-9.989-0.285-19.95-2.261-29.656-4.534c-6.252-1.464-12.31-4.159-18.38-6.239
				c-1.105-0.379-21.054-8.103-20.805-8.381c1.039-1.159,8.359,1.239,9.741,1.511C309.429,175.214,311.697,175.662,313.965,176.109z
				"/>
			<path style="fill:#231815;" d="M285.832,55.04c-1.13-3.761-4.949-4.909-6.989-7.888c-2.272-3.319,1.884-5.611,4.972-4.357
				c2.788,1.132,5.395,5.193,7.272,7.444c1.998,2.395,3.905,4.874,5.769,7.375c3.715,4.986,7.367,10.037,10.867,15.176
				c3.869,5.679,8.077,12.151,13.91,16.016c1.895,1.256,4.547,2.963,2.891,5.74c-1.852,3.107-5.31-0.626-7.159-2.192
				c-5.337-4.523-7.936-10.437-11.758-16.181c-2.897-4.354-6.348-8.52-9.395-12.82c-1.47-2.075-3.127-3.34-5.28-4.693
				C289.618,57.833,286.382,56.669,285.832,55.04z"/>
			<path style="fill:#231815;" d="M167.838,157.552c-5.122,1.698-10.461,2.133-15.672,3.414c-5.04,1.239-9.811,2.283-14.997,2.822
				c-1.958,0.204-8.844,2.101-10.577,0.692c-2.115-1.721,1.146-1.438,1.141-1.62c0.009,0.292-1.057,0.351-1.094,0.826
				c1.284,0.345,4.386-1.78,5.728-2.231c2.303-0.773,4.622-1.107,7.016-1.458c4.877-0.715,9.172-2.494,13.915-3.605
				c3.472-0.813,7.047-0.64,10.523-1.597c0.738-0.203,10.803-4.518,11.144-3.72C175.599,152.556,168.988,156.811,167.838,157.552z"
				/>
			<path style="fill:#231815;" d="M156.766,216.317c0.054,19.122,5.664,38.495,16.337,54.383
				c5.23,7.785,11.777,14.518,18.944,20.533c3.292,2.763,6.712,5.367,10.137,7.962c1.503,1.138,3.036,2.244,4.499,3.434
				c0.25,0.203,1.924,1.892,2.027,1.892c-0.965-0.002-2.674-1.287-3.555-1.685c-2.336-1.053-4.673-2.089-6.946-3.275
				c-4.439-2.315-8.64-5.039-12.523-8.201c-9.648-7.855-17.283-17.847-23.126-28.78c-4.95-9.262-7.522-18.273-9.065-28.598
				c-1.619-10.836-3.323-22.986,0.427-33.572c0.423-1.193,2.355-6.702,4.122-6.63c1.151,0.047-0.791,4.039-1.023,4.903
				C155.507,204.336,155.885,210.586,156.766,216.317z"/>
			<path style="fill:#231815;" d="M321.908,95.661c1.98,4.211,4.425,8.387,7.831,11.612c2.967,2.809,6.634,4.199,10.171,6.101
				c8.929,4.803,17.923,9.488,26.414,15.05c8.039,5.266,15.643,11.344,22.396,18.192c5.876,5.96,12.946,13.864,13.462,22.691
				c0.126,2.147-0.288,4.138-1.13,6.105c-0.505,1.181-2.48,3.192-2.223,4.544c0.961,5.058,6.185-2.962,6.67-4.701
				c2.563-9.186-2.323-18.342-7.832-25.399c-4.265-5.463-9.195-9.994-14.747-14.07c-7.554-5.545-14.193-12.277-21.779-17.809
				c-5.934-4.327-12.505-7.672-18.376-12.201c-4.252-3.281-8.456-6.662-12.737-9.893c-1.126-0.85-5.579-4.409-7.14-4.206
				C320.927,91.934,321.201,94.174,321.908,95.661z"/>
			<path style="fill:#231815;" d="M263.038,87.447c5.3-0.872,12.769-6.116,12.793-11.988c0.021-5.114-4.872-8.215-9.552-8.208
				c-6.734,0.009-13.184,3.299-19.03,6.259c-1.23,0.623-5.57,3.5-6.962,2.086c-1.902-1.933,1.639-2.814,2.821-3.224
				c8.961-3.109,25.793-12.7,33.016-2.481c4.264,6.032,0.696,12.436-4.502,16.427c-2.185,1.678-4.775,3.24-7.402,4.128
				C260.369,91.746,259.608,88.041,263.038,87.447z"/>
			<path style="fill:#231815;" d="M162.588,53.207c-1.902-0.606-4.317-3.847-4.026-5.9c0.349-2.467,2.517-2.551,4.101-1.24
				c3.13,2.592,4.193,8.882-1.633,7.388C161.591,52.302,162.764,53.074,162.588,53.207z"/>
			<path style="fill:#231815;" d="M182.008,58.069c-1.255-0.404-5.562-1.053-4.56-3.56c0.909-2.276,8.3-2.344,10.164-2.051
				c-0.146,2.109-1.346,3.947-3.164,4.992C184.094,57.654,181.868,58.216,182.008,58.069z"/>
			<path style="fill:#231815;" d="M322.409,148.194c6.829,3.462,15.143,3.435,22.603,3.944c1.017,0.07,19.164,2.555,18.405,3.846
				c-0.55,0.937-9.517,0.287-10.501,0.249c-5.834-0.229-11.682-0.364-17.514-0.625c-3.565-0.16-6.994-1.262-10.378-2.37
				c-0.594-0.195-13.717-6.393-11.017-8.01C314.725,144.797,321.016,147.88,322.409,148.194z"/>
			<path style="fill:#231815;" d="M368.773,211.085c2.581,12.665,4.646,25.531,3.968,38.5c-0.32,6.123-1.272,12.22-3.221,18.045
				c-0.882,2.638-3.589,11.536-6.801,12.406c0.927-0.251,1.618-10.529,1.832-11.897c0.801-5.112,1.847-10.174,2.189-15.348
				c0.562-8.482-1.246-16.513-1.509-24.898c-0.254-8.095-2.756-15.813-4.11-23.745c-0.3-1.759-1.627-7.941,1.262-5.335
				c1.57,1.416,2.607,4.88,3.587,6.763C366.921,207.404,367.845,209.245,368.773,211.085z"/>
			<path style="fill:#231815;" d="M375.538,365.024c2.885-17.64,4.249-35.5,2.509-53.346c-0.628-6.448-1.062-13.567-4.049-19.414
				c-1.14-2.232-4.677-8.029-7.994-6.463c-3.078,1.453,0.3,7.376,1.081,9.265c3.069,7.424,5.571,14.059,6.64,22.107
				c1.198,9.013,1.535,18.278,1.245,27.364c-0.462,14.487-3.073,29.323-6.701,43.348c-4.487,17.349-11.676,35.894-6.425,53.904
				c4.801,16.469,19.554,24.446,34.141,31.375c7.255,3.446,14.703,6.504,22.36,8.941c3.173,1.01,6.727,2.336,10.107,1.53
				c4.751-1.133,2.337-3.568-0.988-4.378c-6.548-1.594-12.949-2.527-19.345-4.842c-7.301-2.642-14.436-5.908-21.221-9.683
				c-7.245-4.031-14.587-8.433-18.781-15.816c-5.15-9.066-5.823-19.595-4.462-29.749c1.369-10.214,4.628-20.052,7.174-30.005
				C372.86,381.22,374.232,373.114,375.538,365.024z"/>
			<path style="fill:#231815;" d="M276.403,333.105c9.77-1.455,15.627,5.551,20.729,12.645c4.471,6.217,8.397,12.667,11.711,19.583
				c7.572,15.802,13.917,33.048,15.095,50.624c1.201,17.908,1.994,36.652,9.69,53.186c7.51,16.134,21.706,26.933,37.101,35.088
				c5.457,2.891,11.91,7.013,18.164,7.677c2.125,0.226,3.32,0.195,2.582-2.061c-1.102-3.366-6.84-5.834-9.663-7.222
				c-14.847-7.303-29.457-13.264-39.229-27.538c-9.752-14.245-11.259-30.896-14.291-47.371c-1.26-6.847-1.738-13.819-2.859-20.695
				c-1.615-9.909-4.571-19.573-7.736-29.084c-2.74-8.234-6.096-15.938-10.227-23.535c-4.735-8.707-7.111-18.24-13.977-25.758
				c-3.496-3.828-7.587-6.672-12.831-7.329c-3.597-0.451-9.134-0.079-11.444,3.26c-0.997,1.44-2.204,6.005-1.057,7.604
				c0.962,1.341,1.612,0.211,3.087-0.045C272.992,331.829,274.858,332.27,276.403,333.105z"/>
			<path style="fill:#231815;" d="M375.406,484.549c6.514,5.97,15.749,8.457,23.938,11.152c3.652,1.202,7.32,2.403,10.798,4.059
				c0.081,0.039,3.987,2.227,3.792,2.344c-1.49,0.9-7.623-0.84-9.176-1.183c-5.988-1.323-11.936-3.302-17.783-5.152
				c-3.484-1.102-6.366-2.894-9.392-4.91c-2.341-1.559-4.703-3.171-6.625-5.245c-0.451-0.487-4.601-5.688-3.152-6.17
				C368.645,479.166,374.143,483.871,375.406,484.549z"/>
			<path style="fill:#231815;" d="M386.681,477.461c7.981,5.265,17.592,7.864,26.531,10.986c4.128,1.442,8.275,2.922,12.183,4.902
				c0.246,0.125,3.928,2.516,3.907,2.523c-0.555,0.198-2.195-0.366-2.835-0.451c-2.442-0.323-4.841-0.702-7.228-1.333
				c-6.287-1.66-12.454-3.887-18.697-5.718c-4.502-1.32-8.515-3.545-12.63-5.788c-0.208-0.113-12.503-8.262-10.229-9.383
				C378.634,472.731,385.122,476.968,386.681,477.461z"/>
			<path style="fill:#231815;" d="M178.803,294.627c-0.302,4.296,0.06,8.578-0.007,12.875c-0.059,3.819-0.629,7.57-0.388,11.394
				c0.518,8.208,1.628,16.335,3.9,24.252c4.154,14.473,10.892,28.546,16.334,42.601c5.272,13.616,11.673,27.36,15.473,41.472
				c1.961,7.283,4.13,16.816,1.644,24.25c-2.014,6.023-8.6,10.473-13.882,13.427c-7.073,3.956-14.235,5.131-21.892,7.213
				c-2.192,0.596-8.364,2.185-4.289,4.857c3.249,2.13,8.523,0.397,11.818-0.752c12.769-4.455,29.91-12.574,33.058-27.017
				c6.423-29.47-11.002-57.234-25.383-81.183c-4.28-7.127-7.092-15.579-9.088-23.597c-2.103-8.443-3.999-17.318-2.124-25.908
				c1.789-8.195,9.036-17.887,4.68-26.385c-0.681-1.329-3.53-5.671-5.371-5.234c-0.995,0.236-1.532,3.078-1.953,3.904
				C180.64,292.155,179.709,293.402,178.803,294.627z"/>
			<path style="fill:#231815;" d="M248.56,369.81c-4.441,32.105,15.623,66.716,1.421,97.631
				c-4.791,10.429-14.057,19.126-24.498,23.705c-6.683,2.931-13.902,4.316-21.066,5.485c-2.999,0.489-6.008,0.918-9.008,1.406
				c-2.704,0.439-5.881,1.554-8.639,1.461c1.435,0.048,4.087-1.348,5.532-1.778c3.423-1.019,6.871-1.939,10.335-2.81
				c6.923-1.74,13.947-3.369,20.484-6.303c13.88-6.229,24.111-18.474,26.87-33.519c2.494-13.605-0.642-27.102-2.534-40.543
				c-1.891-13.432-4.371-27.227-3.231-40.826c0.674-8.052,2.776-15.943,6.959-22.903c0.826-1.375,10.944-14.423,12.275-12.749
				c0.428,0.538-4.413,5.339-4.85,5.89c-2.166,2.726-4.007,5.626-5.522,8.757C250.536,357.984,248.866,363.945,248.56,369.81z"/>
			<path style="fill:#231815;" d="M196.993,481.694c-5.45,2.066-11.095,3.712-16.794,4.928c-2.181,0.466-10.105,2.993-12.173,1.375
				c0.139,0.109,4.433-2.087,4.715-2.186c4.071-1.434,8.426-1.988,12.529-3.378c2.141-0.725,4.245-1.185,6.412-1.788
				c2.277-0.634,7.956-4.357,10.193-3.352C202.312,477.49,197.594,481.255,196.993,481.694z"/>
			<path style="fill:#231815;" d="M206.713,486.25c-8.488,3.536-17.406,6.316-26.437,8.059c-4.079,0.787-8.24,1.361-12.401,1.415
				c-1.005,0.013-4.61,0.426-5.399-0.466c0.508,0.575,7.514-1.657,8.235-1.801c6.145-1.228,12.268-2.212,18.251-4.144
				c4.16-1.343,8.443-2.4,12.542-3.914c0.899-0.332,12.886-5.471,12.937-5.274C214.809,481.549,207.913,485.501,206.713,486.25z"/>
			<path style="fill:#231815;" d="M189.892,314.856c9.428,0,18.884,1.807,25.51,9.126c2.716,3.001,4.538,8.076,2.609,11.986
				c-1.592,3.228-4.216,1.667-7.017,0.819c-5.598-1.694-10.504-1.782-16.267-1.091c-3.434,0.412-8.242,1.101-10.822-1.832
				C179.544,328.906,182.044,314.856,189.892,314.856z"/>
			<path style="fill:#231815;" d="M191.938,348.281c7.295-0.663,17.809-1.662,23.28,4.414c2.023,2.247,4.029,6.577,2.386,9.502
				c-1.484,2.641-5.058,2.677-7.699,2.549c-6.523-0.315-12.339,2.983-17.135-3.068C190.721,359.094,185.258,348.888,191.938,348.281
				z"/>
			<path style="fill:#231815;" d="M334.504,320.314c-5.013,1.276-22.497,11.832-12.408,17.936c4.678,2.83,12.737,2.303,17.95,1.847
				c5.032-0.44,10.223-1.04,15.199-1.865c4.929-0.817,8.93-3.331,10.946-8.086c2.164-5.105-3.349-7.146-7.13-9.149
				C351.195,316.829,342.909,318.174,334.504,320.314z"/>
			<path style="fill:#231815;" d="M331.094,370.792c-3.542-1.635-6.978-5.106-7.688-9.071c-0.832-4.643,2.578-6.241,6.552-6.858
				c4.654-0.723,9.356-1.133,13.982-2.035c2.872-0.56,6.96-3.389,9.773-2.452c3.462,1.153,7.732,6.772,8.511,10.305
				c0.712,3.228,0.492,6.332-1.893,8.71C352.919,376.78,339.547,374.693,331.094,370.792z"/>
			<path style="fill:#231815;" d="M331.094,104.759c-2.26,4.52-7.226,19.284-1.054,22.939c1.032,0.611,2.136,0.323,3.195,1.112
				c0.905,0.675,1.417,1.874,2.036,2.776c1.674,2.443,3.032,3.426,5.852,1.789c3.185-1.848,7.847-5.485,9.47-8.902
				c1.958-4.122-0.733-8.393-3.714-11.226C342.589,109.171,336.692,106.518,331.094,104.759z"/>
			<path style="fill:#231815;" d="M365.2,129.998c2.52,2.52,10.44,10.812,5.536,14.139c-0.936,0.635-2.784,0.737-3.883,1.229
				c-1.251,0.56-2.479,1.457-3.831,1.764c-3.25,0.738-5.161-1.007-7.142-3.439c-2.493-3.06-1.209-6.379-0.87-10.197
				C355.617,126.639,360.365,125.163,365.2,129.998z"/>
			<path style="fill:#231815;" d="M160.56,117.038c2.655,5.311,5.868,12.323,1.443,17.637c-1.089,1.307-2.721,2.482-4.195,3.304
				c-3.665,2.046-5.021,0.721-7.438-2.299c-1.566-1.958-2.896-3.354-4.68-4.744c-2.652-2.066-1.397-3.26,0.937-5.341
				C148.703,123.743,157.881,111.68,160.56,117.038z"/>
			<path style="fill:#231815;" d="M137.368,137.502c2.459,2.869,2.761,5.538,1.633,8.98c-0.42,1.279-1.069,5.288-2.188,6.237
				c-2.611,2.215-12.155-1.57-14.682-3.328C115.311,144.647,132.892,137.221,137.368,137.502z"/>
			<path style="fill:#231815;" d="M335.186,193.437c2.789,4.533,4.797,9.383,7.323,14.043c1.163,2.145,2.568,4.139,3.79,6.248
				c0.645,1.112,2.077,5.119,3.733,5.358c2.935,0.423,5.155-8.174,5.204-10.441c0.1-4.641,0.002-10.38-1.875-14.661
				c-2.257-5.148-11.6-8.071-16.66-9.343C329.302,182.78,333.527,189.288,335.186,193.437z"/>
			<path style="fill:#231815;" d="M359.061,241.868c-3.617-5.425-8.795-8.236-5.427-15.063c1.069-2.168,4.105-8.748,7.876-6.811
				c0.958,0.492,1.157,1.684,1.495,2.636c1.183,3.343,2.347,6.89,2.25,10.471C365.204,234.966,362.23,246.622,359.061,241.868z"/>
			<path style="fill:#231815;" d="M355.65,267.789c-3.411-1.705-6.368-4.393-5.07-8.45c0.482-1.505,2.862-6.411,4.442-6.962
				c2.96-1.033,3.665,6.1,3.635,7.861C358.609,262.985,357.512,265.764,355.65,267.789z"/>
			<path style="fill:#231815;" d="M300.117,90.315c-3.531-2.825-12.468-12.705-5.215-16.64c4.315-2.341,6.9,5.567,8.145,8.386
				c0.637,1.442,6.058,10.884,5.399,11.493C307.257,94.654,301.317,90.961,300.117,90.315z"/>
		</g>
		<path style="fill:#231815;" d="M255.035,40.769c-7.066-1.178-5.439-20.203,1.554-16.317
			C263.582,28.337,259.697,41.546,255.035,40.769z"/>
		<path style="fill:#231815;" d="M194.428,30.668c-4.45-2.225-1.554-17.872,3.108-13.986S200.644,33.776,194.428,30.668z"/>
	</g>
</g>
</svg>
