<?xml version="1.0" encoding="iso-8859-1"?>
<!-- Generator: Adobe Illustrator 21.1.0, SVG Export Plug-In . SVG Version: 6.00 Build 0)  -->
<svg version="1.1" id="_x31_1" xmlns="http://www.w3.org/2000/svg" xmlns:xlink="http://www.w3.org/1999/xlink" x="0px" y="0px"
	 viewBox="0 0 512 512" style="enable-background:new 0 0 512 512;" xml:space="preserve">
<g>
	<path style="fill:#3E3A39;" d="M436.565,198.761l12.952-28.063c0,0,9.174-5.397,10.793-4.317c1.619,1.079,4.317,5.397,8.635,12.952
		c4.317,7.555,7.555,37.777,9.714,59.364c2.159,21.587-1.079,43.713-8.635,47.491c-7.555,3.778-15.111-20.508-15.111-20.508
		L436.565,198.761z"/>
	<path style="fill:#CEAA82;" d="M75.525,61.145c1.619-10.793-1.079-18.888-4.317-23.206s-4.317-13.492,6.476-18.349
		c10.794-4.857,9.174-9.174,15.65-13.492c6.476-4.317,15.111-5.936,23.206,0c8.095,5.936,9.714,18.349,4.857,26.984
		c-4.857,8.635,4.317,9.174,7.016,12.952c2.698,3.778,3.778,11.873-3.778,15.65c-7.555,3.778-12.952,7.555-14.571,12.412
		c-1.619,4.857-0.952,14.844-7.555,17.809c-6.604,2.965-15.721,5.64-16.73,9.714c-1.009,4.074-1.079,19.968-4.317,25.365
		c-3.238,5.397-8.095,12.412-8.095,12.412l-9.714,35.079c0,0-7.555,25.365-9.174,33.46c-1.619,8.095-11.873,35.618-16.73,42.634
		c-4.857,7.016-12.952,34.539-15.111,38.317c-2.159,3.778-5.936,10.254-11.333,9.714c-5.397-0.54,3.238-18.349,2.698-23.206
		c-0.54-4.857,22.666-56.665,24.285-60.443c1.619-3.778,8.163-30.946,8.163-30.946s11.805-44.069,12.344-45.688
		c0.54-1.619,3.778-26.983,4.317-31.301c0.54-4.317,9.174-18.349,9.714-24.285C73.367,76.796,75.525,61.145,75.525,61.145z"/>
	<path style="fill:#94C85C;" d="M492.691,135.08c4.317-9.714,5.397-26.984-2.698-13.492c4.317-16.73,2.698-22.127-2.159-10.794
		c-3.778,14.032-14.632,18.429-23.746,16.19c-9.114-2.238-5.397-20.508-10.794-16.19c-5.397,4.317-5.397,14.571-3.238,23.746
		c2.159,9.174-5.396,15.65-7.016,20.507c-1.619,4.857-16.19,18.349-31.301,31.301c-19.269,16.517-54.244,32.727-53.427,30.221
		c0,0-3.778-12.412-11.333-25.904c-7.556-13.492-27.523-31.301-37.237-35.078c-9.714-3.778-12.413-6.476-15.65-12.952
		c-3.238-6.476-11.7-12.949-17.809-11.873c-6.11,1.076-9.714,4.857-11.873,11.333c-2.159,6.476-22.666,11.333-26.444,8.095
		c-5.936-8.635-9.714-14.571-12.952-15.65c-3.238-1.079-10.528,9.401-10.254,15.65c0.275,6.25-0.539,6.476-9.174,9.714
		c-8.635,3.238-19.968,6.476-19.428,10.254c0.54,3.778,7.016,4.857,12.952,4.857l10.524,1.619l19.698,18.888
		c0,0,5.397,23.746,4.857,25.365c-0.539,1.619-2.698,2.159-6.476,2.699c-3.778,0.54-23.206,7.286-41.555,4.048
		c-18.349-3.238-31.301-14.301-33.459-15.381c-2.159-1.079-12.412-4.857-18.889-6.476c-6.476-1.619-34.539-18.349-45.937-29.97
		c-5.263-5.366-8.03-0.791-12.347-7.267c-2.588-3.882-3.237-8.155-3.923-12.929c-0.395-0.197-0.798-0.376-1.198-0.563
		c0.102-2.536,0.264-4.318,0.264-4.318s-4.831,6.897-5.845,9.478c-2.121-0.916-0.033-7.44-2.216-7.958
		c0.024,0.306,0.041,0.594,0.055,0.876c-3.536-5.432-8.253-7.794-10.882-7.794c-2.686,0-3.187,5.172-3.254,8.168
		c-3.975,2.448-4.57,7.073-5.381,12.34c0.687,0.772-0.528,1.741,0.087,2.38c-2.487,1.188-2.922,2.714-2.115,4.293
		c0.438,4.215,1.979,8.119,4.724,10.598c0.308,0.279,0.499,0.583,0.61,0.893c8.945-7.463,12.884,2.343,13.369,6.079
		c9.446,2.856,73.99,42.675,78.847,45.374c4.857,2.699,1.079,3.238,1.079,3.238s28.602,15.651,37.777,18.889
		c9.175,3.238,37.777,14.031,37.777,14.031l-6.476,135.458c0,0-8.095,32.38-5.936,44.792c1.332,7.659,4.719,22.713,8.005,34.896
		c19.396,6.27,39.769,10.792,60.374,13.092c0.26-4.663,0.506-8.737,0.699-11.83c1.079-17.27,13.492-34.539,16.73-32.38
		c3.238,2.158,7.016,35.078,8.095,41.554c0.155,0.929,0.276,2.439,0.378,4.335c17.918,0.311,35.756-1.207,53.034-4.853
		c6.237-29.417,18.1-61.418,18.903-62.623c1.079-1.619,2.159-5.936,6.476-11.873c4.318-5.936,19.968-50.729,18.889-90.665
		c-1.079-39.935-16.73-69.078-21.047-75.554c19.968-7.016,58.019-50.304,63.142-57.205c5.122-6.901,11.903-18.427,24.855-28.681
		c12.952-10.254,26.413-15.572,33.969-27.984C502.944,129.683,499.706,122.128,492.691,135.08z"/>
	<path style="fill:#FFFFFF;" d="M320.536,292.664c-15.111-18.888-11.333-46.411-3.778-55.046c7.556-8.635,6.476-22.936-17.27-35.888
		c-23.745-12.952-53.234-17.618-60.25-19.776l-31.038-5.214c0,0,14.697,13.908,18.432,20.134c7.286,12.143,0.54,21.857-2.159,33.729
		c-2.395,10.538-2.158,28.602-3.238,31.841c-1.045,3.135-7.651,14.362-13.458,25.358c5.827,12.399,12.935,24.201,18.429,36.769
		c6.202,14.185,9.933,29.517,9.964,45.051c0.037,18.841-5.239,36.704-13.534,53.23c11.022,6.182,26.174,10.932,42.852,16.064
		c28.063,8.635,59.364-17.809,67.999-52.888C342.123,350.948,335.647,311.552,320.536,292.664z"/>
	<path style="fill:#3E3A39;" d="M85.239,205.237c0,0,13.492,55.046,24.825,75.014c11.333,19.968,22.126,29.142,28.603,29.682
		c6.476,0.54,12.952-21.047,2.698-49.11c-10.254-28.063-14.571-33.46-14.571-33.46s-19.428-12.412-23.745-14.571
		C98.731,210.634,85.239,200.92,85.239,205.237z"/>
	<path style="fill:#717071;" d="M226.078,222.922c0.54,2.159,7.946,22.844,38.332,27.647c24.769,3.916,37.237,0.54,46.951-2.698
		c9.714-3.238,25.904-12.952,28.603-16.19c2.698-3.238,17.269-18.888,17.269-18.888l1.08,3.777c0,0,26.444-11.873,32.92-16.73
		c6.476-4.857,48.031-39.936,48.031-39.936s-6.476,43.713,8.635,90.665c9.714,28.063,15.111,36.158,22.126,35.618
		c3.238,3.778-6.476,8.095-14.571,9.714c-8.095,1.619-41.637,4.339-52.348,3.778c-10.711-0.561-4.317,3.238,1.619,9.174
		c5.936,5.936,12.412,43.713,11.333,61.522c-1.079,17.809-5.397,46.951-7.016,56.126s-3.238,15.65,5.397,18.888
		c8.635,3.238,17.039,3.969,25.904,7.555c8.866,3.587,14.571,12.412,2.159,17.809c-12.412,5.397-87.966,31.301-103.077,34.539
		c-15.111,3.238-52.348,5.936-66.919,3.778c-14.571-2.159-79.744-18.413-89.585-23.206s-16.085-10.934-7.555-17.27
		c8.53-6.335,18.349-11.333,18.349-11.333s-7.016-4.317-8.635-10.793c-1.619-6.476,2.159-11.873,6.476-18.349
		c4.317-6.476,15.111-25.904,17.27-37.237c2.159-11.333-1.079-56.665-3.238-67.459c-2.159-10.793-3.778-19.968-8.635-20.507
		c-4.857-0.54-28.101,9.586-36.698,12.412c-8.596,2.826-18.349-2.159-21.587-5.397c4.317,0.54,9.174-10.254,8.095-23.745
		c-1.079-13.492-17.809-56.126-23.206-63.681c-5.397-7.555-23.745-34.539-27.523-38.317c-3.778-3.778-8.16-8.383-8.16-8.383
		s9.24-1.331,14.636,0.828c5.397,2.159,40.476,28.603,50.19,35.618c9.714,7.016,35.078,15.111,42.094,16.19
		c7.016,1.079,22.666-2.698,24.825-3.238S226.078,222.922,226.078,222.922z"/>
	<g>
		<path style="fill:#231815;" d="M243.004,89.92c-2.658-0.037-10.807,3.226-13.991,5.28c-6.767,4.364-2.625,9.407,3.302,12.112
			c11.847,5.407,26.606,3.805,39.154,2.797c4.956-0.398,11.897,0.103,16.246-2.748c5.619-3.682-1.019-9.074-4.933-10.877
			c-5.424-2.5-11.556-3.521-17.46-4.023c-1.255-0.107-14.839,0.465-15.185-0.358c-0.352-0.837,15.965-1.9,16.956-1.869
			c5.981,0.189,13.295,0.703,18.722,3.55c5.35,2.807,10.993,9.604,6.249,15.326c-4.445,5.361-13.869,6.614-20.304,7.148
			c-11.834,0.982-26.162,0.031-37.425-3.964c-5.379-1.908-14.822-7.507-11.662-14.548C225.543,91.352,236.929,89.926,243.004,89.92z
			"/>
		<path style="fill:#231815;" d="M215.708,143.986c2.589-5.738,6.621-13.591,14.395-9.843c2.801,1.35,4.516,4.209,5.777,6.932
			c0.849,1.835,3.728,7.858,3.059,9.82c-0.182,0.533-6.893-9.674-6.952-9.762c-2.393-3.581-5.898-5.17-9.402-1.944
			c-3.014,2.774-2.858,7.622-5.775,10.448C212.134,154.167,215.536,146.471,215.708,143.986z"/>
		<path style="fill:#231815;" d="M259.036,146.556c4.392-2.889,5.732-9.86,9.446-13.646c4.15-4.232,9.634-5.66,15.133-3.178
			c4.996,2.255,8.887,6.84,11.564,11.5c0.3,0.522,4.639,13.015,3.54,12.674c-0.469-0.145-2.544-5.424-2.914-6.03
			c-1.704-2.785-3.545-5.535-5.617-8.061c-4.376-5.335-10.961-10.292-17.327-5.208c-4.534,3.621-6.004,9.123-9.732,13.294
			c-2.715,3.038-11.988,6.33-14.897,1.504c-0.155-0.257,5.697-0.41,5.941-0.452C256.029,148.635,257.804,148.052,259.036,146.556z"
			/>
		<path style="fill:#231815;" d="M200.157,164.402c1.889-0.647,11.802-2.927,10.535-5.407c-1.468-2.871-11.986,0.593-13.615,1.175
			c-3.338,1.192-17.928,8.245-14.657,13.188c0.792,1.197,3.759,1.919,5.078,2.355c5.276,1.744,11.041,1.788,16.529,2.094
			c12.134,0.676,24.177,3.022,35.978,5.863c12.011,2.891,24.264,5.316,36.023,9.136c4.699,1.527,9.338,3.299,13.71,5.615
			c1.324,0.701,10.034,6.876,11.305,5.8c4.518-3.823-17.309-13.308-19.623-14.011c-10.008-3.044-20.558-4.279-30.755-6.587
			c-11.989-2.714-23.891-5.304-36.024-7.34c-8.209-1.377-19.403-0.641-26.717-5.083C190.48,167.719,196.31,165.717,200.157,164.402z
			"/>
		<path style="fill:#231815;" d="M291.564,208.603c5.508,4.45,15.285,4.935,15.521-4.094c0.094-3.6-1.556-7.383-2.954-10.614
			c-0.678-1.568-3.516-5.679-3.322-7.432c-0.083,0.743,2.979,3.379,3.399,3.935c1.519,2.011,2.763,4.199,3.693,6.543
			c1.947,4.91,3.185,11.683-1.304,15.632c-3.204,2.819-7.567,2.393-11.322,1.028c-2.936-1.067-11.964-6.426-10.54-11.012
			C284.417,203.612,290.247,207.913,291.564,208.603z"/>
		<path style="fill:#231815;" d="M213.95,179.999c7.314,5.366,13.935,12.395,16.67,21.238c1.267,4.096,1.644,8.605,0.578,12.793
			c-0.115,0.453-3.75,8.534-4.433,7.643c-0.237-0.31,1.266-5.034,1.363-5.857c0.294-2.475,0.407-5.046,0.214-7.532
			c-0.348-4.478-1.967-8.846-4.551-12.524c-2.04-2.903-4.457-6.038-7-8.546c-2.224-2.193-4.821-3.941-7.37-5.724
			c-1.352-0.946-4.953-2.607-5.345-4.373C203.984,176.702,212.718,179.445,213.95,179.999z"/>
		<path style="fill:#231815;" d="M317.823,157.706c19.353,13.861,41.289,35.474,41.165,61.054c-0.272-0.244-0.545-0.487-0.817-0.731
			c0.188,0.062,1.646-0.555,1.827-0.742c-0.524,0.54-0.996,1.326-1.804,1.478c-3.142-14.665-11.629-29.289-22.424-39.944
			c-4.367-4.311-8.478-8.896-13.237-12.793c-3.592-2.941-7.41-5.618-11.28-8.181c-0.678-0.449-9.328-6.215-8.898-6.542
			C304.273,149.845,315.725,156.676,317.823,157.706z"/>
		<path style="fill:#231815;" d="M199.886,230.166c-11.115-0.836-22.501-3.57-32.567-8.387
			c-10.423-4.988-19.655-12.731-29.198-19.196c-9.266-6.278-18.254-12.9-27.418-19.313c-3.885-2.719-8.029-5.41-12.61-6.781
			c-1.547-0.463-11.285-2.065-11.951,0.432c0.456-1.71,6.296-2.578,7.744-2.682c3.209-0.23,6.329,0.528,9.316,1.628
			c6.785,2.497,12.525,6.998,18.377,11.116c12.293,8.651,24.984,16.768,37.48,25.124c9.477,6.336,19.725,10.835,30.956,12.921
			c6.661,1.237,13.403,1.981,20.115,0.716c3.469-0.654,6.81-1.791,10.178-2.823c0.588-0.18,6.282-1.461,6.23-1.322
			c-0.947,2.54-11.503,5.581-13.968,6.402C208.463,229.369,204.209,230.07,199.886,230.166z"/>
		<path style="fill:#231815;" d="M109.169,196.774c-2.758-3.668-5.694-7.24-8.931-10.498c-0.885-0.891-4.303-5.035-5.896-4.835
			c-2.417,0.303,6.43,12.275,7.548,13.824c12.132,16.811,24.459,33.615,32.969,52.635c4.095,9.153,7.089,18.694,8.841,28.567
			c1.364,7.685,5.045,24.293-1.122,30.646c-6.58,6.779-19.292-9.456-22.803-14.056c-6.38-8.359-11.34-17.844-15.256-27.578
			c-4.453-11.069-6.871-22.655-10.142-34.086c-1.638-5.725-3.858-11.231-5.727-16.878c-0.464-1.401-2.302-12.02-3.617-12.196
			c-3.79-0.51,1.062,18.225,1.526,19.628c2.697,8.151,5.049,16.369,7.53,24.587c4.812,15.944,11.797,31.666,21.532,45.246
			c6.254,8.724,28.225,32.264,31.748,9.092c2.561-16.842-2.606-36.349-8.48-52.025C131.849,230.054,121.183,212.767,109.169,196.774
			z"/>
		<path style="fill:#231815;" d="M147.994,313.836c9.295,2.439,18.325-3.197,26.638-6.555c4.253-1.718,8.644-3.193,13.262-3.445
			c0.694-0.038,7.926,0.419,7.636,1.038c-0.432,0.921-11.976,2.904-13.56,3.437c-6.018,2.022-11.47,5.203-17.298,7.659
			c-4.047,1.706-8.617,2.402-13.014,2.187c-2.951-0.144-12.806-1.391-14.41-4.657C137.205,313.413,146.674,313.824,147.994,313.836z
			"/>
		<path style="fill:#231815;" d="M197.936,307.978c4.824,12.01,5.852,25.099,7.243,37.846c1.232,11.299,3.155,22.658,2.637,34.06
			c-0.452,9.942-2.284,20.29-6.363,29.409c-2.074,4.636-4.785,9.062-7.878,13.086c-2.497,3.249-6.62,6.688-8.236,10.531
			c0.202-0.203,0.401-0.408,0.596-0.618c-3.384,2.889-4.869,11.283-3.481,15.276c1.639,4.714,6.512,7.418,11.198,8.172
			c-7.822-6.014-7.579-12.87-2.737-20.85c4.308-7.1,9.218-13.65,12.98-21.099c7.849-15.539,8.697-32.188,8.194-49.24
			c-0.486-16.458-1.573-32.372-6.761-48.104c-1.355-4.109-2.912-8.161-4.805-12.055c-1.307-2.689-3.432-8.269-6.475-9.449
			c-2.375-0.922-1.883-0.187-1.192,2.016C194.039,300.726,196.397,304.334,197.936,307.978z"/>
		<path style="fill:#231815;" d="M441.797,160.889c-0.102,10.309-1.718,20.527-1.7,30.852c0.022,12.281,1.87,24.291,4.058,36.343
			c1.884,10.381,5.743,19.758,9.667,29.47c2.19,5.421,3.845,11,5.803,16.501c0.219,0.616,6.319,13.311,7.879,9.348
			c0.506,0.223-1.902,1.168-1.464,1.123c-1.599,0.162-2.27-0.044-3.645-0.873c-2.572-1.552-4.273-5.098-5.588-7.674
			c-3.087-6.046-5.008-12.536-7.495-18.825c-4.979-12.592-7.367-24.731-9.941-37.967c-2.366-12.17-4.087-24.766-4.087-37.192
			c0-6.379-0.083-13.491,2.518-19.464C438.679,160.517,442.455,155.54,441.797,160.889z"/>
		<path style="fill:#231815;" d="M449.164,299.109c-12.928,1.705-25.933,3.344-39.002,2.7c-6.01-0.296-11.959-1.103-17.767-2.691
			c-2.747-0.751-5.499-1.675-8.08-2.89c-0.937-0.441-3.632-2.657-4.335-2.626c2.916-0.129,6.766,1.527,9.747,2.045
			c4.616,0.802,9.259,1.607,13.925,2.064c7.587,0.744,15.098,0.481,22.662-0.299c5.911-0.61,11.81-0.617,17.722-1.418
			c1.09-0.148,19.63-2.264,19.466-1.616C463.041,296.186,451.144,298.498,449.164,299.109z"/>
		<path style="fill:#231815;" d="M396.642,306.934c8.205,8.718,12.683,21.525,14.586,33.215c2.283,14.024,5.565,27.564,3.08,41.81
			c-2.431,13.936-6.187,27.68-7.693,41.767c-1.249,11.678-1.419,23.542,7.707,32.251c4.144,3.954,9.277,8.445,14.034,11.649
			c1.894,1.276,3.414,2.826,3.668-0.303c0.274-3.377-4.657-7.04-6.837-8.734c-4.072-3.164-8.753-5.549-11.801-9.863
			c-4.06-5.747-3.843-12.972-3.467-19.691c1.39-24.809,9.51-48.506,6.436-73.586c-1.771-14.453-3.835-29.286-7.208-43.453
			c-1.263-5.306-4.462-12.755-10.536-13.955C390.063,296.349,395.664,302.892,396.642,306.934z"/>
		<path style="fill:#231815;" d="M194.986,455.501c0.358-0.132,0.697-0.129,1.017,0.009c-3.895,2.409-8.278,3.906-12.109,6.751
			c-3.587,2.663-13.781,9.572-11.067,14.703c2.173,4.109,10.937,6.005,14.889,7.232c4.702,1.46,9.492,2.616,14.199,4.056
			c22.539,6.895,45.642,12.572,69.027,15.764c24.614,3.36,48.548-0.272,72.786-4.43c24.873-4.267,47.895-13.749,71.915-20.98
			c6.523-1.964,13.264-3.244,19.574-5.879c4.45-1.858,13.616-6.36,12.711-12.509c-0.859-5.838-11.406-8.626-15.884-10.241
			c-4.311-1.554-12.896-2.875-15.891-6.688c1.852,2.358,11.786,3.533,14.581,4.331c5.982,1.707,14.578,3.574,18.474,8.911
			c8.727,11.952-14.948,20.744-22.501,23.201c-22.013,7.161-43.671,15.421-65.802,22.239c-25.014,7.707-49.926,11.523-76.077,9.483
			c-24.537-1.914-50.209-8.199-73.576-15.712c-6.829-2.195-13.6-4.573-20.418-6.805c-5.933-1.942-12.841-3.88-17.757-7.867
			C161.265,471.492,186.748,456.829,194.986,455.501z"/>
		<path style="fill:#231815;" d="M378.315,206.128c7.042-3.244,12.672-8.889,19.127-13.089c6.364-4.14,12.785-7.89,18.532-12.911
			c5.58-4.875,10.321-10.566,15.606-15.738c3.182-3.114,9.705-10.337,14.515-10.587c-1.733,0.09-5.943,5.714-7.07,6.921
			c-3.071,3.284-5.988,6.713-8.967,10.079c-7.489,8.465-15.432,15.857-24.791,22.21c-6.418,4.357-12.856,8.706-19.297,13.026
			c-3.918,2.628-8.128,4.695-12.577,6.26c-1.673,0.589-9.54,3.928-11.326,2.431c-0.108-0.091,7.722-3.847,8.38-4.169
			C373.156,209.236,375.792,207.783,378.315,206.128z"/>
		<path style="fill:#231815;" d="M445.208,145.016c3.921-6.425,3.367-12.387,2.579-19.549c-0.486-4.421-0.951-13.755,5.481-14.438
			c-2.577,0.263-2.907,7.54-2.893,9.098c0.042,4.476,1.408,8.786,1.67,13.234c0.182,3.095-6.44,21.218-8.662,19.611
			C442.48,152.319,444.96,145.882,445.208,145.016z"/>
		<path style="fill:#231815;" d="M463.154,123.059c4.089,7.512,13.888,2.069,17.496-2.763c2.418-3.238,3.971-7.008,5.785-10.59
			c0.855-1.69,3.209-7.554,5.317-8.05c-1.177,0.277-4.563,12.821-5.24,14.238c-2.507,5.247-6.222,11.388-12.087,13.374
			c-4.274,1.447-9.784,0.298-12.79-3.163c-1.879-2.163-3.685-11.386,1.724-11.118C461.934,114.916,461.153,123.605,463.154,123.059z
			"/>
		<path style="fill:#231815;" d="M482.495,130.866c4.222-3.301,6.034-9.195,8.054-13.933c0.224-0.525,4.788-9,5.033-8.596
			c0.51,0.843-0.776,4.88-1.038,5.823c-0.994,3.577-2.458,7.407-3.947,10.822c-1.029,2.36-2.357,4.145-4.093,6.074
			c-0.641,0.712-7.66,6.281-7.826,3.875C478.635,134.333,481.925,131.803,482.495,130.866z"/>
		<path style="fill:#231815;" d="M484.602,140.547c4.135-1.866,6.571-6.633,8.708-10.37c0.593-1.038,3.743-7.911,5.08-7.617
			c1.703,0.374-5.045,14.108-5.965,15.348c-1.135,1.531-2.642,2.742-4.197,3.855c-0.234,0.167-7.992,4.406-7.646,1.706
			C480.656,142.889,483.931,141.307,484.602,140.547z"/>
		<path style="fill:#231815;" d="M456.995,171.364c9.077-7.542,19.776-12.801,29.28-19.748c4.395-3.213,8.569-6.775,11.876-11.131
			c0.828-1.091,6.894-10.31,5.936-11.234c0.928,0.896-1.395,7.44-1.748,8.347c-1.264,3.246-3.243,6.098-5.577,8.668
			c-5.622,6.19-12.93,10.884-19.823,15.517c-5.112,3.436-10.625,6.128-15.518,9.916c-0.717,0.555-12.637,10.883-12.17,11.616
			C447.899,181.193,455.645,172.86,456.995,171.364z"/>
		<path style="fill:#231815;" d="M80.303,175.122c-6.448-3.61-9.107-7.944-8.926-15.353c0.077-3.132,0.318-6.204-0.026-9.333
			c-0.119-1.085-1.509-5.436-0.957-6.476c0.274-0.517,4.037,5.922,4.28,6.917c1.055,4.314-0.275,8.9,0.852,13.184
			c0.674,2.559,1.934,4.67,4.038,6.262c0.779,0.589,9.088,4.132,8.308,5.482C87.333,176.741,81.13,175.279,80.303,175.122z"/>
		<path style="fill:#231815;" d="M39.485,162.137c-1.311-5.464,6.441-10.991,11.183-9.411c2.001,0.667,8.93,9.754,10.095,9.385
			c-6.09,2.222-8.145-8.43-14.222-5.233c-1.193,0.628-3.085,2.058-3.403,3.39c-0.243,1.016,2.491,5.045,2.036,5.498
			C44.002,166.928,40.017,163.081,39.485,162.137z"/>
		<path style="fill:#231815;" d="M37.937,171.26c-1.317-10.722,20.498-3.649,23.955,1.161c-0.21-0.292-4.573-0.947-5.196-1.143
			c-3.254-1.023-6.231-2.433-9.695-2.675c-1.403-0.098-4.892-0.551-5.96,0.592c-1.665,1.782,2.22,5.565,1.506,6.213
			C41.405,176.444,38.293,172.144,37.937,171.26z"/>
		<path style="fill:#231815;" d="M72.035,193.524c9.781,5.383,19.534,10.852,29.213,16.417c4.372,2.514,8.582,5.321,12.312,8.734
			c0.521,0.477,7.16,8.039,6.75,8.151c-0.637,0.174-5.257-3.979-5.84-4.387c-2.784-1.952-5.548-3.947-8.379-5.829
			c-6.125-4.071-12.849-7.084-19.321-10.541c-3.848-2.055-7.392-4.632-11.194-6.783c-3.164-1.79-6.411-3.425-9.591-5.186
			c-1.423-0.788-5.395-2.343-6.165-4.015C60.038,190.559,70.345,192.951,72.035,193.524z"/>
		<path style="fill:#231815;" d="M42.012,175.677c-1.05,3.826,6.326,7.124,5.45,9.348c-0.897,2.275-6.5-2.456-7.125-3.214
			c-1.541-1.869-2.571-4.169-1.584-6.744C40.149,171.422,40.864,173.101,42.012,175.677z"/>
		<path style="fill:#231815;" d="M270.857,379.547c9.813,7.377,20.372,7.463,28.782-1.87c3.892-4.319,6.596-9.512,9.925-14.243
			c3.252-4.622,6.844-9.079,8.462-14.585c1.559-5.305,2.217-10.659,4.294-15.838c2.188-5.458,4.697-10.797,7.448-15.994
			c2.014-3.805,4.178-7.529,6.509-11.149c0.813-1.263,6.289-7.419,6.086-8.271c0.18,0.757-2.483,4.552-2.803,5.193
			c-1.434,2.875-2.771,5.8-4.126,8.713c-2.896,6.227-5.752,12.482-8.382,18.826c-3.166,7.638-3.725,16.042-7.014,23.509
			c-2.797,6.35-7.513,11.797-11.072,17.731c-6.562,10.939-16.701,20.7-30.512,16.225c-6.85-2.22-13.125-7.09-17.533-12.73
			c-1.966-2.516-3.663-5.294-4.683-8.333c-0.211-0.627-0.85-8.279-0.404-7.876c0.856,0.783,0.934,4.07,1.318,5.168
			c0.924,2.644,2.403,5.039,4.159,7.206C263.989,374.534,267.259,377.291,270.857,379.547z"/>
		<path style="fill:#231815;" d="M262.064,318.75c9.93,3.939,21.128,2.264,30.821-1.466c6.01-2.313,11.597-5.543,17.006-9.007
			c1.648-1.056,9.513-4.853,10.211-6.508c-2.316,5.491-10.841,10.901-15.622,13.731c-6.47,3.829-13.575,7.02-20.931,8.703
			c-6.206,1.42-12.907,0.676-19.027-0.851c-3.265-0.815-6.371-1.989-9.279-3.692c-0.695-0.407-6.934-4.96-6.058-5.45
			c1.019-0.569,6.754,2.892,7.925,3.27C258.756,318.011,260.362,318.408,262.064,318.75z"/>
		<path style="fill:#231815;" d="M228.108,224.234c3.451,10.221,14.745,16.853,24.093,20.902
			c12.539,5.432,27.986,9.463,41.597,6.389c23.376-5.279,46.509-18.689,61.343-37.6c0.79,0.12-9.076,13.624-9.911,14.486
			c-4.705,4.855-10.122,9.11-15.985,12.482c-11.945,6.872-26.347,12.633-40.159,14.14c-12.974,1.415-27.449-2.044-39.543-6.747
			c-6.481-2.521-13.185-5.97-18.124-10.961c-2.184-2.207-4.141-4.85-5.106-7.833c-0.357-1.105-1.716-7.15,0.249-7.938
			C227.227,221.287,228.035,223.843,228.108,224.234z"/>
		<path style="fill:#231815;" d="M271.907,158.686c-0.574-5.584,1.605-20.343,6.648-10.906
			C281.12,152.582,275.394,167.433,271.907,158.686z"/>
		<path style="fill:#231815;" d="M221.636,158.686c-1.237-3.495-1.697-7.732-0.383-11.287c1.488-4.028,3.761-2.281,4.943,1.127
			c0.878,2.532,0.454,5.569-0.638,7.978C225.251,157.183,221.954,161.76,221.636,158.686z"/>
		<path style="fill:#231815;" d="M236.812,174.811c-8.616-0.636-2.823-8.393,3.691-4.811
			C240.847,173.173,239.121,173.033,236.812,174.811z"/>
		<path style="fill:#231815;" d="M474.332,188.182c3.319,18.757,5.432,37.736,6.533,56.752c0.537,9.279,0.708,18.862-1.497,27.955
			c-0.844,3.481-2.038,6.997-4.042,9.999c-1.211,1.814-2.746,3.538-4.638,4.666c-0.048,0.028-3.783,1.577-3.725,1.314
			c0.121-0.548,3.283-2.315,3.874-3.012c1.674-1.972,2.665-4.472,3.417-6.915c1.805-5.868,2.255-12.245,2.465-18.344
			c0.452-13.103-1.358-26.265-3.022-39.232c-1.054-8.217-1.313-16.447-2.647-24.652c-0.989-6.082-2.193-12.136-3.567-18.142
			c-0.402-1.756-3.413-9.327-2.436-10.996c0.352-0.602,5.024,8.844,5.369,9.704C471.852,180.868,473.09,184.523,474.332,188.182z"/>
		<path style="fill:#231815;" d="M76.059,41.384c-1.433-0.452-4.143-1.481-5.718-4.197c-2.038-3.517-2.394-8.059-1.183-11.918
			c1.562-4.978,5.237-6.827,9.569-9.109c3.818-2.011,6.21-4.358,8.883-7.715c11.914-14.962,36.05-9.071,39.49,10.014
			c2.857,15.848-11.16,34.96-28.464,29.013c-7.399-2.543-10.06-10.543-6.677-17.418c1.694-3.442,4.959-6.748,8.965-7.128
			c3.048-0.289,8.743,2.223,8.955,5.935c-0.08-1.408-5.364-4.054-6.316-4.225c-3.579-0.642-6.751,1.857-8.517,4.749
			c-3.355,5.496-2.069,12.304,4.297,14.406c17.199,5.679,24.878-13.743,20.924-27.432c-3.782-13.093-20.145-16.136-28.958-6.212
			c-2.736,3.08-4.961,5.848-8.677,7.837c-2.872,1.537-6.438,2.201-8.862,4.496C69.352,26.664,68.756,39.417,76.059,41.384z"/>
		<path style="fill:#231815;" d="M124.186,41.777c0.791,1.133,4.457,2.904,5.812,4.746c2.69,3.659,3.095,7.858,0.935,11.898
			c-3.783,7.079-12.45,9.883-17.827,15.454c-4.587,4.752-3.439,11.558-7.297,16.871c-2.502,3.447-6,5.38-9.842,7.034
			c-1.869,0.804-9.751,2.511-10.299,3.603c1.597-3.024,7.376-4.751,10.236-6.511c2.642-1.626,4.919-3.596,6.728-6.145
			c4.315-6.081-0.218-13.608,5.825-18.857c4.852-4.215,11.557-5.908,16.432-10.195C131.852,53.552,128.822,48.326,124.186,41.777z"
			/>
		<path style="fill:#231815;" d="M76.677,53.138c-0.358,0.998,0.049,6.626-0.062,8.552c-0.285,4.927-0.633,9.857-1.261,14.754
			c-1.169,9.124-3.58,18.379-7.058,26.887c-1.489,3.644-3.464,7.084-4.422,10.922c-1.076,4.31-1.111,8.699-1.505,13.092
			c-0.353,3.944-1.284,7.885-2.706,11.583c-0.72,1.872-3.2,8.803-5.682,9.232c1.019-0.176,3.483-9.899,3.758-11.078
			c0.92-3.935,0.937-7.575,0.989-11.557c0.108-8.251,0.634-18.021,4.328-25.517c3.634-7.375,6.479-14.413,8.227-22.471
			C73.019,69.535,73.863,60.86,76.677,53.138z"/>
		<path style="fill:#231815;" d="M58.792,188.367c-0.694,2.32-0.341,9.007-0.941,12.412c-0.498,2.821-0.964,5.749-1.762,8.513
			c-2.248,7.787-6.187,15.327-8.93,22.982c-3.025,8.441-8.155,15.745-11.205,24.175c-1.528,4.222-2.848,8.433-4.588,12.582
			c-0.97,2.313-5.348,12.025-3.716,14.106c-3.086-4.105,0.383-12.43,1.628-16.594c1.208-4.04,2.007-8.107,3.381-12.116
			c2.561-7.469,4.424-15.181,8.433-22.026C49.277,218.432,53.983,203.659,58.792,188.367z"/>
		<path style="fill:#231815;" d="M84.77,105.694c-0.078,0.372,1.078,4.38,1.112,5.324c0.118,3.331-0.341,6.767-1.174,9.992
			c-1.485,5.744-3.748,11.691-6.866,16.716c-2.461,3.965-3.492,8.09-5.421,12.26c-0.815,1.763-3.671,8.375-5.828,8.799
			c0.1-0.02,2.944-9.806,3.196-10.842c1.045-4.278,1.8-8.78,3.229-12.986c1.393-4.103,4.483-7.285,6.342-11.225
			C82.096,117.937,83.221,111.843,84.77,105.694z"/>
		<path style="fill:#231815;" d="M22.81,284.72c-0.745,2.514-1.125,8.702-3.935,12.145c-2.05,2.512-4.775,3.654-7.969,3.036
			c-3.663-0.708-3.322-2.495-3.062-5.758c0.824-10.329,4.521-20.148,8.641-29.563c5.746-13.131,9.777-27.029,15.943-39.931
			c6.141-12.851,8.903-26.425,12.573-40.071c-0.017,0.151-0.035,0.302-0.052,0.453c0.329-6.77,9.947-6.061,13.294-2.145
			c2.64,3.09,2.34,13.642-1.615,16.15c0.958-0.608,1.624-7.905,1.628-9.119c0.012-3.424-0.957-6.032-4.524-7.067
			c-7.528-2.185-6.728,7.114-7.591,12.085c-2.587,14.91-7.608,30.938-13.347,44.937c-5.062,12.347-11.852,23.914-16.734,36.343
			c-1.641,4.178-3.144,8.428-4.191,12.798c-0.345,1.438-2.22,6.821-1.291,7.974c1.975,2.453,6.029-0.436,7.344-1.922
			C20.426,292.237,21.695,288.239,22.81,284.72z"/>
		<path style="fill:#231815;" d="M47.713,146.516c7.532-9.913,19.348,5.686,17.11,13.693c-0.023,0.081-2.528-3.295-2.647-3.506
			c-1.523-2.699-2.137-6.64-5.031-8.362c-0.834-0.497-3.182-1.109-4.098-1.005c-3.942,0.445-1.712,4.617-3.499,5.249
			C47.648,153.258,47.266,147.687,47.713,146.516z"/>
		<path style="fill:#231815;" d="M49.307,173.79c2.97,0.179,8.604-0.979,10.003,2.898c1.451,4.025-2.23,0.182-3.914-0.146
			C53.125,176.099,43.126,177.158,49.307,173.79z"/>
		<path style="fill:#231815;" d="M65.39,162.626c0.031-1.978-0.762-4.874,0.861-6.473c2.245-2.214,1.675,0.064,1.719,2.043
			C68.003,159.761,68.149,166.777,65.39,162.626z"/>
	</g>
</g>
</svg>
