<?xml version="1.0" encoding="utf-8"?>
<!-- Generator: Adobe Illustrator 22.1.0, SVG Export Plug-In . SVG Version: 6.00 Build 0)  -->
<svg version="1.1" id="_x31_1" xmlns="http://www.w3.org/2000/svg" xmlns:xlink="http://www.w3.org/1999/xlink" x="0px" y="0px"
	 viewBox="0 0 720 639.844" style="enable-background:new 0 0 720 639.844;" xml:space="preserve">
<style type="text/css">
	.st0{fill:#94C85C;}
	.st1{fill:#EEEEEF;}
	.st2{fill:#728A93;}
	.st3{fill:#7A6D67;}
</style>
<g>
	<path class="st0" d="M151.082,299.561c18.522-10.238,53.458-66.744,63.437-92.014s2.787-45.116-2.762-56.688
		c-5.549-11.571-11.374-5.137-30.915-23.546s-28.38-49.208,7.9-51.289c36.28-2.081,57.377,0,57.377,0s11.909-62.93,35.474-72.462
		c23.566-9.532,38.288,37.567,39.901,42.911c1.613,5.343,10.458,5.827,10.458,5.827l54.699-1.619c0,0,17.34-54.57,47.545-42.083
		s25.618,37.881,37.682,51.145s29.111,25.605,44.495,41.545s37.707,67.999,50.858,88.015s21.502,36.646,30.545,59.389
		c9.042,22.742,7.573,53.302,7.573,53.302l37.456,43.045c0,0,25.316-19.372,51.823,15.003s3.575,76.296-4.718,86.239
		s-53.322,20.684-53.322,20.684s-522.4,21.246-571.031,11.04s-51.961-14.874-58.504-37.436s5.805-56.962,39.188-58.94
		c33.383-1.978,67.533-7.334,67.533-7.334L151.082,299.561z"/>
	<path class="st1" d="M256.518,167.013c0,0,13.058,82.649-31.302,138.311c77.438,39.96,147.985,86.999,147.985,86.999l93.831-84.556
		c0,0-36.121-80.209-12.13-132.65c-23.068-12.722-13.841,13.141-115.339,4.828C277.74,169.784,256.518,167.013,256.518,167.013z"/>
	<path class="st2" d="M40.416,382.339c-4.151-1.606,3.544-91.71,3.544-91.71l56.51-18.317l52.811,20.779
		c0,0,2.691,12.055,4.573,11.301c0.951-0.381,111.916-5.957,223.938-7.053c109.564-1.073,220.14,2.348,229.784,0.639
		c19.505-3.456,29.199,2.967,29.199,2.967l2.03,44.095c0,0-21.075,30.597-22.767,41.609c-1.692,11.011,13.021,9.525,13.021,9.525
		s-4.092,10.268-0.095,19.853c3.997,9.585,13.544,8.738,13.544,8.738l7.762,12.535l-2.807,119.913l-26.349,0.527
		c0,0-24.251,7.615-36.739,0s-273.254-4.244-316.678,0s-94.504,5.275-104.346,11.867s-11.303,17.508-33,25.172
		c-12.474,4.406-42.572,5.308-62.961,0c-15.073-3.924-22.681-13.75-25.15-15.049c-5.81-3.056-1.58-103.296-1.58-103.296
		s22.999,4.235,26.73-5.929c3.731-10.164,17.744-11.728,12.43-21.11c1.455-13.618,4.098-26.858-4.839-33.367
		c-5.552-11.591-1.836-24.296-13.425-31.92S40.416,382.339,40.416,382.339z"/>
	<path class="st1" d="M98.883,265.682c-38.449,0.569-55.983,11.272-59.696,22.333c-3.713,11.061,31.501,33.607,61.865,33.494
		s62.242-16.756,56.801-33.494C152.412,271.277,119.373,265.378,98.883,265.682z"/>
	<path class="st3" d="M82.698,289.046c-1.408-11.748-8.197-32.778,3.881-40.354c12.079-7.577,29.447-9.456,32.264,6.991
		c2.817,16.447-1.408,37.347-1.408,37.347s-13.613,3.594-23.94,1.45S82.698,289.046,82.698,289.046z"/>
	<path class="st3" d="M80.694,601.827c-0.728,19.414-1.905,29.01,14.81,31.927c16.715,2.917,24.307-12.513,24.307-12.513
		l-2.491-24.702L80.694,601.827z"/>
	<path d="M577.597,222.737c-16.899,20.728-22.071,42.893-10.287,40.42c30.726-6.445,25.408,19.049,28.598,9.198
		C605.057,244.059,577.597,222.737,577.597,222.737z"/>
	<path d="M189.916,263.157c3.214,7.231,10.443,13.664-1.605,16.882c-12.052,3.215-11.134,3.17-8.838-8.44
		C181.77,259.987,189.916,263.157,189.916,263.157z"/>
	<path d="M253.636,33.02c2.155-5.347,4.706-11.196,8.508-17.049c1.859-2.935,4.174-5.83,6.998-8.51
		c1.322-1.394,3.139-2.494,4.739-3.729c1.897-0.93,3.713-2.122,5.868-2.659c8.485-2.695,18.448-0.148,24.476,5.804
		c6.151,5.71,9.436,12.522,11.883,18.728c4.607,12.576,5.732,21.237,6.998,26.212c1.144,4.935,1.431,6.772,0.372,5.208
		c-0.993-1.557-3.308-3.58-6.052-7.742c-2.786-4.108-5.774-10.301-9.28-18.898c-3.482-8.555-8.236-15.508-13.534-18.18
		c-1.266-0.77-2.635-1.025-3.84-1.427c-1.304-0.026-2.513-0.457-3.619-0.207c-2.221,0.134-3.972,0.855-5.351,1.649
		c-1.355,0.921-2.235,1.378-3.054,2.037c-0.847,0.532-1.708,0.905-2.847,1.858c-2.231,1.701-6.513,5.069-11.36,16.844
		c-4.555,11.867-6.508,19.336-8.203,22.702c-1.567,3.427-3.087,2.996-3.384-1.058c-0.188-3.962-0.193-9.304,0.038-13.721
		C253.188,36.471,253.636,33.02,253.636,33.02z"/>
	<path d="M442.911,6.347c-3.049-1.442-6.325-2.101-9.61-2.577l-4.88-0.198c-1.628-0.068-3.36,0.264-5.035,0.4
		c-6.739,1.034-12.697,4.19-17.473,7.724c-9.567,7.245-14.96,15.822-18.382,20.024c-3.454,4.202-6.057,10.816-5.723,16.359
		c0.184,2.768,0.936,5.151,2.424,6.708c1.426,1.552,3.355,2.195,5.887,1.894c4.174-0.584,6.198-3.63,7.614-7.099
		c1.332-3.526,2.353-7.768,2.372-10.965c0.052-1.564,0.809-4.918,2.847-8.934c1.981-4.021,5.214-8.744,9.69-12.508
		c4.424-3.752,10.132-6.532,15.685-6.668c5.708-0.424,10.598,1.145,13.469,3.069c5.897,3.839,9.351,11.172,11.704,18.453
		c2.32,7.361,3.995,14.677,5.751,20.37c1.704,5.87,7.21,8.327,10.052,6.989c1.473-0.596,2.471-1.948,2.569-3.778
		c0.075-1.823-0.673-4.2-2.692-7.924c-4.047-7.495-6.09-13.846-8.866-20.361c-1.313-3.293-3.012-6.73-5.37-10.503
		C452.389,13.168,448.728,9.018,442.911,6.347z"/>
	<path d="M339.219,45.073c6.673,1.018,16.085-1.02,23.935,0c7.84,1.018,10.984,5.102,9.807,5.102c-1.181,0-3.534,4.084-9.417,4.084
		c-5.887,0-10.593,1.02-13.337,2.037c-2.748,1.025-1.572-1.018-9.812-1.018c-8.236,0-9.803-5.104-7.45-6.122
		C335.299,48.133,339.219,45.073,339.219,45.073z"/>
	<path d="M305.825,172.813c-16.518-2.016-33.751-5.387-50.213-10.701c-16.471-5.215-32.128-12.387-45.78-20.594
		c-13.567-8.141-25.318-17.395-31.949-26.958c-3.266-4.753-5.092-9.476-5.275-13.41c-0.202-1.974,0.184-3.738,0.508-5.323
		c0.292-0.751,0.494-1.585,0.805-2.155c0.358-0.499,0.649-0.966,0.904-1.416c2.32-3.189,8.33-5.382,15.539-6.108
		c7.097-0.831,14.753-0.813,21.558-0.959c6.819-0.127,12.89-0.431,17.116-1.465c4.245-1.011,6.471-2.728,5.723-4.885
		c-0.598-1.788-3.525-3.156-8.099-4.461c-4.57-1.274-10.819-2.44-17.855-3.032c-7.031-0.57-14.857-0.636-22.509,0.801
		c-7.525,1.361-15.502,4.866-19.723,10.703c-0.504,0.711-1.082,1.533-1.737,2.457c-0.442,1.048-0.936,2.212-1.473,3.488
		c-1.054,2.567-1.388,5.279-1.562,8.59c-0.216,6.598,2.442,14.262,7.214,20.78c9.605,13.177,25.577,23.649,42.74,32.694
		c17.196,9.127,36.424,16.046,54.209,20.462c17.784,4.544,34.109,6.692,45.837,8.218c23.521,2.923,49.38,3.731,73.513,3.981
		c6.123,0.009,11.774,0.285,17.93,0.033c5.981-0.36,11.596-1.225,16.97-2.04c10.716-1.708,20.429-3.406,28.787-4.115
		c8.363-0.761,15.455-1.437,20.815-1.51c1.369-0.09,2.602-0.085,3.713-0.009c1.111,0.061,2.202-0.073,3.068,0.024
		c1.765,0.134,3.172,0.047,3.948-0.325c0.772-0.372,0.913-1.043,0.118-2.106c-0.795-1.025-2.541-2.673-5.515-3.837
		c-2.969-1.373-7.04-2.184-12.137-2.563c-5.04-0.203-11.064,0.165-17.963,1.324c-13.746,2.353-24.998,5.288-35.384,6.876
		c-5.29,0.85-9.784,1.192-15.055,1.173c-5.106,0.047-10.146,0.094-15.257,0.141C358.942,176.478,337.266,176.516,305.825,172.813z"
		/>
	<path d="M490.64,171.355c1.078,2.054,1.445,4.739,1.087,7.257c-0.372,2.504-1.661,4.753-3.322,6.435
		c-3.384,3.444-7.821,4.438-9.873,4.091c-2.141-0.25-4.32-0.464-5.986-0.257c-1.577,0.261-3.431,0.799-5.078,3.225
		c-1.313,1.929,0.471,4.718,3.609,5.771c3.078,1.14,6.711,0.551,8.57-0.615c1.864-1.02,8.828-3.576,13.102-9.964
		c2.141-3.095,3.242-7.029,3.068-10.475c-0.075-3.453-1.195-6.44-2.278-8.421c-2.231-4.058-6.4-6.826-10.024-8.993
		c-3.685-2.181-6.988-4.108-8.993-5.985c-1.962-1.743-4.508-2.042-6.278-1.31c-0.833,0.405-1.327,1.178-1.002,2.428
		c0.287,1.241,1.544,2.928,3.934,4.202c4.748,2.499,7.915,3.503,10.993,5.194C485.129,165.584,488.465,167.421,490.64,171.355z"/>
	<path d="M502.202,78.634c17.069,18.962,42.274,45.713,55.089,74.271c3.144,7.408,4.612,13.575,5.977,18.62
		c1.289,4.972,2.311,8.915,3.073,11.85c1.666,5.712,2.193,7.733,0.889,5.929c-1.209-1.816-3.784-4.216-6.923-9.08
		c-3.219-4.782-6.485-12.211-10.711-22.092c-9.492-19.586-21.478-33.269-28.363-40.736c-3.572-3.719-4.297-5.003-6.574-8.362
		c-2.311-3.326-6.104-8.793-16.749-20.116c-21.591-22.398-22.565-30.049-15.412-24.495c3.525,2.803,8.466,6.308,12.509,9.165
		C499.073,76.438,502.202,78.634,502.202,78.634z"/>
	<path d="M225.216,184.953c-0.052,2.746-0.569,5.573-0.805,8.534c-0.438,2.921-1.144,5.891-1.741,8.97
		c-1.657,5.995-3.671,12.23-6.471,18.175c-5.454,11.971-12.984,23.232-20.965,32.296c-8.024,9.05-14.824,14.133-19.022,16.877
		c-4.25,2.695-5.991,3.015-4.758,1.755c2.428-2.603,4.762-10.232,15.911-23.534c11.045-13.497,17.191-26.07,19.393-33.617
		c1.148-3.771,1.661-4.713,3.205-7.41c1.129-2.746,3.962-7.33,4.913-18.804c0.649-11.403-0.805-18.163-0.48-21.767
		c0.278-3.604,1.821-3.778,3.468-0.471c0.753,1.654,2.009,3.507,2.824,5.573c0.847,2.108,1.718,4.256,2.494,6.183
		C224.378,181.686,225.216,184.953,225.216,184.953z"/>
	<path d="M119.081,316.057c-8.513,1.173-17.958,0.897-26.876-1.072c-4.527-0.952-9.092-2.174-13.624-3.335
		c-4.617-1.124-8.584-2.318-12.612-3.879c-7.817-3.06-14.866-6.937-18.763-11.273c-1.901-2.127-3.139-4.23-3.247-5.867
		c-0.193-1.611,0.221-2.958,0.776-3.884c0.471-0.933,1.374-1.656,2.273-2.497c1.087-0.775,2.325-1.602,3.864-2.33
		c2.998-1.505,6.711-2.706,9.996-3.934c6.635-2.37,11.972-5.109,10.546-8.979c-1.097-3.041-7.421-4.099-15.455-2.744
		c-3.981,0.718-8.381,2.12-12.377,4.598c-3.981,2.379-7.492,6.32-8.706,10.195c-0.551,1.908-1.478,5.012-0.908,9.029
		c0.433,4.063,2.875,8.449,6.278,11.608c6.866,6.376,16.537,10.371,26.772,13.41c5.195,1.543,10.48,2.461,15.582,3.635
		c5.153,1.128,10.33,2.212,15.356,2.775c10.047,1.112,19.139,0.436,25.605-0.697c6.457-1.091,13.116-3.057,19.384-6.273
		c6.155-3.243,12.254-8.023,15.196-14.955c1.501-3.415,2.071-6.937,2.005-10.64c-0.174-3.733-1.835-7.335-4.09-9.98
		c-4.73-5.288-10.589-7.168-15.271-8.598c-9.723-2.631-17.088,0.396-17.949,2.784c-0.48,1.246,0.536,2.428,3.322,3.288
		c2.777,0.902,7.403,1.439,13.892,2.617c6.353,1.354,11.153,3.969,12.556,7.731c0.56,0.867,0.522,1.981,0.828,2.97
		c-0.099,1.116,0.127,2.172-0.155,3.333c-0.4,2.337-0.932,4.494-2.198,6.47C146.183,307.523,135.265,313.388,119.081,316.057z"/>
	<path d="M18.274,469.243C7.516,458.28-0.833,441.09,0.066,421.643c0.099-1.206,0.296-2.421,0.442-3.637
		c0.16-1.206,0.282-2.388,0.744-3.889c0.8-2.798,1.986-5.187,3.318-7.33c2.668-4.315,5.84-7.903,9.214-11.132
		c6.791-6.397,14.386-11.457,22.481-14.922c8.057-3.378,16.104-4.902,23.163-3.022c3.492,0.928,6.461,2.911,8.344,5.149
		c1.817,2.304,2.767,4.57,3.139,6.466c0.847,3.797,0.362,6.136,0.118,7.245c-0.264,1.105-0.532,1.003-0.687-0.217
		c-0.113-1.232-0.593-2.744-1.506-4.527c-0.988-1.71-2.306-3.837-4.607-5.326c-4.457-3.149-12.226-2.572-22.744,1.981
		c-10.509,4.588-18.89,11.596-24.363,18.236c-2.744,3.319-4.64,6.725-5.454,9.497c-0.216,0.716-0.264,1.255-0.381,1.95
		c-0.047,0.784-0.089,1.543-0.132,2.275c-0.155,1.444-0.085,2.812,0.038,4.07c0.424,4.984,0.452,6.4,0.748,10.421
		c0.019,1.015,0.278,2.16,0.546,3.571c0.221,1.427,0.645,3.072,1.327,5.024c1.327,3.856,3.45,9.241,8.49,15.127
		c10.25,11.726,19.751,13.561,23.939,15.183c4.386,1.491,4,3.008-1.167,3.42c-5.059,0.269-12.127-0.728-17.605-3.013
		c-2.593-1.26-5.097-2.297-6.607-3.382C19.253,469.855,18.274,469.243,18.274,469.243z"/>
	<path d="M42.83,413.496c4.753-1.889,10.457-3.835,16.805-4.612c6.207-0.723,13.624-0.372,19.318,4.051
		c2.673,2.4,4.113,5.217,4.57,7.542c0.165,1.18,0.254,2.221,0.296,3.119c0.009,0.895-0.264,1.649-0.391,2.282
		c-0.664,2.518-1.304,3.09-1.327,2.264c-0.376-1.515-1.478-5.792-6.381-10.166c-2.687-2.179-6.198-2.725-9.026-2.864
		c-2.927,0.028-5.332,0.532-7.059,1.008c-1.727,0.612-2.235,0.513-3.675,0.504c-1.393,0.144-3.864,0.108-8.899,2.195
		c-4.951,2.167-7.793,3.465-9.454,3.887c-1.737,0.375-2.358-0.377-1.28-1.825c0.993-1.508,2.584-3.324,3.958-4.824
		C41.682,414.643,42.83,413.496,42.83,413.496z"/>
	<path d="M52.915,434.141c4.042-0.535,9.04-0.671,13.902,0.582c4.866,1.164,9.501,3.437,12.998,6.233
		c6.951,5.717,7.275,10.232,6.438,9.292c-0.998-0.806-4.475-0.709-9.407-4.164c-5.012-3.493-9.798-4.577-12.438-4.546
		c-1.332,0.002-1.642-0.163-2.598-0.622c-0.951-0.287-2.617-1.074-6.499-0.549c-3.821,0.589-6.25,1.053-7.723,0.702
		c-1.459-0.318-1.784-1.246-0.729-2.101c1.007-0.897,2.414-2.136,3.69-3.138C51.809,434.841,52.915,434.141,52.915,434.141z"/>
	<path d="M57.442,455.866c3.238,0.017,7.003,0.424,10.669,1.847c3.638,1.383,7.167,3.879,9.12,7.182
		c1.972,3.291,1.944,6.169,1.511,7.684c-0.428,1.555-1.012,1.976-1.106,1.522c-0.296-0.987-2.791-2.323-5.002-5.479
		c-2.4-3.361-5.897-4.398-7.718-4.433c-0.936-0.057-1.125-0.205-1.722-0.685c-0.593-0.379-1.699-1.14-4.419-1.121
		c-2.654,0.097-4.325,0.005-5.482-0.481c-1.139-0.492-1.544-1.383-0.739-2.089c0.753-0.754,1.873-1.743,2.922-2.591
		C56.571,456.467,57.442,455.866,57.442,455.866z"/>
	<path d="M623.542,359.593c1.402-2.268,2.894-4.556,4.532-6.88c1.718-2.297,3.214-4.709,6.221-7.271
		c4.946-4.167,11.087-7.205,17.676-8.725c13.149-2.867,28.26-0.144,39.658,9.391c5.915,4.789,9.751,11.516,12.334,18.062
		c2.48,6.657,3.897,13.476,4.584,20.229c1.275,13.431,0.32,27.027-4.089,39.344c-2.212,6.136-4.955,11.297-7.967,15.972
		c-3.167,4.617-6.292,8.169-9.37,11.386c-3.073,3.175-6.104,5.818-9.106,7.9c-3.101,2.037-5.883,3.646-9.619,3.943
		c-3.675,0.28-6.08-2.056-6.965-3.924c-0.927-1.969-0.988-3.194-1.035-4.061c-0.047-1.677,0.254-1.545,0.744,0.226
		c0.532,1.618,1.793,4.36,4.772,4.859c2.974,0.327,5.859-1.924,8.894-4.982c3.026-3.128,6.278-7.309,9.887-12.548
		c1.769-2.617,3.751-5.526,5.379-8.656c1.727-3.284,3.431-6.887,4.922-10.899c3.04-8.016,4.16-16.187,4.372-23.925
		c0.169-7.74-0.574-14.986-1.986-21.371c-1.496-6.353-3.624-11.893-6.334-16.046c-2.706-4.193-5.788-6.805-8.894-8.687
		c-3.045-1.875-5.219-2.688-7.139-3.569c-1.972-0.77-3.751-1.566-6.541-2.266c-2.762-0.7-6.626-1.503-12.438-0.725
		c-2.899,0.344-6.264,1.225-9.854,3.06c-1.798,0.909-3.619,2.113-5.421,3.609c-1.379,1.048-3.078,3.43-4.744,5.863
		c-6.631,10.06-11.125,18.955-13.412,25.618c-1.139,3.267-1.529,6.315-1.266,7.481c0.353,1.472,1.52,2.306,2.899,2.603
		c2.918,0.636,4.687,0.66,4.461,1.449c-0.245,0.521-1.967,2.073-6.344,1.816c-2.268-0.207-4.64-1.738-5.675-4.28
		c-1.073-2.575-1.054-5.015-0.932-7.368c0.334-4.713,1.534-9.16,2.729-13.08C620.916,365.324,623.542,359.593,623.542,359.593z"/>
	<path d="M651.369,380.665c-3.544,1.227-7.045,5.097-9.553,9.702c-2.56,4.626-4.348,9.959-5.779,14.83
		c-2.753,9.709-3.788,14.086-4.099,12.557c-0.033-1.477-2.833-4.914-1.148-13.202c1.868-8.098,4.226-14.401,5.915-18.142
		c0.781-1.896,1.369-2.257,2.447-3.439c1.247-1.041,2.777-3.281,8.179-6.706c2.767-1.654,5.52-2.08,7.492-1.948
		c2.005-0.094,3.304,0.801,4.066,1.168c1.506,0.963,0.927,1.771-0.598,1.917c-1.572-0.033-3.497,0.824-4.828,1.526
		C652.286,379.904,651.369,380.665,651.369,380.665z"/>
	<path d="M663.242,400.338c-6.155,4.878-11.351,15.532-14.702,24.108c-3.379,8.536-4.499,12.475-4.763,11.099
		c0.014-1.305-2.649-4.713-0.386-12.246c2.395-7.285,4.894-12.868,6.339-16.243c0.692-1.703,1.172-2.028,2.132-3.088
		c1.026-1.022,2.489-2.815,6.278-6.786c3.93-3.922,7.483-5.041,9.186-4.836c1.68,0.104,1.647,1.076,0.522,1.927
		c-1.181,0.794-2.414,2.348-3.247,3.656C663.75,399.245,663.242,400.338,663.242,400.338z"/>
	<path d="M668.663,422.164c-3.341,2.704-5.45,8.934-8.518,13.518c-3.134,4.692-6.466,5.37-5.977,4.633
		c0.461-0.74-0.692-3.272,1.224-6.869c1.925-3.642,3.049-6.871,3.628-8.897c0.678-1.993,0.88-0.773,4.739-5.625
		c2.066-2.407,4.155-3.046,5.275-2.871c1.134,0.151,1.468,0.994,1.021,1.694C669.044,419.139,668.663,422.164,668.663,422.164z"/>
	<path d="M586.162,213.796c9.224,15.042,18.49,37.709,20.655,57.639c1.195,10.171,0.466,17.329-0.334,21.385l-3.991-1.95l0.311,0.09
		l0.762,0.612l-0.108-0.024l-0.522-0.073l0.179-0.278c0.184-0.662,0.461-1.411,0.744-1.703c0.574-0.622,0.729-0.396,0.56,0.375
		c-0.325,1.025,1.045,1.957-0.339,3.415l-0.249,0.266l-0.226-0.497c-1.529-3.394-4.01-9.045-5.671-19.129
		c-2.306-14.204-6.678-24.916-9.807-30.708c-1.539-2.93-1.699-3.835-2.301-6.357c-0.278-1.274-0.739-2.909-1.704-5.309
		c-0.918-2.421-2.372-5.613-4.922-9.705c-5.148-8.108-8.386-12.755-9.501-15.603c-1.082-2.881,0.146-3.825,2.725-2.172
		c2.631,1.543,6.066,3.87,8.885,5.91c1.374,1.065,2.593,2.009,3.464,2.685C585.682,213.341,586.162,213.796,586.162,213.796z"/>
	<path d="M76.238,271.642c0.127-2.452,0.207-5.031,0.254-7.709c0.009-1.34,0.024-2.706,0.038-4.094
		c0.019-0.777-0.028-1.208,0.033-2.282c0.056-1.084,0.165-2.169,0.466-3.234c1.04-4.372,3.981-7.688,6.988-10.001
		c3.092-2.287,6.475-3.868,10.029-4.826c3.61-0.923,7.139-1.505,11.403-0.949c4.085,0.539,7.826,2.162,11.045,4.407
		c3.172,2.398,6.061,4.996,7.873,9.796c0.442,1.225,0.659,3.057,0.631,4.124l-0.056,2.224c-0.052,1.477-0.104,2.937-0.155,4.379
		c-1.017,23.074-5.097,32.31-5.097,28.85c0-3.467-4.08-10.388-4.08-27.698c-0.019-2.165-0.033-4.273-0.047-6.324l-0.024-1.526
		l-0.108-0.629c-0.075-0.377-0.447-0.994-0.781-1.533c-1.624-2.308-4.297-4.113-6.734-4.991c-2.522-0.949-4.701-1.003-6.805-0.66
		c-2.174,0.339-4.042,1.025-5.478,1.755c-2.819,1.517-3.6,1.755-5.605,2.763c-0.955,0.521-2.179,1.366-2.955,2.871
		c-0.729,0.617-0.555,5.988-0.635,11.827c0,24.233-5.097,28.848-6.113,21.922C79.297,283.184,76.238,271.642,76.238,271.642z"/>
	<path d="M124.785,612.764c-0.127,2.061-0.207,4.23-0.249,6.485l-0.019,0.862l-0.099,1.314c-0.042,0.886-0.249,1.753-0.48,2.624
		c-0.447,1.743-1.261,3.338-2.193,4.81c-4.033,5.679-9.84,8.492-15.765,10.046c-3.078,0.709-5.986,1.159-9.596,0.827
		c-3.45-0.353-6.715-1.467-9.6-3.086c-2.894-1.628-5.412-3.773-7.525-6.525c-1.026-1.432-1.981-3.013-2.626-5.125
		c-0.348-1.098-0.471-2.386-0.48-3.533l0.085-1.833c1.021-19.404,5.101-27.17,5.101-24.259c0,2.916,4.08,8.734,4.08,23.291
		c0.005,0.912,0.005,1.809,0.009,2.695c0.042,0.523,0.056,0.669,0.292,1.187c0.414,0.937,1.242,2.002,2.165,2.876
		c1.868,1.79,4.184,2.989,6.287,3.559c2.174,0.579,3.948,0.549,5.76,0.217c1.826-0.33,3.388-0.907,4.626-1.491
		c2.409-1.286,3.12-1.354,5.04-2.019c0.885-0.375,2.165-0.916,3.355-2.146c0.621-0.601,1.12-1.366,1.393-2.313l0.146-0.761
		l0.061-0.424l0.014-0.81c0.005-1.1,0.014-2.282,0.019-3.557c0-20.377,5.101-24.259,6.118-18.436
		C121.726,603.058,124.785,612.764,124.785,612.764z"/>
	<path d="M88.459,288.015c1.346,1.201,3.826,1.644,6.424,1.731c2.612,0.137,5.426-0.094,8.047,0.349
		c5.252,0.784,8.09,4.402,7.233,4.551c-0.838,0.024-2.08,4.449-6.635,4.617c-4.475,0.167-8.198,0.881-10.626,1.548
		c-1.209,0.342-1.525-0.012-2.334-0.546c-0.819-0.579-2.141-1.274-5.501-2.598c-3.44-1.425-4.687-4.275-4.306-5.983
		c0.353-1.783,1.934-2.238,2.654-2.195c0.842,0.148,2.207-0.134,3.228-0.556C87.716,288.497,88.459,288.015,88.459,288.015z"/>
	<path d="M45.945,310.378c-1.016,13.987,1.021,33.73,0,50.183c-1.016,16.448-5.097,23.032-5.097,20.566
		c0-2.473-4.08-7.406-4.08-19.746c0-12.34-1.016-22.207-2.033-27.967c-1.026-5.764,1.016-3.293,1.016-20.568
		s5.097-20.566,6.113-15.629C42.891,302.15,45.945,310.378,45.945,310.378z"/>
	<path d="M51.917,525.951c-0.254,8.948-0.32,18.818-0.287,29.246c0.038,5.213,0.071,10.567,0.108,16.015
		c0.028,2.725,0.056,5.474,0.085,8.239l0.024,2.078l0.024,0.309l0.598,0.4L55,583.589c1.12,0.636,2.32,1.149,3.501,1.694
		c2.367,1.076,4.814,2.04,7.327,2.852c5.007,1.675,10.207,2.909,15.445,3.785c10.49,1.767,21.125,2.037,31.116,1.328
		c20.038-1.406,33.408-6.751,38.754-12.06c2.631-2.648,3.642-5.064,4.038-6.268c0.513-1.211,0.758-1.138,0.621,0.391
		c-0.066,1.515-0.386,3.411-1.294,5.87c-0.946,2.443-2.847,5.253-5.911,8.065c-6.118,5.618-17.003,10.986-33.159,12.929
		c-16.16,1.811-30.853,0.754-43.173-1.774c-6.16-1.265-11.727-2.925-16.622-4.786c-2.428-0.996-4.72-1.924-6.8-2.982
		c-0.527-0.252-1.04-0.499-1.548-0.742c-0.767-0.445-1.52-0.881-2.259-1.31c-1.468-0.919-3.101-1.68-4.334-2.657
		c-0.099-3.036-0.179-5.526-0.249-7.705c-0.042-1.326-0.047-2.461-0.024-3.547c0.047-2.172,0.207-4.146,0.4-7.041
		c0.381-5.787,0.889-15.259,0.889-37.363c0-44.21,5.101-52.628,6.118-39.996C48.858,504.898,51.917,525.951,51.917,525.951z"/>
	<path d="M318.997,552.21c-8.339,0.283-16.791,0.57-25.012,0.848c-11.572,0.332-33.883,1.008-54.83,2.021
		c-20.946,0.97-40.561,2.428-46.66,2.377c-4.118-0.207-8.734,0.033-13.294,0.77c-4.537,0.594-9.054,1.882-12.857,3.479
		c-3.784,1.465-6.932,3.83-8.659,6.098c-1.746,2.332-2.118,4.841-0.744,7.533c1.115,2.2,3.341,3.448,6.08,4.016
		c1.374,0.283,2.885,0.393,4.475,0.36c1.661,0.054,3.431-0.016,5.233-0.207c3.567-0.438,7.435-1.135,11.078-2.005
		c3.591-0.949,6.96-2.042,9.567-3.13c3.346-1.573,22.062-5.142,43.022-7.735c20.937-2.676,43.949-4.685,55.225-5.792
		c11.887-1.138,23.149-1.858,30.829-1.816c5.595-0.019,41.705-1.025,85.315-3.097c43.582-1.995,94.779-2.779,130.549-0.299
		c8.796,0.523,16.626,1.192,23.615,1.899c7.04,0.561,12.739,1.651,18.175,2.815c10.683,2.358,19.026,4.07,25.657,4.506
		c6.866,0.532,11.516-0.32,14.899-0.643c3.341-0.405,5.718-0.695,8.071-0.98c4.626-0.509,8.226-1.804,11.003-3.076
		c2.753-1.361,5.064-2.612,6.245-4.219c0.555-0.813,0.729-1.71,0.24-2.699c-0.494-1.01-1.675-2.082-3.6-2.883
		c-3.85-1.658-10.17-1.679-17.6,0.426c-3.605,0.985-6.584,1.877-9.991,2.622c-3.492,0.773-6.814,1.23-12.527,0.846
		c-5.591-0.297-12.796-1.628-23.116-3.517c-5.068-0.952-11.44-1.757-18-2.165c-6.673-0.546-14.165-1.041-22.603-1.442
		c-36.029-2.035-87.226-0.994-131.175,1.227C363.686,550.655,326.828,551.842,318.997,552.21z"/>
	<path d="M254.398,304.894c-31.441-1.093-64.416,4.221-88.186,2.542c-11.897-0.933-10.269-3.09-4.033-4.862
		c6.245-1.809,17.116-3.717,24.424-3.981c14.607-0.438,40.971-1.901,61.569-2.749c5.125-0.193,17.888-0.742,34.349-0.77
		c16.377-0.172,36.472-0.384,56.472-0.596c40.001-0.365,79.64-0.989,88.449-0.737c17.624,0.108,155.6,2.264,187.939,0.867
		c16.113-0.716,26.984,0.483,32.17,2.028c5.181,1.529,4.621,3.71-2.762,4.433c-7.37,0.77-25.803,1.025-43.404,0.907
		c-17.605-0.035-34.471-0.068-38.876-0.078c-8.814-0.038-102.76-3.802-123.316-3.048c-20.565,0.44-79.277,0.556-102.765,0.714
		C312.912,299.926,265.961,305.12,254.398,304.894z"/>
	<path d="M649.02,307.184c-2.179,6.958-0.381,17.68-0.395,26.136c-0.089,8.374-2.221,12.616-2.729,11.561
		c-0.372-1.098-5.426-2.803-6.334-10.032c-0.833-7.043-1.802-12.621-2.758-15.998c-0.8-3.39,0.795-1.868,1.944-11.85
		c0.725-5.05,2.88-7.851,4.687-8.687c1.76-0.848,3.078,0.024,3.162,1.392C646.681,302.539,649.02,307.184,649.02,307.184z"/>
	<path d="M656.559,482.966c-1.017,14.677,1.016,35.398,0,52.664c-1.017,17.266-5.097,24.172-5.097,21.583
		c0-2.593-4.08-7.771-4.08-20.721s-1.016-23.305-2.038-29.349c-1.021-6.051,1.021-3.456,1.021-21.586
		c0-18.13,5.097-21.583,6.113-16.401C653.5,474.331,656.559,482.966,656.559,482.966z"/>
	<path d="M683.261,497.278c2.786,14.168,1.774,30.612,2.042,46.605c0.866,15.28,4.941,31.943,10.612,45.077
		c2.89,6.612,6.047,11.678,9.158,15.391c1.689,1.628,3.106,3.359,4.682,4.376c1.449,1.303,2.918,2.063,4.198,2.768
		c1.247,0.839,2.4,1.227,3.327,1.583c0.927,0.379,1.628,0.709,2.089,0.97c0.922,0.525,0.838,0.768-0.297,0.619
		c-1.125-0.177-2.574-0.009-4.518-0.009c-1.849-0.32-4.438-0.247-7.275-1.493c-5.765-2.014-13.558-7.761-18.913-18.764
		c-5.492-10.892-8.278-21.319-10.518-30.207c-1.026-4.473-1.906-8.576-2.518-12.312c-0.711-3.71-0.998-7.328-1.257-10.044
		c-0.489-5.587-0.155-7.106,0.297-11.353c0.226-2.108,0.513-4.892,0.664-9.118c0.104-4.202,0.245-9.945-0.88-17.529
		c-1.148-7.575-3.082-12.986-5.36-16.361c-2.278-3.359-4.786-5.121-6.57-6.27c-3.666-2.085-3.228-3.766,1.887-3.022
		c2.461,0.509,5.384,1.613,7.963,3.5c2.584,1.858,4.81,4.341,6.414,6.72c1.609,2.379,2.833,4.629,3.581,6.247
		C682.871,496.279,683.261,497.278,683.261,497.278z"/>
	<path d="M148.734,388.89c2.165-10.162-0.805-20.858,0.809-28.445c1.614-7.585,8.076,1.896,8.076,6.638s0,13.273,0,19.909
		s0,52.141,0,57.829c0,5.686-1.614,50.249,0,60.675c1.619,10.428-5.652,14.222-6.461,9.478c-0.809-4.739-0.809-23.696-0.809-26.542
		c0-2.845,3.233-33.182,2.424-39.817c-0.805-6.64,0-25.597,0-33.184C152.772,407.847,147.924,392.68,148.734,388.89z"/>
	<path d="M334.584,151.35c-1.788,1.967-6.687,0.629-8.908-1.776c-2.447-2.638-2.452-6.263,0.664-7.201
		c2.795-0.841,4.682,0.935,6.593,3.093C335.087,147.897,335.609,150.221,334.584,151.35z"/>
	<path d="M360.763,148.45c1.609,0.594,5.064-0.546,7.539-2.685c2.899-2.506,3.167-5.526-0.061-6.765
		c-2.725-1.051-5.76,0.822-7.153,3.347C359.516,145.19,359.822,148.104,360.763,148.45z"/>
	<path d="M278.234,100.658c-8.603-3.309-8.254-23.887-1.642-30.873c6.607-6.986,14.019-0.751,14.805,10.136
		C292.182,90.814,287.909,104.389,278.234,100.658z"/>
	<path d="M421.494,67.485c-8.104-0.139-8.334,10.79-7.647,16.036c0.682,5.248,0.645,12.142,2.409,14.884
		c1.765,2.739,4.414,6.803,10.4,5.196c5.986-1.614,7.45-12.178,7.52-18.488c0.066-6.313,0.193-11.589-4.485-15.798
		C425.014,65.109,421.494,67.485,421.494,67.485z"/>
</g>
</svg>
